<svg xmlns="http://www.w3.org/2000/svg" width="1200" height="720" viewBox="0 0 1200 720">
<rect width="1200" height="720" fill="#f8fafc" />
<text x="90" y="32" font-size="28" font-family="Segoe UI, Arial, sans-serif" fill="#0f172a">US Stocks Strategy Value - Last 252 Trading Days</text>
<text x="90" y="54" font-size="15" font-family="Segoe UI, Arial, sans-serif" fill="#475569">Initial capital assumed: $100,000</text>
<rect x="90" y="60" width="890" height="580" fill="#ffffff" stroke="#cbd5e1" />
<line x1="90" y1="640.00" x2="980" y2="640.00" stroke="#e2e8f0" stroke-width="1" /><text x="78" y="645.00" font-size="14" text-anchor="end" fill="#475569">$84,454</text><line x1="90" y1="495.00" x2="980" y2="495.00" stroke="#e2e8f0" stroke-width="1" /><text x="78" y="500.00" font-size="14" text-anchor="end" fill="#475569">$96,594</text><line x1="90" y1="350.00" x2="980" y2="350.00" stroke="#e2e8f0" stroke-width="1" /><text x="78" y="355.00" font-size="14" text-anchor="end" fill="#475569">$108,733</text><line x1="90" y1="205.00" x2="980" y2="205.00" stroke="#e2e8f0" stroke-width="1" /><text x="78" y="210.00" font-size="14" text-anchor="end" fill="#475569">$120,873</text><line x1="90" y1="60.00" x2="980" y2="60.00" stroke="#e2e8f0" stroke-width="1" /><text x="78" y="65.00" font-size="14" text-anchor="end" fill="#475569">$133,013</text>
<line x1="90.00" y1="60" x2="90.00" y2="640" stroke="#f1f5f9" stroke-width="1" /><text x="90.00" y="668" font-size="14" text-anchor="middle" fill="#475569">2025-03-17</text><line x1="536.22" y1="60" x2="536.22" y2="640" stroke="#f1f5f9" stroke-width="1" /><text x="536.22" y="668" font-size="14" text-anchor="middle" fill="#475569">2025-09-16</text><line x1="980.00" y1="60" x2="980.00" y2="640" stroke="#f1f5f9" stroke-width="1" /><text x="980.00" y="668" font-size="14" text-anchor="middle" fill="#475569">2026-03-17</text>
<polyline fill="none" stroke="#1d4ed8" stroke-width="2.5" points="90.00,454.31 92.44,464.02 94.88,458.76 97.32,458.07 99.75,458.92 107.07,440.88 109.51,447.60 111.95,451.55 114.38,444.68 116.82,457.83 124.14,443.49 126.58,456.78 129.01,459.68 131.45,466.45 133.89,532.93 141.21,546.53 143.64,556.60 146.08,514.92 148.52,535.93 150.96,518.86 158.27,511.70 160.71,516.22 163.15,521.13 165.59,535.96 175.34,560.32 177.78,540.83 180.22,543.41 182.66,544.42 185.10,542.78 192.41,534.44 194.85,534.70 197.29,538.16 199.73,554.38 202.16,535.38 209.48,539.05 211.92,548.95 214.36,539.09 216.79,547.68 219.23,553.41 226.55,544.28 228.99,545.15 231.42,550.31 233.86,532.04 236.30,520.15 243.62,516.45 246.05,517.17 248.49,528.72 250.93,534.40 253.37,536.89 263.12,521.19 265.56,523.29 268.00,522.02 270.44,507.84 277.75,502.11 280.19,491.73 282.63,490.68 285.07,511.99 287.51,507.98 294.82,505.66 297.26,495.58 299.70,488.43 302.14,487.42 304.58,508.22 311.89,493.99 314.33,501.59 316.77,507.82 321.64,511.14 328.96,486.51 331.40,468.07 333.84,469.78 336.27,460.32 338.71,456.38 346.03,447.10 348.47,472.65 350.90,458.23 353.34,442.23 363.10,453.38 365.53,454.40 367.97,441.14 370.41,438.87 372.85,441.87 380.16,439.46 382.60,420.48 385.04,414.91 387.48,399.25 389.92,413.38 397.23,408.23 399.67,430.54 402.11,415.51 404.55,404.41 406.99,397.05 414.30,384.26 416.74,384.11 419.18,373.57 421.62,362.36 424.05,400.73 431.37,370.13 433.81,377.90 436.25,373.58 438.68,369.17 441.12,360.81 448.44,362.75 450.88,345.19 453.32,349.30 455.75,344.09 458.19,348.05 465.51,352.17 467.95,389.88 470.38,399.37 472.82,405.94 475.26,381.96 482.58,384.91 485.01,380.03 487.45,376.93 489.89,363.27 492.33,394.98 502.08,395.60 504.52,384.90 506.96,378.29 509.40,384.63 516.71,385.90 519.15,367.50 521.59,368.38 524.03,351.93 526.47,352.73 533.78,345.68 536.22,344.77 538.66,336.78 541.10,341.78 543.53,335.80 550.85,332.16 553.29,325.17 555.73,326.60 558.16,324.11 560.60,319.11 567.92,324.80 570.36,322.61 572.79,299.64 575.23,307.94 577.67,311.84 584.99,303.65 587.42,315.56 589.86,303.35 592.30,300.59 594.74,337.77 602.05,294.60 604.49,314.65 606.93,302.77 609.37,296.76 611.81,297.74 619.12,292.51 621.56,305.39 624.00,312.92 626.44,300.46 628.88,291.35 636.19,267.70 638.63,256.09 641.07,245.39 643.51,262.19 645.95,265.31 653.26,255.14 655.70,275.88 658.14,256.98 660.58,272.22 663.01,288.98 670.33,254.94 672.77,252.76 675.21,236.43 677.64,272.56 680.08,273.34 687.40,280.86 689.84,287.97 692.27,275.71 694.71,303.57 697.15,292.76 704.47,239.28 706.90,227.80 709.34,214.59 714.22,211.33 721.53,227.91 723.97,230.76 726.41,227.33 728.85,238.99 731.29,237.56 738.60,244.62 741.04,247.82 743.48,233.21 745.92,227.53 748.36,241.88 755.67,243.96 758.11,255.91 760.55,271.94 762.99,264.49 765.42,253.40 772.74,245.45 775.18,241.02 777.62,234.23 782.49,232.67 789.81,231.43 792.25,234.13 794.68,242.51 799.56,237.56 806.88,231.00 809.32,225.15 811.75,222.31 814.19,215.76 816.63,218.72 823.95,217.42 826.38,232.03 828.82,228.70 831.26,240.50 833.70,245.65 843.45,261.14 845.89,244.84 848.33,237.79 850.77,247.00 858.08,241.00 860.52,239.04 862.96,240.39 865.40,236.63 867.84,233.22 875.15,219.40 877.59,188.29 880.03,174.05 882.47,171.51 884.90,155.69 892.22,167.44 894.66,176.75 897.10,158.47 899.53,159.97 901.97,161.60 911.73,176.76 914.16,166.50 916.60,167.41 919.04,168.26 926.36,151.04 928.79,148.31 931.23,153.80 933.67,167.04 936.11,137.58 943.42,147.02 945.86,161.82 948.30,172.74 950.74,195.20 953.18,194.03 960.49,185.20 962.93,188.68 965.37,187.81 967.81,184.03 970.25,178.47 977.56,175.25 980.00,180.12" /><polyline fill="none" stroke="#0f766e" stroke-width="2.5" points="90.00,454.31 92.44,454.31 94.88,454.31 97.32,454.31 99.75,454.31 107.07,454.31 109.51,454.31 111.95,454.31 114.38,454.31 116.82,454.31 124.14,455.46 126.58,465.30 129.01,464.41 131.45,494.39 133.89,562.52 141.21,562.33 143.64,576.75 146.08,500.07 148.52,535.21 150.96,511.92 158.27,505.17 160.71,506.22 163.15,525.71 165.59,520.51 175.34,544.55 177.78,523.66 180.22,514.32 182.66,502.20 185.10,489.64 192.41,484.16 194.85,481.07 197.29,481.11 199.73,479.22 202.16,459.17 209.48,461.22 211.92,465.70 214.36,456.04 216.79,456.59 219.23,458.09 226.55,445.82 228.99,438.39 231.42,435.46 233.86,418.84 236.30,412.29 243.62,409.62 246.05,410.85 248.49,424.18 250.93,427.92 253.37,432.33 263.12,413.65 265.56,414.61 268.00,414.02 270.44,399.87 277.75,391.21 280.19,386.68 282.63,382.27 285.07,392.10 287.51,395.13 294.82,401.60 297.26,398.74 299.70,395.01 302.14,395.09 304.58,420.08 311.89,412.75 314.33,417.15 316.77,428.56 321.64,428.04 328.96,408.44 331.40,389.54 333.84,397.55 336.27,391.78 338.71,384.65 346.03,370.86 348.47,383.69 350.90,368.60 353.34,349.50 363.10,358.91 365.53,367.46 367.97,355.08 370.41,354.94 372.85,364.16 380.16,361.24 382.60,355.27 385.04,351.75 387.48,335.27 389.92,338.07 397.23,334.36 399.67,348.81 402.11,332.26 404.55,324.16 406.99,318.98 414.30,312.92 416.74,318.27 419.18,311.29 421.62,298.43 424.05,337.26 431.37,307.77 433.81,313.94 436.25,297.41 438.68,305.41 441.12,292.55 448.44,293.82 450.88,278.14 453.32,288.91 455.75,277.30 458.19,280.24 465.51,281.06 467.95,309.68 470.38,314.35 472.82,320.35 475.26,295.09 482.58,295.33 485.01,291.05 487.45,289.63 489.89,276.46 492.33,300.37 502.08,306.54 504.52,291.94 506.96,275.49 509.40,276.15 516.71,268.59 519.15,260.22 521.59,252.64 524.03,249.20 526.47,252.64 533.78,236.81 536.22,228.76 538.66,229.94 541.10,236.65 543.53,234.91 550.85,245.70 553.29,257.36 555.73,258.48 558.16,265.89 560.60,261.76 567.92,267.20 570.36,273.92 572.79,266.71 575.23,274.33 577.67,271.97 584.99,266.95 587.42,272.63 589.86,275.29 592.30,278.04 594.74,298.78 602.05,276.66 604.49,272.09 606.93,254.66 609.37,265.17 611.81,263.65 619.12,256.45 621.56,267.64 624.00,271.63 626.44,262.04 628.88,249.71 636.19,239.33 638.63,244.29 641.07,244.39 643.51,247.38 645.95,253.58 653.26,247.54 655.70,267.20 658.14,260.64 660.58,283.75 663.01,283.09 670.33,254.73 672.77,258.54 675.21,245.14 677.64,277.45 680.08,277.81 687.40,296.52 689.84,312.32 692.27,305.94 694.71,335.86 697.15,332.50 704.47,298.30 706.90,299.23 709.34,283.76 714.22,275.43 721.53,290.49 723.97,295.85 726.41,283.05 728.85,287.39 731.29,285.01 738.60,290.38 741.04,292.85 743.48,272.50 745.92,274.30 748.36,298.75 755.67,306.96 758.11,319.36 760.55,331.47 762.99,326.72 765.42,309.13 772.74,296.41 775.18,282.38 777.62,279.19 782.49,278.99 789.81,281.25 792.25,281.54 794.68,290.60 799.56,282.47 806.88,274.43 809.32,280.44 811.75,278.38 814.19,273.35 816.63,267.99 823.95,264.99 826.38,263.91 828.82,261.51 831.26,265.41 833.70,268.25 843.45,291.53 845.89,270.24 848.33,263.50 850.77,264.75 858.08,266.72 860.52,261.66 862.96,262.91 865.40,255.24 867.84,244.18 875.15,235.01 877.59,228.74 880.03,262.39 882.47,281.66 884.90,257.03 892.22,248.28 894.66,261.30 897.10,252.05 899.53,266.41 901.97,272.17 911.73,281.80 914.16,272.77 916.60,272.72 919.04,268.14 926.36,265.13 928.79,246.79 931.23,247.10 933.67,269.50 936.11,262.90 943.42,268.47 945.86,278.03 948.30,286.29 950.74,302.81 953.18,301.35 960.49,295.62 962.93,301.08 965.37,296.04 967.81,294.45 970.25,291.85 977.56,289.44 980.00,304.80" /><polyline fill="none" stroke="#7c3aed" stroke-width="2.5" points="90.00,454.31 92.44,454.31 94.88,454.31 97.32,454.31 99.75,454.31 107.07,454.31 109.51,454.31 111.95,454.31 114.38,454.31 116.82,454.31 124.14,455.46 126.58,461.09 129.01,455.63 131.45,478.62 133.89,555.28 141.21,565.49 143.64,587.83 146.08,506.82 148.52,542.22 150.96,526.54 158.27,517.21 160.71,517.76 163.15,540.46 165.59,532.68 175.34,560.40 177.78,536.45 180.22,525.83 182.66,517.67 185.10,494.98 192.41,489.19 194.85,482.18 197.29,488.18 199.73,486.30 202.16,466.38 209.48,468.42 211.92,472.87 214.36,463.27 216.79,463.81 219.23,465.30 226.55,453.11 228.99,445.72 231.42,442.81 233.86,426.29 236.30,419.78 243.62,417.13 246.05,418.34 248.49,431.60 250.93,435.31 253.37,439.69 263.12,421.13 265.56,422.09 268.00,421.50 270.44,407.73 277.75,397.82 280.19,394.46 282.63,391.81 285.07,401.47 287.51,404.34 294.82,409.11 297.26,406.41 299.70,404.15 302.14,402.51 304.58,420.01 311.89,416.19 314.33,423.49 316.77,428.50 321.64,427.33 328.96,408.80 331.40,393.21 333.84,399.00 336.27,392.44 338.71,386.16 346.03,374.95 348.47,389.02 350.90,373.84 353.34,354.51 363.10,364.64 365.53,375.36 367.97,364.07 370.41,367.28 372.85,375.03 380.16,370.79 382.60,362.83 385.04,358.93 387.48,339.26 389.92,350.70 397.23,345.85 399.67,363.86 402.11,351.14 404.55,342.90 406.99,337.36 414.30,333.26 416.74,335.44 419.18,325.39 421.62,334.49 424.05,346.84 431.37,321.18 433.81,324.65 436.25,328.43 438.68,323.95 441.12,311.97 448.44,309.73 450.88,302.13 453.32,301.03 455.75,297.29 458.19,300.38 465.51,294.98 467.95,315.93 470.38,309.04 472.82,319.55 475.26,305.42 482.58,314.59 485.01,308.38 487.45,306.69 489.89,304.45 492.33,318.92 502.08,318.30 504.52,320.47 506.96,315.22 509.40,323.84 516.71,321.20 519.15,317.63 521.59,299.81 524.03,291.37 526.47,295.97 533.78,291.79 536.22,292.22 538.66,286.41 541.10,296.18 543.53,295.86 550.85,297.54 553.29,300.08 555.73,300.25 558.16,301.69 560.60,299.81 567.92,298.75 570.36,292.75 572.79,287.22 575.23,285.89 577.67,283.33 584.99,275.61 587.42,285.10 589.86,276.32 592.30,274.70 594.74,313.10 602.05,270.89 604.49,291.12 606.93,279.73 609.37,278.34 611.81,283.81 619.12,279.41 621.56,291.19 624.00,294.29 626.44,282.62 628.88,262.45 636.19,240.05 638.63,225.19 641.07,210.48 643.51,229.72 645.95,233.00 653.26,228.52 655.70,246.41 658.14,235.76 660.58,255.70 663.01,260.56 670.33,232.72 672.77,232.94 675.21,222.16 677.64,254.06 680.08,255.99 687.40,264.20 689.84,283.23 692.27,278.03 694.71,307.61 697.15,303.19 704.47,260.31 706.90,256.69 709.34,240.58 714.22,225.52 721.53,236.24 723.97,237.96 726.41,230.34 728.85,236.62 731.29,233.10 738.60,235.90 741.04,238.67 743.48,215.85 745.92,215.90 748.36,237.48 755.67,250.86 758.11,262.82 760.55,274.57 762.99,269.84 765.42,256.70 772.74,247.48 775.18,235.22 777.62,229.95 782.49,230.66 789.81,234.73 792.25,234.71 794.68,242.38 799.56,228.25 806.88,226.41 809.32,226.34 811.75,225.72 814.19,225.77 816.63,225.26 823.95,219.17 826.38,214.73 828.82,216.09 831.26,218.64 833.70,217.33 843.45,238.45 845.89,224.07 848.33,219.61 850.77,220.30 858.08,213.77 860.52,204.86 862.96,203.41 865.40,187.84 867.84,184.47 875.15,171.50 877.59,160.37 880.03,163.03 882.47,170.19 884.90,155.00 892.22,161.13 894.66,173.60 897.10,162.10 899.53,165.08 901.97,171.34 911.73,176.53 914.16,166.14 916.60,168.16 919.04,162.20 926.36,152.00 928.79,146.90 931.23,146.58 933.67,170.29 936.11,152.01 943.42,158.92 945.86,169.02 948.30,176.21 950.74,196.78 953.18,195.80 960.49,189.93 962.93,195.03 965.37,190.22 967.81,187.55 970.25,186.32 977.56,180.33 980.00,194.89" /><polyline fill="none" stroke="#db2777" stroke-width="2.5" points="90.00,454.31 92.44,454.31 94.88,454.31 97.32,454.31 99.75,454.31 107.07,454.31 109.51,454.31 111.95,454.31 114.38,454.31 116.82,454.31 124.14,455.46 126.58,465.39 129.01,464.87 131.45,489.47 133.89,552.38 141.21,555.79 143.64,570.33 146.08,504.89 148.52,536.87 150.96,514.00 158.27,505.33 160.71,510.61 163.15,523.24 165.59,516.06 175.34,537.19 177.78,515.46 180.22,507.82 182.66,497.13 185.10,488.13 192.41,480.95 194.85,478.62 197.29,479.72 199.73,477.83 202.16,457.76 209.48,459.81 211.92,464.29 214.36,454.62 216.79,455.17 219.23,456.67 226.55,444.39 228.99,436.95 231.42,434.01 233.86,417.37 236.30,410.82 243.62,408.15 246.05,409.37 248.49,422.72 250.93,426.46 253.37,430.88 263.12,412.18 265.56,413.14 268.00,412.55 270.44,398.38 277.75,389.71 280.19,385.18 282.63,380.76 285.07,390.60 287.51,393.64 294.82,400.12 297.26,397.25 299.70,393.51 302.14,393.60 304.58,418.61 311.89,411.27 314.33,415.68 316.77,427.11 321.64,426.59 328.96,406.96 331.40,388.04 333.84,396.06 336.27,390.28 338.71,383.15 346.03,369.34 348.47,382.18 350.90,367.08 353.34,347.95 363.10,357.37 365.53,365.93 367.97,353.54 370.41,353.40 372.85,362.63 380.16,359.70 382.60,353.73 385.04,350.21 387.48,333.71 389.92,336.51 397.23,332.80 399.67,347.26 402.11,330.69 404.55,322.59 406.99,317.40 414.30,311.32 416.74,316.68 419.18,309.70 421.62,297.14 424.05,332.43 431.37,306.31 433.81,309.62 436.25,298.45 438.68,306.00 441.12,289.21 448.44,289.37 450.88,276.53 453.32,283.38 455.75,272.98 458.19,272.13 465.51,270.15 467.95,290.63 470.38,292.32 472.82,297.33 475.26,272.33 482.58,272.76 485.01,270.59 487.45,270.08 489.89,263.23 492.33,279.71 502.08,281.96 504.52,282.56 506.96,265.63 509.40,265.20 516.71,259.05 519.15,256.02 521.59,245.39 524.03,236.02 526.47,239.66 533.78,232.27 536.22,226.34 538.66,225.21 541.10,231.71 543.53,231.15 550.85,243.70 553.29,249.71 555.73,249.69 558.16,254.48 560.60,248.60 567.92,250.06 570.36,247.33 572.79,232.90 575.23,245.46 577.67,238.35 584.99,226.95 587.42,240.62 589.86,240.68 592.30,246.76 594.74,276.62 602.05,249.69 604.49,249.42 606.93,238.74 609.37,246.02 611.81,232.83 619.12,225.43 621.56,231.68 624.00,228.31 626.44,220.32 628.88,215.29 636.19,199.92 638.63,193.81 641.07,185.83 643.51,193.82 645.95,187.03 653.26,178.86 655.70,202.78 658.14,197.01 660.58,211.94 663.01,218.49 670.33,190.02 672.77,191.95 675.21,191.60 677.64,233.27 680.08,233.97 687.40,242.14 689.84,255.61 692.27,237.94 694.71,260.68 697.15,257.91 704.47,217.80 706.90,206.06 709.34,191.70 714.22,185.30 721.53,194.92 723.97,200.01 726.41,185.07 728.85,191.24 731.29,194.29 738.60,202.39 741.04,210.67 743.48,183.13 745.92,178.92 748.36,178.55 755.67,171.96 758.11,191.42 760.55,195.33 762.99,198.98 765.42,188.70 772.74,177.07 775.18,174.11 777.62,169.51 782.49,170.45 789.81,170.65 792.25,172.20 794.68,179.19 799.56,162.72 806.88,157.28 809.32,151.93 811.75,152.07 814.19,154.94 816.63,152.16 823.95,148.61 826.38,148.04 828.82,133.64 831.26,134.31 833.70,137.94 843.45,151.75 845.89,132.20 848.33,132.23 850.77,134.50 858.08,132.71 860.52,124.42 862.96,128.82 865.40,120.43 867.84,118.85 875.15,110.69 877.59,100.00 880.03,130.43 882.47,149.09 884.90,122.83 892.22,118.51 894.66,126.93 897.10,118.27 899.53,144.10 901.97,148.06 911.73,157.92 914.16,141.96 916.60,137.56 919.04,130.96 926.36,127.41 928.79,107.49 931.23,108.40 933.67,137.64 936.11,128.73 943.42,135.39 945.86,146.24 948.30,151.80 950.74,173.78 953.18,172.64 960.49,166.08 962.93,172.28 965.37,167.52 967.81,166.19 970.25,164.40 977.56,161.83 980.00,177.41" /><polyline fill="none" stroke="#b45309" stroke-width="3" points="90.00,454.31 92.44,467.22 94.88,454.36 97.32,457.81 99.75,457.42 107.07,436.08 109.51,433.17 111.95,447.68 114.38,450.87 116.82,474.99 124.14,467.11 126.58,463.78 129.01,456.28 131.45,515.04 133.89,581.41 141.21,583.31 143.64,600.00 146.08,489.86 148.52,540.64 150.96,520.87 158.27,509.93 160.71,513.12 163.15,538.36 165.59,536.78 175.34,563.25 177.78,535.00 180.22,517.75 182.66,493.94 185.10,485.60 192.41,485.15 194.85,477.82 197.29,477.36 199.73,469.06 202.16,451.54 209.48,458.41 211.92,468.36 214.36,463.39 216.79,455.14 219.23,456.66 226.55,417.26 228.99,409.13 231.42,407.54 233.86,401.48 236.30,393.58 243.62,392.21 246.05,396.43 248.49,417.54 250.93,417.05 253.37,425.46 263.12,400.02 265.56,407.25 268.00,402.35 270.44,403.74 277.75,396.73 280.19,389.59 282.63,389.93 285.07,396.01 287.51,383.15 294.82,382.01 297.26,374.82 299.70,378.46 302.14,373.41 304.58,387.67 311.89,375.67 314.33,386.55 316.77,386.74 321.64,389.70 328.96,377.27 331.40,363.22 333.84,362.50 336.27,352.44 338.71,346.00 346.03,339.77 348.47,340.19 350.90,334.26 353.34,323.90 363.10,333.77 365.53,334.49 367.97,326.61 370.41,322.88 372.85,327.54 380.16,325.02 382.60,330.68 385.04,326.27 387.48,318.18 389.92,319.15 397.23,316.63 399.67,316.44 402.11,305.11 404.55,304.66 406.99,298.98 414.30,299.32 416.74,302.88 419.18,304.58 421.62,309.62 424.05,331.57 431.37,311.55 433.81,318.33 436.25,308.14 438.68,309.26 441.12,298.81 448.44,301.48 450.88,287.14 453.32,282.48 455.75,282.35 458.19,285.55 465.51,285.85 467.95,293.24 470.38,296.84 472.82,302.27 475.26,281.59 482.58,287.61 485.01,281.91 487.45,278.79 489.89,273.94 492.33,282.14 502.08,292.27 504.52,284.92 506.96,273.52 509.40,277.50 516.71,274.13 519.15,270.96 521.59,266.97 524.03,255.49 526.47,255.96 533.78,248.54 536.22,250.47 538.66,252.21 541.10,245.68 543.53,238.73 550.85,232.06 553.29,239.77 555.73,244.26 558.16,250.73 560.60,242.73 567.92,238.77 570.36,233.46 572.79,228.64 575.23,227.00 577.67,227.03 584.99,221.93 587.42,227.22 589.86,218.74 592.30,222.88 594.74,261.42 602.05,240.13 604.49,241.85 606.93,235.61 609.37,245.23 611.81,237.27 619.12,222.59 621.56,222.61 624.00,230.02 626.44,221.61 628.88,209.95 636.19,192.97 638.63,189.10 641.07,188.40 643.51,204.46 645.95,199.73 653.26,197.01 655.70,214.22 658.14,209.24 660.58,224.69 663.01,223.29 670.33,201.04 672.77,197.73 675.21,196.92 677.64,221.01 680.08,221.25 687.40,234.55 689.84,246.42 692.27,241.00 694.71,262.46 697.15,248.65 704.47,228.05 706.90,214.68 709.34,204.78 714.22,196.90 721.53,203.53 723.97,200.85 726.41,195.84 728.85,194.78 731.29,192.01 738.60,196.39 741.04,197.64 743.48,188.02 745.92,184.62 748.36,200.36 755.67,202.55 758.11,206.50 760.55,222.37 762.99,211.60 765.42,198.58 772.74,189.54 775.18,182.87 777.62,177.72 782.49,177.87 789.81,183.11 792.25,184.90 794.68,195.74 799.56,193.08 806.88,183.39 809.32,174.67 811.75,179.42 814.19,179.57 816.63,169.85 823.95,167.53 826.38,170.49 828.82,177.76 831.26,173.75 833.70,174.99 843.45,204.99 845.89,188.33 848.33,180.70 850.77,180.17 858.08,172.71 860.52,166.83 862.96,166.98 865.40,169.92 867.84,174.33 875.15,167.00 877.59,179.53 880.03,186.65 882.47,204.91 884.90,177.21 892.22,170.11 894.66,174.01 897.10,174.35 899.53,197.13 901.97,196.11 911.73,193.76 914.16,186.43 916.60,190.29 919.04,179.74 926.36,194.74 928.79,184.17 931.23,171.82 933.67,180.02 936.11,187.07 943.42,186.24 945.86,199.13 948.30,188.90 950.74,197.04 953.18,216.07 960.49,203.52 962.93,205.84 965.37,207.65 967.81,229.54 970.25,237.57 977.56,223.21 980.00,219.46" />
<line x1="1000" y1="84" x2="1032" y2="84" stroke="#1d4ed8" stroke-width="2.5" /><text x="1042" y="89" font-size="16" fill="#0f172a">configured_baseline</text><line x1="1000" y1="112" x2="1032" y2="112" stroke="#0f766e" stroke-width="2.5" /><text x="1042" y="117" font-size="16" fill="#0f172a">ridge_walkforward</text><line x1="1000" y1="140" x2="1032" y2="140" stroke="#7c3aed" stroke-width="2.5" /><text x="1042" y="145" font-size="16" fill="#0f172a">tree_walkforward</text><line x1="1000" y1="168" x2="1032" y2="168" stroke="#db2777" stroke-width="2.5" /><text x="1042" y="173" font-size="16" fill="#0f172a">mlp_walkforward</text><line x1="1000" y1="196" x2="1032" y2="196" stroke="#b45309" stroke-width="3" /><text x="1042" y="201" font-size="16" fill="#0f172a">benchmark</text>
</svg>
