<svg xmlns="http://www.w3.org/2000/svg" width="1200" height="720" viewBox="0 0 1200 720">
<rect width="1200" height="720" fill="#f8fafc" />
<text x="90" y="32" font-size="28" font-family="Segoe UI, Arial, sans-serif" fill="#0f172a">US Stocks Strategy Value - Last 252 Trading Days</text>
<text x="90" y="54" font-size="15" font-family="Segoe UI, Arial, sans-serif" fill="#475569">Initial capital assumed: $100,000</text>
<rect x="90" y="60" width="890" height="580" fill="#ffffff" stroke="#cbd5e1" />
<line x1="90" y1="640.00" x2="980" y2="640.00" stroke="#e2e8f0" stroke-width="1" /><text x="78" y="645.00" font-size="14" text-anchor="end" fill="#475569">$83,071</text><line x1="90" y1="495.00" x2="980" y2="495.00" stroke="#e2e8f0" stroke-width="1" /><text x="78" y="500.00" font-size="14" text-anchor="end" fill="#475569">$109,303</text><line x1="90" y1="350.00" x2="980" y2="350.00" stroke="#e2e8f0" stroke-width="1" /><text x="78" y="355.00" font-size="14" text-anchor="end" fill="#475569">$135,535</text><line x1="90" y1="205.00" x2="980" y2="205.00" stroke="#e2e8f0" stroke-width="1" /><text x="78" y="210.00" font-size="14" text-anchor="end" fill="#475569">$161,767</text><line x1="90" y1="60.00" x2="980" y2="60.00" stroke="#e2e8f0" stroke-width="1" /><text x="78" y="65.00" font-size="14" text-anchor="end" fill="#475569">$188,000</text>
<line x1="90.00" y1="60" x2="90.00" y2="640" stroke="#f1f5f9" stroke-width="1" /><text x="90.00" y="668" font-size="14" text-anchor="middle" fill="#475569">2025-03-13</text><line x1="536.22" y1="60" x2="536.22" y2="640" stroke="#f1f5f9" stroke-width="1" /><text x="536.22" y="668" font-size="14" text-anchor="middle" fill="#475569">2025-09-12</text><line x1="980.00" y1="60" x2="980.00" y2="640" stroke="#f1f5f9" stroke-width="1" /><text x="980.00" y="668" font-size="14" text-anchor="middle" fill="#475569">2026-03-13</text>
<polyline fill="none" stroke="#1d4ed8" stroke-width="2.5" points="90.00,546.42 92.44,533.31 99.75,530.70 102.19,539.12 104.63,533.63 107.07,535.32 109.51,526.38 116.82,512.88 119.26,506.63 121.70,511.86 124.14,512.63 126.58,527.35 133.89,521.32 136.33,521.32 138.77,521.32 141.21,521.32 143.64,521.32 150.96,521.32 153.40,521.32 155.84,521.32 158.27,521.32 160.71,521.32 168.03,521.32 170.47,521.32 172.90,521.32 175.34,521.32 185.10,521.32 187.53,521.32 189.97,521.32 192.41,521.32 194.85,521.32 202.16,521.32 204.60,521.32 207.04,521.89 209.48,514.37 211.92,501.64 219.23,503.15 221.67,507.24 224.11,503.13 226.55,496.89 228.99,496.71 236.30,476.67 238.74,467.65 241.18,467.40 243.62,461.44 246.05,461.83 253.37,460.32 255.81,458.20 258.25,466.10 260.68,467.14 263.12,470.76 272.88,458.80 275.32,457.80 277.75,455.75 280.19,449.27 287.51,439.32 289.95,431.04 292.38,429.91 294.82,441.48 297.26,448.39 304.58,451.77 307.01,449.72 309.45,445.01 311.89,440.91 314.33,452.65 321.64,446.58 324.08,451.08 326.52,446.51 331.40,445.07 338.71,433.80 341.15,423.24 343.59,423.70 346.03,416.12 348.47,417.59 355.78,409.97 358.22,428.17 360.66,422.22 363.10,412.70 372.85,415.05 375.29,414.46 377.73,402.29 380.16,404.57 382.60,406.03 389.92,405.43 392.36,396.63 394.79,397.94 397.23,391.02 399.67,393.39 406.99,389.23 409.42,403.36 411.86,393.90 414.30,385.67 416.74,384.55 424.05,377.85 426.49,381.61 428.93,375.62 431.37,355.23 433.81,381.43 441.12,367.94 443.56,373.53 446.00,360.64 448.44,358.73 450.88,355.95 458.19,358.51 460.63,349.16 463.07,353.46 465.51,345.72 467.95,351.09 475.26,350.56 477.70,369.22 480.14,376.60 482.58,379.74 485.01,367.26 492.33,367.04 494.77,362.88 497.21,359.61 499.64,352.84 502.08,370.14 511.84,374.79 514.27,362.23 516.71,349.56 519.15,361.15 526.47,358.83 528.90,348.06 531.34,349.82 533.78,346.66 536.22,346.93 543.53,334.24 545.97,328.27 548.41,328.90 550.85,328.66 553.29,327.32 560.60,334.99 563.04,337.98 565.48,340.40 567.92,341.48 570.36,335.24 577.67,340.20 580.11,346.90 582.55,342.25 584.99,336.01 587.42,336.79 594.74,337.56 597.18,341.26 599.62,331.68 602.05,333.85 604.49,365.04 611.81,334.07 614.25,348.13 616.68,338.95 619.12,336.45 621.56,332.44 628.88,323.08 631.32,332.52 633.75,336.98 636.19,330.87 638.63,313.47 645.95,292.02 648.38,277.09 650.82,257.78 653.26,260.56 655.70,266.22 663.01,261.01 665.45,274.79 667.89,264.84 670.33,272.74 672.77,280.45 680.08,262.65 682.52,260.43 684.96,267.28 687.40,288.14 689.84,291.10 697.15,289.93 699.59,300.71 702.03,285.59 704.47,299.11 706.90,288.66 714.22,244.94 716.66,233.68 719.10,228.99 723.97,221.45 731.29,229.58 733.73,231.44 736.16,226.36 738.60,231.36 741.04,226.22 748.36,226.88 750.79,218.01 753.23,208.54 755.67,218.11 758.11,246.62 765.42,264.37 767.86,269.65 770.30,282.75 772.74,277.64 775.18,266.54 782.49,263.15 784.93,251.93 787.37,250.78 792.25,250.53 799.56,249.34 802.00,248.58 804.44,254.38 809.32,244.08 816.63,233.61 819.07,242.22 821.51,244.29 823.95,236.79 826.38,232.33 833.70,234.17 836.14,235.16 838.58,234.20 841.01,232.36 843.45,231.59 853.21,252.16 855.64,237.09 858.08,232.71 860.52,233.16 867.84,228.82 870.27,222.90 872.71,216.92 875.15,205.47 877.59,206.66 884.90,210.67 887.34,214.96 889.78,226.12 892.22,242.07 894.66,238.17 901.97,230.34 904.41,237.19 906.85,237.97 909.29,253.99 911.73,263.84 921.48,264.60 923.92,250.12 926.36,250.06 928.79,239.14 936.11,239.43 938.55,237.07 940.99,230.80 943.42,250.03 945.86,249.34 953.18,239.76 955.62,253.08 958.05,264.28 960.49,259.04 962.93,256.53 970.25,260.82 972.68,273.69 975.12,254.47 977.56,243.60 980.00,230.02" /><polyline fill="none" stroke="#0f766e" stroke-width="2.5" points="90.00,546.42 92.44,533.31 99.75,530.70 102.19,539.12 104.63,533.63 107.07,535.32 109.51,526.38 116.82,512.88 119.26,506.63 121.70,511.86 124.14,512.63 126.58,527.35 133.89,521.32 136.33,518.21 138.77,515.77 141.21,536.75 143.64,569.75 150.96,570.84 153.40,573.26 155.84,534.61 158.27,550.23 160.71,537.90 168.03,536.35 170.47,538.80 172.90,545.88 175.34,538.44 185.10,550.77 187.53,536.97 189.97,532.61 192.41,523.90 194.85,522.68 202.16,522.85 204.60,519.38 207.04,522.46 209.48,505.83 211.92,492.70 219.23,493.54 221.67,497.65 224.11,494.50 226.55,488.08 228.99,487.74 236.30,468.82 238.74,462.01 241.18,460.47 243.62,455.59 246.05,455.49 253.37,452.71 255.81,451.35 258.25,459.32 260.68,459.30 263.12,463.69 272.88,450.91 275.32,451.32 277.75,449.30 280.19,444.13 287.51,435.93 289.95,424.50 292.38,421.85 294.82,424.97 297.26,427.91 304.58,427.15 307.01,424.82 309.45,420.10 311.89,413.10 314.33,425.12 321.64,414.66 324.08,418.12 326.52,411.63 331.40,414.39 338.71,406.30 341.15,391.66 343.59,380.87 346.03,371.44 348.47,370.38 355.78,363.88 358.22,383.30 360.66,376.95 363.10,366.79 372.85,369.30 375.29,368.67 377.73,355.68 380.16,358.12 382.60,359.68 389.92,359.04 392.36,349.65 394.79,351.05 397.23,343.66 399.67,346.19 406.99,341.76 409.42,356.83 411.86,346.73 414.30,337.96 416.74,336.76 424.05,329.61 426.49,333.62 428.93,327.24 431.37,305.48 433.81,333.43 441.12,319.04 443.56,325.00 446.00,311.25 448.44,309.21 450.88,306.25 458.19,308.98 460.63,299.00 463.07,303.59 465.51,295.33 467.95,301.07 475.26,300.50 477.70,320.41 480.14,328.28 482.58,331.63 485.01,318.32 492.33,318.08 494.77,313.64 497.21,310.16 499.64,302.93 502.08,321.79 511.84,325.67 514.27,305.44 516.71,299.22 519.15,308.82 526.47,310.81 528.90,304.27 531.34,305.94 533.78,299.44 536.22,294.65 543.53,281.71 545.97,276.40 548.41,274.21 550.85,274.56 553.29,266.74 560.60,262.58 563.04,260.85 565.48,264.78 567.92,260.25 570.36,256.06 577.67,264.68 580.11,269.02 582.55,263.89 584.99,257.00 587.42,257.86 594.74,258.72 597.18,262.80 599.62,252.23 602.05,254.62 604.49,289.04 611.81,254.87 614.25,270.38 616.68,260.25 619.12,257.49 621.56,253.06 628.88,242.73 631.32,253.15 633.75,258.07 636.19,251.33 638.63,232.13 645.95,208.46 648.38,191.98 650.82,170.68 653.26,173.74 655.70,179.98 663.01,174.24 665.45,189.45 667.89,178.47 670.33,187.19 672.77,195.69 680.08,176.05 682.52,173.60 684.96,181.15 687.40,204.18 689.84,207.44 697.15,206.15 699.59,218.05 702.03,201.37 704.47,216.28 706.90,204.76 714.22,156.51 716.66,144.08 719.10,138.91 723.97,130.58 731.29,139.55 733.73,141.61 736.16,136.00 738.60,141.52 741.04,135.85 748.36,136.58 750.79,126.79 753.23,116.34 755.67,126.89 758.11,158.36 765.42,177.95 767.86,183.77 770.30,198.23 772.74,192.59 775.18,180.34 782.49,176.60 784.93,164.22 787.37,162.95 792.25,162.68 799.56,161.36 802.00,160.52 804.44,166.92 809.32,155.55 816.63,144.01 819.07,153.51 821.51,155.78 823.95,147.51 826.38,142.59 833.70,144.62 836.14,145.71 838.58,144.66 841.01,142.62 843.45,141.77 853.21,164.47 855.64,147.85 858.08,143.00 860.52,143.51 867.84,138.72 870.27,132.19 872.71,125.59 875.15,112.95 877.59,114.75 884.90,104.71 887.34,100.00 889.78,103.98 892.22,116.08 894.66,128.01 901.97,126.11 904.41,138.28 906.85,139.37 909.29,148.21 911.73,149.37 921.48,154.54 923.92,145.72 926.36,147.53 928.79,138.34 936.11,140.67 938.55,136.65 940.99,133.91 943.42,144.07 945.86,127.05 953.18,127.96 955.62,129.20 958.05,134.49 960.49,145.52 962.93,146.94 970.25,143.83 972.68,149.49 975.12,146.20 977.56,148.92 980.00,149.43" /><polyline fill="none" stroke="#7c3aed" stroke-width="2.5" points="90.00,546.42 92.44,533.31 99.75,530.70 102.19,539.12 104.63,533.63 107.07,535.32 109.51,526.38 116.82,512.88 119.26,506.63 121.70,511.86 124.14,512.63 126.58,527.35 133.89,521.32 136.33,518.21 138.77,515.77 141.21,536.75 143.64,569.75 150.96,570.84 153.40,573.26 155.84,534.61 158.27,550.23 160.71,537.90 168.03,536.35 170.47,538.80 172.90,545.88 175.34,538.44 185.10,550.77 187.53,536.97 189.97,532.61 192.41,523.90 194.85,522.68 202.16,522.85 204.60,519.38 207.04,522.46 209.48,505.83 211.92,492.70 219.23,493.54 221.67,497.65 224.11,494.50 226.55,488.08 228.99,487.74 236.30,468.82 238.74,462.01 241.18,460.47 243.62,455.59 246.05,455.49 253.37,452.71 255.81,451.35 258.25,459.32 260.68,459.30 263.12,463.69 272.88,450.91 275.32,451.32 277.75,449.30 280.19,444.13 287.51,435.93 289.95,424.50 292.38,421.85 294.82,424.97 297.26,427.91 304.58,427.15 307.01,424.82 309.45,420.10 311.89,413.10 314.33,425.12 321.64,414.66 324.08,418.12 326.52,411.63 331.40,414.39 338.71,406.30 341.15,391.66 343.59,380.87 346.03,371.44 348.47,370.38 355.78,363.88 358.22,383.30 360.66,376.95 363.10,366.79 372.85,369.30 375.29,368.67 377.73,355.68 380.16,358.12 382.60,359.68 389.92,359.04 392.36,349.65 394.79,351.05 397.23,343.66 399.67,346.19 406.99,341.76 409.42,356.83 411.86,346.73 414.30,337.96 416.74,336.76 424.05,329.61 426.49,333.62 428.93,327.24 431.37,305.48 433.81,333.43 441.12,319.04 443.56,325.00 446.00,311.25 448.44,309.21 450.88,306.25 458.19,308.98 460.63,299.00 463.07,303.59 465.51,295.33 467.95,301.07 475.26,300.50 477.70,320.41 480.14,328.28 482.58,331.63 485.01,318.32 492.33,318.08 494.77,313.64 497.21,310.16 499.64,302.93 502.08,321.79 511.84,325.67 514.27,305.44 516.71,299.22 519.15,308.82 526.47,310.81 528.90,304.27 531.34,305.94 533.78,299.44 536.22,294.65 543.53,281.71 545.97,276.40 548.41,274.21 550.85,274.56 553.29,266.74 560.60,262.58 563.04,260.85 565.48,264.78 567.92,260.25 570.36,256.06 577.67,264.68 580.11,269.02 582.55,263.89 584.99,257.00 587.42,257.86 594.74,258.72 597.18,262.80 599.62,252.23 602.05,254.62 604.49,289.04 611.81,254.87 614.25,270.38 616.68,260.25 619.12,257.49 621.56,253.06 628.88,242.73 631.32,253.15 633.75,258.07 636.19,251.33 638.63,232.13 645.95,208.46 648.38,191.98 650.82,170.68 653.26,173.74 655.70,179.98 663.01,174.24 665.45,189.45 667.89,178.47 670.33,187.19 672.77,195.69 680.08,176.05 682.52,173.60 684.96,181.15 687.40,204.18 689.84,207.44 697.15,206.15 699.59,218.05 702.03,201.37 704.47,216.28 706.90,204.76 714.22,156.51 716.66,144.08 719.10,138.91 723.97,130.58 731.29,139.55 733.73,141.61 736.16,136.00 738.60,141.52 741.04,135.85 748.36,136.58 750.79,126.79 753.23,116.34 755.67,126.89 758.11,158.36 765.42,177.95 767.86,183.77 770.30,198.23 772.74,192.59 775.18,180.34 782.49,176.60 784.93,164.22 787.37,162.95 792.25,162.68 799.56,161.36 802.00,160.52 804.44,166.92 809.32,155.55 816.63,144.01 819.07,153.51 821.51,155.78 823.95,147.51 826.38,142.59 833.70,144.62 836.14,145.71 838.58,144.66 841.01,142.62 843.45,141.77 853.21,164.47 855.64,147.85 858.08,143.00 860.52,143.51 867.84,138.72 870.27,132.19 872.71,125.59 875.15,112.95 877.59,114.75 884.90,104.71 887.34,100.00 889.78,103.98 892.22,116.08 894.66,128.01 901.97,126.11 904.41,138.28 906.85,139.37 909.29,148.21 911.73,149.37 921.48,154.54 923.92,145.72 926.36,147.53 928.79,138.34 936.11,140.67 938.55,136.65 940.99,133.91 943.42,144.07 945.86,127.05 953.18,127.96 955.62,129.20 958.05,134.49 960.49,145.52 962.93,146.94 970.25,143.83 972.68,149.49 975.12,146.20 977.56,148.92 980.00,149.43" /><polyline fill="none" stroke="#db2777" stroke-width="2.5" points="90.00,546.42 92.44,533.31 99.75,530.70 102.19,539.12 104.63,533.63 107.07,535.32 109.51,526.38 116.82,512.88 119.26,506.63 121.70,511.86 124.14,512.63 126.58,527.35 133.89,521.32 136.33,518.21 138.77,515.77 141.21,536.75 143.64,569.75 150.96,570.84 153.40,573.26 155.84,534.61 158.27,550.23 160.71,537.90 168.03,536.35 170.47,538.80 172.90,545.88 175.34,538.44 185.10,550.77 187.53,536.97 189.97,532.61 192.41,523.90 194.85,522.68 202.16,522.85 204.60,519.38 207.04,522.46 209.48,505.83 211.92,492.70 219.23,493.54 221.67,497.65 224.11,494.50 226.55,488.08 228.99,487.74 236.30,468.82 238.74,462.01 241.18,460.47 243.62,455.59 246.05,455.49 253.37,452.71 255.81,451.35 258.25,459.32 260.68,459.30 263.12,463.69 272.88,450.91 275.32,451.32 277.75,449.30 280.19,444.13 287.51,435.93 289.95,424.50 292.38,421.85 294.82,424.97 297.26,427.91 304.58,427.15 307.01,424.82 309.45,420.10 311.89,413.10 314.33,425.12 321.64,414.66 324.08,418.12 326.52,411.63 331.40,414.39 338.71,406.30 341.15,391.66 343.59,380.87 346.03,371.44 348.47,370.38 355.78,363.88 358.22,383.30 360.66,376.95 363.10,366.79 372.85,369.30 375.29,368.67 377.73,355.68 380.16,358.12 382.60,359.68 389.92,359.04 392.36,349.65 394.79,351.05 397.23,343.66 399.67,346.19 406.99,341.76 409.42,356.83 411.86,346.73 414.30,337.96 416.74,336.76 424.05,329.61 426.49,333.62 428.93,327.24 431.37,305.48 433.81,333.43 441.12,319.04 443.56,325.00 446.00,311.25 448.44,309.21 450.88,306.25 458.19,308.98 460.63,299.00 463.07,303.59 465.51,295.33 467.95,301.07 475.26,300.50 477.70,320.41 480.14,328.28 482.58,331.63 485.01,318.32 492.33,318.08 494.77,313.64 497.21,310.16 499.64,302.93 502.08,321.79 511.84,325.67 514.27,305.44 516.71,299.22 519.15,308.82 526.47,310.81 528.90,304.27 531.34,305.94 533.78,299.44 536.22,294.65 543.53,281.71 545.97,276.40 548.41,274.21 550.85,274.56 553.29,266.74 560.60,262.58 563.04,260.85 565.48,264.78 567.92,260.25 570.36,256.06 577.67,264.68 580.11,269.02 582.55,263.89 584.99,257.00 587.42,257.86 594.74,258.72 597.18,262.80 599.62,252.23 602.05,254.62 604.49,289.04 611.81,254.87 614.25,270.38 616.68,260.25 619.12,257.49 621.56,253.06 628.88,242.73 631.32,253.15 633.75,258.07 636.19,251.33 638.63,232.13 645.95,208.46 648.38,191.98 650.82,170.68 653.26,173.74 655.70,179.98 663.01,174.24 665.45,189.45 667.89,178.47 670.33,187.19 672.77,195.69 680.08,176.05 682.52,173.60 684.96,181.15 687.40,204.18 689.84,207.44 697.15,206.15 699.59,218.05 702.03,201.37 704.47,216.28 706.90,204.76 714.22,156.51 716.66,144.08 719.10,138.91 723.97,130.58 731.29,139.55 733.73,141.61 736.16,136.00 738.60,141.52 741.04,135.85 748.36,136.58 750.79,126.79 753.23,116.34 755.67,126.89 758.11,158.36 765.42,177.95 767.86,183.77 770.30,198.23 772.74,192.59 775.18,180.34 782.49,176.60 784.93,164.22 787.37,162.95 792.25,162.68 799.56,161.36 802.00,160.52 804.44,166.92 809.32,155.55 816.63,144.01 819.07,153.51 821.51,155.78 823.95,147.51 826.38,142.59 833.70,144.62 836.14,145.71 838.58,144.66 841.01,142.62 843.45,141.77 853.21,164.47 855.64,147.85 858.08,143.00 860.52,143.51 867.84,138.72 870.27,132.19 872.71,125.59 875.15,112.95 877.59,114.75 884.90,104.71 887.34,100.00 889.78,103.98 892.22,116.08 894.66,128.01 901.97,126.11 904.41,138.28 906.85,139.37 909.29,148.21 911.73,149.37 921.48,154.54 923.92,145.72 926.36,147.53 928.79,138.34 936.11,140.67 938.55,136.65 940.99,133.91 943.42,144.07 945.86,127.05 953.18,127.96 955.62,129.20 958.05,134.49 960.49,145.52 962.93,146.94 970.25,143.83 972.68,149.49 975.12,146.20 977.56,148.92 980.00,149.43" /><polyline fill="none" stroke="#b45309" stroke-width="2.5" points="90.00,546.42 92.44,533.31 99.75,530.70 102.19,539.12 104.63,533.63 107.07,535.32 109.51,526.38 116.82,512.88 119.26,506.63 121.70,511.86 124.14,512.63 126.58,527.35 133.89,521.32 136.33,518.21 138.77,515.77 141.21,536.75 143.64,569.75 150.96,570.84 153.40,573.26 155.84,534.61 158.27,550.23 160.71,537.90 168.03,536.35 170.47,538.80 172.90,545.88 175.34,538.44 185.10,550.77 187.53,536.97 189.97,532.61 192.41,523.90 194.85,522.68 202.16,522.85 204.60,519.38 207.04,522.46 209.48,505.83 211.92,492.70 219.23,493.54 221.67,497.65 224.11,494.50 226.55,488.08 228.99,487.74 236.30,468.82 238.74,462.01 241.18,460.47 243.62,455.59 246.05,455.49 253.37,452.71 255.81,451.35 258.25,459.32 260.68,459.30 263.12,463.69 272.88,450.91 275.32,451.32 277.75,449.30 280.19,444.13 287.51,435.93 289.95,424.50 292.38,421.85 294.82,424.97 297.26,427.91 304.58,427.15 307.01,424.82 309.45,420.10 311.89,413.10 314.33,425.12 321.64,414.66 324.08,418.12 326.52,411.63 331.40,414.39 338.71,406.30 341.15,391.66 343.59,380.87 346.03,371.44 348.47,370.38 355.78,363.88 358.22,383.30 360.66,376.95 363.10,366.79 372.85,369.30 375.29,368.67 377.73,355.68 380.16,358.12 382.60,359.68 389.92,359.04 392.36,349.65 394.79,351.05 397.23,343.66 399.67,346.19 406.99,341.76 409.42,356.83 411.86,346.73 414.30,337.96 416.74,336.76 424.05,329.61 426.49,333.62 428.93,327.24 431.37,305.48 433.81,333.43 441.12,319.04 443.56,325.00 446.00,311.25 448.44,309.21 450.88,306.25 458.19,308.98 460.63,299.00 463.07,303.59 465.51,295.33 467.95,301.07 475.26,300.50 477.70,320.41 480.14,328.28 482.58,331.63 485.01,318.32 492.33,318.08 494.77,313.64 497.21,310.16 499.64,302.93 502.08,321.79 511.84,325.67 514.27,305.44 516.71,299.22 519.15,308.82 526.47,310.81 528.90,304.27 531.34,305.94 533.78,299.44 536.22,294.65 543.53,281.71 545.97,276.40 548.41,274.21 550.85,274.56 553.29,266.74 560.60,262.58 563.04,260.85 565.48,264.78 567.92,260.25 570.36,256.06 577.67,264.68 580.11,269.02 582.55,263.89 584.99,257.00 587.42,257.86 594.74,258.72 597.18,262.80 599.62,252.23 602.05,254.62 604.49,289.04 611.81,254.87 614.25,270.38 616.68,260.25 619.12,257.49 621.56,253.06 628.88,242.73 631.32,253.15 633.75,258.07 636.19,251.33 638.63,232.13 645.95,208.46 648.38,191.98 650.82,170.68 653.26,173.74 655.70,179.98 663.01,174.24 665.45,189.45 667.89,178.47 670.33,187.19 672.77,195.69 680.08,176.05 682.52,173.60 684.96,181.15 687.40,204.18 689.84,207.44 697.15,206.15 699.59,218.05 702.03,201.37 704.47,216.28 706.90,204.76 714.22,156.51 716.66,144.08 719.10,138.91 723.97,130.58 731.29,139.55 733.73,141.61 736.16,136.00 738.60,141.52 741.04,135.85 748.36,136.58 750.79,126.79 753.23,116.34 755.67,126.89 758.11,158.36 765.42,177.95 767.86,183.77 770.30,198.23 772.74,192.59 775.18,180.34 782.49,176.60 784.93,164.22 787.37,162.95 792.25,162.68 799.56,161.36 802.00,160.52 804.44,166.92 809.32,155.55 816.63,144.01 819.07,153.51 821.51,155.78 823.95,147.51 826.38,142.59 833.70,144.62 836.14,145.71 838.58,144.66 841.01,142.62 843.45,141.77 853.21,164.47 855.64,147.85 858.08,143.00 860.52,143.51 867.84,138.72 870.27,132.19 872.71,125.59 875.15,112.95 877.59,114.75 884.90,104.71 887.34,100.00 889.78,103.98 892.22,116.08 894.66,128.01 901.97,126.11 904.41,138.28 906.85,139.37 909.29,148.21 911.73,149.37 921.48,154.54 923.92,145.72 926.36,147.53 928.79,138.34 936.11,140.67 938.55,136.65 940.99,133.91 943.42,144.07 945.86,127.05 953.18,127.96 955.62,129.20 958.05,134.49 960.49,145.52 962.93,146.94 970.25,143.83 972.68,149.49 975.12,146.20 977.56,148.92 980.00,148.96" /><polyline fill="none" stroke="#475569" stroke-width="3" points="90.00,546.42 92.44,535.01 99.75,530.66 102.19,536.80 104.63,530.68 107.07,532.32 109.51,532.13 116.82,521.98 119.26,520.59 121.70,527.50 124.14,529.02 126.58,540.50 133.89,536.75 136.33,535.16 138.77,531.59 141.21,559.56 143.64,591.15 150.96,592.06 153.40,600.00 155.84,547.58 158.27,571.75 160.71,562.34 168.03,557.13 170.47,558.65 172.90,570.66 175.34,569.91 185.10,582.51 187.53,569.06 189.97,560.85 192.41,549.52 194.85,545.55 202.16,545.33 204.60,541.85 207.04,541.62 209.48,537.67 211.92,529.34 219.23,532.61 221.67,537.34 224.11,534.98 226.55,531.05 228.99,531.77 236.30,513.02 238.74,509.15 241.18,508.39 243.62,505.51 246.05,501.75 253.37,501.09 255.81,503.11 258.25,513.15 260.68,512.92 263.12,516.92 272.88,504.81 275.32,508.25 277.75,505.92 280.19,506.58 287.51,503.25 289.95,499.85 292.38,500.01 294.82,502.90 297.26,496.78 304.58,496.24 307.01,492.82 309.45,494.55 311.89,492.15 314.33,498.93 321.64,493.22 324.08,498.40 326.52,498.49 331.40,499.90 338.71,493.98 341.15,487.30 343.59,486.95 346.03,482.16 348.47,479.10 355.78,476.13 358.22,476.33 360.66,473.51 363.10,468.58 372.85,473.28 375.29,473.62 377.73,469.87 380.16,468.10 382.60,470.31 389.92,469.11 392.36,471.81 394.79,469.71 397.23,465.86 399.67,466.32 406.99,465.12 409.42,465.03 411.86,459.64 414.30,459.42 416.74,456.72 424.05,456.88 426.49,458.58 428.93,459.38 431.37,461.78 433.81,472.23 441.12,462.70 443.56,465.93 446.00,461.08 448.44,461.61 450.88,456.64 458.19,457.91 460.63,451.08 463.07,448.87 465.51,448.81 467.95,450.33 475.26,450.47 477.70,453.99 480.14,455.70 482.58,458.28 485.01,448.44 492.33,451.31 494.77,448.59 497.21,447.11 499.64,444.80 502.08,448.70 511.84,453.52 514.27,450.03 516.71,444.60 519.15,446.50 526.47,444.89 528.90,443.38 531.34,441.48 533.78,436.02 536.22,436.24 543.53,432.71 545.97,433.63 548.41,434.46 550.85,431.35 553.29,428.04 560.60,424.87 563.04,428.54 565.48,430.67 567.92,433.76 570.36,429.94 577.67,428.06 580.11,425.53 582.55,423.24 584.99,422.46 587.42,422.47 594.74,420.04 597.18,422.56 599.62,418.53 602.05,420.50 604.49,438.84 611.81,428.71 614.25,429.53 616.68,426.56 619.12,431.14 621.56,427.34 628.88,420.36 631.32,420.37 633.75,423.90 636.19,419.89 638.63,414.34 645.95,406.26 648.38,404.42 650.82,404.09 653.26,411.73 655.70,409.48 663.01,408.18 665.45,416.37 667.89,414.01 670.33,421.36 672.77,420.69 680.08,410.10 682.52,408.53 684.96,408.14 687.40,419.61 689.84,419.72 697.15,426.05 699.59,431.70 702.03,429.12 704.47,439.34 706.90,432.76 714.22,422.96 716.66,416.60 719.10,411.88 723.97,408.13 731.29,411.29 733.73,410.01 736.16,407.63 738.60,407.12 741.04,405.81 748.36,407.89 750.79,408.49 753.23,403.90 755.67,402.29 758.11,409.78 765.42,410.82 767.86,412.70 770.30,420.26 772.74,415.13 775.18,408.93 782.49,404.63 784.93,401.45 787.37,399.00 792.25,399.07 799.56,401.57 802.00,402.42 804.44,407.58 809.32,406.31 816.63,401.70 819.07,397.55 821.51,399.81 823.95,399.88 826.38,395.26 833.70,394.15 836.14,395.56 838.58,399.02 841.01,397.11 843.45,397.70 853.21,411.98 855.64,404.05 858.08,400.42 860.52,400.17 867.84,396.62 870.27,393.82 872.71,393.89 875.15,395.29 877.59,397.39 884.90,393.90 887.34,399.86 889.78,403.25 892.22,411.94 894.66,398.76 901.97,395.38 904.41,397.24 906.85,397.40 909.29,408.24 911.73,407.75 921.48,406.64 923.92,403.15 926.36,404.98 928.79,399.96 936.11,407.10 938.55,402.07 940.99,396.19 943.42,400.10 945.86,403.45 953.18,403.06 955.62,409.19 958.05,404.32 960.49,408.20 962.93,417.26 970.25,411.28 972.68,412.39 975.12,413.25 977.56,423.67 980.00,427.49" />
<line x1="1000" y1="84" x2="1032" y2="84" stroke="#1d4ed8" stroke-width="2.5" /><text x="1042" y="89" font-size="16" fill="#0f172a">base</text><line x1="1000" y1="112" x2="1032" y2="112" stroke="#0f766e" stroke-width="2.5" /><text x="1042" y="117" font-size="16" fill="#0f172a">soft_price</text><line x1="1000" y1="140" x2="1032" y2="140" stroke="#7c3aed" stroke-width="2.5" /><text x="1042" y="145" font-size="16" fill="#0f172a">with_llm_short</text><line x1="1000" y1="168" x2="1032" y2="168" stroke="#db2777" stroke-width="2.5" /><text x="1042" y="173" font-size="16" fill="#0f172a">with_llm_swing</text><line x1="1000" y1="196" x2="1032" y2="196" stroke="#b45309" stroke-width="2.5" /><text x="1042" y="201" font-size="16" fill="#0f172a">with_llm_long</text><line x1="1000" y1="224" x2="1032" y2="224" stroke="#475569" stroke-width="3" /><text x="1042" y="229" font-size="16" fill="#0f172a">benchmark</text>
</svg>
