<svg xmlns="http://www.w3.org/2000/svg" width="1200" height="720" viewBox="0 0 1200 720">
<rect width="1200" height="720" fill="#f8fafc" />
<text x="90" y="32" font-size="28" font-family="Segoe UI, Arial, sans-serif" fill="#0f172a">US Stocks Strategy Value - Last 252 Trading Days</text>
<text x="90" y="54" font-size="15" font-family="Segoe UI, Arial, sans-serif" fill="#475569">Initial capital assumed: $100,000</text>
<rect x="90" y="60" width="890" height="580" fill="#ffffff" stroke="#cbd5e1" />
<line x1="90" y1="640.00" x2="980" y2="640.00" stroke="#e2e8f0" stroke-width="1" /><text x="78" y="645.00" font-size="14" text-anchor="end" fill="#475569">$83,387</text><line x1="90" y1="495.00" x2="980" y2="495.00" stroke="#e2e8f0" stroke-width="1" /><text x="78" y="500.00" font-size="14" text-anchor="end" fill="#475569">$94,948</text><line x1="90" y1="350.00" x2="980" y2="350.00" stroke="#e2e8f0" stroke-width="1" /><text x="78" y="355.00" font-size="14" text-anchor="end" fill="#475569">$106,509</text><line x1="90" y1="205.00" x2="980" y2="205.00" stroke="#e2e8f0" stroke-width="1" /><text x="78" y="210.00" font-size="14" text-anchor="end" fill="#475569">$118,070</text><line x1="90" y1="60.00" x2="980" y2="60.00" stroke="#e2e8f0" stroke-width="1" /><text x="78" y="65.00" font-size="14" text-anchor="end" fill="#475569">$129,631</text>
<line x1="90.00" y1="60" x2="90.00" y2="640" stroke="#f1f5f9" stroke-width="1" /><text x="90.00" y="668" font-size="14" text-anchor="middle" fill="#475569">2025-03-17</text><line x1="536.22" y1="60" x2="536.22" y2="640" stroke="#f1f5f9" stroke-width="1" /><text x="536.22" y="668" font-size="14" text-anchor="middle" fill="#475569">2025-09-16</text><line x1="980.00" y1="60" x2="980.00" y2="640" stroke="#f1f5f9" stroke-width="1" /><text x="980.00" y="668" font-size="14" text-anchor="middle" fill="#475569">2026-03-17</text>
<polyline fill="none" stroke="#1d4ed8" stroke-width="2.5" points="90.00,431.63 92.44,447.57 94.88,432.27 97.32,434.78 99.75,428.73 107.07,406.84 109.51,401.97 111.95,411.18 114.38,409.44 116.82,433.34 124.14,426.97 126.58,439.93 129.01,440.78 131.45,472.95 133.89,542.94 141.21,551.35 143.64,568.42 146.08,506.45 148.52,539.43 150.96,520.11 158.27,515.33 160.71,520.22 163.15,529.46 165.59,545.56 175.34,570.08 177.78,552.69 180.22,552.31 182.66,544.29 185.10,538.95 192.41,531.58 194.85,534.05 197.29,537.75 199.73,551.70 202.16,528.82 209.48,533.09 211.92,543.62 214.36,533.51 216.79,534.75 219.23,539.14 226.55,520.73 228.99,514.74 231.42,523.27 233.86,506.70 236.30,496.67 243.62,491.55 246.05,492.34 248.49,505.90 250.93,508.03 253.37,513.37 263.12,495.98 265.56,495.32 268.00,489.62 270.44,476.93 277.75,465.91 280.19,456.08 282.63,449.38 285.07,452.19 287.51,451.97 294.82,452.05 297.26,453.79 299.70,449.12 302.14,451.18 304.58,475.70 311.89,460.46 314.33,466.69 316.77,471.11 321.64,472.64 328.96,457.90 331.40,434.48 333.84,429.32 336.27,412.92 338.71,397.17 346.03,388.46 348.47,416.59 350.90,399.83 353.34,383.74 363.10,396.40 365.53,395.59 367.97,381.64 370.41,379.15 372.85,382.58 380.16,379.14 382.60,359.83 385.04,351.98 387.48,338.01 389.92,353.45 397.23,348.25 399.67,373.83 402.11,356.68 404.55,344.23 406.99,335.22 414.30,322.42 416.74,319.70 419.18,310.02 421.62,298.00 424.05,335.40 431.37,303.86 433.81,311.97 436.25,309.04 438.68,302.27 441.12,293.03 448.44,294.27 450.88,277.83 453.32,286.66 455.75,280.97 458.19,287.06 465.51,287.30 467.95,326.07 470.38,335.19 472.82,339.05 475.26,317.80 482.58,320.61 485.01,311.01 487.45,306.54 489.89,290.94 492.33,323.08 502.08,332.06 504.52,325.89 506.96,318.37 509.40,323.73 516.71,321.94 519.15,297.65 521.59,294.18 524.03,281.63 526.47,288.66 533.78,279.90 536.22,278.60 538.66,273.68 541.10,236.52 543.53,241.72 550.85,246.04 553.29,234.37 555.73,225.21 558.16,211.97 560.60,196.55 567.92,206.92 570.36,215.05 572.79,202.32 575.23,197.11 577.67,200.13 584.99,194.26 587.42,199.85 589.86,196.14 592.30,193.21 594.74,233.02 602.05,195.04 604.49,209.90 606.93,195.39 609.37,199.21 611.81,204.61 619.12,190.71 621.56,197.86 624.00,220.04 626.44,198.58 628.88,174.62 636.19,143.31 638.63,126.83 641.07,123.94 643.51,138.01 645.95,136.79 653.26,124.42 655.70,168.17 658.14,151.91 660.58,187.16 663.01,192.57 670.33,154.53 672.77,166.57 675.21,149.74 677.64,183.73 680.08,184.52 687.40,196.06 689.84,221.11 692.27,201.64 694.71,247.31 697.15,235.83 704.47,178.26 706.90,180.52 709.34,162.67 714.22,136.85 721.53,157.42 723.97,142.01 726.41,137.41 728.85,159.51 731.29,148.52 738.60,155.48 741.04,156.66 743.48,136.36 745.92,146.20 748.36,175.32 755.67,176.78 758.11,190.85 760.55,220.78 762.99,210.90 765.42,193.69 772.74,194.10 775.18,191.20 777.62,187.15 782.49,185.82 789.81,185.96 792.25,184.31 794.68,193.25 799.56,185.99 806.88,175.86 809.32,174.98 811.75,167.94 814.19,172.51 816.63,171.79 823.95,166.53 826.38,171.46 828.82,173.58 831.26,168.67 833.70,175.75 843.45,200.82 845.89,181.24 848.33,168.09 850.77,179.69 858.08,164.63 860.52,159.99 862.96,157.63 865.40,162.93 867.84,162.97 875.15,151.61 877.59,146.35 880.03,138.65 882.47,148.22 884.90,119.01 892.22,112.85 894.66,124.63 897.10,118.91 899.53,140.59 901.97,138.96 911.73,146.34 914.16,138.39 916.60,150.30 919.04,155.31 926.36,155.88 928.79,140.90 931.23,137.68 933.67,147.75 936.11,146.26 943.42,140.78 945.86,167.37 948.30,167.15 950.74,193.29 953.18,190.95 960.49,186.38 962.93,192.01 965.37,193.12 967.81,207.70 970.25,205.45 977.56,195.32 980.00,202.19" /><polyline fill="none" stroke="#0f766e" stroke-width="2.5" points="90.00,431.63 92.44,431.63 94.88,431.63 97.32,431.63 99.75,431.63 107.07,431.63 109.51,431.63 111.95,431.63 114.38,431.63 116.82,431.63 124.14,432.84 126.58,444.01 129.01,438.30 131.45,476.56 133.89,556.42 141.21,555.94 143.64,582.09 146.08,475.48 148.52,528.00 150.96,510.88 158.27,500.16 160.71,504.32 163.15,531.08 165.59,530.95 175.34,558.03 177.78,533.89 180.22,512.27 182.66,486.09 185.10,480.12 192.41,470.15 194.85,470.33 197.29,474.56 199.73,465.66 202.16,440.94 209.48,444.93 211.92,449.67 214.36,437.07 216.79,429.12 219.23,430.29 226.55,402.01 228.99,377.34 231.42,370.15 233.86,358.30 236.30,353.71 243.62,350.11 246.05,351.43 248.49,367.23 250.93,365.88 253.37,373.69 263.12,350.63 265.56,349.65 268.00,339.43 270.44,334.52 277.75,320.78 280.19,313.61 282.63,307.81 285.07,315.88 287.51,314.28 294.82,318.08 297.26,322.59 299.70,320.85 302.14,324.49 304.58,351.35 311.89,336.41 314.33,343.81 316.77,350.14 321.64,347.02 328.96,327.48 331.40,306.35 333.84,310.37 336.27,293.68 338.71,279.23 346.03,268.20 348.47,290.40 350.90,275.79 353.34,254.17 363.10,260.28 365.53,262.97 367.97,242.15 370.41,240.94 372.85,246.84 380.16,237.91 382.60,228.87 385.04,222.40 387.48,213.52 389.92,216.94 397.23,214.26 399.67,235.70 402.11,211.33 404.55,203.31 406.99,194.28 414.30,186.64 416.74,194.65 419.18,185.98 421.62,177.62 424.05,205.51 431.37,167.58 433.81,178.81 436.25,176.51 438.68,167.47 441.12,153.79 448.44,159.75 450.88,133.62 453.32,145.93 455.75,149.06 458.19,161.70 465.51,165.19 467.95,210.40 470.38,213.12 472.82,219.20 475.26,199.19 482.58,205.92 485.01,184.46 487.45,182.75 489.89,168.43 492.33,204.61 502.08,210.92 504.52,210.86 506.96,197.84 509.40,206.04 516.71,198.07 519.15,190.77 521.59,163.90 524.03,174.85 526.47,174.23 533.78,162.47 536.22,158.88 538.66,169.64 541.10,161.08 543.53,159.53 550.85,157.04 553.29,162.14 555.73,169.19 558.16,175.42 560.60,172.19 567.92,173.51 570.36,170.51 572.79,180.71 575.23,187.16 577.67,180.82 584.99,178.90 587.42,179.50 589.86,177.59 592.30,181.11 594.74,212.00 602.05,191.05 604.49,186.91 606.93,186.12 609.37,195.17 611.81,185.43 619.12,176.18 621.56,178.82 624.00,188.70 626.44,180.75 628.88,167.46 636.19,149.40 638.63,142.10 641.07,145.17 643.51,142.76 645.95,143.80 653.26,144.84 655.70,173.63 658.14,167.39 660.58,183.35 663.01,179.10 670.33,154.47 672.77,156.54 675.21,147.78 677.64,165.85 680.08,159.84 687.40,174.11 689.84,180.59 692.27,158.33 694.71,188.34 697.15,180.92 704.47,145.13 706.90,143.21 709.34,126.14 714.22,103.47 721.53,122.44 723.97,108.97 726.41,103.05 728.85,126.97 731.29,117.55 738.60,131.14 741.04,131.60 743.48,113.85 745.92,126.92 748.36,158.21 755.67,162.57 758.11,173.99 760.55,202.06 762.99,189.33 765.42,169.95 772.74,168.74 775.18,160.57 777.62,157.14 782.49,155.80 789.81,154.69 792.25,152.04 794.68,163.39 799.56,144.41 806.88,129.06 809.32,133.14 811.75,133.02 814.19,134.64 816.63,132.77 823.95,134.43 826.38,136.71 828.82,146.47 831.26,132.90 833.70,133.14 843.45,166.72 845.89,142.82 848.33,132.67 850.77,146.69 858.08,132.65 860.52,128.09 862.96,124.69 865.40,113.85 867.84,113.59 875.15,100.38 877.59,105.37 880.03,145.25 882.47,167.79 884.90,127.99 892.22,109.62 894.66,117.33 897.10,126.16 899.53,181.54 901.97,184.05 911.73,185.01 914.16,168.08 916.60,168.71 919.04,161.46 926.36,173.79 928.79,156.37 931.23,143.61 933.67,165.63 936.11,171.78 943.42,169.11 945.86,199.94 948.30,186.65 950.74,203.18 953.18,222.06 960.49,209.52 962.93,201.97 965.37,190.88 967.81,211.45 970.25,209.92 977.56,201.42 980.00,219.96" /><polyline fill="none" stroke="#7c3aed" stroke-width="2.5" points="90.00,431.63 92.44,431.63 94.88,431.63 97.32,431.63 99.75,431.63 107.07,431.63 109.51,431.63 111.95,431.63 114.38,431.63 116.82,431.63 124.14,432.84 126.58,446.55 129.01,443.25 131.45,499.99 133.89,574.92 141.21,580.39 143.64,600.00 146.08,499.34 148.52,547.88 150.96,523.99 158.27,516.36 160.71,520.80 163.15,540.73 165.59,527.93 175.34,549.37 177.78,531.10 180.22,511.14 182.66,489.63 185.10,473.86 192.41,462.40 194.85,462.24 197.29,459.71 199.73,454.11 202.16,430.56 209.48,436.95 211.92,441.24 214.36,432.98 216.79,424.02 219.23,422.66 226.55,399.03 228.99,382.21 231.42,382.31 233.86,369.33 236.30,365.62 243.62,364.40 246.05,365.71 248.49,380.27 250.93,380.47 253.37,384.93 263.12,365.60 265.56,365.90 268.00,358.75 270.44,350.66 277.75,337.09 280.19,330.01 282.63,324.27 285.07,332.25 287.51,330.67 294.82,334.42 297.26,338.87 299.70,337.16 302.14,340.75 304.58,367.29 311.89,352.53 314.33,359.84 316.77,366.10 321.64,363.02 328.96,343.71 331.40,322.83 333.84,326.80 336.27,310.32 338.71,296.04 346.03,284.47 348.47,307.10 350.90,305.47 353.34,287.13 363.10,291.62 365.53,304.85 367.97,286.64 370.41,288.44 372.85,293.32 380.16,279.56 382.60,283.26 385.04,283.99 387.48,276.67 389.92,284.94 397.23,276.91 399.67,295.03 402.11,276.87 404.55,272.34 406.99,263.95 414.30,262.71 416.74,272.24 419.18,264.35 421.62,263.44 424.05,282.74 431.37,251.77 433.81,258.62 436.25,263.01 438.68,258.05 441.12,250.08 448.44,251.13 450.88,228.05 453.32,232.93 455.75,230.97 458.19,238.42 465.51,240.96 467.95,275.03 470.38,275.70 472.82,280.40 475.26,259.25 482.58,269.00 485.01,249.79 487.45,245.71 489.89,233.92 492.33,258.95 502.08,265.19 504.52,279.07 506.96,272.40 509.40,289.00 516.71,284.57 519.15,275.21 521.59,280.31 524.03,280.11 526.47,289.66 533.78,286.74 536.22,276.21 538.66,269.57 541.10,271.54 543.53,278.74 550.85,288.02 553.29,289.28 555.73,287.70 558.16,292.09 560.60,280.87 567.92,290.85 570.36,301.80 572.79,313.76 575.23,321.18 577.67,313.26 584.99,308.33 587.42,312.50 589.86,320.31 592.30,326.90 594.74,347.94 602.05,323.39 604.49,317.58 606.93,313.04 609.37,325.69 611.81,319.87 619.12,307.40 621.56,315.44 624.00,324.33 626.44,316.76 628.88,301.48 636.19,283.44 638.63,288.51 641.07,288.79 643.51,280.58 645.95,280.59 653.26,272.58 655.70,283.05 658.14,277.38 660.58,283.96 663.01,282.75 670.33,262.75 672.77,254.39 675.21,244.70 677.64,261.05 680.08,267.24 687.40,271.56 689.84,278.27 692.27,264.25 694.71,286.07 697.15,273.45 704.47,252.62 706.90,239.83 709.34,233.61 714.22,221.15 721.53,234.24 723.97,239.05 726.41,227.14 728.85,235.39 731.29,235.50 738.60,248.70 741.04,257.86 743.48,233.57 745.92,229.95 748.36,230.96 755.67,219.95 758.11,242.15 760.55,248.94 762.99,243.99 765.42,233.39 772.74,223.06 775.18,217.91 777.62,211.92 782.49,212.48 789.81,212.81 792.25,213.10 794.68,220.29 799.56,203.45 806.88,195.97 809.32,200.58 811.75,194.05 814.19,198.64 816.63,197.70 823.95,192.08 826.38,183.41 828.82,186.99 831.26,173.75 833.70,176.62 843.45,203.99 845.89,180.43 848.33,171.08 850.77,179.84 858.08,167.01 860.52,159.69 862.96,153.95 865.40,147.12 867.84,146.95 875.15,123.54 877.59,124.71 880.03,173.92 882.47,194.75 884.90,157.48 892.22,143.77 894.66,154.94 897.10,177.80 899.53,227.09 901.97,220.46 911.73,210.06 914.16,200.66 916.60,202.59 919.04,187.26 926.36,217.32 928.79,192.69 931.23,182.14 933.67,193.53 936.11,214.62 943.42,212.03 945.86,241.98 948.30,229.07 950.74,245.14 953.18,263.48 960.49,251.30 962.93,243.96 965.37,233.18 967.81,253.17 970.25,251.68 977.56,243.42 980.00,261.78" /><polyline fill="none" stroke="#db2777" stroke-width="2.5" points="90.00,431.63 92.44,431.63 94.88,431.63 97.32,431.63 99.75,431.63 107.07,431.63 109.51,431.63 111.95,431.63 114.38,431.63 116.82,431.63 124.14,432.84 126.58,451.71 129.01,449.74 131.45,471.49 133.89,553.99 141.21,560.39 143.64,584.40 146.08,502.41 148.52,547.78 150.96,535.81 158.27,518.90 160.71,515.45 163.15,540.40 165.59,514.94 175.34,533.64 177.78,507.81 180.22,494.86 182.66,472.36 185.10,465.76 192.41,457.56 194.85,454.07 197.29,456.20 199.73,451.68 202.16,425.78 209.48,431.48 211.92,438.36 214.36,427.50 216.79,414.76 219.23,411.96 226.55,386.16 228.99,367.30 231.42,373.94 233.86,361.31 236.30,356.59 243.62,355.26 246.05,356.00 248.49,373.03 250.93,373.99 253.37,383.75 263.12,361.99 265.56,361.59 268.00,357.56 270.44,353.58 277.75,340.04 280.19,332.97 282.63,327.24 285.07,335.20 287.51,333.63 294.82,337.37 297.26,341.81 299.70,340.11 302.14,343.69 304.58,370.17 311.89,355.44 314.33,362.74 316.77,368.98 321.64,365.91 328.96,346.64 331.40,325.80 333.84,329.77 336.27,313.32 338.71,299.07 346.03,288.20 348.47,312.14 350.90,306.38 353.34,287.90 363.10,290.66 365.53,295.28 367.97,273.55 370.41,272.82 372.85,274.77 380.16,265.18 382.60,259.58 385.04,257.93 387.48,252.50 389.92,254.10 397.23,250.15 399.67,268.84 402.11,247.53 404.55,238.67 406.99,230.53 414.30,225.33 416.74,234.72 419.18,226.48 421.62,214.00 424.05,242.12 431.37,204.68 433.81,214.37 436.25,215.61 438.68,209.77 441.12,200.88 448.44,204.38 450.88,174.84 453.32,184.01 455.75,183.65 458.19,191.91 465.51,197.31 467.95,243.40 470.38,247.13 472.82,253.97 475.26,228.97 482.58,235.84 485.01,215.65 487.45,213.94 489.89,202.11 492.33,237.43 502.08,242.06 504.52,247.24 506.96,235.67 509.40,235.34 516.71,229.83 519.15,226.38 521.59,209.62 524.03,227.06 526.47,232.54 533.78,219.24 536.22,210.51 538.66,223.67 541.10,178.05 543.53,184.75 550.85,198.64 553.29,192.71 555.73,182.00 558.16,177.27 560.60,164.29 567.92,174.45 570.36,181.08 572.79,193.94 575.23,202.60 577.67,195.43 584.99,189.56 587.42,195.39 589.86,196.57 592.30,199.42 594.74,231.53 602.05,209.47 604.49,210.41 606.93,207.88 609.37,222.29 611.81,213.82 619.12,202.74 621.56,208.76 624.00,215.17 626.44,211.70 628.88,190.75 636.19,173.24 638.63,156.74 641.07,162.20 643.51,163.14 645.95,164.72 653.26,162.72 655.70,200.73 658.14,188.01 660.58,217.07 663.01,218.61 670.33,192.28 672.77,199.28 675.21,177.72 677.64,209.15 680.08,207.19 687.40,230.45 689.84,245.37 692.27,223.60 694.71,263.25 697.15,258.55 704.47,221.37 706.90,217.83 709.34,194.99 714.22,167.96 721.53,188.10 723.97,193.90 726.41,179.47 728.85,183.87 731.29,177.61 738.60,179.32 741.04,184.96 743.48,161.57 745.92,154.84 748.36,181.08 755.67,181.04 758.11,200.09 760.55,211.59 762.99,205.33 765.42,186.42 772.74,176.10 775.18,167.38 777.62,160.50 782.49,160.37 789.81,165.09 792.25,166.34 794.68,176.74 799.56,161.04 806.88,152.58 809.32,149.85 811.75,143.40 814.19,153.46 816.63,155.37 823.95,151.37 826.38,153.90 828.82,164.66 831.26,148.89 833.70,150.97 843.45,185.36 845.89,166.26 848.33,155.91 850.77,170.16 858.08,155.04 860.52,150.82 862.96,145.78 865.40,139.38 867.84,141.06 875.15,123.70 877.59,128.57 880.03,175.90 882.47,201.35 884.90,157.49 892.22,147.14 894.66,169.93 897.10,175.90 899.53,210.71 901.97,212.59 911.73,206.63 914.16,196.61 916.60,194.74 919.04,181.63 926.36,200.74 928.79,169.22 931.23,157.82 933.67,183.41 936.11,196.84 943.42,194.21 945.86,224.53 948.30,211.47 950.74,227.72 953.18,246.29 960.49,233.96 962.93,226.53 965.37,215.63 967.81,235.85 970.25,234.35 977.56,225.99 980.00,244.57" /><polyline fill="none" stroke="#b45309" stroke-width="2.5" points="90.00,431.63 92.44,431.63 94.88,431.63 97.32,431.63 99.75,431.63 107.07,431.63 109.51,431.63 111.95,431.63 114.38,431.63 116.82,431.63 124.14,432.84 126.58,439.95 129.01,441.72 131.45,470.85 133.89,535.16 141.21,545.00 143.64,566.09 146.08,500.49 148.52,533.60 150.96,515.42 158.27,505.75 160.71,510.70 163.15,527.88 165.59,519.83 175.34,542.15 177.78,520.05 180.22,513.27 182.66,502.31 185.10,492.58 192.41,485.73 194.85,481.47 197.29,482.28 199.73,478.30 202.16,453.75 209.48,458.61 211.92,469.64 214.36,461.03 216.79,455.59 219.23,456.60 226.55,432.58 228.99,418.60 231.42,426.51 233.86,410.99 236.30,405.26 243.62,400.58 246.05,401.21 248.49,416.01 250.93,415.28 253.37,420.42 263.12,401.02 265.56,401.47 268.00,394.52 270.44,385.20 277.75,372.18 280.19,367.23 282.63,361.66 285.07,367.60 287.51,366.93 294.82,370.98 297.26,375.17 299.70,374.44 302.14,376.56 304.58,400.03 311.89,390.63 314.33,400.10 316.77,410.37 321.64,408.93 328.96,390.55 331.40,371.18 333.84,376.48 336.27,363.48 338.71,348.43 346.03,339.15 348.47,357.15 350.90,338.60 353.34,316.29 363.10,325.93 365.53,334.48 367.97,317.07 370.41,317.49 372.85,321.68 380.16,314.95 382.60,304.42 385.04,299.75 387.48,282.05 389.92,295.65 397.23,292.48 399.67,315.13 402.11,296.53 404.55,289.43 406.99,281.59 414.30,274.50 416.74,279.32 419.18,268.87 421.62,277.87 424.05,316.88 431.37,289.91 433.81,295.85 436.25,293.01 438.68,286.36 441.12,276.20 448.44,282.36 450.88,263.45 453.32,266.52 455.75,265.63 458.19,274.18 465.51,278.14 467.95,317.34 470.38,322.43 472.82,330.14 475.26,306.77 482.58,314.82 485.01,301.74 487.45,299.20 489.89,289.51 492.33,320.39 502.08,326.11 504.52,332.02 506.96,328.26 509.40,337.34 516.71,333.31 519.15,331.11 521.59,297.76 524.03,305.11 526.47,309.90 533.78,300.66 536.22,296.18 538.66,306.18 541.10,263.60 543.53,272.65 550.85,270.75 553.29,268.70 555.73,258.20 558.16,246.31 560.60,241.05 567.92,249.14 570.36,245.86 572.79,234.91 575.23,231.85 577.67,231.41 584.99,223.87 587.42,224.80 589.86,220.87 592.30,232.20 594.74,266.11 602.05,247.69 604.49,245.80 606.93,232.05 609.37,238.32 611.81,224.85 619.12,207.28 621.56,207.31 624.00,216.89 626.44,205.00 628.88,197.07 636.19,170.60 638.63,158.76 641.07,156.44 643.51,161.29 645.95,168.97 653.26,160.31 655.70,202.95 658.14,183.36 660.58,222.00 663.01,221.14 670.33,190.82 672.77,202.66 675.21,183.85 677.64,225.00 680.08,224.35 687.40,250.72 689.84,273.02 692.27,260.98 694.71,305.92 697.15,299.71 704.47,256.32 706.90,263.35 709.34,239.88 714.22,212.29 721.53,235.32 723.97,224.02 726.41,212.39 728.85,228.88 731.29,217.98 738.60,223.52 741.04,231.56 743.48,209.59 745.92,208.59 748.36,240.48 755.67,240.26 758.11,254.95 760.55,275.91 762.99,267.60 765.42,247.17 772.74,241.53 775.18,235.15 777.62,229.19 782.49,228.71 789.81,232.99 792.25,231.90 794.68,242.78 799.56,224.79 806.88,210.24 809.32,214.11 811.75,213.99 814.19,215.53 816.63,213.75 823.95,215.33 826.38,217.49 828.82,226.74 831.26,213.88 833.70,214.10 843.45,245.94 845.89,223.28 848.33,213.66 850.77,226.95 858.08,213.64 860.52,209.32 862.96,206.09 865.40,195.83 867.84,195.93 875.15,180.16 877.59,191.75 880.03,232.12 882.47,250.86 884.90,212.33 892.22,196.28 894.66,205.57 897.10,223.19 899.53,267.61 901.97,265.72 911.73,263.28 914.16,256.05 916.60,260.72 919.04,250.96 926.36,267.82 928.79,247.60 931.23,237.62 933.67,258.41 936.11,270.49 943.42,268.00 945.86,296.81 948.30,284.40 950.74,299.85 953.18,317.50 960.49,305.78 962.93,298.72 965.37,288.35 967.81,307.58 970.25,306.15 977.56,298.20 980.00,315.53" /><polyline fill="none" stroke="#475569" stroke-width="2.5" points="90.00,431.63 92.44,431.63 94.88,431.63 97.32,431.63 99.75,431.63 107.07,431.63 109.51,431.63 111.95,431.63 114.38,431.63 116.82,431.63 124.14,432.84 126.58,443.96 129.01,443.00 131.45,480.42 133.89,551.84 141.21,561.31 143.64,581.17 146.08,514.22 148.52,556.26 150.96,535.87 158.27,525.47 160.71,524.29 163.15,543.31 165.59,512.82 175.34,539.29 177.78,516.95 180.22,510.26 182.66,496.02 185.10,480.36 192.41,475.12 194.85,472.27 197.29,471.75 199.73,470.23 202.16,449.66 209.48,450.93 211.92,459.05 214.36,452.40 216.79,447.03 219.23,449.16 226.55,430.12 228.99,441.28 231.42,442.28 233.86,446.83 236.30,433.65 243.62,418.11 246.05,415.29 248.49,436.23 250.93,439.24 253.37,445.44 263.12,428.70 265.56,425.42 268.00,420.66 270.44,410.02 277.75,397.25 280.19,392.39 282.63,386.93 285.07,392.75 287.51,392.10 294.82,396.07 297.26,400.18 299.70,399.46 302.14,401.55 304.58,424.56 311.89,415.35 314.33,424.63 316.77,434.71 321.64,433.30 328.96,415.26 331.40,396.26 333.84,401.47 336.27,388.71 338.71,373.95 346.03,365.16 348.47,386.91 350.90,372.46 353.34,352.59 363.10,357.62 365.53,359.70 367.97,339.66 370.41,337.99 372.85,341.00 380.16,332.44 382.60,321.55 385.04,316.02 387.48,308.01 389.92,311.14 397.23,309.33 399.67,330.50 402.11,308.62 404.55,298.71 406.99,290.31 414.30,281.68 416.74,289.26 419.18,281.70 421.62,267.74 424.05,286.78 431.37,253.19 433.81,262.44 436.25,263.97 438.68,251.65 441.12,235.29 448.44,242.64 450.88,219.82 453.32,215.07 455.75,218.65 458.19,230.25 465.51,234.87 467.95,262.49 470.38,264.67 472.82,270.36 475.26,242.70 482.58,248.27 485.01,232.85 487.45,232.57 489.89,226.10 492.33,242.05 502.08,246.06 504.52,251.27 506.96,244.62 509.40,257.64 516.71,250.43 519.15,246.96 521.59,212.40 524.03,226.38 526.47,232.24 533.78,222.14 536.22,221.22 538.66,230.07 541.10,222.88 543.53,225.54 550.85,223.03 553.29,223.85 555.73,228.15 558.16,229.15 560.60,229.31 567.92,233.19 570.36,224.50 572.79,217.59 575.23,215.69 577.67,214.49 584.99,207.10 587.42,207.72 589.86,204.79 592.30,207.22 594.74,246.69 602.05,218.48 604.49,224.83 606.93,213.15 609.37,223.67 611.81,215.08 619.12,197.65 621.56,203.62 624.00,218.17 626.44,201.27 628.88,181.64 636.19,150.56 638.63,132.19 641.07,127.13 643.51,128.52 645.95,130.41 653.26,119.39 655.70,141.37 658.14,142.37 660.58,164.06 663.01,162.21 670.33,132.59 672.77,136.74 675.21,123.43 677.64,147.91 680.08,143.16 687.40,159.45 689.84,177.25 692.27,162.16 694.71,193.61 697.15,194.51 704.47,161.44 706.90,155.58 709.34,138.85 714.22,127.51 721.53,147.28 723.97,139.19 726.41,127.85 728.85,146.61 731.29,139.74 738.60,149.09 741.04,156.04 743.48,133.58 745.92,137.09 748.36,166.93 755.67,168.66 758.11,186.70 760.55,202.99 762.99,196.37 765.42,178.19 772.74,171.14 775.18,163.04 777.62,158.93 782.49,157.85 789.81,157.14 792.25,153.70 794.68,165.03 799.56,146.06 806.88,130.73 809.32,134.81 811.75,134.69 814.19,136.30 816.63,134.43 823.95,136.09 826.38,138.37 828.82,148.13 831.26,134.57 833.70,134.80 843.45,168.35 845.89,144.47 848.33,134.34 850.77,148.34 858.08,134.32 860.52,129.77 862.96,126.36 865.40,115.54 867.84,115.65 875.15,100.00 877.59,111.49 880.03,155.48 882.47,178.83 884.90,125.99 892.22,106.85 894.66,112.27 897.10,127.36 899.53,181.43 901.97,177.40 911.73,170.44 914.16,160.01 916.60,168.06 919.04,163.84 926.36,185.63 928.79,161.89 931.23,148.61 933.67,165.90 936.11,195.00 943.42,192.37 945.86,222.73 948.30,209.65 950.74,225.92 953.18,244.51 960.49,232.17 962.93,224.73 965.37,213.81 967.81,234.06 970.25,232.56 977.56,224.19 980.00,242.79" /><polyline fill="none" stroke="#1d4ed8" stroke-width="3" points="90.00,431.63 92.44,445.19 94.88,431.68 97.32,435.30 99.75,434.89 107.07,412.49 109.51,409.43 111.95,424.67 114.38,428.02 116.82,453.35 124.14,445.07 126.58,441.57 129.01,433.69 131.45,495.40 133.89,565.09 141.21,567.09 143.64,584.61 146.08,468.96 148.52,522.28 150.96,501.52 158.27,490.03 160.71,493.38 163.15,519.89 165.59,518.23 175.34,546.02 177.78,516.36 180.22,498.24 182.66,473.24 185.10,464.48 192.41,464.02 194.85,456.32 197.29,455.83 199.73,447.11 202.16,428.73 209.48,435.93 211.92,446.38 214.36,441.17 216.79,432.50 219.23,434.09 226.55,392.73 228.99,384.19 231.42,382.52 233.86,376.16 236.30,367.86 243.62,366.42 246.05,370.85 248.49,393.01 250.93,392.50 253.37,401.33 263.12,374.63 265.56,382.21 268.00,377.07 270.44,378.53 277.75,371.17 280.19,363.67 282.63,364.02 285.07,370.41 287.51,356.90 294.82,355.71 297.26,348.16 299.70,351.98 302.14,346.68 304.58,361.65 311.89,349.05 314.33,360.47 316.77,360.67 321.64,363.79 328.96,350.73 331.40,335.98 333.84,335.22 336.27,324.65 338.71,317.89 346.03,311.35 348.47,311.80 350.90,305.57 353.34,294.69 363.10,305.06 365.53,305.81 367.97,297.54 370.41,293.62 372.85,298.51 380.16,295.87 382.60,301.81 385.04,297.18 387.48,288.68 389.92,289.70 397.23,287.06 399.67,286.86 402.11,274.96 404.55,274.49 406.99,268.53 414.30,268.88 416.74,272.62 419.18,274.40 421.62,279.69 424.05,302.74 431.37,281.72 433.81,288.84 436.25,278.14 438.68,279.32 441.12,268.35 448.44,271.15 450.88,256.09 453.32,251.20 455.75,251.06 458.19,254.42 465.51,254.73 467.95,262.50 470.38,266.28 472.82,271.97 475.26,250.26 482.58,256.58 485.01,250.60 487.45,247.33 489.89,242.23 492.33,250.84 502.08,261.47 504.52,253.75 506.96,241.79 509.40,245.97 516.71,242.43 519.15,239.09 521.59,234.91 524.03,222.85 526.47,223.34 533.78,215.56 536.22,217.58 538.66,219.41 541.10,212.55 543.53,205.26 550.85,198.25 553.29,206.35 555.73,211.06 558.16,217.86 560.60,209.45 567.92,205.30 570.36,199.72 572.79,194.66 575.23,192.94 577.67,192.96 584.99,187.61 587.42,193.17 589.86,184.26 592.30,188.61 594.74,229.08 602.05,206.73 604.49,208.54 606.93,201.98 609.37,212.08 611.81,203.72 619.12,188.30 621.56,188.32 624.00,196.11 626.44,187.28 628.88,175.03 636.19,157.20 638.63,153.14 641.07,152.41 643.51,169.27 645.95,164.30 653.26,161.44 655.70,179.51 658.14,174.29 660.58,190.51 663.01,189.04 670.33,165.68 672.77,162.20 675.21,161.35 677.64,186.65 680.08,186.90 687.40,200.86 689.84,213.33 692.27,207.64 694.71,230.18 697.15,215.67 704.47,194.04 706.90,180.00 709.34,169.61 714.22,161.33 721.53,168.29 723.97,165.48 726.41,160.22 728.85,159.10 731.29,156.20 738.60,160.80 741.04,162.11 743.48,152.01 745.92,148.44 748.36,164.97 755.67,167.27 758.11,171.42 760.55,188.08 762.99,176.77 765.42,163.09 772.74,153.61 775.18,146.60 777.62,141.19 782.49,141.34 789.81,146.85 792.25,148.73 794.68,160.12 799.56,157.32 806.88,147.14 809.32,137.99 811.75,142.98 814.19,143.13 816.63,132.93 823.95,130.49 826.38,133.60 828.82,141.23 831.26,137.03 833.70,138.32 843.45,169.83 845.89,152.33 848.33,144.32 850.77,143.76 858.08,135.93 860.52,129.75 862.96,129.91 865.40,133.00 867.84,137.63 875.15,129.93 877.59,143.09 880.03,150.56 882.47,169.74 884.90,140.65 892.22,133.20 894.66,137.29 897.10,137.65 899.53,161.57 901.97,160.50 911.73,158.04 914.16,150.34 916.60,154.39 919.04,143.31 926.36,159.06 928.79,147.97 931.23,134.99 933.67,143.60 936.11,151.01 943.42,150.14 945.86,163.67 948.30,152.93 950.74,161.48 953.18,181.46 960.49,168.28 962.93,170.72 965.37,172.62 967.81,195.60 970.25,204.04 977.56,188.96 980.00,185.02" />
<line x1="1000" y1="84" x2="1032" y2="84" stroke="#1d4ed8" stroke-width="2.5" /><text x="1042" y="89" font-size="16" fill="#0f172a">configured_baseline</text><line x1="1000" y1="112" x2="1032" y2="112" stroke="#0f766e" stroke-width="2.5" /><text x="1042" y="117" font-size="16" fill="#0f172a">ridge_walkforward</text><line x1="1000" y1="140" x2="1032" y2="140" stroke="#7c3aed" stroke-width="2.5" /><text x="1042" y="145" font-size="16" fill="#0f172a">tree_walkforward</text><line x1="1000" y1="168" x2="1032" y2="168" stroke="#db2777" stroke-width="2.5" /><text x="1042" y="173" font-size="16" fill="#0f172a">mlp_walkforward</text><line x1="1000" y1="196" x2="1032" y2="196" stroke="#b45309" stroke-width="2.5" /><text x="1042" y="201" font-size="16" fill="#0f172a">tcn_walkforward</text><line x1="1000" y1="224" x2="1032" y2="224" stroke="#475569" stroke-width="2.5" /><text x="1042" y="229" font-size="16" fill="#0f172a">hybrid_sequence_walkforward</text><line x1="1000" y1="252" x2="1032" y2="252" stroke="#1d4ed8" stroke-width="3" /><text x="1042" y="257" font-size="16" fill="#0f172a">benchmark</text>
</svg>
