<svg xmlns="http://www.w3.org/2000/svg" width="1200" height="720" viewBox="0 0 1200 720">
<rect width="1200" height="720" fill="#f8fafc" />
<text x="90" y="32" font-size="28" font-family="Segoe UI, Arial, sans-serif" fill="#0f172a">US Stocks Strategy Value - Last 251 Trading Days</text>
<text x="90" y="54" font-size="15" font-family="Segoe UI, Arial, sans-serif" fill="#475569">Initial capital assumed: $100,000</text>
<rect x="90" y="60" width="890" height="580" fill="#ffffff" stroke="#cbd5e1" />
<line x1="90" y1="640.00" x2="980" y2="640.00" stroke="#e2e8f0" stroke-width="1" /><text x="78" y="645.00" font-size="14" text-anchor="end" fill="#475569">$84,706</text><line x1="90" y1="495.00" x2="980" y2="495.00" stroke="#e2e8f0" stroke-width="1" /><text x="78" y="500.00" font-size="14" text-anchor="end" fill="#475569">$95,933</text><line x1="90" y1="350.00" x2="980" y2="350.00" stroke="#e2e8f0" stroke-width="1" /><text x="78" y="355.00" font-size="14" text-anchor="end" fill="#475569">$107,160</text><line x1="90" y1="205.00" x2="980" y2="205.00" stroke="#e2e8f0" stroke-width="1" /><text x="78" y="210.00" font-size="14" text-anchor="end" fill="#475569">$118,388</text><line x1="90" y1="60.00" x2="980" y2="60.00" stroke="#e2e8f0" stroke-width="1" /><text x="78" y="65.00" font-size="14" text-anchor="end" fill="#475569">$129,615</text>
<line x1="90.00" y1="60" x2="90.00" y2="640" stroke="#f1f5f9" stroke-width="1" /><text x="90.00" y="668" font-size="14" text-anchor="middle" fill="#475569">2025-03-17</text><line x1="535.00" y1="60" x2="535.00" y2="640" stroke="#f1f5f9" stroke-width="1" /><text x="535.00" y="668" font-size="14" text-anchor="middle" fill="#475569">2025-09-15</text><line x1="980.00" y1="60" x2="980.00" y2="640" stroke="#f1f5f9" stroke-width="1" /><text x="980.00" y="668" font-size="14" text-anchor="middle" fill="#475569">2026-03-16</text>
<polyline fill="none" stroke="#1d4ed8" stroke-width="2.5" points="90.00,442.48 92.45,452.98 94.89,447.29 97.34,446.54 99.78,447.45 107.12,427.95 109.56,435.21 112.01,439.48 114.45,432.06 116.90,446.27 124.23,430.78 126.68,445.14 129.12,448.28 131.57,455.60 134.01,527.48 141.35,542.19 143.79,553.08 146.24,508.00 148.68,530.72 151.13,512.26 158.46,504.52 160.91,509.41 163.35,514.72 165.80,530.75 175.58,557.10 178.02,536.02 180.47,538.81 182.91,539.91 185.36,538.13 192.69,529.11 195.14,529.39 197.58,533.14 200.03,550.67 202.47,530.13 209.81,534.10 212.25,544.80 214.70,534.14 217.14,543.43 219.59,549.63 226.92,539.75 229.37,540.69 231.81,546.27 234.26,526.51 236.70,513.66 244.04,509.66 246.48,510.44 248.93,522.92 251.37,529.06 253.82,531.76 263.60,514.79 266.04,517.05 268.49,515.68 270.93,500.35 278.27,494.16 280.71,482.93 283.16,481.80 285.60,504.83 288.05,500.50 295.38,497.99 297.83,487.09 300.27,479.37 302.72,478.27 305.16,500.76 312.50,485.38 314.95,493.59 317.39,500.33 322.28,503.92 329.62,477.29 332.06,457.34 334.51,459.20 336.95,448.97 339.40,444.71 346.73,434.68 349.18,462.30 351.62,446.71 354.07,429.41 363.85,441.47 366.29,442.57 368.74,428.23 371.18,425.78 373.63,429.02 380.96,426.42 383.41,405.89 385.85,399.87 388.30,382.94 390.74,398.21 398.08,392.65 400.52,416.77 402.97,400.52 405.41,388.51 407.86,380.55 415.19,366.72 417.64,366.57 420.08,355.17 422.53,343.05 424.97,384.54 432.31,351.45 434.75,359.85 437.20,355.18 439.64,350.41 442.09,341.37 449.42,343.47 451.87,324.48 454.31,328.93 456.76,323.30 459.20,327.58 466.54,332.04 468.98,372.81 471.43,383.06 473.87,390.17 476.32,364.24 483.65,367.43 486.10,362.15 488.54,358.80 490.99,344.03 493.43,378.33 503.21,378.99 505.66,367.42 508.10,360.27 510.55,367.13 517.88,368.50 520.33,348.60 522.77,349.56 525.22,331.77 527.66,332.64 535.00,325.01 537.45,324.03 539.89,315.39 542.34,320.79 544.78,314.33 552.12,310.40 554.56,302.83 557.01,304.39 559.45,301.69 561.90,296.29 569.23,302.44 571.68,300.07 574.12,275.23 576.57,284.20 579.01,288.43 586.35,279.57 588.79,292.45 591.24,279.24 593.68,276.26 596.13,316.46 603.46,269.78 605.91,291.46 608.35,278.62 610.80,272.12 613.24,273.18 620.58,267.52 623.02,281.45 625.47,289.59 627.91,276.12 630.36,266.27 637.69,240.70 640.14,228.14 642.58,216.57 645.03,234.74 647.47,238.12 654.81,227.12 657.25,249.55 659.70,229.10 662.14,245.59 664.59,263.71 671.92,226.90 674.37,224.54 676.81,206.88 679.26,245.95 681.70,246.79 689.04,254.93 691.48,262.62 693.93,249.36 696.37,279.48 698.82,267.79 706.15,209.97 708.60,197.55 711.04,183.27 715.93,179.75 723.27,197.68 725.71,200.76 728.16,197.04 730.60,209.65 733.05,208.11 740.38,215.74 742.83,219.20 745.27,203.41 747.72,197.26 750.16,212.78 757.50,215.03 759.95,227.95 762.39,245.28 764.84,237.23 767.28,225.24 774.62,216.64 777.06,211.85 779.51,204.51 784.40,202.82 791.73,201.48 794.18,204.40 796.62,213.46 801.51,208.10 808.85,201.02 811.29,194.69 813.74,191.62 816.18,184.54 818.63,187.73 825.96,186.33 828.41,202.13 830.85,198.53 833.30,211.28 835.74,216.86 845.52,233.61 847.97,215.97 850.41,208.36 852.86,218.31 860.19,211.83 862.64,209.71 865.08,211.17 867.53,207.10 869.97,203.41 877.31,188.47 879.75,154.83 882.20,139.44 884.64,136.69 887.09,119.59 894.42,132.29 896.87,142.35 899.31,122.59 901.76,124.21 904.20,125.98 913.98,142.36 916.43,131.27 918.87,132.26 921.32,133.17 928.65,114.56 931.10,111.61 933.54,117.54 935.99,131.86 938.43,100.00 945.77,110.21 948.21,126.21 950.66,138.02 953.10,162.30 955.55,161.04 962.88,151.50 965.33,155.26 967.77,154.32 970.22,150.23 972.66,144.21 980.00,141.88" /><polyline fill="none" stroke="#0f766e" stroke-width="2.5" points="90.00,442.48 92.45,442.48 94.89,442.48 97.34,442.48 99.78,442.48 107.12,442.48 109.56,442.48 112.01,442.48 114.45,442.48 116.90,442.48 124.23,443.72 126.68,454.35 129.12,453.39 131.57,485.81 134.01,559.47 141.35,559.27 143.79,574.86 146.24,491.95 148.68,529.95 151.13,504.76 158.46,497.47 160.91,498.60 163.35,519.68 165.80,514.06 175.58,540.04 178.02,517.45 180.47,507.36 182.91,494.25 185.36,480.67 192.69,474.75 195.14,471.41 197.58,471.45 200.03,469.40 202.47,447.73 209.81,449.94 212.25,454.79 214.70,444.34 217.14,444.94 219.59,446.56 226.92,433.29 229.37,425.26 231.81,422.09 234.26,404.12 236.70,397.04 244.04,394.15 246.48,395.48 248.93,409.89 251.37,413.94 253.82,418.70 263.60,398.51 266.04,399.55 268.49,398.91 270.93,383.93 278.27,374.14 280.71,368.37 283.16,365.36 285.60,374.44 288.05,377.29 295.38,385.04 297.83,381.97 300.27,378.55 302.72,377.55 305.16,402.52 312.50,395.36 314.95,401.02 317.39,414.16 322.28,413.74 329.62,392.99 332.06,372.71 334.51,379.93 336.95,373.60 339.40,367.48 346.73,353.18 349.18,372.87 351.62,357.17 354.07,337.21 363.85,347.26 366.29,357.33 368.74,343.84 371.18,347.70 373.63,354.59 380.96,350.43 383.41,342.60 385.85,341.52 388.30,320.59 390.74,331.87 398.08,325.48 400.52,347.32 402.97,333.15 405.41,323.34 407.86,319.33 415.19,312.97 417.64,317.51 420.08,307.65 422.53,295.21 424.97,337.09 432.31,303.56 434.75,310.86 437.20,304.18 439.64,300.28 442.09,287.29 449.42,289.61 451.87,272.18 454.31,272.78 456.76,265.79 459.20,270.09 466.54,272.96 468.98,312.55 471.43,319.82 473.87,327.26 476.32,299.10 483.65,303.09 486.10,297.27 488.54,295.65 490.99,281.25 493.43,313.26 503.21,316.38 505.66,312.58 508.10,298.46 510.55,302.97 517.88,296.87 520.33,292.03 522.77,284.29 525.22,278.43 527.66,281.79 535.00,272.95 537.45,270.89 539.89,270.34 542.34,281.23 544.78,278.64 552.12,284.91 554.56,295.93 557.01,297.24 559.45,305.21 561.90,303.71 569.23,297.14 571.68,291.25 574.12,271.62 576.57,286.07 579.01,279.80 586.35,265.75 588.79,280.98 591.24,279.47 593.68,280.26 596.13,303.59 603.46,281.47 605.91,272.11 608.35,255.15 610.80,259.86 613.24,258.26 620.58,260.25 623.02,262.46 625.47,261.42 627.91,251.51 630.36,253.78 637.69,249.41 640.14,250.63 642.58,259.80 645.03,281.51 647.47,272.89 654.81,272.67 657.25,300.40 659.70,282.68 662.14,307.04 664.59,320.68 671.92,283.00 674.37,282.10 676.81,270.27 679.26,308.02 681.70,305.63 689.04,312.49 691.48,320.04 693.93,309.37 696.37,339.42 698.82,329.40 706.15,268.87 708.60,260.68 711.04,247.11 715.93,244.17 723.27,262.09 725.71,267.73 728.16,264.90 730.60,276.31 733.05,275.10 740.38,279.20 742.83,285.74 745.27,265.69 747.72,265.61 750.16,280.14 757.50,283.30 759.95,292.25 762.39,311.21 764.84,302.36 767.28,286.78 774.62,276.05 777.06,271.23 779.51,266.05 784.40,264.72 791.73,266.63 794.18,268.24 796.62,277.82 801.51,270.29 808.85,273.54 811.29,270.09 813.74,257.84 816.18,262.49 818.63,263.43 825.96,256.08 828.41,253.81 830.85,262.00 833.30,271.75 835.74,275.41 845.52,297.72 847.97,272.89 850.41,263.99 852.86,269.83 860.19,272.95 862.64,273.09 865.08,279.49 867.53,274.11 869.97,260.69 877.31,241.75 879.75,237.24 882.20,272.08 884.64,288.51 887.09,260.43 894.42,257.70 896.87,269.43 899.31,262.10 901.76,272.27 904.20,276.55 913.98,287.20 916.43,279.37 918.87,277.25 921.32,276.21 928.65,270.89 931.10,250.85 933.54,252.47 935.99,281.97 938.43,269.97 945.77,278.11 948.21,291.58 950.66,299.48 953.10,316.85 955.55,316.40 962.88,309.17 965.33,316.02 967.77,309.78 970.22,311.09 972.66,310.42 980.00,306.87" /><polyline fill="none" stroke="#7c3aed" stroke-width="2.5" points="90.00,442.48 92.45,442.48 94.89,442.48 97.34,442.48 99.78,442.48 107.12,442.48 109.56,442.48 112.01,442.48 114.45,442.48 116.90,442.48 124.23,443.72 126.68,453.22 129.12,446.37 131.57,476.22 134.01,558.99 141.35,570.06 143.79,594.31 146.24,524.61 148.68,558.60 151.13,545.96 158.46,532.94 160.91,530.27 163.35,547.02 165.80,534.29 175.58,559.48 178.02,531.17 180.47,523.64 182.91,517.00 185.36,498.46 192.69,488.88 195.14,480.96 197.58,487.68 200.03,485.67 202.47,464.27 209.81,466.46 212.25,471.24 214.70,460.93 217.14,461.51 219.59,463.12 226.92,450.02 229.37,442.09 231.81,438.96 234.26,421.22 236.70,414.23 244.04,411.38 246.48,412.69 248.93,426.92 251.37,430.91 253.82,435.61 263.60,415.68 266.04,416.71 268.49,416.08 270.93,401.29 278.27,391.63 280.71,385.93 283.16,382.96 285.60,391.93 288.05,394.73 295.38,402.38 297.83,399.36 300.27,395.98 302.72,395.00 305.16,419.64 312.50,412.58 314.95,418.16 317.39,431.13 322.28,430.72 329.62,410.23 332.06,390.22 334.51,397.35 336.95,391.10 339.40,385.05 346.73,370.62 349.18,385.68 351.62,369.43 354.07,348.74 363.85,359.59 366.29,371.06 368.74,358.98 371.18,362.41 373.63,370.71 380.96,366.17 383.41,357.65 385.85,353.47 388.30,332.42 390.74,344.66 398.08,339.48 400.52,358.75 402.97,345.14 405.41,336.32 407.86,330.39 415.19,326.00 417.64,328.33 420.08,317.58 422.53,326.98 424.97,368.95 432.31,335.48 434.75,343.97 437.20,339.25 439.64,334.43 442.09,325.28 449.42,327.41 451.87,308.20 454.31,312.69 456.76,307.00 459.20,311.33 466.54,315.84 468.98,357.08 471.43,367.46 473.87,374.65 476.32,348.41 483.65,351.64 486.10,346.30 488.54,342.91 490.99,327.97 493.43,361.31 503.21,366.84 505.66,367.64 508.10,353.71 510.55,363.70 517.88,356.06 520.33,345.98 522.77,326.93 525.22,327.24 527.66,327.04 535.00,318.38 537.45,315.70 539.89,323.00 542.34,323.11 544.78,323.26 552.12,322.08 554.56,332.77 557.01,334.29 559.45,340.41 561.90,337.34 569.23,334.44 571.68,329.87 574.12,302.95 576.57,310.12 579.01,306.95 586.35,296.89 588.79,314.08 591.24,303.23 593.68,300.43 596.13,337.94 603.46,291.92 605.91,308.24 608.35,294.76 610.80,285.01 613.24,288.81 620.58,291.69 623.02,299.84 625.47,301.04 627.91,288.42 630.36,279.69 637.69,261.66 640.14,250.73 642.58,241.27 645.03,262.65 647.47,253.52 654.81,245.31 657.25,277.51 659.70,258.96 662.14,288.54 664.59,300.54 671.92,260.30 674.37,262.71 676.81,253.05 679.26,295.72 681.70,295.07 689.04,300.19 691.48,315.41 693.93,305.31 696.37,338.25 698.82,328.78 706.15,266.70 708.60,256.52 711.04,243.68 715.93,238.41 723.27,259.29 725.71,266.88 728.16,262.70 730.60,275.87 733.05,275.38 740.38,283.07 742.83,287.29 745.27,265.37 747.72,268.46 750.16,288.63 757.50,289.36 759.95,299.83 762.39,316.64 764.84,304.05 767.28,289.09 774.62,276.92 777.06,269.77 779.51,265.37 784.40,263.35 791.73,262.60 794.18,264.04 796.62,274.23 801.51,264.15 808.85,251.31 811.29,259.28 813.74,247.16 816.18,246.95 818.63,240.27 825.96,232.10 828.41,229.27 830.85,218.99 833.30,223.42 835.74,231.08 845.52,250.67 847.97,221.31 850.41,211.51 852.86,218.24 860.19,221.48 862.64,220.35 865.08,221.92 867.53,227.27 869.97,216.75 877.31,203.00 879.75,196.02 882.20,229.59 884.64,251.04 887.09,222.27 894.42,216.70 896.87,228.87 899.31,219.71 901.76,236.31 904.20,238.56 913.98,250.79 916.43,240.70 918.87,239.04 921.32,235.59 928.65,231.65 931.10,211.94 933.54,213.88 935.99,242.94 938.43,231.74 945.77,240.09 948.21,253.91 950.66,262.02 953.10,279.84 955.55,279.38 962.88,271.96 965.33,278.99 967.77,272.59 970.22,273.94 972.66,273.25 980.00,269.60" /><polyline fill="none" stroke="#db2777" stroke-width="2.5" points="90.00,442.48 92.45,442.48 94.89,442.48 97.34,442.48 99.78,442.48 107.12,442.48 109.56,442.48 112.01,442.48 114.45,442.48 116.90,442.48 124.23,443.72 126.68,462.33 129.12,463.37 131.57,478.23 134.01,555.58 141.35,569.20 143.79,591.99 146.24,539.98 148.68,570.81 151.13,552.24 158.46,537.79 160.91,542.58 163.35,552.06 165.80,541.52 175.58,560.57 178.02,534.82 180.47,536.94 182.91,538.66 185.36,536.25 192.69,528.47 195.14,521.15 197.58,519.29 200.03,517.32 202.47,496.47 209.81,498.60 212.25,503.26 214.70,493.21 217.14,493.78 219.59,495.34 226.92,482.58 229.37,474.85 231.81,471.80 234.26,454.51 236.70,447.70 244.04,444.92 246.48,446.19 248.93,460.07 251.37,463.95 253.82,468.54 263.60,449.11 266.04,450.11 268.49,449.50 270.93,435.08 278.27,425.67 280.71,420.12 283.16,417.22 285.60,425.96 288.05,428.69 295.38,436.15 297.83,433.20 300.27,429.91 302.72,428.95 305.16,452.97 312.50,446.08 314.95,451.53 317.39,464.17 322.28,463.77 329.62,443.80 332.06,424.30 334.51,431.24 336.95,425.15 339.40,419.26 346.73,405.51 349.18,424.45 351.62,409.34 354.07,390.13 363.85,399.81 366.29,409.49 368.74,396.51 371.18,400.23 373.63,406.86 380.96,402.86 383.41,395.32 385.85,394.28 388.30,374.15 390.74,385.00 398.08,378.85 400.52,399.86 402.97,386.23 405.41,376.79 407.86,372.93 415.19,366.82 417.64,371.19 420.08,361.70 422.53,349.40 424.97,389.52 432.31,359.50 434.75,366.72 437.20,363.92 439.64,359.51 442.09,351.10 449.42,351.99 451.87,336.45 454.31,340.08 456.76,332.85 459.20,339.87 466.54,339.88 468.98,377.45 471.43,385.98 473.87,391.64 476.32,366.51 483.65,370.11 486.10,362.98 488.54,357.78 490.99,342.84 493.43,373.20 503.21,374.65 505.66,364.56 508.10,350.87 510.55,355.04 517.88,348.34 520.33,336.56 522.77,318.11 525.22,319.63 527.66,318.96 535.00,302.15 537.45,295.04 539.89,301.57 542.34,303.33 544.78,306.65 552.12,315.22 554.56,317.45 557.01,318.73 559.45,323.01 561.90,321.69 569.23,329.65 571.68,331.92 574.12,318.61 576.57,331.95 579.01,324.91 586.35,314.55 588.79,326.01 591.24,324.51 593.68,330.26 596.13,361.67 603.46,342.19 605.91,335.57 608.35,323.42 610.80,333.59 613.24,317.66 620.58,311.60 623.02,312.23 625.47,308.42 627.91,299.39 630.36,298.73 637.69,287.58 640.14,278.06 642.58,275.92 645.03,294.15 647.47,289.78 654.81,284.18 657.25,311.11 659.70,297.08 662.14,326.40 664.59,335.39 671.92,302.15 674.37,301.50 676.81,290.49 679.26,327.50 681.70,325.89 689.04,339.22 691.48,353.61 693.93,348.06 696.37,379.53 698.82,372.88 706.15,320.40 708.60,312.53 711.04,297.98 715.93,292.21 723.27,306.20 725.71,311.78 728.16,312.59 730.60,324.96 733.05,325.42 740.38,327.46 742.83,334.82 745.27,314.26 747.72,311.15 750.16,326.54 757.50,331.74 759.95,339.48 762.39,353.41 764.84,343.92 767.28,330.95 774.62,321.19 777.06,316.26 779.51,310.93 784.40,309.22 791.73,311.43 794.18,312.81 796.62,322.89 801.51,314.19 808.85,307.03 811.29,302.70 813.74,298.44 816.18,296.81 818.63,292.07 825.96,281.36 828.41,279.61 830.85,277.81 833.30,285.52 835.74,290.22 845.52,304.74 847.97,282.14 850.41,275.07 852.86,286.84 860.19,288.77 862.64,291.73 865.08,298.63 867.53,300.40 869.97,292.32 877.31,284.62 879.75,269.67 882.20,293.27 884.64,300.88 887.09,264.64 894.42,260.13 896.87,266.96 899.31,254.31 901.76,272.67 904.20,276.59 913.98,288.33 916.43,274.81 918.87,269.24 921.32,270.48 928.65,260.59 931.10,242.88 933.54,246.34 935.99,273.52 938.43,262.74 945.77,266.38 948.21,277.06 950.66,284.46 953.10,304.61 955.55,304.71 962.88,299.80 965.33,304.41 967.77,300.10 970.22,294.97 972.66,294.04 980.00,291.53" /><polyline fill="none" stroke="#b45309" stroke-width="3" points="90.00,442.48 92.45,456.43 94.89,442.52 97.34,446.26 99.78,445.83 107.12,422.76 109.56,419.61 112.01,435.30 114.45,438.75 116.90,464.83 124.23,456.31 126.68,452.71 129.12,444.60 131.57,508.14 134.01,579.90 141.35,581.96 143.79,600.00 146.24,480.91 148.68,535.82 151.13,514.44 158.46,502.61 160.91,506.06 163.35,533.35 165.80,531.64 175.58,560.26 178.02,529.72 180.47,511.06 182.91,485.32 185.36,476.30 192.69,475.82 195.14,467.89 197.58,467.39 200.03,458.42 202.47,439.48 209.81,446.90 212.25,457.66 214.70,452.29 217.14,443.36 219.59,445.01 226.92,402.41 229.37,393.62 231.81,391.91 234.26,385.35 236.70,376.81 244.04,375.32 246.48,379.89 248.93,402.71 251.37,402.18 253.82,411.27 263.60,383.77 266.04,391.59 268.49,386.29 270.93,387.79 278.27,380.21 280.71,372.49 283.16,372.86 285.60,379.44 288.05,365.53 295.38,364.29 297.83,356.53 300.27,360.46 302.72,355.00 305.16,370.41 312.50,357.44 314.95,369.20 317.39,369.41 322.28,372.61 329.62,359.17 332.06,343.98 334.51,343.20 336.95,332.32 339.40,325.36 346.73,318.62 349.18,319.08 351.62,312.66 354.07,301.46 363.85,312.14 366.29,312.92 368.74,304.40 371.18,300.36 373.63,305.40 380.96,302.68 383.41,308.79 385.85,304.03 388.30,295.28 390.74,296.33 398.08,293.61 400.52,293.40 402.97,281.14 405.41,280.66 407.86,274.52 415.19,274.89 417.64,278.74 420.08,280.57 422.53,286.02 424.97,309.76 432.31,288.11 434.75,295.44 437.20,284.42 439.64,285.63 442.09,274.34 449.42,277.23 451.87,261.72 454.31,256.68 456.76,256.54 459.20,260.00 466.54,260.32 468.98,268.32 471.43,272.21 473.87,278.07 476.32,255.72 483.65,262.22 486.10,256.06 488.54,252.69 490.99,247.45 493.43,256.31 503.21,267.26 505.66,259.31 508.10,246.99 510.55,251.30 517.88,247.65 520.33,244.22 522.77,239.91 525.22,227.49 527.66,228.00 535.00,219.98 537.45,222.07 539.89,223.94 542.34,216.89 544.78,209.37 552.12,202.16 554.56,210.50 557.01,215.35 559.45,222.35 561.90,213.69 569.23,209.42 571.68,203.68 574.12,198.46 576.57,196.70 579.01,196.72 586.35,191.20 588.79,196.92 591.24,187.76 593.68,192.24 596.13,233.91 603.46,210.89 605.91,212.75 608.35,206.00 610.80,216.40 613.24,207.79 620.58,191.92 623.02,191.94 625.47,199.96 627.91,190.86 630.36,178.25 637.69,159.90 640.14,155.71 642.58,154.96 645.03,172.32 647.47,167.20 654.81,164.26 657.25,182.87 659.70,177.49 662.14,194.19 664.59,192.68 671.92,168.62 674.37,165.04 676.81,164.17 679.26,190.22 681.70,190.47 689.04,204.85 691.48,217.69 693.93,211.83 696.37,235.03 698.82,220.10 706.15,197.82 708.60,183.37 711.04,172.67 715.93,164.15 723.27,171.31 725.71,168.42 728.16,163.00 730.60,161.85 733.05,158.86 740.38,163.59 742.83,164.95 745.27,154.54 747.72,150.87 750.16,167.89 757.50,170.26 759.95,174.53 762.39,191.69 764.84,180.04 767.28,165.96 774.62,156.19 777.06,148.98 779.51,143.40 784.40,143.56 791.73,149.23 794.18,151.17 796.62,162.89 801.51,160.01 808.85,149.53 811.29,140.11 813.74,145.25 816.18,145.41 818.63,134.90 825.96,132.39 828.41,135.59 830.85,143.45 833.30,139.12 835.74,140.45 845.52,172.89 847.97,154.88 850.41,146.63 852.86,146.05 860.19,137.99 862.64,131.63 865.08,131.79 867.53,134.97 869.97,139.74 877.31,131.81 879.75,145.36 882.20,153.06 884.64,172.80 887.09,142.85 894.42,135.18 896.87,139.39 899.31,139.76 901.76,164.39 904.20,163.28 913.98,160.75 916.43,152.83 918.87,157.00 921.32,145.59 928.65,161.81 931.10,150.38 933.54,137.02 935.99,145.89 938.43,153.52 945.77,152.62 948.21,166.56 950.66,155.50 953.10,164.30 955.55,184.87 962.88,171.30 965.33,173.81 967.77,175.77 970.22,199.43 972.66,208.12 980.00,192.59" />
<line x1="1000" y1="84" x2="1032" y2="84" stroke="#1d4ed8" stroke-width="2.5" /><text x="1042" y="89" font-size="16" fill="#0f172a">configured_baseline</text><line x1="1000" y1="112" x2="1032" y2="112" stroke="#0f766e" stroke-width="2.5" /><text x="1042" y="117" font-size="16" fill="#0f172a">ridge_walkforward</text><line x1="1000" y1="140" x2="1032" y2="140" stroke="#7c3aed" stroke-width="2.5" /><text x="1042" y="145" font-size="16" fill="#0f172a">tree_walkforward</text><line x1="1000" y1="168" x2="1032" y2="168" stroke="#db2777" stroke-width="2.5" /><text x="1042" y="173" font-size="16" fill="#0f172a">mlp_walkforward</text><line x1="1000" y1="196" x2="1032" y2="196" stroke="#b45309" stroke-width="3" /><text x="1042" y="201" font-size="16" fill="#0f172a">benchmark</text>
</svg>
