<svg xmlns="http://www.w3.org/2000/svg" width="1200" height="720" viewBox="0 0 1200 720">
<rect width="1200" height="720" fill="#f8fafc" />
<text x="90" y="32" font-size="28" font-family="Segoe UI, Arial, sans-serif" fill="#0f172a">US Stocks Strategy Value - Last 251 Trading Days</text>
<text x="90" y="54" font-size="15" font-family="Segoe UI, Arial, sans-serif" fill="#475569">Initial capital assumed: $100,000</text>
<rect x="90" y="60" width="890" height="580" fill="#ffffff" stroke="#cbd5e1" />
<line x1="90" y1="640.00" x2="980" y2="640.00" stroke="#e2e8f0" stroke-width="1" /><text x="78" y="645.00" font-size="14" text-anchor="end" fill="#475569">$81,141</text><line x1="90" y1="495.00" x2="980" y2="495.00" stroke="#e2e8f0" stroke-width="1" /><text x="78" y="500.00" font-size="14" text-anchor="end" fill="#475569">$105,289</text><line x1="90" y1="350.00" x2="980" y2="350.00" stroke="#e2e8f0" stroke-width="1" /><text x="78" y="355.00" font-size="14" text-anchor="end" fill="#475569">$129,436</text><line x1="90" y1="205.00" x2="980" y2="205.00" stroke="#e2e8f0" stroke-width="1" /><text x="78" y="210.00" font-size="14" text-anchor="end" fill="#475569">$153,584</text><line x1="90" y1="60.00" x2="980" y2="60.00" stroke="#e2e8f0" stroke-width="1" /><text x="78" y="65.00" font-size="14" text-anchor="end" fill="#475569">$177,731</text>
<line x1="90.00" y1="60" x2="90.00" y2="640" stroke="#f1f5f9" stroke-width="1" /><text x="90.00" y="668" font-size="14" text-anchor="middle" fill="#475569">2025-03-17</text><line x1="535.00" y1="60" x2="535.00" y2="640" stroke="#f1f5f9" stroke-width="1" /><text x="535.00" y="668" font-size="14" text-anchor="middle" fill="#475569">2025-09-15</text><line x1="980.00" y1="60" x2="980.00" y2="640" stroke="#f1f5f9" stroke-width="1" /><text x="980.00" y="668" font-size="14" text-anchor="middle" fill="#475569">2026-03-16</text>
<polyline fill="none" stroke="#1d4ed8" stroke-width="2.5" points="90.00,526.76 92.45,535.20 94.89,529.69 97.34,531.38 99.78,522.41 107.12,508.87 109.56,502.61 112.01,507.85 114.45,508.61 116.90,523.36 124.23,517.31 126.68,514.20 129.12,511.75 131.57,532.78 134.01,565.91 141.35,567.01 143.79,569.44 146.24,530.51 148.68,546.19 151.13,533.79 158.46,532.24 160.91,534.70 163.35,541.81 165.80,534.33 175.58,546.72 178.02,532.84 180.47,528.46 182.91,519.72 185.36,518.49 192.69,518.66 195.14,515.18 197.58,518.27 200.03,501.59 202.47,488.43 209.81,489.28 212.25,493.39 214.70,490.24 217.14,483.81 219.59,483.47 226.92,464.54 229.37,457.75 231.81,456.21 234.26,451.34 236.70,451.23 244.04,448.47 246.48,447.10 248.93,455.05 251.37,455.03 253.82,459.42 263.60,446.66 266.04,447.07 268.49,445.05 270.93,439.89 278.27,431.72 280.71,420.33 283.16,417.70 285.60,420.80 288.05,423.73 295.38,422.97 297.83,420.65 300.27,415.95 302.72,408.98 305.16,420.94 312.50,410.54 314.95,413.97 317.39,407.52 322.28,410.26 329.62,402.21 332.06,387.66 334.51,376.94 336.95,367.59 339.40,366.53 346.73,360.10 349.18,379.34 351.62,373.04 354.07,362.96 363.85,365.45 366.29,364.82 368.74,351.94 371.18,354.36 373.63,355.90 380.96,355.27 383.41,345.97 385.85,347.35 388.30,340.04 390.74,342.54 398.08,338.15 400.52,353.07 402.97,343.07 405.41,334.38 407.86,333.20 415.19,326.12 417.64,330.09 420.08,323.77 422.53,302.26 424.97,329.86 432.31,315.62 434.75,321.51 437.20,307.91 439.64,305.90 442.09,302.98 449.42,305.68 451.87,295.82 454.31,300.35 456.76,292.19 459.20,297.85 466.54,297.29 468.98,316.94 471.43,324.72 473.87,328.04 476.32,314.87 483.65,314.63 486.10,310.25 488.54,306.81 490.99,299.67 493.43,318.29 503.21,322.12 505.66,302.12 508.10,295.98 510.55,305.46 517.88,307.42 520.33,300.96 522.77,302.61 525.22,296.19 527.66,291.46 535.00,278.70 537.45,273.45 539.89,271.30 542.34,271.64 544.78,263.93 552.12,259.84 554.56,258.13 557.01,262.00 559.45,257.54 561.90,253.41 569.23,261.90 571.68,266.18 574.12,261.12 576.57,254.34 579.01,255.18 586.35,256.02 588.79,260.04 591.24,249.63 593.68,251.99 596.13,285.87 603.46,252.16 605.91,267.43 608.35,257.45 610.80,254.73 613.24,250.37 620.58,240.20 623.02,250.45 625.47,255.30 627.91,248.66 630.36,229.76 637.69,206.48 640.14,190.29 642.58,169.39 645.03,172.40 647.47,178.51 654.81,172.88 657.25,187.79 659.70,177.02 662.14,185.57 664.59,193.91 671.92,174.64 674.37,172.23 676.81,179.64 679.26,202.21 681.70,205.42 689.04,204.15 691.48,215.83 693.93,199.44 696.37,214.08 698.82,202.76 706.15,155.38 708.60,143.21 711.04,138.15 715.93,130.00 723.27,138.78 725.71,140.79 728.16,135.30 730.60,140.70 733.05,135.15 740.38,135.86 742.83,126.29 745.27,116.06 747.72,126.38 750.16,157.16 757.50,176.34 759.95,182.05 762.39,196.24 764.84,190.69 767.28,178.68 774.62,175.00 777.06,162.86 779.51,161.63 784.40,161.36 791.73,160.07 794.18,159.25 796.62,165.51 801.51,154.37 808.85,143.06 811.29,152.36 813.74,154.59 816.18,146.49 818.63,141.68 825.96,143.66 828.41,144.73 830.85,143.69 833.30,141.70 835.74,140.87 845.52,163.09 847.97,146.80 850.41,142.06 852.86,142.55 860.19,137.86 862.64,131.47 865.08,125.01 867.53,112.66 869.97,114.42 877.31,104.60 879.75,100.00 882.20,103.89 884.64,115.71 887.09,127.37 894.42,125.51 896.87,137.41 899.31,138.48 901.76,147.13 904.20,148.27 913.98,153.33 916.43,144.69 918.87,146.46 921.32,137.46 928.65,139.75 931.10,135.81 933.54,133.13 935.99,143.07 938.43,126.41 945.77,127.30 948.21,128.51 950.66,133.68 953.10,144.48 955.55,145.86 962.88,142.83 965.33,148.37 967.77,145.14 970.22,147.81 972.66,147.37 980.00,143.45" /><polyline fill="none" stroke="#0f766e" stroke-width="2.5" points="90.00,526.76 92.45,526.76 94.89,526.76 97.34,526.76 99.78,526.76 107.12,526.76 109.56,526.76 112.01,526.76 114.45,526.76 116.90,526.76 124.23,527.33 126.68,519.45 129.12,516.58 131.57,561.97 134.01,589.92 141.35,574.65 143.79,578.15 146.24,497.53 148.68,532.38 151.13,516.77 158.46,521.36 160.91,524.14 163.35,545.46 165.80,554.48 175.58,572.12 178.02,559.11 180.47,539.22 182.91,518.30 185.36,502.61 192.69,506.10 195.14,505.86 197.58,508.28 200.03,498.91 202.47,485.29 209.81,487.36 212.25,490.86 214.70,483.02 217.14,477.82 219.59,478.62 226.92,454.87 229.37,438.93 231.81,431.92 234.26,427.87 236.70,427.48 244.04,426.09 246.48,425.89 248.93,435.25 251.37,434.78 253.82,439.50 263.60,424.94 266.04,425.01 268.49,417.99 270.93,418.16 278.27,409.70 280.71,401.97 283.16,401.47 285.60,412.28 288.05,414.84 295.38,419.52 297.83,416.91 300.27,416.48 302.72,412.95 305.16,424.37 312.50,417.99 314.95,423.84 317.39,419.50 322.28,414.61 329.62,405.44 332.06,398.30 334.51,397.56 336.95,392.21 339.40,393.26 346.73,384.14 349.18,402.78 351.62,396.68 354.07,386.91 363.85,389.32 366.29,388.72 368.74,376.24 371.18,378.58 373.63,380.07 380.96,379.46 383.41,370.45 385.85,371.79 388.30,364.71 390.74,367.13 398.08,362.88 400.52,377.33 402.97,367.64 405.41,359.23 407.86,358.08 415.19,351.23 417.64,355.07 420.08,348.95 422.53,328.48 424.97,354.60 432.31,339.11 434.75,342.43 437.20,326.83 439.64,322.97 442.09,315.78 449.42,318.74 451.87,309.55 454.31,312.15 456.76,303.87 459.20,307.67 466.54,306.35 468.98,324.87 471.43,333.18 473.87,335.81 476.32,317.92 483.65,314.32 486.10,310.34 488.54,308.39 490.99,298.48 493.43,314.41 503.21,315.23 505.66,316.83 508.10,307.83 510.55,300.07 517.88,293.66 520.33,290.50 522.77,269.52 525.22,272.54 527.66,270.21 535.00,263.70 537.45,257.73 539.89,263.72 542.34,264.45 544.78,266.17 552.12,275.78 554.56,274.59 557.01,271.44 559.45,274.65 561.90,272.45 569.23,282.00 571.68,286.36 574.12,287.91 576.57,289.84 579.01,283.98 586.35,279.26 588.79,281.32 591.24,278.37 593.68,280.56 596.13,303.79 603.46,276.01 605.91,287.10 608.35,281.81 610.80,287.35 613.24,287.07 620.58,281.83 623.02,288.76 625.47,287.49 627.91,282.64 630.36,272.74 637.69,261.66 640.14,252.17 642.58,242.45 645.03,254.23 647.47,261.43 654.81,265.61 657.25,274.61 659.70,266.37 662.14,266.79 664.59,270.70 671.92,254.61 674.37,250.25 676.81,255.84 679.26,269.81 681.70,267.67 689.04,267.66 691.48,267.14 693.93,254.69 696.37,263.88 698.82,256.42 706.15,218.99 708.60,213.56 711.04,207.89 715.93,201.99 723.27,210.86 725.71,209.89 728.16,211.25 730.60,218.08 733.05,211.46 740.38,213.58 742.83,208.01 745.27,197.31 747.72,208.23 750.16,239.05 757.50,258.13 759.95,257.94 762.39,277.10 764.84,265.53 767.28,254.20 774.62,252.43 777.06,240.14 779.51,238.43 784.40,237.86 791.73,239.60 794.18,239.23 796.62,245.82 801.51,235.61 808.85,225.25 811.29,233.77 813.74,235.81 816.18,228.38 818.63,223.97 825.96,225.79 828.41,226.77 830.85,225.82 833.30,224.00 835.74,223.24 845.52,243.60 847.97,228.67 850.41,224.32 852.86,224.77 860.19,220.48 862.64,214.62 865.08,208.70 867.53,197.38 869.97,198.55 877.31,202.51 879.75,206.76 882.20,217.79 884.64,233.57 887.09,229.72 894.42,221.96 896.87,228.74 899.31,229.51 901.76,245.37 904.20,255.14 913.98,255.90 916.43,241.53 918.87,241.48 921.32,230.65 928.65,230.94 931.10,228.61 933.54,222.39 935.99,241.43 938.43,240.75 945.77,233.99 948.21,237.24 950.66,232.80 953.10,220.68 955.55,227.54 962.88,217.68 965.33,222.68 967.77,218.51 970.22,226.38 972.66,243.13 980.00,233.46" /><polyline fill="none" stroke="#7c3aed" stroke-width="2.5" points="90.00,526.76 92.45,526.76 94.89,526.76 97.34,526.76 99.78,526.76 107.12,526.76 109.56,526.76 112.01,526.76 114.45,526.76 116.90,526.76 124.23,527.33 126.68,519.45 129.12,516.58 131.57,561.97 134.01,589.92 141.35,574.65 143.79,578.15 146.24,497.53 148.68,532.38 151.13,516.77 158.46,521.36 160.91,524.14 163.35,545.46 165.80,554.48 175.58,572.12 178.02,559.11 180.47,539.22 182.91,518.30 185.36,502.61 192.69,506.10 195.14,505.86 197.58,508.28 200.03,500.22 202.47,487.97 209.81,488.96 212.25,492.98 214.70,500.78 217.14,493.26 219.59,494.62 226.92,474.01 229.37,466.22 231.81,460.28 234.26,457.15 236.70,455.28 244.04,453.81 246.48,454.67 248.93,456.12 251.37,454.72 253.82,459.71 263.60,446.49 266.04,446.24 268.49,445.15 270.93,440.70 278.27,430.49 280.71,419.64 283.16,417.96 285.60,428.98 288.05,432.16 295.38,433.67 297.83,430.57 300.27,428.25 302.72,422.62 305.16,435.07 312.50,427.28 314.95,431.38 317.39,426.32 322.28,427.08 329.62,418.12 332.06,405.75 334.51,398.67 336.95,392.05 339.40,390.10 346.73,383.53 349.18,399.97 351.62,392.56 354.07,382.26 363.85,386.70 366.29,391.23 368.74,380.99 371.18,379.45 373.63,382.42 380.96,380.57 383.41,373.88 385.85,375.60 388.30,368.14 390.74,369.13 398.08,365.07 400.52,377.49 402.97,364.76 405.41,358.24 407.86,356.83 415.19,349.74 417.64,354.38 420.08,346.90 422.53,335.42 424.97,351.46 432.31,326.77 434.75,335.19 437.20,324.88 439.64,324.21 442.09,314.79 449.42,317.41 451.87,302.30 454.31,310.11 456.76,306.85 459.20,309.90 466.54,313.39 468.98,332.84 471.43,338.54 473.87,341.76 476.32,325.83 483.65,321.90 486.10,318.39 488.54,318.52 490.99,309.85 493.43,326.21 503.21,328.96 505.66,329.87 508.10,315.62 510.55,304.69 517.88,294.39 520.33,292.55 522.77,280.00 525.22,286.68 527.66,286.82 535.00,278.87 537.45,270.91 539.89,280.60 542.34,282.62 544.78,285.07 552.12,296.31 554.56,301.34 557.01,299.16 559.45,304.13 561.90,302.17 569.23,309.03 571.68,315.75 574.12,317.22 576.57,315.92 579.01,312.14 586.35,313.92 588.79,314.74 591.24,307.98 593.68,305.62 596.13,333.42 603.46,302.48 605.91,321.66 608.35,316.75 610.80,319.26 613.24,318.24 620.58,315.01 623.02,323.55 625.47,324.32 627.91,317.70 630.36,305.01 637.69,291.82 640.14,276.71 642.58,261.04 645.03,270.69 647.47,274.68 654.81,278.95 657.25,288.62 659.70,279.02 662.14,278.03 664.59,280.42 671.92,263.70 674.37,264.64 676.81,265.71 679.26,286.12 681.70,287.40 689.04,285.90 691.48,286.02 693.93,272.10 696.37,282.63 698.82,279.52 706.15,246.39 708.60,238.41 711.04,230.10 715.93,221.58 723.27,236.39 725.71,238.47 728.16,235.37 730.60,236.75 733.05,229.53 740.38,230.81 742.83,234.74 745.27,218.80 747.72,223.83 750.16,253.54 757.50,268.23 759.95,271.26 762.39,288.44 764.84,278.54 767.28,265.77 774.62,258.21 777.06,245.24 779.51,242.58 784.40,242.50 791.73,247.17 794.18,246.50 796.62,252.46 801.51,242.32 808.85,232.04 811.29,240.50 813.74,242.52 816.18,235.15 818.63,230.78 825.96,232.58 828.41,233.55 830.85,232.61 833.30,230.80 835.74,230.05 845.52,250.25 847.97,235.43 850.41,231.12 852.86,231.57 860.19,227.30 862.64,221.49 865.08,215.62 867.53,204.38 869.97,205.54 877.31,209.48 879.75,213.69 882.20,224.64 884.64,240.30 887.09,236.48 894.42,228.78 896.87,235.50 899.31,236.27 901.76,252.01 904.20,261.71 913.98,262.46 916.43,248.20 918.87,248.14 921.32,237.40 928.65,237.69 931.10,235.37 933.54,229.21 935.99,248.10 938.43,247.00 945.77,240.79 948.21,248.23 950.66,245.68 953.10,238.06 955.55,248.17 962.88,233.60 965.33,237.21 967.77,232.34 970.22,239.82 972.66,247.84 980.00,239.54" /><polyline fill="none" stroke="#db2777" stroke-width="2.5" points="90.00,526.76 92.45,526.76 94.89,526.76 97.34,526.76 99.78,526.76 107.12,526.76 109.56,526.76 112.01,526.76 114.45,526.76 116.90,526.76 124.23,527.33 126.68,519.45 129.12,516.58 131.57,561.97 134.01,589.92 141.35,574.65 143.79,578.15 146.24,497.53 148.68,532.38 151.13,516.77 158.46,521.36 160.91,524.14 163.35,545.46 165.80,554.48 175.58,572.12 178.02,559.11 180.47,539.22 182.91,518.30 185.36,502.61 192.69,506.10 195.14,505.86 197.58,508.28 200.03,496.32 202.47,480.04 209.81,480.63 212.25,486.85 214.70,481.22 217.14,476.10 219.59,477.39 226.92,449.76 229.37,438.59 231.81,437.56 234.26,436.77 236.70,437.98 244.04,436.79 246.48,436.00 248.93,442.49 251.37,443.02 253.82,448.23 263.60,435.10 266.04,434.01 268.49,432.05 270.93,426.78 278.27,418.43 280.71,410.78 283.16,410.30 285.60,420.97 288.05,423.50 295.38,428.13 297.83,425.54 300.27,425.12 302.72,421.63 305.16,432.91 312.50,426.61 314.95,432.39 317.39,428.10 322.28,423.27 329.62,414.21 332.06,407.16 334.51,406.43 336.95,401.14 339.40,402.19 346.73,392.83 349.18,409.07 351.62,401.75 354.07,391.58 363.85,395.96 366.29,400.44 368.74,390.32 371.18,388.80 373.63,391.73 380.96,389.90 383.41,383.30 385.85,385.00 388.30,377.64 390.74,378.61 398.08,374.60 400.52,386.87 402.97,374.30 405.41,367.86 407.86,366.46 415.19,359.46 417.64,364.05 420.08,356.66 422.53,345.32 424.97,373.84 432.31,358.03 434.75,363.96 437.20,348.09 439.64,347.17 442.09,343.00 449.42,346.30 451.87,333.75 454.31,337.35 456.76,329.75 459.20,333.57 466.54,336.21 468.98,356.16 471.43,363.03 473.87,368.04 476.32,352.77 483.65,351.84 486.10,346.65 488.54,346.75 490.99,340.09 493.43,359.06 503.21,361.80 505.66,342.30 508.10,333.07 510.55,318.04 517.88,313.48 520.33,307.18 522.77,290.25 525.22,291.57 527.66,288.96 535.00,274.00 537.45,272.66 539.89,280.95 542.34,277.28 544.78,274.85 552.12,284.67 554.56,287.63 557.01,289.17 559.45,295.20 561.90,295.23 569.23,301.47 571.68,304.36 574.12,303.86 576.57,302.81 579.01,301.83 586.35,301.01 588.79,303.65 591.24,296.06 593.68,292.67 596.13,321.42 603.46,291.46 605.91,311.18 608.35,305.07 610.80,306.62 613.24,307.65 620.58,303.96 623.02,312.30 625.47,315.44 627.91,310.88 630.36,295.96 637.69,280.58 640.14,259.70 642.58,246.45 645.03,259.21 647.47,266.18 654.81,264.82 657.25,282.63 659.70,277.17 662.14,286.41 664.59,294.91 671.92,269.50 674.37,273.94 676.81,275.90 679.26,297.94 681.70,294.93 689.04,295.96 691.48,303.27 693.93,283.02 696.37,297.66 698.82,292.51 706.15,250.69 708.60,248.22 711.04,240.37 715.93,240.61 723.27,252.50 725.71,252.75 728.16,249.38 730.60,250.34 733.05,245.03 740.38,244.55 742.83,249.90 745.27,236.56 747.72,240.69 750.16,265.92 757.50,280.17 759.95,282.80 762.39,300.61 764.84,295.47 767.28,282.39 774.62,277.92 777.06,267.48 779.51,264.01 784.40,264.36 791.73,268.25 794.18,268.51 796.62,273.73 801.51,263.84 808.85,253.81 811.29,262.06 813.74,264.04 816.18,256.85 818.63,252.58 825.96,254.34 828.41,255.28 830.85,254.37 833.30,252.60 835.74,251.87 845.52,271.58 847.97,257.12 850.41,252.91 852.86,253.35 860.19,249.19 862.64,243.52 865.08,237.79 867.53,226.82 869.97,227.96 877.31,231.79 879.75,235.90 882.20,246.59 884.64,261.87 887.09,258.14 894.42,250.63 896.87,257.19 899.31,257.94 901.76,273.30 904.20,282.76 913.98,283.49 916.43,269.58 918.87,269.52 921.32,259.04 928.65,259.32 931.10,257.06 933.54,251.05 935.99,269.48 938.43,268.82 945.77,263.55 948.21,267.92 950.66,268.53 953.10,256.44 955.55,260.36 962.88,249.73 965.33,255.94 967.77,252.19 970.22,258.50 972.66,271.29 980.00,264.46" /><polyline fill="none" stroke="#b45309" stroke-width="3" points="90.00,526.76 92.45,533.25 94.89,526.78 97.34,528.52 99.78,528.32 107.12,517.59 109.56,516.13 112.01,523.42 114.45,525.03 116.90,537.15 124.23,533.19 126.68,531.51 129.12,527.74 131.57,557.29 134.01,590.65 141.35,591.61 143.79,600.00 146.24,544.63 148.68,570.16 151.13,560.22 158.46,554.72 160.91,556.32 163.35,569.01 165.80,568.22 175.58,581.52 178.02,567.32 180.47,558.65 182.91,546.68 185.36,542.48 192.69,542.26 195.14,538.58 197.58,538.34 200.03,534.17 202.47,525.37 209.81,528.82 212.25,533.82 214.70,531.32 217.14,527.17 219.59,527.94 226.92,508.13 229.37,504.04 231.81,503.25 234.26,500.20 236.70,496.23 244.04,495.54 246.48,497.66 248.93,508.27 251.37,508.02 253.82,512.25 263.60,499.47 266.04,503.10 268.49,500.63 270.93,501.33 278.27,497.81 280.71,494.22 283.16,494.39 285.60,497.45 288.05,490.98 295.38,490.41 297.83,486.80 300.27,488.62 302.72,486.08 305.16,493.25 312.50,487.22 314.95,492.69 317.39,492.79 322.28,494.28 329.62,488.02 332.06,480.96 334.51,480.60 336.95,475.54 339.40,472.30 346.73,469.17 349.18,469.38 351.62,466.40 354.07,461.19 363.85,466.16 366.29,466.52 368.74,462.56 371.18,460.68 373.63,463.03 380.96,461.76 383.41,464.60 385.85,462.39 388.30,458.32 390.74,458.81 398.08,457.54 400.52,457.44 402.97,451.75 405.41,451.52 407.86,448.67 415.19,448.84 417.64,450.63 420.08,451.48 422.53,454.02 424.97,465.05 432.31,454.98 434.75,458.39 437.20,453.27 439.64,453.83 442.09,448.58 449.42,449.93 451.87,442.71 454.31,440.37 456.76,440.31 459.20,441.92 466.54,442.06 468.98,445.78 471.43,447.59 473.87,450.32 476.32,439.92 483.65,442.95 486.10,440.08 488.54,438.52 490.99,436.08 493.43,440.20 503.21,445.29 505.66,441.60 508.10,435.87 510.55,437.87 517.88,436.17 520.33,434.58 522.77,432.57 525.22,426.80 527.66,427.04 535.00,423.31 537.45,424.28 539.89,425.15 542.34,421.87 544.78,418.38 552.12,415.02 554.56,418.90 557.01,421.15 559.45,424.41 561.90,420.39 569.23,418.40 571.68,415.73 574.12,413.30 576.57,412.48 579.01,412.49 586.35,409.93 588.79,412.59 591.24,408.33 593.68,410.41 596.13,429.78 603.46,419.08 605.91,419.95 608.35,416.81 610.80,421.65 613.24,417.64 620.58,410.26 623.02,410.27 625.47,414.00 627.91,409.77 630.36,403.91 637.69,395.37 640.14,393.43 642.58,393.08 645.03,401.15 647.47,398.77 654.81,397.40 657.25,406.05 659.70,403.55 662.14,411.32 664.59,410.61 671.92,399.43 674.37,397.76 676.81,397.36 679.26,409.47 681.70,409.59 689.04,416.27 691.48,422.24 693.93,419.52 696.37,430.31 698.82,423.36 706.15,413.00 708.60,406.29 711.04,401.31 715.93,397.35 723.27,400.68 725.71,399.33 728.16,396.81 730.60,396.28 733.05,394.89 740.38,397.09 742.83,397.72 745.27,392.88 747.72,391.17 750.16,399.09 757.50,400.19 759.95,402.17 762.39,410.15 764.84,404.74 767.28,398.19 774.62,393.65 777.06,390.30 779.51,387.70 784.40,387.78 791.73,390.41 794.18,391.31 796.62,396.77 801.51,395.43 808.85,390.55 811.29,386.17 813.74,388.56 816.18,388.63 818.63,383.75 825.96,382.58 828.41,384.07 830.85,387.72 833.30,385.71 835.74,386.33 845.52,401.41 847.97,393.04 850.41,389.20 852.86,388.93 860.19,385.19 862.64,382.23 865.08,382.30 867.53,383.78 869.97,386.00 877.31,382.31 879.75,388.61 882.20,392.19 884.64,401.37 887.09,387.45 894.42,383.88 896.87,385.84 899.31,386.01 901.76,397.46 904.20,396.95 913.98,395.77 916.43,392.08 918.87,394.02 921.32,388.72 928.65,396.26 931.10,390.95 933.54,384.74 935.99,388.86 938.43,392.41 945.77,391.99 948.21,398.47 950.66,393.33 953.10,397.42 955.55,406.98 962.88,400.68 965.33,401.84 967.77,402.75 970.22,413.75 972.66,417.79 980.00,410.57" />
<line x1="1000" y1="84" x2="1032" y2="84" stroke="#1d4ed8" stroke-width="2.5" /><text x="1042" y="89" font-size="16" fill="#0f172a">configured_baseline</text><line x1="1000" y1="112" x2="1032" y2="112" stroke="#0f766e" stroke-width="2.5" /><text x="1042" y="117" font-size="16" fill="#0f172a">ridge_walkforward</text><line x1="1000" y1="140" x2="1032" y2="140" stroke="#7c3aed" stroke-width="2.5" /><text x="1042" y="145" font-size="16" fill="#0f172a">tree_walkforward</text><line x1="1000" y1="168" x2="1032" y2="168" stroke="#db2777" stroke-width="2.5" /><text x="1042" y="173" font-size="16" fill="#0f172a">mlp_walkforward</text><line x1="1000" y1="196" x2="1032" y2="196" stroke="#b45309" stroke-width="3" /><text x="1042" y="201" font-size="16" fill="#0f172a">benchmark</text>
</svg>
