<svg xmlns="http://www.w3.org/2000/svg" width="1200" height="720" viewBox="0 0 1200 720">
<rect width="1200" height="720" fill="#f8fafc" />
<text x="90" y="32" font-size="28" font-family="Segoe UI, Arial, sans-serif" fill="#0f172a">US Stocks Strategy Value - Last 251 Trading Days</text>
<text x="90" y="54" font-size="15" font-family="Segoe UI, Arial, sans-serif" fill="#475569">Initial capital assumed: $100,000</text>
<rect x="90" y="60" width="890" height="580" fill="#ffffff" stroke="#cbd5e1" />
<line x1="90" y1="640.00" x2="980" y2="640.00" stroke="#e2e8f0" stroke-width="1" /><text x="78" y="645.00" font-size="14" text-anchor="end" fill="#475569">$84,706</text><line x1="90" y1="495.00" x2="980" y2="495.00" stroke="#e2e8f0" stroke-width="1" /><text x="78" y="500.00" font-size="14" text-anchor="end" fill="#475569">$95,933</text><line x1="90" y1="350.00" x2="980" y2="350.00" stroke="#e2e8f0" stroke-width="1" /><text x="78" y="355.00" font-size="14" text-anchor="end" fill="#475569">$107,160</text><line x1="90" y1="205.00" x2="980" y2="205.00" stroke="#e2e8f0" stroke-width="1" /><text x="78" y="210.00" font-size="14" text-anchor="end" fill="#475569">$118,388</text><line x1="90" y1="60.00" x2="980" y2="60.00" stroke="#e2e8f0" stroke-width="1" /><text x="78" y="65.00" font-size="14" text-anchor="end" fill="#475569">$129,615</text>
<line x1="90.00" y1="60" x2="90.00" y2="640" stroke="#f1f5f9" stroke-width="1" /><text x="90.00" y="668" font-size="14" text-anchor="middle" fill="#475569">2025-03-17</text><line x1="535.00" y1="60" x2="535.00" y2="640" stroke="#f1f5f9" stroke-width="1" /><text x="535.00" y="668" font-size="14" text-anchor="middle" fill="#475569">2025-09-15</text><line x1="980.00" y1="60" x2="980.00" y2="640" stroke="#f1f5f9" stroke-width="1" /><text x="980.00" y="668" font-size="14" text-anchor="middle" fill="#475569">2026-03-16</text>
<polyline fill="none" stroke="#1d4ed8" stroke-width="2.5" points="90.00,442.48 92.45,452.98 94.89,447.29 97.34,446.54 99.78,447.45 107.12,427.95 109.56,435.21 112.01,439.48 114.45,432.06 116.90,446.27 124.23,430.78 126.68,445.14 129.12,448.28 131.57,455.60 134.01,527.48 141.35,542.19 143.79,553.08 146.24,508.00 148.68,530.72 151.13,512.26 158.46,504.52 160.91,509.41 163.35,514.72 165.80,530.75 175.58,557.10 178.02,536.02 180.47,538.81 182.91,539.91 185.36,538.13 192.69,529.11 195.14,529.39 197.58,533.14 200.03,550.67 202.47,530.13 209.81,534.10 212.25,544.80 214.70,534.14 217.14,543.43 219.59,549.63 226.92,539.75 229.37,540.69 231.81,546.27 234.26,526.51 236.70,513.66 244.04,509.66 246.48,510.44 248.93,522.92 251.37,529.06 253.82,531.76 263.60,514.79 266.04,517.05 268.49,515.68 270.93,500.35 278.27,494.16 280.71,482.93 283.16,481.80 285.60,504.83 288.05,500.50 295.38,497.99 297.83,487.09 300.27,479.37 302.72,478.27 305.16,500.76 312.50,485.38 314.95,493.59 317.39,500.33 322.28,503.92 329.62,477.29 332.06,457.34 334.51,459.20 336.95,448.97 339.40,444.71 346.73,434.68 349.18,462.30 351.62,446.71 354.07,429.41 363.85,441.47 366.29,442.57 368.74,428.23 371.18,425.78 373.63,429.02 380.96,426.42 383.41,405.89 385.85,399.87 388.30,382.94 390.74,398.21 398.08,392.65 400.52,416.77 402.97,400.52 405.41,388.51 407.86,380.55 415.19,366.72 417.64,366.57 420.08,355.17 422.53,343.05 424.97,384.54 432.31,351.45 434.75,359.85 437.20,355.18 439.64,350.41 442.09,341.37 449.42,343.47 451.87,324.48 454.31,328.93 456.76,323.30 459.20,327.58 466.54,332.04 468.98,372.81 471.43,383.06 473.87,390.17 476.32,364.24 483.65,367.43 486.10,362.15 488.54,358.80 490.99,344.03 493.43,378.33 503.21,378.99 505.66,367.42 508.10,360.27 510.55,367.13 517.88,368.50 520.33,348.60 522.77,349.56 525.22,331.77 527.66,332.64 535.00,325.01 537.45,324.03 539.89,315.39 542.34,320.79 544.78,314.33 552.12,310.40 554.56,302.83 557.01,304.39 559.45,301.69 561.90,296.29 569.23,302.44 571.68,300.07 574.12,275.23 576.57,284.20 579.01,288.43 586.35,279.57 588.79,292.45 591.24,279.24 593.68,276.26 596.13,316.46 603.46,269.78 605.91,291.46 608.35,278.62 610.80,272.12 613.24,273.18 620.58,267.52 623.02,281.45 625.47,289.59 627.91,276.12 630.36,266.27 637.69,240.70 640.14,228.14 642.58,216.57 645.03,234.74 647.47,238.12 654.81,227.12 657.25,249.55 659.70,229.10 662.14,245.59 664.59,263.71 671.92,226.90 674.37,224.54 676.81,206.88 679.26,245.95 681.70,246.79 689.04,254.93 691.48,262.62 693.93,249.36 696.37,279.48 698.82,267.79 706.15,209.97 708.60,197.55 711.04,183.27 715.93,179.75 723.27,197.68 725.71,200.76 728.16,197.04 730.60,209.65 733.05,208.11 740.38,215.74 742.83,219.20 745.27,203.41 747.72,197.26 750.16,212.78 757.50,215.03 759.95,227.95 762.39,245.28 764.84,237.23 767.28,225.24 774.62,216.64 777.06,211.85 779.51,204.51 784.40,202.82 791.73,201.48 794.18,204.40 796.62,213.46 801.51,208.10 808.85,201.02 811.29,194.69 813.74,191.62 816.18,184.54 818.63,187.73 825.96,186.33 828.41,202.13 830.85,198.53 833.30,211.28 835.74,216.86 845.52,233.61 847.97,215.97 850.41,208.36 852.86,218.31 860.19,211.83 862.64,209.71 865.08,211.17 867.53,207.10 869.97,203.41 877.31,188.47 879.75,154.83 882.20,139.44 884.64,136.69 887.09,119.59 894.42,132.29 896.87,142.35 899.31,122.59 901.76,124.21 904.20,125.98 913.98,142.36 916.43,131.27 918.87,132.26 921.32,133.17 928.65,114.56 931.10,111.61 933.54,117.54 935.99,131.86 938.43,100.00 945.77,110.21 948.21,126.21 950.66,138.02 953.10,162.30 955.55,161.04 962.88,151.50 965.33,155.26 967.77,154.32 970.22,150.23 972.66,144.21 980.00,141.88" /><polyline fill="none" stroke="#0f766e" stroke-width="2.5" points="90.00,442.48 92.45,442.48 94.89,442.48 97.34,442.48 99.78,442.48 107.12,442.48 109.56,442.48 112.01,442.48 114.45,442.48 116.90,442.48 124.23,443.72 126.68,454.35 129.12,453.39 131.57,485.81 134.01,559.47 141.35,559.27 143.79,574.86 146.24,491.95 148.68,529.95 151.13,504.76 158.46,497.47 160.91,498.60 163.35,519.68 165.80,514.06 175.58,540.04 178.02,517.45 180.47,507.36 182.91,494.25 185.36,480.67 192.69,474.75 195.14,471.41 197.58,471.45 200.03,469.40 202.47,447.73 209.81,449.95 212.25,454.79 214.70,444.34 217.14,444.94 219.59,446.56 226.92,433.29 229.37,425.26 231.81,422.09 234.26,404.12 236.70,397.04 244.04,394.15 246.48,395.48 248.93,409.89 251.37,413.94 253.82,418.70 263.60,398.51 266.04,399.55 268.49,398.91 270.93,383.61 278.27,374.24 280.71,369.35 283.16,364.58 285.60,375.20 288.05,378.48 295.38,385.48 297.83,382.38 300.27,378.35 302.72,378.44 305.16,405.45 312.50,397.53 314.95,402.29 317.39,414.63 322.28,414.07 329.62,392.87 332.06,372.43 334.51,381.10 336.95,374.86 339.40,367.15 346.73,352.24 349.18,366.11 351.62,349.80 354.07,329.14 363.85,339.32 366.29,348.56 368.74,335.18 371.18,335.03 373.63,345.00 380.96,341.83 383.41,335.39 385.85,331.58 388.30,313.76 390.74,316.78 398.08,312.78 400.52,328.40 402.97,310.50 405.41,301.75 407.86,296.14 415.19,289.59 417.64,295.38 420.08,287.83 422.53,273.92 424.97,319.86 432.31,290.51 434.75,298.64 437.20,293.70 439.64,292.05 442.09,279.10 449.42,280.50 451.87,259.93 454.31,260.30 456.76,252.35 459.20,260.40 466.54,259.25 468.98,296.94 471.43,301.40 473.87,309.63 476.32,282.22 483.65,288.28 486.10,278.58 488.54,276.78 490.99,265.31 493.43,298.21 503.21,300.53 505.66,303.09 508.10,291.39 510.55,316.62 517.88,315.67 520.33,305.53 522.77,311.37 525.22,300.52 527.66,305.18 535.00,298.28 537.45,291.87 539.89,284.09 542.34,295.83 544.78,295.91 552.12,299.50 554.56,308.97 557.01,308.54 559.45,313.18 561.90,311.49 569.23,305.90 571.68,301.63 574.12,281.48 576.57,292.94 579.01,285.34 586.35,286.98 588.79,291.61 591.24,295.87 593.68,294.17 596.13,307.51 603.46,291.89 605.91,283.98 608.35,268.40 610.80,273.46 613.24,275.36 620.58,276.93 623.02,281.07 625.47,283.37 627.91,277.66 630.36,271.67 637.69,275.38 640.14,282.88 642.58,293.79 645.03,297.37 647.47,299.77 654.81,304.04 657.25,328.27 659.70,315.06 662.14,340.67 664.59,348.89 671.92,319.06 674.37,315.97 676.81,302.54 679.26,333.83 681.70,329.22 689.04,338.93 691.48,344.83 693.93,341.21 696.37,369.82 698.82,365.54 706.15,317.87 708.60,311.82 711.04,294.70 715.93,291.44 723.27,313.39 725.71,321.26 728.16,312.89 730.60,322.99 733.05,322.61 740.38,328.26 742.83,334.24 745.27,314.18 747.72,314.55 750.16,329.25 757.50,326.66 759.95,338.46 762.39,354.64 764.84,347.38 767.28,330.21 774.62,317.32 777.06,312.86 779.51,307.92 784.40,306.30 791.73,307.74 794.18,309.69 796.62,319.17 801.51,313.06 808.85,314.60 811.29,311.26 813.74,298.45 816.18,303.17 818.63,303.38 825.96,296.66 828.41,299.64 830.85,302.75 833.30,311.82 835.74,314.85 845.52,339.05 847.97,315.23 850.41,306.93 852.86,313.55 860.19,315.67 862.64,316.71 865.08,321.49 867.53,317.22 869.97,304.89 877.31,291.94 879.75,285.36 882.20,316.98 884.64,337.18 887.09,310.08 894.42,304.84 896.87,316.30 899.31,307.67 901.76,323.31 904.20,325.43 913.98,336.95 916.43,327.45 918.87,325.88 921.32,322.63 928.65,318.92 931.10,300.35 933.54,302.18 935.99,329.56 938.43,318.67 945.77,329.26 948.21,340.89 950.66,350.32 953.10,370.22 955.55,367.56 962.88,357.98 965.33,363.24 967.77,359.84 970.22,356.97 972.66,350.58 980.00,348.83" /><polyline fill="none" stroke="#7c3aed" stroke-width="2.5" points="90.00,442.48 92.45,442.48 94.89,442.48 97.34,442.48 99.78,442.48 107.12,442.48 109.56,442.48 112.01,442.48 114.45,442.48 116.90,442.48 124.23,443.72 126.68,454.35 129.12,453.39 131.57,485.81 134.01,559.47 141.35,559.27 143.79,574.86 146.24,491.95 148.68,529.95 151.13,504.76 158.46,497.47 160.91,498.60 163.35,519.68 165.80,514.06 175.58,540.04 178.02,517.45 180.47,507.36 182.91,494.25 185.36,480.67 192.69,474.75 195.14,471.41 197.58,471.45 200.03,469.40 202.47,447.73 209.81,449.95 212.25,454.79 214.70,444.34 217.14,444.94 219.59,446.56 226.92,433.29 229.37,425.26 231.81,422.09 234.26,404.12 236.70,397.04 244.04,394.15 246.48,395.48 248.93,409.89 251.37,413.94 253.82,418.70 263.60,398.51 266.04,399.55 268.49,398.91 270.93,383.93 278.27,374.14 280.71,368.37 283.16,365.36 285.60,374.44 288.05,377.29 295.38,385.04 297.83,381.97 300.27,378.55 302.72,377.55 305.16,402.52 312.50,395.36 314.95,401.02 317.39,414.16 322.28,413.74 329.62,392.99 332.06,372.71 334.51,379.93 336.95,373.60 339.40,367.48 346.73,353.18 349.18,372.87 351.62,357.17 354.07,337.21 363.85,347.26 366.29,357.33 368.74,343.84 371.18,347.70 373.63,354.59 380.96,350.43 383.41,342.60 385.85,341.52 388.30,320.59 390.74,331.87 398.08,325.48 400.52,347.32 402.97,333.15 405.41,323.34 407.86,319.33 415.19,312.97 417.64,317.51 420.08,307.65 422.53,295.55 424.97,307.36 432.31,277.40 434.75,286.59 437.20,284.92 439.64,274.82 442.09,261.27 449.42,261.59 451.87,242.49 454.31,239.68 456.76,235.77 459.20,240.71 466.54,242.36 468.98,260.97 471.43,260.71 473.87,272.80 476.32,252.83 483.65,260.48 486.10,252.85 488.54,251.70 490.99,241.75 493.43,251.52 503.21,261.54 505.66,258.91 508.10,242.91 510.55,253.75 517.88,244.57 520.33,233.31 522.77,218.76 525.22,220.71 527.66,222.14 535.00,211.70 537.45,210.15 539.89,216.32 542.34,216.51 544.78,215.46 552.12,214.05 554.56,234.02 557.01,234.85 559.45,241.79 561.90,242.17 569.23,234.89 571.68,237.42 574.12,221.20 576.57,227.07 579.01,215.79 586.35,211.38 588.79,220.93 591.24,218.03 593.68,212.92 596.13,239.24 603.46,215.40 605.91,227.93 608.35,223.05 610.80,218.37 613.24,222.95 620.58,226.78 623.02,228.48 625.47,225.51 627.91,217.20 630.36,208.19 637.69,201.94 640.14,195.25 642.58,194.97 645.03,214.35 647.47,211.98 654.81,210.62 657.25,237.22 659.70,215.06 662.14,240.50 664.59,251.23 671.92,220.32 674.37,214.29 676.81,205.79 679.26,242.45 681.70,243.93 689.04,243.44 691.48,253.10 693.93,249.60 696.37,279.43 698.82,267.58 706.15,207.41 708.60,191.31 711.04,178.07 715.93,168.23 723.27,189.33 725.71,194.70 728.16,186.35 730.60,198.06 733.05,196.52 740.38,207.88 742.83,208.66 745.27,194.94 747.72,193.55 750.16,214.47 757.50,215.79 759.95,227.91 762.39,244.84 764.84,232.05 767.28,215.61 774.62,204.26 777.06,195.32 779.51,189.60 784.40,187.30 791.73,185.79 794.18,188.22 796.62,198.58 801.51,191.54 808.85,194.87 811.29,191.76 813.74,169.66 816.18,181.80 818.63,181.54 825.96,173.35 828.41,171.57 830.85,163.78 833.30,171.52 835.74,180.14 845.52,199.59 847.97,169.00 850.41,157.08 852.86,163.11 860.19,166.06 862.64,163.94 865.08,170.97 867.53,176.38 869.97,169.55 877.31,143.54 879.75,136.68 882.20,175.09 884.64,189.16 887.09,159.66 894.42,163.93 896.87,176.31 899.31,170.97 901.76,178.35 904.20,182.46 913.98,195.48 916.43,190.01 918.87,187.88 921.32,181.85 928.65,176.78 931.10,152.23 933.54,154.12 935.99,186.70 938.43,176.47 945.77,185.13 948.21,199.46 950.66,207.87 953.10,226.34 955.55,225.86 962.88,218.17 965.33,225.46 967.77,218.82 970.22,220.22 972.66,219.50 980.00,215.72" /><polyline fill="none" stroke="#db2777" stroke-width="2.5" points="90.00,442.48 92.45,442.48 94.89,442.48 97.34,442.48 99.78,442.48 107.12,442.48 109.56,442.48 112.01,442.48 114.45,442.48 116.90,442.48 124.23,443.72 126.68,452.73 129.12,451.17 131.57,468.20 134.01,539.43 141.35,554.01 143.79,573.73 146.24,511.69 148.68,539.83 151.13,525.74 158.46,513.16 160.91,518.29 163.35,535.36 165.80,525.44 175.58,550.54 178.02,525.78 180.47,519.89 182.91,509.65 185.36,503.03 192.69,492.81 195.14,487.12 197.58,487.95 200.03,485.93 202.47,464.54 209.81,466.73 212.25,471.51 214.70,461.20 217.14,461.78 219.59,463.39 226.92,450.29 229.37,442.36 231.81,439.23 234.26,421.50 236.70,414.51 244.04,411.66 246.48,412.97 248.93,427.20 251.37,431.19 253.82,435.89 263.60,415.96 266.04,416.99 268.49,416.36 270.93,401.26 278.27,392.01 280.71,387.18 283.16,382.48 285.60,392.96 288.05,396.20 295.38,403.11 297.83,400.05 300.27,396.07 302.72,396.16 305.16,422.82 312.50,415.00 314.95,419.69 317.39,431.87 322.28,431.32 329.62,410.40 332.06,390.23 334.51,398.78 336.95,392.63 339.40,385.02 346.73,370.30 349.18,376.74 351.62,364.78 354.07,346.30 363.85,354.06 366.29,365.54 368.74,356.48 371.18,358.18 373.63,368.17 380.96,363.39 383.41,360.90 385.85,357.50 388.30,343.43 390.74,344.65 398.08,342.50 400.52,351.91 402.97,337.64 405.41,330.41 407.86,324.26 415.19,319.99 417.64,326.20 420.08,323.04 422.53,303.80 424.97,340.60 432.31,317.52 434.75,324.97 437.20,306.69 439.64,313.90 442.09,296.30 449.42,297.96 451.87,282.72 454.31,290.78 456.76,278.72 459.20,285.35 466.54,281.60 468.98,294.09 471.43,294.09 473.87,306.33 476.32,281.79 483.65,282.84 486.10,276.92 488.54,277.40 490.99,271.08 493.43,278.05 503.21,281.17 505.66,284.80 508.10,270.64 510.55,286.66 517.88,287.08 520.33,278.88 522.77,289.55 525.22,272.19 527.66,280.80 535.00,276.59 537.45,269.09 539.89,257.20 542.34,265.25 544.78,264.34 552.12,271.81 554.56,283.43 557.01,282.97 559.45,287.61 561.90,282.73 569.23,278.40 571.68,277.64 574.12,259.60 576.57,275.20 579.01,268.30 586.35,252.22 588.79,268.19 591.24,267.78 593.68,271.59 596.13,298.11 603.46,273.72 605.91,264.19 608.35,248.50 610.80,255.66 613.24,252.51 620.58,254.24 623.02,254.75 625.47,251.53 627.91,239.16 630.36,240.43 637.69,235.08 640.14,234.54 642.58,241.26 645.03,268.30 647.47,259.59 654.81,268.19 657.25,281.73 659.70,272.89 662.14,288.07 664.59,291.59 671.92,273.58 674.37,260.70 676.81,250.69 679.26,270.56 681.70,268.69 689.04,282.52 691.48,281.56 693.93,290.75 696.37,316.21 698.82,305.36 706.15,277.16 708.60,269.26 711.04,256.90 715.93,248.62 723.27,263.69 725.71,269.85 728.16,269.06 730.60,283.20 733.05,285.91 740.38,290.12 742.83,296.62 745.27,275.55 747.72,274.83 750.16,293.00 757.50,295.72 759.95,304.90 762.39,317.88 764.84,308.36 767.28,295.18 774.62,286.24 777.06,280.80 779.51,275.37 784.40,273.30 791.73,272.35 794.18,274.38 796.62,285.15 801.51,274.54 808.85,263.31 811.29,268.25 813.74,262.79 816.18,267.31 818.63,259.82 825.96,251.14 828.41,245.75 830.85,234.42 833.30,235.83 835.74,242.68 845.52,260.02 847.97,237.96 850.41,231.60 852.86,232.18 860.19,236.96 862.64,231.11 865.08,235.54 867.53,239.35 869.97,226.68 877.31,218.04 879.75,200.25 882.20,229.21 884.64,247.69 887.09,213.25 894.42,208.81 896.87,219.21 899.31,202.38 901.76,219.08 904.20,224.85 913.98,237.60 916.43,225.75 918.87,225.19 921.32,227.03 928.65,218.03 931.10,196.28 933.54,198.21 935.99,221.24 938.43,213.88 945.77,223.64 948.21,235.13 950.66,242.43 953.10,262.65 955.55,262.05 962.88,255.38 965.33,262.20 967.77,257.50 970.22,255.53 972.66,252.77 980.00,251.04" /><polyline fill="none" stroke="#b45309" stroke-width="3" points="90.00,442.48 92.45,456.43 94.89,442.52 97.34,446.26 99.78,445.83 107.12,422.76 109.56,419.61 112.01,435.30 114.45,438.75 116.90,464.83 124.23,456.31 126.68,452.71 129.12,444.60 131.57,508.14 134.01,579.90 141.35,581.96 143.79,600.00 146.24,480.91 148.68,535.82 151.13,514.44 158.46,502.61 160.91,506.06 163.35,533.35 165.80,531.64 175.58,560.26 178.02,529.72 180.47,511.06 182.91,485.32 185.36,476.30 192.69,475.82 195.14,467.89 197.58,467.39 200.03,458.42 202.47,439.48 209.81,446.90 212.25,457.66 214.70,452.29 217.14,443.36 219.59,445.01 226.92,402.41 229.37,393.62 231.81,391.91 234.26,385.35 236.70,376.81 244.04,375.32 246.48,379.89 248.93,402.71 251.37,402.18 253.82,411.27 263.60,383.77 266.04,391.59 268.49,386.29 270.93,387.79 278.27,380.21 280.71,372.49 283.16,372.86 285.60,379.44 288.05,365.53 295.38,364.29 297.83,356.53 300.27,360.46 302.72,355.00 305.16,370.41 312.50,357.44 314.95,369.20 317.39,369.41 322.28,372.61 329.62,359.17 332.06,343.98 334.51,343.20 336.95,332.32 339.40,325.36 346.73,318.62 349.18,319.08 351.62,312.66 354.07,301.46 363.85,312.14 366.29,312.92 368.74,304.39 371.18,300.36 373.63,305.40 380.96,302.68 383.41,308.79 385.85,304.03 388.30,295.28 390.74,296.33 398.08,293.61 400.52,293.40 402.97,281.14 405.41,280.66 407.86,274.52 415.19,274.89 417.64,278.74 420.08,280.57 422.53,286.02 424.97,309.76 432.31,288.11 434.75,295.44 437.20,284.42 439.64,285.63 442.09,274.34 449.42,277.23 451.87,261.72 454.31,256.68 456.76,256.54 459.20,260.00 466.54,260.32 468.98,268.32 471.43,272.21 473.87,278.07 476.32,255.72 483.65,262.22 486.10,256.06 488.54,252.69 490.99,247.45 493.43,256.31 503.21,267.26 505.66,259.31 508.10,246.99 510.55,251.30 517.88,247.65 520.33,244.22 522.77,239.91 525.22,227.49 527.66,228.00 535.00,219.98 537.45,222.07 539.89,223.94 542.34,216.89 544.78,209.37 552.12,202.16 554.56,210.50 557.01,215.35 559.45,222.35 561.90,213.69 569.23,209.42 571.68,203.68 574.12,198.46 576.57,196.70 579.01,196.72 586.35,191.20 588.79,196.92 591.24,187.76 593.68,192.24 596.13,233.91 603.46,210.89 605.91,212.75 608.35,206.00 610.80,216.40 613.24,207.79 620.58,191.92 623.02,191.94 625.47,199.96 627.91,190.86 630.36,178.25 637.69,159.90 640.14,155.71 642.58,154.96 645.03,172.32 647.47,167.20 654.81,164.26 657.25,182.87 659.70,177.49 662.14,194.19 664.59,192.68 671.92,168.62 674.37,165.04 676.81,164.17 679.26,190.22 681.70,190.47 689.04,204.85 691.48,217.69 693.93,211.83 696.37,235.03 698.82,220.10 706.15,197.82 708.60,183.37 711.04,172.67 715.93,164.15 723.27,171.31 725.71,168.42 728.16,163.00 730.60,161.85 733.05,158.86 740.38,163.59 742.83,164.95 745.27,154.54 747.72,150.87 750.16,167.89 757.50,170.26 759.95,174.53 762.39,191.69 764.84,180.04 767.28,165.96 774.62,156.19 777.06,148.98 779.51,143.40 784.40,143.56 791.73,149.23 794.18,151.17 796.62,162.89 801.51,160.01 808.85,149.53 811.29,140.11 813.74,145.25 816.18,145.41 818.63,134.90 825.96,132.39 828.41,135.59 830.85,143.45 833.30,139.12 835.74,140.45 845.52,172.89 847.97,154.88 850.41,146.63 852.86,146.05 860.19,137.99 862.64,131.63 865.08,131.79 867.53,134.97 869.97,139.74 877.31,131.81 879.75,145.36 882.20,153.06 884.64,172.80 887.09,142.85 894.42,135.18 896.87,139.39 899.31,139.76 901.76,164.39 904.20,163.28 913.98,160.75 916.43,152.83 918.87,157.00 921.32,145.59 928.65,161.81 931.10,150.38 933.54,137.02 935.99,145.89 938.43,153.52 945.77,152.62 948.21,166.56 950.66,155.50 953.10,164.30 955.55,184.87 962.88,171.30 965.33,173.81 967.77,175.77 970.22,199.43 972.66,208.12 980.00,192.59" />
<line x1="1000" y1="84" x2="1032" y2="84" stroke="#1d4ed8" stroke-width="2.5" /><text x="1042" y="89" font-size="16" fill="#0f172a">configured_baseline</text><line x1="1000" y1="112" x2="1032" y2="112" stroke="#0f766e" stroke-width="2.5" /><text x="1042" y="117" font-size="16" fill="#0f172a">ridge_walkforward</text><line x1="1000" y1="140" x2="1032" y2="140" stroke="#7c3aed" stroke-width="2.5" /><text x="1042" y="145" font-size="16" fill="#0f172a">tree_walkforward</text><line x1="1000" y1="168" x2="1032" y2="168" stroke="#db2777" stroke-width="2.5" /><text x="1042" y="173" font-size="16" fill="#0f172a">mlp_walkforward</text><line x1="1000" y1="196" x2="1032" y2="196" stroke="#b45309" stroke-width="3" /><text x="1042" y="201" font-size="16" fill="#0f172a">benchmark</text>
</svg>
