<svg xmlns="http://www.w3.org/2000/svg" width="1200" height="720" viewBox="0 0 1200 720">
<rect width="1200" height="720" fill="#f8fafc" />
<text x="90" y="32" font-size="28" font-family="Segoe UI, Arial, sans-serif" fill="#0f172a">US Stocks Strategy Value - Last 252 Trading Days</text>
<text x="90" y="54" font-size="15" font-family="Segoe UI, Arial, sans-serif" fill="#475569">Initial capital assumed: $100,000</text>
<rect x="90" y="60" width="890" height="580" fill="#ffffff" stroke="#cbd5e1" />
<line x1="90" y1="640.00" x2="980" y2="640.00" stroke="#e2e8f0" stroke-width="1" /><text x="78" y="645.00" font-size="14" text-anchor="end" fill="#475569">$80,452</text><line x1="90" y1="495.00" x2="980" y2="495.00" stroke="#e2e8f0" stroke-width="1" /><text x="78" y="500.00" font-size="14" text-anchor="end" fill="#475569">$107,388</text><line x1="90" y1="350.00" x2="980" y2="350.00" stroke="#e2e8f0" stroke-width="1" /><text x="78" y="355.00" font-size="14" text-anchor="end" fill="#475569">$134,323</text><line x1="90" y1="205.00" x2="980" y2="205.00" stroke="#e2e8f0" stroke-width="1" /><text x="78" y="210.00" font-size="14" text-anchor="end" fill="#475569">$161,258</text><line x1="90" y1="60.00" x2="980" y2="60.00" stroke="#e2e8f0" stroke-width="1" /><text x="78" y="65.00" font-size="14" text-anchor="end" fill="#475569">$188,194</text>
<line x1="90.00" y1="60" x2="90.00" y2="640" stroke="#f1f5f9" stroke-width="1" /><text x="90.00" y="668" font-size="14" text-anchor="middle" fill="#475569">2025-03-13</text><line x1="536.22" y1="60" x2="536.22" y2="640" stroke="#f1f5f9" stroke-width="1" /><text x="536.22" y="668" font-size="14" text-anchor="middle" fill="#475569">2025-09-12</text><line x1="980.00" y1="60" x2="980.00" y2="640" stroke="#f1f5f9" stroke-width="1" /><text x="980.00" y="668" font-size="14" text-anchor="middle" fill="#475569">2026-03-13</text>
<polyline fill="none" stroke="#1d4ed8" stroke-width="2.5" points="90.00,534.77 92.44,534.77 99.75,534.77 102.19,534.77 104.63,534.77 107.07,534.77 109.51,534.77 116.82,534.77 119.26,534.77 121.70,534.77 124.14,534.77 126.58,534.77 133.89,535.31 136.33,528.64 138.77,523.18 141.21,573.02 143.64,600.00 150.96,583.83 153.40,588.59 155.84,510.93 158.27,545.73 160.71,532.24 168.03,540.19 170.47,542.30 172.90,563.41 175.34,571.18 185.10,588.40 187.53,575.32 189.97,554.83 192.41,534.44 194.85,520.33 202.16,523.37 204.60,522.99 207.04,526.26 209.48,517.54 211.92,504.87 219.23,506.79 221.67,510.05 224.11,502.76 226.55,497.91 228.99,498.66 236.30,476.51 238.74,461.62 241.18,455.07 243.62,451.28 246.05,450.91 253.37,449.61 255.81,449.43 258.25,458.19 260.68,457.74 263.12,462.17 272.88,448.55 275.32,448.61 277.75,442.04 280.19,442.20 287.51,429.25 289.95,424.16 292.38,418.21 294.82,427.49 297.26,429.49 304.58,432.83 307.01,429.39 309.45,427.78 311.89,424.94 314.33,436.06 321.64,426.95 324.08,431.42 326.52,428.36 331.40,430.40 338.71,418.29 341.15,407.29 343.59,408.46 346.03,398.78 348.47,398.11 355.78,391.01 358.22,406.89 360.66,399.75 363.10,389.80 372.85,394.09 375.29,398.47 377.73,388.59 380.16,387.10 382.60,389.96 389.92,388.17 392.36,381.71 394.79,383.38 397.23,376.18 399.67,377.13 406.99,373.21 409.42,385.22 411.86,372.92 414.30,366.62 416.74,365.25 424.05,358.40 426.49,362.89 428.93,355.65 431.37,344.18 433.81,361.32 441.12,340.03 443.56,349.59 446.00,341.01 448.44,343.55 450.88,337.93 458.19,339.53 460.63,325.17 463.07,332.84 465.51,328.32 467.95,334.43 475.26,336.73 477.70,354.06 480.14,356.51 482.58,360.44 485.01,347.97 492.33,347.16 494.77,340.39 497.21,340.39 499.64,334.69 502.08,350.77 511.84,357.54 514.27,354.23 516.71,340.40 519.15,329.79 526.47,319.62 528.90,316.50 531.34,300.41 533.78,306.36 536.22,305.83 543.53,298.59 545.97,298.08 548.41,313.43 550.85,306.46 553.29,306.47 560.60,308.35 563.04,321.91 565.48,322.36 567.92,328.03 570.36,328.27 577.67,326.19 580.11,325.39 582.55,320.77 584.99,314.57 587.42,315.34 594.74,316.11 597.18,319.78 599.62,310.27 602.05,312.42 604.49,343.42 611.81,312.64 614.25,326.61 616.68,317.49 619.12,315.00 621.56,311.02 628.88,301.71 631.32,311.10 633.75,315.53 636.19,309.46 638.63,292.17 645.95,270.84 648.38,256.00 650.82,236.82 653.26,239.58 655.70,245.20 663.01,234.52 665.45,257.39 667.89,251.19 670.33,266.19 672.77,272.67 680.08,244.59 682.52,252.99 684.96,257.68 687.40,285.04 689.84,284.04 697.15,283.02 699.59,299.07 702.03,279.72 704.47,297.45 706.90,293.03 714.22,250.13 716.66,245.39 719.10,238.51 723.97,236.02 731.29,250.43 733.73,252.45 736.16,249.44 738.60,250.79 741.04,243.77 748.36,245.01 750.79,248.83 753.23,233.33 755.67,238.23 758.11,267.13 765.42,281.40 767.86,284.34 770.30,301.00 772.74,291.40 775.18,279.02 782.49,271.69 784.93,259.10 787.37,256.51 792.25,256.43 799.56,260.97 802.00,260.32 804.44,266.11 809.32,256.27 816.63,246.28 819.07,254.50 821.51,256.47 823.95,249.31 826.38,245.05 833.70,246.81 836.14,247.75 838.58,246.84 841.01,245.08 843.45,244.34 853.21,263.99 855.64,249.60 858.08,245.41 860.52,245.84 867.84,241.70 870.27,236.04 872.71,230.33 875.15,219.39 877.59,220.53 884.90,224.36 887.34,228.46 889.78,239.12 892.22,254.35 894.66,250.63 901.97,243.15 904.41,249.69 906.85,250.44 909.29,265.74 911.73,275.15 921.48,275.88 923.92,262.04 926.36,261.99 928.79,251.55 936.11,251.84 938.55,249.58 940.99,243.59 943.42,261.96 945.86,260.89 953.18,252.59 955.62,262.46 958.05,260.34 960.49,250.70 962.93,259.93 970.25,244.14 972.68,246.06 975.12,240.45 977.56,248.45 980.00,261.65" /><polyline fill="none" stroke="#0f766e" stroke-width="2.5" points="90.00,534.77 92.44,521.99 99.75,519.46 102.19,527.65 104.63,522.31 107.07,523.95 109.51,515.25 116.82,502.10 119.26,496.01 121.70,501.11 124.14,501.85 126.58,516.19 133.89,510.32 136.33,507.30 138.77,504.92 141.21,525.35 143.64,557.48 150.96,558.55 153.40,560.90 155.84,523.26 158.27,538.48 160.71,526.47 168.03,524.96 170.47,527.35 172.90,534.24 175.34,526.99 185.10,539.00 187.53,525.56 189.97,521.31 192.41,512.84 194.85,511.65 202.16,511.81 204.60,508.43 207.04,511.44 209.48,495.24 211.92,482.45 219.23,483.27 221.67,487.27 224.11,484.20 226.55,477.95 228.99,477.62 236.30,459.19 238.74,452.56 241.18,451.06 243.62,446.31 246.05,446.21 253.37,443.51 255.81,442.18 258.25,449.94 260.68,449.92 263.12,454.20 272.88,441.75 275.32,442.15 277.75,440.18 280.19,435.14 287.51,427.16 289.95,416.03 292.38,413.45 294.82,416.48 297.26,419.35 304.58,418.61 307.01,416.34 309.45,411.74 311.89,404.92 314.33,416.63 321.64,406.45 324.08,409.81 326.52,403.50 331.40,406.18 338.71,398.30 341.15,384.05 343.59,373.54 346.03,364.36 348.47,363.32 355.78,356.99 358.22,375.90 360.66,369.72 363.10,359.83 372.85,362.27 375.29,361.66 377.73,349.01 380.16,351.38 382.60,352.90 389.92,352.28 392.36,343.13 394.79,344.49 397.23,337.30 399.67,339.77 406.99,335.44 409.42,350.12 411.86,340.29 414.30,331.75 416.74,330.58 424.05,323.62 426.49,327.52 428.93,321.30 431.37,300.12 433.81,327.34 441.12,313.32 443.56,319.13 446.00,305.73 448.44,303.75 450.88,300.87 458.19,303.53 460.63,293.81 463.07,298.28 465.51,290.23 467.95,295.82 475.26,295.27 477.70,314.65 480.14,322.32 482.58,325.58 485.01,312.62 492.33,312.38 494.77,308.06 497.21,304.67 499.64,297.63 502.08,316.00 511.84,319.77 514.27,300.08 516.71,294.02 519.15,303.37 526.47,305.31 528.90,298.94 531.34,300.57 533.78,294.23 536.22,289.57 543.53,276.97 545.97,271.79 548.41,269.66 550.85,270.00 553.29,262.39 560.60,258.34 563.04,256.65 565.48,260.48 567.92,256.07 570.36,251.99 577.67,260.38 580.11,264.61 582.55,259.61 584.99,252.91 587.42,253.74 594.74,254.57 597.18,258.55 599.62,248.26 602.05,250.59 604.49,284.11 611.81,250.82 614.25,265.93 616.68,256.07 619.12,253.38 621.56,249.07 628.88,239.01 631.32,249.15 633.75,253.95 636.19,247.38 638.63,228.68 645.95,205.63 648.38,189.58 650.82,168.83 653.26,171.82 655.70,177.90 663.01,172.30 665.45,187.12 667.89,176.42 670.33,184.91 672.77,193.19 680.08,174.07 682.52,171.67 684.96,179.04 687.40,201.46 689.84,204.64 697.15,203.38 699.59,214.96 702.03,198.72 704.47,213.25 706.90,202.02 714.22,155.03 716.66,142.93 719.10,137.89 723.97,129.78 731.29,138.52 733.73,140.52 736.16,135.06 738.60,140.44 741.04,134.91 748.36,135.62 750.79,126.09 753.23,115.91 755.67,126.19 758.11,156.84 765.42,175.91 767.86,181.59 770.30,195.67 772.74,190.17 775.18,178.24 782.49,174.60 784.93,162.54 787.37,161.31 792.25,161.04 799.56,159.76 802.00,158.94 804.44,165.17 809.32,154.10 816.63,142.86 819.07,152.11 821.51,154.33 823.95,146.27 826.38,141.48 833.70,143.46 836.14,144.52 838.58,143.49 841.01,141.51 843.45,140.68 853.21,162.78 855.64,146.60 858.08,141.88 860.52,142.37 867.84,137.71 870.27,131.35 872.71,124.92 875.15,112.61 877.59,114.37 884.90,104.59 887.34,100.00 889.78,103.88 892.22,115.66 894.66,127.28 901.97,125.43 904.41,137.28 906.85,138.34 909.29,146.95 911.73,148.09 921.48,153.12 923.92,144.53 926.36,146.29 928.79,137.33 936.11,139.61 938.55,135.70 940.99,133.03 943.42,142.92 945.86,126.35 953.18,127.23 955.62,128.44 958.05,133.59 960.49,144.33 962.93,145.71 970.25,142.69 972.68,148.20 975.12,144.99 977.56,147.64 980.00,148.14" /><polyline fill="none" stroke="#7c3aed" stroke-width="3" points="90.00,534.77 92.44,523.65 99.75,519.41 102.19,525.40 104.63,519.43 107.07,521.03 109.51,520.85 116.82,510.96 119.26,509.61 121.70,516.34 124.14,517.82 126.58,529.00 133.89,525.35 136.33,523.80 138.77,520.32 141.21,547.56 143.64,578.33 150.96,579.21 153.40,586.95 155.84,535.89 158.27,559.43 160.71,550.27 168.03,545.19 170.47,546.67 172.90,558.37 175.34,557.64 185.10,569.91 187.53,556.82 189.97,548.82 192.41,537.78 194.85,533.91 202.16,533.71 204.60,530.31 207.04,530.10 209.48,526.25 211.92,518.13 219.23,521.31 221.67,525.92 224.11,523.62 226.55,519.79 228.99,520.50 236.30,502.24 238.74,498.47 241.18,497.73 243.62,494.92 246.05,491.26 253.37,490.62 255.81,492.58 258.25,502.36 260.68,502.14 263.12,506.04 272.88,494.25 275.32,497.60 277.75,495.32 280.19,495.97 287.51,492.72 289.95,489.41 292.38,489.57 294.82,492.39 297.26,486.42 304.58,485.89 307.01,482.57 309.45,484.25 311.89,481.91 314.33,488.52 321.64,482.96 324.08,488.00 326.52,488.09 331.40,489.46 338.71,483.70 341.15,477.19 343.59,476.85 346.03,472.19 348.47,469.20 355.78,466.31 358.22,466.51 360.66,463.76 363.10,458.96 372.85,463.53 375.29,463.87 377.73,460.22 380.16,458.49 382.60,460.65 389.92,459.48 392.36,462.10 394.79,460.06 397.23,456.31 399.67,456.76 406.99,455.59 409.42,455.50 411.86,450.25 414.30,450.04 416.74,447.41 424.05,447.57 426.49,449.22 428.93,450.00 431.37,452.34 433.81,462.51 441.12,453.23 443.56,456.38 446.00,451.65 448.44,452.17 450.88,447.33 458.19,448.57 460.63,441.92 463.07,439.76 465.51,439.70 467.95,441.18 475.26,441.32 477.70,444.75 480.14,446.42 482.58,448.93 485.01,439.35 492.33,442.14 494.77,439.49 497.21,438.05 499.64,435.80 502.08,439.60 511.84,444.30 514.27,440.89 516.71,435.60 519.15,437.45 526.47,435.89 528.90,434.42 531.34,432.57 533.78,427.25 536.22,427.46 543.53,424.03 545.97,424.92 548.41,425.72 550.85,422.70 553.29,419.48 560.60,416.39 563.04,419.96 565.48,422.04 567.92,425.04 570.36,421.33 577.67,419.50 580.11,417.04 582.55,414.80 584.99,414.04 587.42,414.05 594.74,411.69 597.18,414.14 599.62,410.21 602.05,412.13 604.49,430.00 611.81,420.13 614.25,420.93 616.68,418.03 619.12,422.49 621.56,418.80 628.88,411.99 631.32,412.00 633.75,415.44 636.19,411.54 638.63,406.13 645.95,398.27 648.38,396.47 650.82,396.15 653.26,403.59 655.70,401.40 663.01,400.14 665.45,408.11 667.89,405.81 670.33,412.97 672.77,412.32 680.08,402.01 682.52,400.47 684.96,400.10 687.40,411.27 689.84,411.37 697.15,417.54 699.59,423.04 702.03,420.53 704.47,430.48 706.90,424.08 714.22,414.52 716.66,408.33 719.10,403.74 723.97,400.09 731.29,403.16 733.73,401.92 736.16,399.60 738.60,399.10 741.04,397.82 748.36,399.85 750.79,400.43 753.23,395.97 755.67,394.40 758.11,401.69 765.42,402.71 767.86,404.54 770.30,411.90 772.74,406.90 775.18,400.86 782.49,396.68 784.93,393.58 787.37,391.19 792.25,391.26 799.56,393.69 802.00,394.52 804.44,399.55 809.32,398.32 816.63,393.82 819.07,389.78 821.51,391.98 823.95,392.05 826.38,387.55 833.70,386.47 836.14,387.85 838.58,391.21 841.01,389.36 843.45,389.93 853.21,403.84 855.64,396.11 858.08,392.58 860.52,392.33 867.84,388.87 870.27,386.15 872.71,386.22 875.15,387.58 877.59,389.62 884.90,386.23 887.34,392.03 889.78,395.33 892.22,403.80 894.66,390.96 901.97,387.67 904.41,389.48 906.85,389.63 909.29,400.19 911.73,399.72 921.48,398.63 923.92,395.23 926.36,397.02 928.79,392.13 936.11,399.09 938.55,394.19 940.99,388.46 943.42,392.26 945.86,395.53 953.18,395.15 955.62,401.12 958.05,396.38 960.49,400.15 962.93,408.97 970.25,403.16 972.68,404.23 975.12,405.07 977.56,415.22 980.00,418.94" />
<line x1="1000" y1="84" x2="1032" y2="84" stroke="#1d4ed8" stroke-width="2.5" /><text x="1042" y="89" font-size="16" fill="#0f172a">supervised_ml</text><line x1="1000" y1="112" x2="1032" y2="112" stroke="#0f766e" stroke-width="2.5" /><text x="1042" y="117" font-size="16" fill="#0f172a">configured_baseline</text><line x1="1000" y1="140" x2="1032" y2="140" stroke="#7c3aed" stroke-width="3" /><text x="1042" y="145" font-size="16" fill="#0f172a">benchmark</text>
</svg>
