<svg xmlns="http://www.w3.org/2000/svg" width="1200" height="720" viewBox="0 0 1200 720">
<rect width="1200" height="720" fill="#f8fafc" />
<text x="90" y="32" font-size="28" font-family="Segoe UI, Arial, sans-serif" fill="#0f172a">US Stocks Strategy Value - Last 252 Trading Days</text>
<text x="90" y="54" font-size="15" font-family="Segoe UI, Arial, sans-serif" fill="#475569">Initial capital assumed: $100,000</text>
<rect x="90" y="60" width="890" height="580" fill="#ffffff" stroke="#cbd5e1" />
<line x1="90" y1="640.00" x2="980" y2="640.00" stroke="#e2e8f0" stroke-width="1" /><text x="78" y="645.00" font-size="14" text-anchor="end" fill="#475569">$82,631</text><line x1="90" y1="495.00" x2="980" y2="495.00" stroke="#e2e8f0" stroke-width="1" /><text x="78" y="500.00" font-size="14" text-anchor="end" fill="#475569">$96,932</text><line x1="90" y1="350.00" x2="980" y2="350.00" stroke="#e2e8f0" stroke-width="1" /><text x="78" y="355.00" font-size="14" text-anchor="end" fill="#475569">$111,234</text><line x1="90" y1="205.00" x2="980" y2="205.00" stroke="#e2e8f0" stroke-width="1" /><text x="78" y="210.00" font-size="14" text-anchor="end" fill="#475569">$125,536</text><line x1="90" y1="60.00" x2="980" y2="60.00" stroke="#e2e8f0" stroke-width="1" /><text x="78" y="65.00" font-size="14" text-anchor="end" fill="#475569">$139,838</text>
<line x1="90.00" y1="60" x2="90.00" y2="640" stroke="#f1f5f9" stroke-width="1" /><text x="90.00" y="668" font-size="14" text-anchor="middle" fill="#475569">2025-03-17</text><line x1="536.22" y1="60" x2="536.22" y2="640" stroke="#f1f5f9" stroke-width="1" /><text x="536.22" y="668" font-size="14" text-anchor="middle" fill="#475569">2025-09-16</text><line x1="980.00" y1="60" x2="980.00" y2="640" stroke="#f1f5f9" stroke-width="1" /><text x="980.00" y="668" font-size="14" text-anchor="middle" fill="#475569">2026-03-17</text>
<polyline fill="none" stroke="#1d4ed8" stroke-width="2.5" points="90.00,463.90 92.44,476.78 94.88,464.42 97.32,466.45 99.75,461.56 107.07,443.86 109.51,439.92 111.95,447.37 114.38,445.96 116.82,465.28 124.14,460.13 126.58,470.61 129.01,471.30 131.45,497.29 133.89,553.87 141.21,560.68 143.64,574.47 146.08,524.38 148.52,551.04 150.96,535.42 158.27,531.55 160.71,535.51 163.15,542.98 165.59,555.99 175.34,575.82 177.78,561.76 180.22,561.45 182.66,554.97 185.10,550.65 192.41,544.69 194.85,546.69 197.29,549.68 199.73,560.95 202.16,542.46 209.48,545.92 211.92,554.43 214.36,546.25 216.79,547.25 219.23,550.80 226.55,535.92 228.99,531.08 231.42,537.98 233.86,524.58 236.30,516.48 243.62,512.33 246.05,512.97 248.49,523.93 250.93,525.65 253.37,529.97 263.12,515.92 265.56,515.38 268.00,510.78 270.44,500.51 277.75,491.60 280.19,483.66 282.63,478.25 285.07,480.52 287.51,480.34 294.82,480.41 297.26,481.81 299.70,478.03 302.14,479.70 304.58,499.52 311.89,487.20 314.33,492.24 316.77,495.81 321.64,497.05 328.96,485.13 331.40,466.20 333.84,462.03 336.27,448.78 338.71,436.04 346.03,429.00 348.47,451.74 350.90,438.19 353.34,425.18 363.10,435.42 365.53,434.77 367.97,423.49 370.41,421.47 372.85,424.25 380.16,421.46 382.60,405.85 385.04,399.51 387.48,388.21 389.92,400.70 397.23,396.50 399.67,417.17 402.11,403.31 404.55,393.24 406.99,385.96 414.30,375.61 416.74,373.42 419.18,365.59 421.62,355.88 424.05,386.11 431.37,360.61 433.81,367.16 436.25,364.80 438.68,359.33 441.12,351.86 448.44,352.86 450.88,339.57 453.32,346.71 455.75,342.11 458.19,347.03 465.51,347.23 467.95,378.57 470.38,385.94 472.82,389.06 475.26,371.88 482.58,374.15 485.01,366.39 487.45,362.77 489.89,350.17 492.33,376.15 502.08,383.41 504.52,378.42 506.96,372.34 509.40,376.68 516.71,375.23 519.15,355.59 521.59,352.78 524.03,342.65 526.47,348.33 533.78,341.24 536.22,340.19 538.66,336.22 541.10,306.18 543.53,310.38 550.85,313.87 553.29,304.44 555.73,297.03 558.16,286.34 560.60,273.87 567.92,282.25 570.36,288.82 572.79,278.53 575.23,274.32 577.67,276.76 584.99,272.02 587.42,276.53 589.86,273.54 592.30,271.17 594.74,303.35 602.05,272.65 604.49,284.66 606.93,272.93 609.37,276.02 611.81,280.38 619.12,269.15 621.56,274.92 624.00,292.85 626.44,275.51 628.88,256.14 636.19,230.83 638.63,217.51 641.07,215.17 643.51,226.54 645.95,225.56 653.26,215.56 655.70,250.93 658.14,237.78 660.58,266.27 663.01,270.65 670.33,239.90 672.77,249.63 675.21,236.03 677.64,263.50 680.08,264.14 687.40,273.47 689.84,293.72 692.27,277.98 694.71,314.90 697.15,305.62 704.47,259.08 706.90,260.91 709.34,246.48 714.22,225.61 721.53,242.24 723.97,229.78 726.41,226.06 728.85,243.92 731.29,235.04 738.60,240.67 741.04,241.62 743.48,225.21 745.92,233.16 748.36,256.71 755.67,257.89 758.11,269.26 760.55,293.46 762.99,285.46 765.42,271.56 772.74,271.89 775.18,269.54 777.62,266.27 782.49,265.19 789.81,265.31 792.25,263.97 794.68,271.20 799.56,265.33 806.88,257.14 809.32,256.43 811.75,250.74 814.19,254.43 816.63,253.85 823.95,249.60 826.38,253.59 828.82,255.30 831.26,251.33 833.70,257.05 843.45,277.32 845.89,261.49 848.33,250.86 850.77,260.24 858.08,248.07 860.52,244.32 862.96,242.41 865.40,246.69 867.84,246.72 875.15,237.54 877.59,233.29 880.03,227.07 882.47,234.80 884.90,211.18 892.22,206.20 894.66,215.73 897.10,211.10 899.53,228.63 901.97,227.32 911.73,233.28 914.16,226.85 916.60,236.48 919.04,240.53 926.36,240.99 928.79,228.89 931.23,226.28 933.67,234.42 936.11,233.21 943.42,228.78 945.86,250.28 948.30,250.10 950.74,271.24 953.18,269.34 960.49,265.65 962.93,270.20 965.37,271.10 967.81,282.88 970.25,281.06 977.56,272.87 980.00,278.42" /><polyline fill="none" stroke="#0f766e" stroke-width="2.5" points="90.00,463.90 92.44,463.90 94.88,463.90 97.32,463.90 99.75,463.90 107.07,463.90 109.51,463.90 111.95,463.90 114.38,463.90 116.82,463.90 124.14,464.87 126.58,473.90 129.01,469.29 131.45,500.21 133.89,564.77 141.21,564.38 143.64,585.52 146.08,499.34 148.52,541.80 150.96,527.96 158.27,519.29 160.71,522.66 163.15,544.29 165.59,544.18 175.34,566.07 177.78,546.56 180.22,529.08 182.66,507.92 185.10,503.10 192.41,495.04 194.85,495.18 197.29,498.60 199.73,491.40 202.16,471.42 209.48,474.65 211.92,478.48 214.36,468.29 216.79,461.87 219.23,462.81 226.55,439.95 228.99,420.01 231.42,414.20 233.86,404.62 236.30,400.91 243.62,398.00 246.05,399.07 248.49,411.84 250.93,410.75 253.37,417.06 263.12,398.42 265.56,397.63 268.00,389.36 270.44,385.40 277.75,374.29 280.19,368.49 282.63,363.80 285.07,370.33 287.51,369.04 294.82,372.10 297.26,375.75 299.70,374.35 302.14,377.28 304.58,399.00 311.89,386.92 314.33,392.90 316.77,398.02 321.64,395.50 328.96,379.70 331.40,362.62 333.84,365.87 336.27,352.39 338.71,340.70 346.03,331.79 348.47,349.73 350.90,337.92 353.34,320.44 363.10,325.38 365.53,327.56 367.97,310.72 370.41,309.75 372.85,314.52 380.16,307.30 382.60,299.99 385.04,294.76 387.48,287.58 389.92,290.35 397.23,288.18 399.67,305.51 402.11,285.81 404.55,279.33 406.99,272.04 414.30,265.86 416.74,272.33 419.18,265.32 421.62,258.56 424.05,281.11 431.37,250.45 433.81,259.53 436.25,257.67 438.68,250.36 441.12,239.30 448.44,244.12 450.88,223.00 453.32,232.95 455.75,235.48 458.19,245.70 465.51,248.52 467.95,285.07 470.38,287.27 472.82,292.18 475.26,276.00 482.58,281.44 485.01,264.09 487.45,262.71 489.89,251.14 492.33,280.38 502.08,285.48 504.52,285.43 506.96,274.91 509.40,281.54 516.71,275.10 519.15,269.19 521.59,247.47 524.03,256.32 526.47,255.83 533.78,246.32 536.22,243.42 538.66,252.11 541.10,245.20 543.53,243.94 550.85,241.92 553.29,246.05 555.73,251.75 558.16,256.78 560.60,254.17 567.92,255.24 570.36,252.82 572.79,261.06 575.23,266.27 577.67,261.15 584.99,259.60 587.42,260.08 589.86,258.54 592.30,261.39 594.74,286.36 602.05,269.42 604.49,266.07 606.93,265.44 609.37,272.75 611.81,264.88 619.12,257.40 621.56,259.53 624.00,267.52 626.44,261.09 628.88,250.35 636.19,235.75 638.63,229.85 641.07,232.33 643.51,230.38 645.95,231.23 653.26,232.07 655.70,255.34 658.14,250.29 660.58,263.19 663.01,259.76 670.33,239.85 672.77,241.52 675.21,234.44 677.64,249.05 680.08,244.19 687.40,255.72 689.84,260.97 692.27,242.97 694.71,267.23 697.15,261.23 704.47,232.30 706.90,230.75 709.34,216.95 714.22,198.63 721.53,213.96 723.97,203.07 726.41,198.29 728.85,217.62 731.29,210.01 738.60,220.99 741.04,221.36 743.48,207.02 745.92,217.58 748.36,242.88 755.67,246.40 758.11,255.63 760.55,278.32 762.99,268.03 765.42,252.36 772.74,251.39 775.18,244.78 777.62,242.01 782.49,240.93 789.81,240.03 792.25,237.88 794.68,247.06 799.56,231.72 806.88,219.31 809.32,222.61 811.75,222.51 814.19,223.82 816.63,222.31 823.95,223.65 826.38,225.49 828.82,233.39 831.26,222.41 833.70,222.61 843.45,249.76 845.89,230.43 848.33,222.23 850.77,233.56 858.08,222.21 860.52,218.53 862.96,215.78 865.40,207.02 867.84,206.80 875.15,196.13 877.59,200.16 880.03,232.40 882.47,250.62 884.90,218.45 892.22,203.59 894.66,209.83 897.10,216.97 899.53,261.74 901.97,263.76 911.73,264.54 914.16,250.85 916.60,251.36 919.04,245.50 926.36,255.47 928.79,241.38 931.23,231.07 933.67,248.87 936.11,253.84 943.42,251.68 945.86,276.60 948.30,265.87 950.74,279.23 953.18,294.49 960.49,284.35 962.93,278.25 965.37,269.29 967.81,285.91 970.25,284.67 977.56,277.80 980.00,292.79" /><polyline fill="none" stroke="#7c3aed" stroke-width="2.5" points="90.00,463.90 92.44,463.90 94.88,463.90 97.32,463.90 99.75,463.90 107.07,463.90 109.51,463.90 111.95,463.90 114.38,463.90 116.82,463.90 124.14,464.87 126.58,475.96 129.01,473.29 131.45,519.15 133.89,579.73 141.21,584.15 143.64,600.00 146.08,518.63 148.52,557.87 150.96,538.55 158.27,532.39 160.71,535.98 163.15,552.09 165.59,541.74 175.34,559.08 177.78,544.30 180.22,528.17 182.66,510.78 185.10,498.03 192.41,488.77 194.85,488.64 197.29,486.59 199.73,482.07 202.16,463.03 209.48,468.20 211.92,471.67 214.36,464.99 216.79,457.74 219.23,456.65 226.55,437.55 228.99,423.95 231.42,424.03 233.86,413.54 236.30,410.54 243.62,409.55 246.05,410.61 248.49,422.38 250.93,422.54 253.37,426.15 263.12,410.52 265.56,410.77 268.00,404.98 270.44,398.45 277.75,387.48 280.19,381.75 282.63,377.11 285.07,383.56 287.51,382.28 294.82,385.32 297.26,388.92 299.70,387.53 302.14,390.43 304.58,411.89 311.89,399.96 314.33,405.87 316.77,410.92 321.64,408.43 328.96,392.82 331.40,375.95 333.84,379.16 336.27,365.83 338.71,354.29 346.03,344.94 348.47,363.23 350.90,361.92 353.34,347.09 363.10,350.72 365.53,361.42 367.97,346.69 370.41,348.14 372.85,352.09 380.16,340.97 382.60,343.96 385.04,344.55 387.48,338.63 389.92,345.32 397.23,338.83 399.67,353.47 402.11,338.79 404.55,335.13 406.99,328.35 414.30,327.35 416.74,335.05 419.18,328.67 421.62,327.94 424.05,343.54 431.37,318.51 433.81,324.04 436.25,327.59 438.68,323.58 441.12,317.14 448.44,317.98 450.88,299.33 453.32,303.27 455.75,301.69 458.19,307.71 465.51,309.76 467.95,337.31 470.38,337.84 472.82,341.65 475.26,324.55 482.58,332.43 485.01,316.90 487.45,313.61 489.89,304.07 492.33,324.31 502.08,329.35 504.52,340.58 506.96,335.18 509.40,348.60 516.71,345.02 519.15,337.45 521.59,341.58 524.03,341.41 526.47,349.13 533.78,346.77 536.22,338.26 538.66,332.89 541.10,334.49 543.53,340.31 550.85,347.80 553.29,348.83 555.73,347.55 558.16,351.10 560.60,342.02 567.92,350.10 570.36,358.95 572.79,368.61 575.23,374.61 577.67,368.21 584.99,364.22 587.42,367.60 589.86,373.91 592.30,379.24 594.74,396.25 602.05,376.40 604.49,371.71 606.93,368.03 609.37,378.26 611.81,373.56 619.12,363.47 621.56,369.97 624.00,377.16 626.44,371.04 628.88,358.69 636.19,344.10 638.63,348.21 641.07,348.43 643.51,341.79 645.95,341.80 653.26,335.33 655.70,343.79 658.14,339.20 660.58,344.53 663.01,343.54 670.33,327.38 672.77,320.62 675.21,312.79 677.64,326.01 680.08,331.01 687.40,334.51 689.84,339.93 692.27,328.60 694.71,346.23 697.15,336.03 704.47,319.19 706.90,308.85 709.34,303.83 714.22,293.75 721.53,304.33 723.97,308.22 726.41,298.60 728.85,305.27 731.29,305.36 738.60,316.03 741.04,323.43 743.48,303.79 745.92,300.87 748.36,301.69 755.67,292.78 758.11,310.73 760.55,316.22 762.99,312.22 765.42,303.65 772.74,295.30 775.18,291.13 777.62,286.29 782.49,286.75 789.81,287.01 792.25,287.24 794.68,293.06 799.56,279.44 806.88,273.40 809.32,277.12 811.75,271.85 814.19,275.56 816.63,274.80 823.95,270.26 826.38,263.25 828.82,266.14 831.26,255.43 833.70,257.75 843.45,279.88 845.89,260.83 848.33,253.28 850.77,260.36 858.08,249.99 860.52,244.07 862.96,239.43 865.40,233.91 867.84,233.77 875.15,214.85 877.59,215.79 880.03,255.58 882.47,272.42 884.90,242.28 892.22,231.20 894.66,240.23 897.10,258.71 899.53,298.55 901.97,293.20 911.73,284.79 914.16,277.19 916.60,278.75 919.04,266.36 926.36,290.66 928.79,270.74 931.23,262.21 933.67,271.43 936.11,288.48 943.42,286.38 945.86,310.59 948.30,300.16 950.74,313.14 953.18,327.97 960.49,318.12 962.93,312.19 965.37,303.48 967.81,319.63 970.25,318.43 977.56,311.76 980.00,326.60" /><polyline fill="none" stroke="#db2777" stroke-width="2.5" points="90.00,463.90 92.44,463.90 94.88,463.90 97.32,463.90 99.75,463.90 107.07,463.90 109.51,463.90 111.95,463.90 114.38,463.90 116.82,463.90 124.14,464.87 126.58,480.13 129.01,478.54 131.45,496.12 133.89,562.81 141.21,567.98 143.64,587.39 146.08,521.11 148.52,557.78 150.96,548.11 158.27,534.45 160.71,531.65 163.15,551.83 165.59,531.24 175.34,546.36 177.78,525.48 180.22,515.01 182.66,496.82 185.10,491.49 192.41,484.86 194.85,482.04 197.29,483.75 199.73,480.11 202.16,459.16 209.48,463.78 211.92,469.33 214.36,460.56 216.79,450.26 219.23,447.99 226.55,427.14 228.99,411.90 231.42,417.26 233.86,407.06 236.30,403.24 243.62,402.16 246.05,402.76 248.49,416.53 250.93,417.30 253.37,425.19 263.12,407.60 265.56,407.28 268.00,404.02 270.44,400.80 277.75,389.86 280.19,384.14 282.63,379.51 285.07,385.95 287.51,384.68 294.82,387.70 297.26,391.29 299.70,389.91 302.14,392.81 304.58,414.21 311.89,402.31 314.33,408.21 316.77,413.25 321.64,410.77 328.96,395.19 331.40,378.35 333.84,381.56 336.27,368.26 338.71,356.74 346.03,347.95 348.47,367.31 350.90,362.65 353.34,347.71 363.10,349.94 365.53,353.68 367.97,336.11 370.41,335.52 372.85,337.10 380.16,329.34 382.60,324.82 385.04,323.48 387.48,319.09 389.92,320.39 397.23,317.20 399.67,332.31 402.11,315.08 404.55,307.92 406.99,301.34 414.30,297.13 416.74,304.72 419.18,298.06 421.62,287.97 424.05,310.71 431.37,280.44 433.81,288.27 436.25,289.27 438.68,284.56 441.12,277.37 448.44,280.20 450.88,256.32 453.32,263.73 455.75,263.44 458.19,270.12 465.51,274.48 467.95,311.74 470.38,314.75 472.82,320.28 475.26,300.08 482.58,305.62 485.01,289.31 487.45,287.92 489.89,278.36 492.33,306.92 502.08,310.66 504.52,314.84 506.96,305.49 509.40,305.22 516.71,300.77 519.15,297.98 521.59,284.43 524.03,298.53 526.47,302.96 533.78,292.21 536.22,285.15 538.66,295.79 541.10,258.91 543.53,264.33 550.85,275.55 553.29,270.76 555.73,262.10 558.16,258.28 560.60,247.79 567.92,256.00 570.36,261.36 572.79,271.76 575.23,278.76 577.67,272.96 584.99,268.21 587.42,272.93 589.86,273.88 592.30,276.19 594.74,302.14 602.05,284.31 604.49,285.07 606.93,283.03 609.37,294.68 611.81,287.83 619.12,278.87 621.56,283.74 624.00,288.92 626.44,286.11 628.88,269.18 636.19,255.02 638.63,241.69 641.07,246.10 643.51,246.86 645.95,248.14 653.26,246.52 655.70,277.24 658.14,266.96 660.58,290.46 663.01,291.70 670.33,270.42 672.77,276.07 675.21,258.65 677.64,284.05 680.08,282.46 687.40,301.27 689.84,313.33 692.27,295.73 694.71,327.79 697.15,323.99 704.47,293.93 706.90,291.07 709.34,272.60 714.22,250.75 721.53,267.04 723.97,271.72 726.41,260.06 728.85,263.62 731.29,258.56 738.60,259.94 741.04,264.50 743.48,245.59 745.92,240.15 748.36,261.37 755.67,261.33 758.11,276.72 760.55,286.02 762.99,280.97 765.42,265.68 772.74,257.33 775.18,250.29 777.62,244.72 782.49,244.62 789.81,248.44 792.25,249.45 794.68,257.85 799.56,245.16 806.88,238.33 809.32,236.11 811.75,230.90 814.19,239.04 816.63,240.58 823.95,237.34 826.38,239.39 828.82,248.08 831.26,235.34 833.70,237.03 843.45,264.82 845.89,249.38 848.33,241.02 850.77,252.53 858.08,240.32 860.52,236.90 862.96,232.82 865.40,227.65 867.84,229.01 875.15,214.98 877.59,218.92 880.03,257.17 882.47,277.75 884.90,242.29 892.22,233.93 894.66,252.35 897.10,257.18 899.53,285.32 901.97,286.83 911.73,282.02 914.16,273.92 916.60,272.40 919.04,261.80 926.36,277.25 928.79,251.77 931.23,242.56 933.67,263.25 936.11,274.10 943.42,271.98 945.86,296.48 948.30,285.92 950.74,299.07 953.18,314.08 960.49,304.11 962.93,298.10 965.37,289.29 967.81,305.64 970.25,304.42 977.56,297.66 980.00,312.69" /><polyline fill="none" stroke="#b45309" stroke-width="2.5" points="90.00,463.90 92.44,463.90 94.88,463.90 97.32,463.90 99.75,463.90 107.07,463.90 109.51,463.90 111.95,463.90 114.38,463.90 116.82,463.90 124.14,464.87 126.58,470.62 129.01,472.05 131.45,495.60 133.89,547.58 141.21,555.54 143.64,572.59 146.08,519.56 148.52,546.32 150.96,531.63 158.27,523.82 160.71,527.82 163.15,541.70 165.59,535.20 175.34,553.23 177.78,535.37 180.22,529.89 182.66,521.03 185.10,513.16 192.41,507.63 194.85,504.18 197.29,504.84 199.73,501.63 202.16,481.78 209.48,485.71 211.92,494.62 214.36,487.66 216.79,483.26 219.23,484.08 226.55,464.66 228.99,453.37 231.42,459.76 233.86,447.22 236.30,442.58 243.62,438.80 246.05,439.31 248.49,451.27 250.93,450.68 253.37,454.84 263.12,439.15 265.56,439.52 268.00,433.90 270.44,426.36 277.75,415.84 280.19,411.84 282.63,407.34 285.07,412.13 287.51,411.60 294.82,414.87 297.26,418.26 299.70,417.67 302.14,419.38 304.58,438.35 311.89,430.76 314.33,438.41 316.77,446.71 321.64,445.55 328.96,430.69 331.40,415.03 333.84,419.32 336.27,408.80 338.71,396.64 346.03,389.14 348.47,403.69 350.90,388.69 353.34,370.66 363.10,378.45 365.53,385.36 367.97,371.29 370.41,371.63 372.85,375.01 380.16,369.57 382.60,361.06 385.04,357.29 387.48,342.98 389.92,353.97 397.23,351.41 399.67,369.72 402.11,354.69 404.55,348.95 406.99,342.61 414.30,336.88 416.74,340.77 419.18,332.33 421.62,339.60 424.05,371.14 431.37,349.34 433.81,354.14 436.25,351.84 438.68,346.46 441.12,338.26 448.44,343.23 450.88,327.94 453.32,330.43 455.75,329.71 458.19,336.62 465.51,339.82 467.95,371.51 470.38,375.62 472.82,381.85 475.26,362.97 482.58,369.47 485.01,358.90 487.45,356.85 489.89,349.01 492.33,373.98 502.08,378.60 504.52,383.37 506.96,380.33 509.40,387.68 516.71,384.42 519.15,382.64 521.59,355.68 524.03,361.62 526.47,365.50 533.78,358.03 536.22,354.40 538.66,362.49 541.10,328.06 543.53,335.38 550.85,333.84 553.29,332.19 555.73,323.70 558.16,314.09 560.60,309.84 567.92,316.38 570.36,313.73 572.79,304.87 575.23,302.40 577.67,302.05 584.99,295.95 587.42,296.70 589.86,293.52 592.30,302.69 594.74,330.10 602.05,315.20 604.49,313.68 606.93,302.57 609.37,307.63 611.81,296.75 619.12,282.54 621.56,282.57 624.00,290.31 626.44,280.70 628.88,274.29 636.19,252.89 638.63,243.32 641.07,241.44 643.51,245.36 645.95,251.57 653.26,244.57 655.70,279.04 658.14,263.21 660.58,294.44 663.01,293.74 670.33,269.24 672.77,278.81 675.21,263.60 677.64,296.86 680.08,296.34 687.40,317.66 689.84,335.68 692.27,325.95 694.71,362.28 697.15,357.26 704.47,322.18 706.90,327.86 709.34,308.90 714.22,286.59 721.53,305.21 723.97,296.07 726.41,286.67 728.85,300.00 731.29,291.19 738.60,295.67 741.04,302.17 743.48,284.41 745.92,283.60 748.36,309.37 755.67,309.20 758.11,321.07 760.55,338.02 762.99,331.30 765.42,314.78 772.74,310.22 775.18,305.07 777.62,300.25 782.49,299.87 789.81,303.33 792.25,302.44 794.68,311.24 799.56,296.69 806.88,284.93 809.32,288.06 811.75,287.97 814.19,289.21 816.63,287.77 823.95,289.04 826.38,290.79 828.82,298.27 831.26,287.87 833.70,288.06 843.45,313.79 845.89,295.47 848.33,287.70 850.77,298.44 858.08,287.68 860.52,284.19 862.96,281.58 865.40,273.28 867.84,273.37 875.15,260.61 877.59,269.99 880.03,302.62 882.47,317.77 884.90,286.62 892.22,273.65 894.66,281.16 897.10,295.40 899.53,331.31 901.97,329.78 911.73,327.81 914.16,321.96 916.60,325.74 919.04,317.85 926.36,331.47 928.79,315.14 931.23,307.06 933.67,323.87 936.11,333.64 943.42,331.62 945.86,354.92 948.30,344.88 950.74,357.37 953.18,371.64 960.49,362.16 962.93,356.46 965.37,348.08 967.81,363.62 970.25,362.46 977.56,356.04 980.00,370.05" /><polyline fill="none" stroke="#475569" stroke-width="2.5" points="90.00,463.90 92.44,463.90 94.88,463.90 97.32,463.90 99.75,463.90 107.07,463.90 109.51,463.90 111.95,463.90 114.38,463.90 116.82,463.90 124.14,464.87 126.58,473.86 129.01,473.09 131.45,503.33 133.89,561.07 141.21,568.72 143.64,584.78 146.08,530.66 148.52,564.64 150.96,548.16 158.27,539.75 160.71,538.80 163.15,554.17 165.59,529.53 175.34,550.92 177.78,532.87 180.22,527.46 182.66,515.95 185.10,503.29 192.41,499.05 194.85,496.74 197.29,496.32 199.73,495.10 202.16,478.47 209.48,479.50 211.92,486.06 214.36,480.68 216.79,476.34 219.23,478.07 226.55,462.68 228.99,471.70 231.42,472.50 233.86,476.18 236.30,465.53 243.62,452.97 246.05,450.69 248.49,467.61 250.93,470.05 253.37,475.06 263.12,461.53 265.56,458.87 268.00,455.03 270.44,446.43 277.75,436.10 280.19,432.18 282.63,427.76 285.07,432.47 287.51,431.94 294.82,435.15 297.26,438.48 299.70,437.89 302.14,439.58 304.58,458.19 311.89,450.74 314.33,458.24 316.77,466.39 321.64,465.25 328.96,450.67 331.40,435.31 333.84,439.52 336.27,429.20 338.71,417.27 346.03,410.17 348.47,427.74 350.90,416.07 353.34,400.00 363.10,404.07 365.53,405.75 367.97,389.55 370.41,388.20 372.85,390.63 380.16,383.72 382.60,374.91 385.04,370.44 387.48,363.96 389.92,366.49 397.23,365.03 399.67,382.15 402.11,364.46 404.55,356.45 406.99,349.66 414.30,342.68 416.74,348.81 419.18,342.70 421.62,331.42 424.05,346.80 431.37,319.65 433.81,327.13 436.25,328.37 438.68,318.41 441.12,305.19 448.44,311.12 450.88,292.68 453.32,288.84 455.75,291.73 458.19,301.11 465.51,304.84 467.95,327.17 470.38,328.93 472.82,333.53 475.26,311.17 482.58,315.68 485.01,303.21 487.45,302.99 489.89,297.76 492.33,310.65 502.08,313.89 504.52,318.10 506.96,312.73 509.40,323.25 516.71,317.42 519.15,314.61 521.59,286.68 524.03,297.98 526.47,302.71 533.78,294.55 536.22,293.81 538.66,300.96 541.10,295.15 543.53,297.30 550.85,295.28 553.29,295.93 555.73,299.41 558.16,300.22 560.60,300.35 567.92,303.48 570.36,296.46 572.79,290.88 575.23,289.34 577.67,288.37 584.99,282.39 587.42,282.89 589.86,280.53 592.30,282.49 594.74,314.40 602.05,291.60 604.49,296.73 606.93,287.29 609.37,295.79 611.81,288.85 619.12,274.75 621.56,279.58 624.00,291.35 626.44,277.68 628.88,261.81 636.19,236.69 638.63,221.84 641.07,217.75 643.51,218.88 645.95,220.40 653.26,211.50 655.70,229.26 658.14,230.07 660.58,247.61 663.01,246.11 670.33,222.16 672.77,225.52 675.21,214.76 677.64,234.55 680.08,230.71 687.40,243.88 689.84,258.27 692.27,246.07 694.71,271.49 697.15,272.22 704.47,245.49 706.90,240.75 709.34,227.22 714.22,218.05 721.53,234.04 723.97,227.50 726.41,218.33 728.85,233.50 731.29,227.94 738.60,235.50 741.04,241.12 743.48,222.96 745.92,225.80 748.36,249.92 755.67,251.32 758.11,265.91 760.55,279.07 762.99,273.72 765.42,259.03 772.74,253.32 775.18,246.78 777.62,243.46 782.49,242.58 789.81,242.01 792.25,239.23 794.68,248.39 799.56,233.05 806.88,220.66 809.32,223.96 811.75,223.86 814.19,225.17 816.63,223.65 823.95,225.00 826.38,226.84 828.82,234.72 831.26,223.76 833.70,223.95 843.45,251.07 845.89,231.77 848.33,223.58 850.77,234.90 858.08,223.56 860.52,219.88 862.96,217.13 865.40,208.38 867.84,208.47 875.15,195.82 877.59,205.11 880.03,240.67 882.47,259.54 884.90,216.83 892.22,201.36 894.66,205.74 897.10,217.94 899.53,261.65 901.97,258.39 911.73,252.76 914.16,244.33 916.60,250.83 919.04,247.43 926.36,265.04 928.79,245.85 931.23,235.12 933.67,249.09 936.11,272.62 943.42,270.49 945.86,295.03 948.30,284.45 950.74,297.61 953.18,312.64 960.49,302.66 962.93,296.65 965.37,287.82 967.81,304.19 970.25,302.97 977.56,296.21 980.00,311.25" /><polyline fill="none" stroke="#1d4ed8" stroke-width="2.5" points="90.00,463.90 92.44,463.90 94.88,463.90 97.32,463.90 99.75,463.90 107.07,463.90 109.51,463.90 111.95,463.90 114.38,463.90 116.82,463.90 124.14,464.87 126.58,473.85 129.01,469.96 131.45,502.26 133.89,563.99 141.21,564.97 143.64,585.82 146.08,503.92 148.52,547.15 150.96,537.42 158.27,531.13 160.71,538.12 163.15,555.80 165.59,552.70 175.34,573.10 177.78,552.46 180.22,534.95 182.66,515.21 185.10,512.34 192.41,501.45 194.85,500.90 197.29,505.58 199.73,499.48 202.16,480.72 209.48,483.07 211.92,487.29 214.36,489.51 216.79,481.26 219.23,482.64 226.55,462.26 228.99,448.79 231.42,443.75 233.86,435.04 236.30,430.25 243.62,427.32 246.05,429.19 248.49,435.67 250.93,433.87 253.37,440.35 263.12,422.84 265.56,421.82 268.00,418.22 270.44,410.99 277.75,400.31 280.19,396.26 282.63,391.69 285.07,396.56 287.51,396.01 294.82,399.33 297.26,402.77 299.70,402.17 302.14,403.91 304.58,423.16 311.89,415.45 314.33,423.21 316.77,431.64 321.64,430.46 328.96,415.38 331.40,399.49 333.84,403.85 336.27,393.18 338.71,380.84 346.03,373.23 348.47,394.46 350.90,388.87 353.34,374.95 363.10,378.56 365.53,386.88 367.97,371.43 370.41,370.88 372.85,372.52 380.16,362.03 382.60,358.29 385.04,358.73 387.48,353.46 389.92,360.03 397.23,354.99 399.67,372.49 402.11,355.98 404.55,349.39 406.99,343.68 414.30,338.61 416.74,347.28 419.18,338.70 421.62,338.91 424.05,370.42 431.37,347.34 433.81,352.34 436.25,345.29 438.68,337.88 441.12,329.38 448.44,334.80 450.88,317.34 453.32,319.23 455.75,318.05 458.19,326.61 465.51,329.27 467.95,364.20 470.38,368.97 472.82,375.78 475.26,355.57 482.58,361.22 485.01,348.26 487.45,346.44 489.89,335.51 492.33,365.25 502.08,368.86 504.52,381.68 506.96,378.95 509.40,395.39 516.71,394.60 519.15,389.02 521.59,383.33 524.03,381.43 526.47,390.91 533.78,387.51 536.22,380.47 538.66,374.21 541.10,345.52 543.53,354.83 550.85,362.53 553.29,354.93 555.73,345.37 558.16,333.49 560.60,317.11 567.92,330.97 570.36,340.79 572.79,338.19 575.23,339.71 577.67,336.55 584.99,332.40 587.42,337.66 589.86,329.59 592.30,328.88 594.74,352.87 602.05,337.68 604.49,342.30 606.93,338.21 609.37,335.68 611.81,334.48 619.12,334.42 621.56,336.47 624.00,337.47 626.44,332.68 628.88,326.35 636.19,316.61 638.63,308.07 641.07,310.22 643.51,322.22 645.95,323.55 653.26,316.57 655.70,334.71 658.14,327.18 660.58,346.99 663.01,350.78 670.33,326.13 672.77,327.21 675.21,310.43 677.64,330.60 680.08,330.69 687.40,336.55 689.84,352.37 692.27,346.93 694.71,375.20 697.15,372.80 704.47,336.65 706.90,334.33 709.34,321.60 714.22,309.87 721.53,327.14 723.97,319.47 726.41,309.82 728.85,322.72 731.29,313.83 738.60,315.67 741.04,321.03 743.48,301.19 745.92,296.36 748.36,318.71 755.67,318.40 758.11,334.68 760.55,347.09 762.99,345.19 765.42,332.77 772.74,327.24 775.18,324.47 777.62,319.43 782.49,319.42 789.81,321.46 792.25,320.11 794.68,327.44 799.56,313.09 806.88,301.50 809.32,304.58 811.75,304.49 814.19,305.71 816.63,304.30 823.95,305.55 826.38,307.28 828.82,314.66 831.26,304.40 833.70,304.58 843.45,329.96 845.89,311.89 848.33,304.23 850.77,314.82 858.08,304.21 860.52,300.77 862.96,298.20 865.40,290.01 867.84,290.09 875.15,278.25 877.59,286.94 880.03,320.22 882.47,337.88 884.90,297.91 892.22,283.44 894.66,287.54 897.10,298.95 899.53,339.85 901.97,336.80 911.73,331.53 914.16,323.65 916.60,329.73 919.04,326.54 926.36,343.02 928.79,325.07 931.23,315.03 933.67,328.10 936.11,350.11 943.42,348.12 945.86,371.08 948.30,361.19 950.74,373.50 953.18,387.56 960.49,378.22 962.93,372.60 965.37,364.34 967.81,379.66 970.25,378.52 977.56,372.19 980.00,386.00" /><polyline fill="none" stroke="#0f766e" stroke-width="2.5" points="90.00,463.90 92.44,463.90 94.88,463.90 97.32,463.90 99.75,463.90 107.07,463.90 109.51,463.90 111.95,463.90 114.38,463.90 116.82,463.90 124.14,464.87 126.58,481.95 129.01,481.47 131.45,507.71 133.89,568.88 141.21,577.77 143.64,597.32 146.08,555.21 148.52,591.82 150.96,575.26 158.27,566.23 160.71,569.66 163.15,580.28 165.59,551.11 175.34,564.33 177.78,549.07 180.22,550.23 182.66,538.40 185.10,526.00 192.41,520.84 194.85,517.82 197.29,519.86 199.73,516.69 202.16,497.15 209.48,501.02 211.92,509.79 214.36,502.94 216.79,498.61 219.23,499.42 226.55,480.30 228.99,469.18 231.42,475.47 233.86,463.12 236.30,458.56 243.62,454.83 246.05,455.34 248.49,467.11 250.93,466.53 253.37,470.63 263.12,455.18 265.56,455.54 268.00,450.01 270.44,442.34 277.75,431.82 280.19,426.32 282.63,421.88 285.07,428.06 287.51,426.84 294.82,429.75 297.26,433.20 299.70,431.87 302.14,434.66 304.58,455.24 311.89,443.79 314.33,449.46 316.77,454.31 321.64,451.92 328.96,436.95 331.40,420.76 333.84,423.84 336.27,411.05 338.71,399.98 346.03,391.27 348.47,404.69 350.90,400.66 353.34,386.24 363.10,391.60 365.53,398.78 367.97,385.05 370.41,385.99 372.85,389.66 380.16,383.78 382.60,384.33 385.04,385.13 387.48,376.32 389.92,383.75 397.23,380.31 399.67,392.67 402.11,379.91 404.55,377.54 406.99,372.90 414.30,371.17 416.74,380.76 419.18,375.52 421.62,365.27 424.05,385.50 431.37,357.86 433.81,371.71 436.25,362.01 438.68,364.63 441.12,354.84 448.44,358.47 450.88,338.01 453.32,352.76 455.75,350.21 458.19,365.21 465.51,365.80 467.95,383.64 470.38,385.66 472.82,388.62 475.26,374.44 482.58,375.49 485.01,363.22 487.45,362.03 489.89,353.59 492.33,368.60 502.08,375.26 504.52,362.11 506.96,350.01 509.40,350.84 516.71,345.28 519.15,336.24 521.59,316.33 524.03,319.46 526.47,317.61 533.78,301.87 536.22,300.66 538.66,312.35 541.10,276.33 543.53,278.05 550.85,280.58 553.29,281.73 555.73,276.94 558.16,266.09 560.60,258.61 567.92,261.32 570.36,262.69 572.79,248.00 575.23,242.01 577.67,242.07 584.99,236.91 587.42,240.43 589.86,231.01 592.30,230.28 594.74,262.75 602.05,228.88 604.49,235.63 606.93,217.49 609.37,219.27 611.81,222.63 619.12,212.69 621.56,222.78 624.00,233.94 626.44,222.23 628.88,207.33 636.19,186.02 638.63,174.24 641.07,174.58 643.51,181.18 645.95,181.04 653.26,185.68 655.70,215.52 658.14,196.19 660.58,221.19 663.01,229.12 670.33,205.74 672.77,203.51 675.21,188.15 677.64,217.69 680.08,218.26 687.40,227.77 689.84,242.39 692.27,231.43 694.71,263.56 697.15,254.05 704.47,208.75 706.90,208.38 709.34,189.50 714.22,165.63 721.53,176.76 723.97,165.24 726.41,159.74 728.85,180.33 731.29,176.66 738.60,181.77 741.04,176.84 743.48,163.14 745.92,172.29 748.36,201.07 755.67,208.09 758.11,216.96 760.55,232.03 762.99,223.47 765.42,207.39 772.74,206.50 775.18,198.44 777.62,196.63 782.49,195.45 789.81,192.88 792.25,190.91 794.68,200.74 799.56,187.16 806.88,182.58 809.32,184.60 811.75,181.02 814.19,182.69 816.63,183.08 823.95,175.78 826.38,172.91 828.82,172.31 831.26,167.10 833.70,168.73 843.45,190.40 845.89,171.73 848.33,165.28 850.77,173.11 858.08,161.95 860.52,155.94 862.96,149.92 865.40,142.40 867.84,143.23 875.15,121.73 877.59,112.74 880.03,148.83 882.47,161.88 884.90,116.85 892.22,100.00 894.66,118.19 897.10,126.59 899.53,177.67 901.97,172.88 911.73,175.70 914.16,169.06 916.60,175.87 919.04,175.98 926.36,194.58 928.79,171.29 931.23,160.00 933.67,172.34 936.11,188.00 943.42,185.73 945.86,211.99 948.30,200.67 950.74,214.75 953.18,230.84 960.49,220.15 962.93,213.72 965.37,204.28 967.81,221.79 970.25,220.49 977.56,213.25 980.00,229.35" /><polyline fill="none" stroke="#7c3aed" stroke-width="3" points="90.00,463.90 92.44,474.86 94.88,463.93 97.32,466.87 99.75,466.53 107.07,448.42 109.51,445.95 111.95,458.27 114.38,460.97 116.82,481.45 124.14,474.76 126.58,471.93 129.01,465.56 131.45,515.45 133.89,571.78 141.21,573.40 143.64,587.56 146.08,494.07 148.52,537.18 150.96,520.40 158.27,511.11 160.71,513.81 163.15,535.24 165.59,533.90 175.34,556.36 177.78,532.39 180.22,517.74 182.66,497.53 185.10,490.45 192.41,490.08 194.85,483.85 197.29,483.46 199.73,476.41 202.16,461.55 209.48,467.38 211.92,475.82 214.36,471.61 216.79,464.60 219.23,465.89 226.55,432.45 228.99,425.54 231.42,424.20 233.86,419.05 236.30,412.35 243.62,411.18 246.05,414.77 248.49,432.68 250.93,432.27 253.37,439.40 263.12,417.82 265.56,423.95 268.00,419.79 270.44,420.97 277.75,415.02 280.19,408.96 282.63,409.25 285.07,414.41 287.51,403.49 294.82,402.52 297.26,396.43 299.70,399.51 302.14,395.22 304.58,407.33 311.89,397.14 314.33,406.38 316.77,406.54 321.64,409.05 328.96,398.50 331.40,386.57 333.84,385.96 336.27,377.42 338.71,371.95 346.03,366.67 348.47,367.03 350.90,361.99 353.34,353.20 363.10,361.58 365.53,362.19 367.97,355.50 370.41,352.33 372.85,356.29 380.16,354.15 382.60,358.95 385.04,355.21 387.48,348.34 389.92,349.17 397.23,347.03 399.67,346.87 402.11,337.25 404.55,336.87 406.99,332.05 414.30,332.34 416.74,335.36 419.18,336.80 421.62,341.08 424.05,359.71 431.37,342.71 433.81,348.47 436.25,339.82 438.68,340.77 441.12,331.91 448.44,334.17 450.88,322.00 453.32,318.04 455.75,317.93 458.19,320.65 465.51,320.90 467.95,327.18 470.38,330.23 472.82,334.84 475.26,317.29 482.58,322.39 485.01,317.56 487.45,314.91 489.89,310.79 492.33,317.75 502.08,326.35 504.52,320.11 506.96,310.43 509.40,313.81 516.71,310.96 519.15,308.26 521.59,304.88 524.03,295.13 526.47,295.53 533.78,289.23 536.22,290.87 538.66,292.34 541.10,286.80 543.53,280.91 550.85,275.24 553.29,281.79 555.73,285.59 558.16,291.09 560.60,284.30 567.92,280.94 570.36,276.43 572.79,272.34 575.23,270.95 577.67,270.97 584.99,266.64 587.42,271.13 589.86,263.94 592.30,267.45 594.74,300.16 602.05,282.10 604.49,283.56 606.93,278.25 609.37,286.42 611.81,279.66 619.12,267.20 621.56,267.22 624.00,273.51 626.44,266.37 628.88,256.47 636.19,242.06 638.63,238.78 641.07,238.18 643.51,251.82 645.95,247.80 653.26,245.49 655.70,260.10 658.14,255.88 660.58,268.99 663.01,267.80 670.33,248.91 672.77,246.10 675.21,245.42 677.64,265.87 680.08,266.06 687.40,277.35 689.84,287.43 692.27,282.83 694.71,301.05 697.15,289.33 704.47,271.83 706.90,260.49 709.34,252.09 714.22,245.40 721.53,251.02 723.97,248.75 726.41,244.50 728.85,243.59 731.29,241.25 738.60,244.97 741.04,246.03 743.48,237.86 745.92,234.97 748.36,248.34 755.67,250.19 758.11,253.55 760.55,267.02 762.99,257.88 765.42,246.82 772.74,239.15 775.18,233.49 777.62,229.11 782.49,229.24 789.81,233.69 792.25,235.21 794.68,244.42 799.56,242.15 806.88,233.93 809.32,226.53 811.75,230.56 814.19,230.69 816.63,222.44 823.95,220.47 826.38,222.98 828.82,229.15 831.26,225.75 833.70,226.80 843.45,252.26 845.89,238.12 848.33,231.65 850.77,231.19 858.08,224.86 860.52,219.87 862.96,220.00 865.40,222.49 867.84,226.24 875.15,220.02 877.59,230.65 880.03,236.69 882.47,252.19 884.90,228.68 892.22,222.66 894.66,225.97 897.10,226.26 899.53,245.59 901.97,244.72 911.73,242.73 914.16,236.51 916.60,239.79 919.04,230.83 926.36,243.57 928.79,234.59 931.23,224.10 933.67,231.07 936.11,237.05 943.42,236.35 945.86,247.29 948.30,238.61 950.74,245.52 953.18,261.67 960.49,251.02 962.93,252.99 965.37,254.53 967.81,273.10 970.25,279.92 977.56,267.73 980.00,264.55" />
<line x1="1000" y1="84" x2="1032" y2="84" stroke="#1d4ed8" stroke-width="2.5" /><text x="1042" y="89" font-size="16" fill="#0f172a">configured_baseline</text><line x1="1000" y1="112" x2="1032" y2="112" stroke="#0f766e" stroke-width="2.5" /><text x="1042" y="117" font-size="16" fill="#0f172a">ridge_walkforward</text><line x1="1000" y1="140" x2="1032" y2="140" stroke="#7c3aed" stroke-width="2.5" /><text x="1042" y="145" font-size="16" fill="#0f172a">tree_walkforward</text><line x1="1000" y1="168" x2="1032" y2="168" stroke="#db2777" stroke-width="2.5" /><text x="1042" y="173" font-size="16" fill="#0f172a">mlp_walkforward</text><line x1="1000" y1="196" x2="1032" y2="196" stroke="#b45309" stroke-width="2.5" /><text x="1042" y="201" font-size="16" fill="#0f172a">tcn_walkforward</text><line x1="1000" y1="224" x2="1032" y2="224" stroke="#475569" stroke-width="2.5" /><text x="1042" y="229" font-size="16" fill="#0f172a">hybrid_sequence_walkforward</text><line x1="1000" y1="252" x2="1032" y2="252" stroke="#1d4ed8" stroke-width="2.5" /><text x="1042" y="257" font-size="16" fill="#0f172a">lstm_walkforward</text><line x1="1000" y1="280" x2="1032" y2="280" stroke="#0f766e" stroke-width="2.5" /><text x="1042" y="285" font-size="16" fill="#0f172a">transformer_walkforward</text><line x1="1000" y1="308" x2="1032" y2="308" stroke="#7c3aed" stroke-width="3" /><text x="1042" y="313" font-size="16" fill="#0f172a">benchmark</text>
</svg>
