<svg xmlns="http://www.w3.org/2000/svg" width="1200" height="720" viewBox="0 0 1200 720">
<rect width="1200" height="720" fill="#f8fafc" />
<text x="90" y="32" font-size="28" font-family="Segoe UI, Arial, sans-serif" fill="#0f172a">US Stocks Strategy Value - Last 252 Trading Days</text>
<text x="90" y="54" font-size="15" font-family="Segoe UI, Arial, sans-serif" fill="#475569">Initial capital assumed: $100,000</text>
<rect x="90" y="60" width="890" height="580" fill="#ffffff" stroke="#cbd5e1" />
<line x1="90" y1="640.00" x2="980" y2="640.00" stroke="#e2e8f0" stroke-width="1" /><text x="78" y="645.00" font-size="14" text-anchor="end" fill="#475569">$82,432</text><line x1="90" y1="495.00" x2="980" y2="495.00" stroke="#e2e8f0" stroke-width="1" /><text x="78" y="500.00" font-size="14" text-anchor="end" fill="#475569">$97,453</text><line x1="90" y1="350.00" x2="980" y2="350.00" stroke="#e2e8f0" stroke-width="1" /><text x="78" y="355.00" font-size="14" text-anchor="end" fill="#475569">$112,474</text><line x1="90" y1="205.00" x2="980" y2="205.00" stroke="#e2e8f0" stroke-width="1" /><text x="78" y="210.00" font-size="14" text-anchor="end" fill="#475569">$127,495</text><line x1="90" y1="60.00" x2="980" y2="60.00" stroke="#e2e8f0" stroke-width="1" /><text x="78" y="65.00" font-size="14" text-anchor="end" fill="#475569">$142,516</text>
<line x1="90.00" y1="60" x2="90.00" y2="640" stroke="#f1f5f9" stroke-width="1" /><text x="90.00" y="668" font-size="14" text-anchor="middle" fill="#475569">2025-03-17</text><line x1="536.22" y1="60" x2="536.22" y2="640" stroke="#f1f5f9" stroke-width="1" /><text x="536.22" y="668" font-size="14" text-anchor="middle" fill="#475569">2025-09-16</text><line x1="980.00" y1="60" x2="980.00" y2="640" stroke="#f1f5f9" stroke-width="1" /><text x="980.00" y="668" font-size="14" text-anchor="middle" fill="#475569">2026-03-17</text>
<polyline fill="none" stroke="#1d4ed8" stroke-width="2.5" points="90.00,470.42 92.44,482.68 94.88,470.91 97.32,472.84 99.75,468.18 107.07,451.33 109.51,447.58 111.95,454.68 114.38,453.34 116.82,471.73 124.14,466.83 126.58,476.80 129.01,477.46 131.45,502.21 133.89,556.08 141.21,562.56 143.64,575.69 146.08,528.00 148.52,553.38 150.96,538.51 158.27,534.83 160.71,538.59 163.15,545.71 165.59,558.10 175.34,576.97 177.78,563.59 180.22,563.29 182.66,557.13 185.10,553.01 192.41,547.34 194.85,549.24 197.29,552.09 199.73,562.82 202.16,545.22 209.48,548.51 211.92,556.61 214.36,548.83 216.79,549.78 219.23,553.16 226.55,538.99 228.99,534.38 231.42,540.95 233.86,528.19 236.30,520.47 243.62,516.53 246.05,517.14 248.49,527.57 250.93,529.21 253.37,533.32 263.12,519.94 265.56,519.44 268.00,515.05 270.44,505.28 277.75,496.79 280.19,489.23 282.63,484.08 285.07,486.24 287.51,486.07 294.82,486.13 297.26,487.47 299.70,483.87 302.14,485.46 304.58,504.33 311.89,492.60 314.33,497.40 316.77,500.80 321.64,501.98 328.96,490.63 331.40,472.61 333.84,468.63 336.27,456.02 338.71,443.89 346.03,437.18 348.47,458.84 350.90,445.94 353.34,433.55 363.10,443.30 365.53,442.68 367.97,431.94 370.41,430.02 372.85,432.66 380.16,430.01 382.60,415.15 385.04,409.11 387.48,398.35 389.92,410.24 397.23,406.24 399.67,425.93 402.11,412.72 404.55,403.14 406.99,396.21 414.30,386.36 416.74,384.27 419.18,376.81 421.62,367.56 424.05,396.35 431.37,372.07 433.81,378.31 436.25,376.06 438.68,370.85 441.12,363.74 448.44,364.69 450.88,352.04 453.32,358.84 455.75,354.46 458.19,359.15 465.51,359.33 467.95,389.17 470.38,396.19 472.82,399.16 475.26,382.80 482.58,384.97 485.01,377.58 487.45,374.13 489.89,362.13 492.33,386.87 502.08,393.78 504.52,389.03 506.96,383.24 509.40,387.37 516.71,385.99 519.15,367.29 521.59,364.62 524.03,354.97 526.47,360.38 533.78,353.63 536.22,352.63 538.66,348.85 541.10,320.24 543.53,324.25 550.85,327.57 553.29,318.59 555.73,311.54 558.16,301.35 560.60,289.48 567.92,297.46 570.36,303.72 572.79,293.92 575.23,289.92 577.67,292.24 584.99,287.72 587.42,292.02 589.86,289.17 592.30,286.92 594.74,317.55 602.05,288.32 604.49,299.76 606.93,288.59 609.37,291.53 611.81,295.69 619.12,284.99 621.56,290.49 624.00,307.56 626.44,291.05 628.88,272.60 636.19,248.51 638.63,235.83 641.07,233.60 643.51,244.42 645.95,243.49 653.26,233.97 655.70,267.64 658.14,255.12 660.58,282.25 663.01,286.42 670.33,257.14 672.77,266.40 675.21,253.46 677.64,279.61 680.08,280.22 687.40,289.11 689.84,308.38 692.27,293.40 694.71,328.55 697.15,319.71 704.47,275.41 706.90,277.14 709.34,263.41 714.22,243.54 721.53,259.37 723.97,247.50 726.41,243.96 728.85,260.97 731.29,252.52 738.60,257.87 741.04,258.78 743.48,243.16 745.92,250.73 748.36,273.14 755.67,274.27 758.11,285.09 760.55,308.13 762.99,300.52 765.42,287.28 772.74,287.60 775.18,285.37 777.62,282.25 782.49,281.23 789.81,281.34 792.25,280.06 794.68,286.94 799.56,281.36 806.88,273.56 809.32,272.88 811.75,267.46 814.19,270.98 816.63,270.43 823.95,266.38 826.38,270.17 828.82,271.80 831.26,268.02 833.70,273.47 843.45,292.77 845.89,277.70 848.33,267.58 850.77,276.50 858.08,264.92 860.52,261.35 862.96,259.53 865.40,263.61 867.84,263.64 875.15,254.90 877.59,250.85 880.03,244.92 882.47,252.29 884.90,229.80 892.22,225.06 894.66,234.13 897.10,229.72 899.53,246.41 901.97,245.16 911.73,250.84 914.16,244.72 916.60,253.88 919.04,257.74 926.36,258.18 928.79,246.66 931.23,244.18 933.67,251.92 936.11,250.77 943.42,246.56 945.86,267.02 948.30,266.85 950.74,286.98 953.18,285.17 960.49,281.66 962.93,285.99 965.37,286.85 967.81,298.06 970.25,296.33 977.56,288.53 980.00,293.82" /><polyline fill="none" stroke="#0f766e" stroke-width="2.5" points="90.00,470.42 92.44,470.42 94.88,470.42 97.32,470.42 99.75,470.42 107.07,470.42 109.51,470.42 111.95,470.42 114.38,470.42 116.82,470.42 124.14,471.34 126.58,479.94 129.01,475.55 131.45,504.99 133.89,566.46 141.21,566.09 143.64,586.21 146.08,504.16 148.52,544.59 150.96,531.41 158.27,523.16 160.71,526.36 163.15,546.96 165.59,546.86 175.34,567.69 177.78,549.11 180.22,532.48 182.66,512.33 185.10,507.74 192.41,500.06 194.85,500.20 197.29,503.45 199.73,496.60 202.16,477.58 209.48,480.65 211.92,484.30 214.36,474.60 216.79,468.48 219.23,469.38 226.55,447.62 228.99,428.63 231.42,423.09 233.86,413.98 236.30,410.44 243.62,407.67 246.05,408.69 248.49,420.85 250.93,419.81 253.37,425.82 263.12,408.07 265.56,407.32 268.00,399.45 270.44,395.67 277.75,385.10 280.19,379.58 282.63,375.11 285.07,381.32 287.51,380.10 294.82,383.02 297.26,386.49 299.70,385.15 302.14,387.95 304.58,408.62 311.89,397.13 314.33,402.82 316.77,407.69 321.64,405.29 328.96,390.25 331.40,373.99 333.84,377.08 336.27,364.24 338.71,353.12 346.03,344.63 348.47,361.71 350.90,350.47 353.34,333.83 363.10,338.53 365.53,340.60 367.97,324.58 370.41,323.64 372.85,328.19 380.16,321.32 382.60,314.35 385.04,309.38 387.48,302.54 389.92,305.18 397.23,303.11 399.67,319.61 402.11,300.86 404.55,294.69 406.99,287.74 414.30,281.86 416.74,288.02 419.18,281.34 421.62,274.91 424.05,296.38 431.37,267.19 433.81,275.83 436.25,274.06 438.68,267.10 441.12,256.57 448.44,261.16 450.88,241.05 453.32,250.52 455.75,252.93 458.19,262.66 465.51,265.35 467.95,300.15 470.38,302.24 472.82,306.92 475.26,291.51 482.58,296.70 485.01,280.18 487.45,278.86 489.89,267.84 492.33,295.68 502.08,300.54 504.52,300.49 506.96,290.48 509.40,296.79 516.71,290.65 519.15,285.03 521.59,264.35 524.03,272.78 526.47,272.30 533.78,263.25 536.22,260.49 538.66,268.77 541.10,262.19 543.53,260.99 550.85,259.07 553.29,263.00 555.73,268.42 558.16,273.22 560.60,270.73 567.92,271.75 570.36,269.44 572.79,277.29 575.23,282.25 577.67,277.38 584.99,275.90 587.42,276.36 589.86,274.89 592.30,277.60 594.74,301.38 602.05,285.25 604.49,282.06 606.93,281.45 609.37,288.42 611.81,280.93 619.12,273.80 621.56,275.83 624.00,283.44 626.44,277.32 628.88,267.09 636.19,253.19 638.63,247.57 641.07,249.94 643.51,248.08 645.95,248.89 653.26,249.69 655.70,271.84 658.14,267.04 660.58,279.32 663.01,276.05 670.33,257.09 672.77,258.69 675.21,251.95 677.64,265.86 680.08,261.23 687.40,272.21 689.84,277.20 692.27,260.07 694.71,283.17 697.15,277.45 704.47,249.91 706.90,248.43 709.34,235.29 714.22,217.84 721.53,232.44 723.97,222.08 726.41,217.52 728.85,235.93 731.29,228.68 738.60,239.14 741.04,239.49 743.48,225.83 745.92,235.89 748.36,259.98 755.67,263.33 758.11,272.12 760.55,293.73 762.99,283.93 765.42,269.01 772.74,268.08 775.18,261.79 777.62,259.15 782.49,258.12 789.81,257.26 792.25,255.22 794.68,263.96 799.56,249.35 806.88,237.54 809.32,240.68 811.75,240.59 814.19,241.83 816.63,240.39 823.95,241.67 826.38,243.42 828.82,250.94 831.26,240.49 833.70,240.68 843.45,266.53 845.89,248.13 848.33,240.32 850.77,251.11 858.08,240.30 860.52,236.79 862.96,234.17 865.40,225.83 867.84,225.63 875.15,215.46 877.59,219.31 880.03,250.00 882.47,267.35 884.90,236.72 892.22,222.57 894.66,228.51 897.10,235.31 899.53,277.93 901.97,279.86 911.73,280.60 914.16,267.57 916.60,268.06 919.04,262.47 926.36,271.96 928.79,258.56 931.23,248.74 933.67,265.69 936.11,270.42 943.42,268.36 945.86,292.09 948.30,281.86 950.74,294.59 953.18,309.12 960.49,299.47 962.93,293.66 965.37,285.12 967.81,300.95 970.25,299.77 977.56,293.23 980.00,307.50" /><polyline fill="none" stroke="#7c3aed" stroke-width="2.5" points="90.00,470.42 92.44,470.42 94.88,470.42 97.32,470.42 99.75,470.42 107.07,470.42 109.51,470.42 111.95,470.42 114.38,470.42 116.82,470.42 124.14,471.34 126.58,481.90 129.01,479.36 131.45,523.03 133.89,580.70 141.21,584.91 143.64,600.00 146.08,522.53 148.52,559.89 150.96,541.50 158.27,535.63 160.71,539.04 163.15,554.38 165.59,544.53 175.34,561.04 177.78,546.97 180.22,531.61 182.66,515.05 185.10,502.92 192.41,494.10 194.85,493.97 197.29,492.02 199.73,487.72 202.16,469.59 209.48,474.51 211.92,477.81 214.36,471.45 216.79,464.55 219.23,463.51 226.55,445.33 228.99,432.38 231.42,432.45 233.86,422.46 236.30,419.61 243.62,418.67 246.05,419.68 248.49,430.88 250.93,431.04 253.37,434.47 263.12,419.59 265.56,419.83 268.00,414.32 270.44,408.10 277.75,397.65 280.19,392.20 282.63,387.78 285.07,393.92 287.51,392.71 294.82,395.59 297.26,399.02 299.70,397.70 302.14,400.47 304.58,420.89 311.89,409.54 314.33,415.16 316.77,419.98 321.64,417.61 328.96,402.74 331.40,386.67 333.84,389.73 336.27,377.04 338.71,366.06 346.03,357.15 348.47,374.57 350.90,373.32 353.34,359.20 363.10,362.65 365.53,372.84 367.97,358.82 370.41,360.20 372.85,363.96 380.16,353.37 382.60,356.22 385.04,356.78 387.48,351.15 389.92,357.52 397.23,351.33 399.67,365.28 402.11,351.30 404.55,347.81 406.99,341.36 414.30,340.40 416.74,347.74 419.18,341.66 421.62,340.96 424.05,355.82 431.37,331.99 433.81,337.26 436.25,340.64 438.68,336.82 441.12,330.68 448.44,331.49 450.88,313.73 453.32,317.48 455.75,315.97 458.19,321.71 465.51,323.66 467.95,349.89 470.38,350.40 472.82,354.02 475.26,337.74 482.58,345.24 485.01,330.46 487.45,327.32 489.89,318.24 492.33,337.51 502.08,342.31 504.52,353.00 506.96,347.86 509.40,360.64 516.71,357.23 519.15,350.02 521.59,353.95 524.03,353.79 526.47,361.14 533.78,358.90 536.22,350.79 538.66,345.68 541.10,347.20 543.53,352.74 550.85,359.88 553.29,360.85 555.73,359.64 558.16,363.02 560.60,354.38 567.92,362.06 570.36,370.49 572.79,379.69 575.23,385.40 577.67,379.31 584.99,375.51 587.42,378.72 589.86,384.73 592.30,389.81 594.74,406.00 602.05,387.11 604.49,382.64 606.93,379.14 609.37,388.87 611.81,384.40 619.12,374.80 621.56,380.99 624.00,387.83 626.44,382.00 628.88,370.24 636.19,356.36 638.63,360.26 641.07,360.48 643.51,354.16 645.95,354.16 653.26,348.00 655.70,356.06 658.14,351.69 660.58,356.76 663.01,355.82 670.33,340.43 672.77,334.00 675.21,326.54 677.64,339.13 680.08,343.89 687.40,347.22 689.84,352.38 692.27,341.59 694.71,358.38 697.15,348.67 704.47,332.64 706.90,322.79 709.34,318.01 714.22,308.41 721.53,318.49 723.97,322.19 726.41,313.03 728.85,319.38 731.29,319.46 738.60,329.62 741.04,336.67 743.48,317.97 745.92,315.19 748.36,315.97 755.67,307.49 758.11,324.58 760.55,329.81 762.99,326.00 765.42,317.84 772.74,309.89 775.18,305.92 777.62,301.31 782.49,301.75 789.81,301.99 792.25,302.22 794.68,307.75 799.56,294.79 806.88,289.04 809.32,292.58 811.75,287.56 814.19,291.09 816.63,290.37 823.95,286.05 826.38,279.37 828.82,282.13 831.26,271.93 833.70,274.14 843.45,295.21 845.89,277.07 848.33,269.88 850.77,276.62 858.08,266.75 860.52,261.11 862.96,256.70 865.40,251.44 867.84,251.30 875.15,233.29 877.59,234.19 880.03,272.07 882.47,288.10 884.90,259.41 892.22,248.86 894.66,257.46 897.10,275.05 899.53,312.99 901.97,307.89 911.73,299.88 914.16,292.65 916.60,294.13 919.04,282.33 926.36,305.47 928.79,286.51 931.23,278.39 933.67,287.16 936.11,303.39 943.42,301.39 945.86,324.45 948.30,314.51 950.74,326.88 953.18,341.00 960.49,331.62 962.93,325.97 965.37,317.68 967.81,333.06 970.25,331.92 977.56,325.56 980.00,339.69" /><polyline fill="none" stroke="#db2777" stroke-width="2.5" points="90.00,470.42 92.44,470.42 94.88,470.42 97.32,470.42 99.75,470.42 107.07,470.42 109.51,470.42 111.95,470.42 114.38,470.42 116.82,470.42 124.14,471.34 126.58,485.87 129.01,484.35 131.45,501.10 133.89,564.59 141.21,569.51 143.64,587.99 146.08,524.89 148.52,559.81 150.96,550.59 158.27,537.58 160.71,534.92 163.15,554.13 165.59,534.53 175.34,548.93 177.78,529.05 180.22,519.08 182.66,501.76 185.10,496.68 192.41,490.37 194.85,487.69 197.29,489.32 199.73,485.85 202.16,465.91 209.48,470.30 211.92,475.59 214.36,467.24 216.79,457.43 219.23,455.27 226.55,435.42 228.99,420.90 231.42,426.01 233.86,416.29 236.30,412.66 243.62,411.64 246.05,412.20 248.49,425.31 250.93,426.05 253.37,433.56 263.12,416.81 265.56,416.51 268.00,413.40 270.44,410.34 277.75,399.92 280.19,394.48 282.63,390.07 285.07,396.20 287.51,394.99 294.82,397.87 297.26,401.29 299.70,399.97 302.14,402.73 304.58,423.11 311.89,411.78 314.33,417.39 316.77,422.19 321.64,419.83 328.96,405.00 331.40,388.96 333.84,392.01 336.27,379.36 338.71,368.39 346.03,360.02 348.47,378.45 350.90,374.01 353.34,359.79 363.10,361.92 365.53,365.47 367.97,348.74 370.41,348.19 372.85,349.69 380.16,342.30 382.60,337.99 385.04,336.72 387.48,332.54 389.92,333.78 397.23,330.74 399.67,345.12 402.11,328.72 404.55,321.90 406.99,315.64 414.30,311.64 416.74,318.86 419.18,312.52 421.62,302.91 424.05,324.56 431.37,295.74 433.81,303.20 436.25,304.15 438.68,299.66 441.12,292.82 448.44,295.51 450.88,272.77 453.32,279.83 455.75,279.55 458.19,285.91 465.51,290.06 467.95,325.54 470.38,328.41 472.82,333.67 475.26,314.44 482.58,319.72 485.01,304.18 487.45,302.86 489.89,293.76 492.33,320.95 502.08,324.51 504.52,328.50 506.96,319.59 509.40,319.34 516.71,315.10 519.15,312.44 521.59,299.54 524.03,312.97 526.47,317.18 533.78,306.95 536.22,300.22 538.66,310.36 541.10,275.24 543.53,280.40 550.85,291.09 553.29,286.52 555.73,278.28 558.16,274.65 560.60,264.66 567.92,272.47 570.36,277.58 572.79,287.47 575.23,294.14 577.67,288.62 584.99,284.10 587.42,288.59 589.86,289.50 592.30,291.69 594.74,316.41 602.05,299.43 604.49,300.15 606.93,298.21 609.37,309.30 611.81,302.77 619.12,294.25 621.56,298.88 624.00,303.82 626.44,301.14 628.88,285.02 636.19,271.54 638.63,258.84 641.07,263.05 643.51,263.77 645.95,264.98 653.26,263.44 655.70,292.70 658.14,282.91 660.58,305.28 663.01,306.46 670.33,286.20 672.77,291.58 675.21,274.99 677.64,299.18 680.08,297.67 687.40,315.57 689.84,327.06 692.27,310.30 694.71,340.82 697.15,337.20 704.47,308.59 706.90,305.86 709.34,288.28 714.22,267.48 721.53,282.98 723.97,287.44 726.41,276.33 728.85,279.72 731.29,274.91 738.60,276.22 741.04,280.56 743.48,262.56 745.92,257.38 748.36,277.58 755.67,277.54 758.11,292.20 760.55,301.06 762.99,296.24 765.42,281.69 772.74,273.74 775.18,267.03 777.62,261.74 782.49,261.64 789.81,265.27 792.25,266.23 794.68,274.23 799.56,262.15 806.88,255.64 809.32,253.54 811.75,248.58 814.19,256.32 816.63,257.79 823.95,254.71 826.38,256.65 828.82,264.93 831.26,252.80 833.70,254.40 843.45,280.87 845.89,266.17 848.33,258.20 850.77,269.17 858.08,257.54 860.52,254.28 862.96,250.41 865.40,245.48 867.84,246.78 875.15,233.41 877.59,237.16 880.03,273.59 882.47,293.18 884.90,259.42 892.22,251.46 894.66,269.00 897.10,273.59 899.53,300.38 901.97,301.83 911.73,297.24 914.16,289.53 916.60,288.09 919.04,278.00 926.36,292.71 928.79,268.44 931.23,259.67 933.67,279.37 936.11,289.71 943.42,287.68 945.86,311.02 948.30,300.96 950.74,313.48 953.18,327.77 960.49,318.27 962.93,312.56 965.37,304.17 967.81,319.73 970.25,318.57 977.56,312.14 980.00,326.44" /><polyline fill="none" stroke="#b45309" stroke-width="2.5" points="90.00,470.42 92.44,470.42 94.88,470.42 97.32,470.42 99.75,470.42 107.07,470.42 109.51,470.42 111.95,470.42 114.38,470.42 116.82,470.42 124.14,471.34 126.58,476.82 129.01,478.18 131.45,500.60 133.89,550.09 141.21,557.67 143.64,573.90 146.08,523.41 148.52,548.89 150.96,534.90 158.27,527.46 160.71,531.27 163.15,544.49 165.59,538.30 175.34,555.47 177.78,538.47 180.22,533.24 182.66,524.81 185.10,517.32 192.41,512.05 194.85,508.77 197.29,509.40 199.73,506.34 202.16,487.44 209.48,491.18 211.92,499.67 214.36,493.04 216.79,488.85 219.23,489.63 226.55,471.14 228.99,460.39 231.42,466.47 233.86,454.53 236.30,450.12 243.62,446.52 246.05,447.00 248.49,458.39 250.93,457.83 253.37,461.79 263.12,446.85 265.56,447.20 268.00,441.85 270.44,434.68 277.75,424.66 280.19,420.85 282.63,416.56 285.07,421.13 287.51,420.62 294.82,423.73 297.26,426.96 299.70,426.40 302.14,428.03 304.58,446.09 311.89,438.86 314.33,446.14 316.77,454.05 321.64,452.94 328.96,438.79 331.40,423.88 333.84,427.97 336.27,417.96 338.71,406.38 346.03,399.24 348.47,413.09 350.90,398.81 353.34,381.64 363.10,389.06 365.53,395.64 367.97,382.24 370.41,382.56 372.85,385.79 380.16,380.61 382.60,372.50 385.04,368.91 387.48,355.29 389.92,365.75 397.23,363.31 399.67,380.75 402.11,366.44 404.55,360.97 406.99,354.93 414.30,349.48 416.74,353.18 419.18,345.14 421.62,352.07 424.05,382.09 431.37,361.34 433.81,365.91 436.25,363.73 438.68,358.60 441.12,350.79 448.44,355.52 450.88,340.97 453.32,343.34 455.75,342.65 458.19,349.23 465.51,352.28 467.95,382.45 470.38,386.37 472.82,392.30 475.26,374.32 482.58,380.51 485.01,370.44 487.45,368.49 489.89,361.03 492.33,384.80 502.08,389.20 504.52,393.74 506.96,390.85 509.40,397.84 516.71,394.74 519.15,393.04 521.59,367.38 524.03,373.03 526.47,376.72 533.78,369.61 536.22,366.16 538.66,373.86 541.10,341.08 543.53,348.05 550.85,346.59 553.29,345.01 555.73,336.93 558.16,327.78 560.60,323.74 567.92,329.96 570.36,327.43 572.79,319.00 575.23,316.65 577.67,316.31 584.99,310.51 587.42,311.22 589.86,308.20 592.30,316.92 594.74,343.02 602.05,328.84 604.49,327.39 606.93,316.81 609.37,321.63 611.81,311.27 619.12,297.74 621.56,297.77 624.00,305.14 626.44,295.98 628.88,289.88 636.19,269.51 638.63,260.40 641.07,258.61 643.51,262.34 645.95,268.26 653.26,261.59 655.70,294.41 658.14,279.33 660.58,309.07 663.01,308.41 670.33,285.08 672.77,294.18 675.21,279.71 677.64,311.38 680.08,310.88 687.40,331.18 689.84,348.34 692.27,339.07 694.71,373.66 697.15,368.88 704.47,335.48 706.90,340.89 709.34,322.84 714.22,301.60 721.53,319.32 723.97,310.63 726.41,301.67 728.85,314.36 731.29,305.98 738.60,310.24 741.04,316.43 743.48,299.52 745.92,298.75 748.36,323.29 755.67,323.12 758.11,334.43 760.55,350.56 762.99,344.16 765.42,328.44 772.74,324.10 775.18,319.19 777.62,314.61 782.49,314.24 789.81,317.53 792.25,316.69 794.68,325.07 799.56,311.21 806.88,300.02 809.32,303.00 811.75,302.91 814.19,304.09 816.63,302.72 823.95,303.93 826.38,305.60 828.82,312.72 831.26,302.82 833.70,302.99 843.45,327.49 845.89,310.05 848.33,302.65 850.77,312.88 858.08,302.64 860.52,299.31 862.96,296.83 865.40,288.92 867.84,289.01 875.15,276.86 877.59,285.79 880.03,316.86 882.47,331.28 884.90,301.62 892.22,289.28 894.66,296.43 897.10,309.99 899.53,344.17 901.97,342.72 911.73,340.84 914.16,335.28 916.60,338.87 919.04,331.36 926.36,344.33 928.79,328.78 931.23,321.09 933.67,337.09 936.11,346.39 943.42,344.47 945.86,366.65 948.30,357.09 950.74,368.99 953.18,382.57 960.49,373.55 962.93,368.12 965.37,360.14 967.81,374.93 970.25,373.83 977.56,367.72 980.00,381.06" /><polyline fill="none" stroke="#475569" stroke-width="2.5" points="90.00,470.42 92.44,470.42 94.88,470.42 97.32,470.42 99.75,470.42 107.07,470.42 109.51,470.42 111.95,470.42 114.38,470.42 116.82,470.42 124.14,471.34 126.58,479.90 129.01,479.16 131.45,507.96 133.89,562.94 141.21,570.22 143.64,585.51 146.08,533.98 148.52,566.33 150.96,550.64 158.27,542.64 160.71,541.73 163.15,556.37 165.59,532.90 175.34,553.27 177.78,536.08 180.22,530.93 182.66,519.97 185.10,507.92 192.41,503.89 194.85,501.69 197.29,501.29 199.73,500.12 202.16,484.29 209.48,485.27 211.92,491.52 214.36,486.40 216.79,482.26 219.23,483.90 226.55,469.25 228.99,477.84 231.42,478.61 233.86,482.11 236.30,471.97 243.62,460.01 246.05,457.84 248.49,473.95 250.93,476.27 253.37,481.04 263.12,468.16 265.56,465.63 268.00,461.97 270.44,453.78 277.75,443.95 280.19,440.21 282.63,436.01 285.07,440.49 287.51,439.99 294.82,443.04 297.26,446.21 299.70,445.66 302.14,447.26 304.58,464.98 311.89,457.88 314.33,465.03 316.77,472.79 321.64,471.70 328.96,457.82 331.40,443.19 333.84,447.20 336.27,437.38 338.71,426.02 346.03,419.26 348.47,435.99 350.90,424.88 353.34,409.58 363.10,413.45 365.53,415.05 367.97,399.63 370.41,398.34 372.85,400.66 380.16,394.07 382.60,385.69 385.04,381.44 387.48,375.26 389.92,377.67 397.23,376.28 399.67,392.58 402.11,375.74 404.55,368.11 406.99,361.65 414.30,355.00 416.74,360.84 419.18,355.02 421.62,344.28 424.05,358.93 431.37,333.08 433.81,340.19 436.25,341.37 438.68,331.89 441.12,319.30 448.44,324.96 450.88,307.40 453.32,303.74 455.75,306.49 458.19,315.42 465.51,318.97 467.95,340.24 470.38,341.91 472.82,346.29 475.26,325.00 482.58,329.29 485.01,317.42 487.45,317.21 489.89,312.23 492.33,324.51 502.08,327.59 504.52,331.60 506.96,326.48 509.40,336.50 516.71,330.95 519.15,328.28 521.59,301.68 524.03,312.44 526.47,316.95 533.78,309.18 536.22,308.47 538.66,315.28 541.10,309.75 543.53,311.79 550.85,309.87 553.29,310.49 555.73,313.80 558.16,314.58 560.60,314.69 567.92,317.68 570.36,310.99 572.79,305.68 575.23,304.21 577.67,303.29 584.99,297.60 587.42,298.08 589.86,295.83 592.30,297.70 594.74,328.07 602.05,306.36 604.49,311.25 606.93,302.26 609.37,310.36 611.81,303.74 619.12,290.33 621.56,294.92 624.00,306.13 626.44,293.12 628.88,278.01 636.19,254.09 638.63,239.95 641.07,236.05 643.51,237.12 645.95,238.57 653.26,230.10 655.70,247.01 658.14,247.78 660.58,264.48 663.01,263.05 670.33,240.26 672.77,243.45 675.21,233.21 677.64,252.04 680.08,248.39 687.40,260.93 689.84,274.63 692.27,263.01 694.71,287.22 697.15,287.91 704.47,262.46 706.90,257.95 709.34,245.07 714.22,236.34 721.53,251.56 723.97,245.33 726.41,236.61 728.85,251.05 731.29,245.76 738.60,252.96 741.04,258.30 743.48,241.02 745.92,243.72 748.36,266.69 755.67,268.02 758.11,281.90 760.55,294.44 762.99,289.35 765.42,275.35 772.74,269.92 775.18,263.69 777.62,260.53 782.49,259.70 789.81,259.15 792.25,256.50 794.68,265.22 799.56,250.62 806.88,238.82 809.32,241.96 811.75,241.87 814.19,243.11 816.63,241.67 823.95,242.95 826.38,244.70 828.82,252.21 831.26,241.78 833.70,241.96 843.45,267.78 845.89,249.40 848.33,241.60 850.77,252.38 858.08,241.59 860.52,238.08 862.96,235.46 865.40,227.13 867.84,227.22 875.15,215.17 877.59,224.01 880.03,257.87 882.47,275.84 884.90,235.18 892.22,220.45 894.66,224.62 897.10,236.23 899.53,277.85 901.97,274.74 911.73,269.39 914.16,261.36 916.60,267.55 919.04,264.31 926.36,281.07 928.79,262.81 931.23,252.59 933.67,265.90 936.11,288.29 943.42,286.27 945.86,309.63 948.30,299.56 950.74,312.09 953.18,326.40 960.49,316.89 962.93,311.17 965.37,302.77 967.81,318.35 970.25,317.20 977.56,310.75 980.00,325.07" /><polyline fill="none" stroke="#1d4ed8" stroke-width="2.5" points="90.00,470.42 92.44,470.42 94.88,470.42 97.32,470.42 99.75,470.42 107.07,470.42 109.51,470.42 111.95,470.42 114.38,470.42 116.82,470.42 124.14,471.34 126.58,479.89 129.01,476.19 131.45,506.94 133.89,565.72 141.21,566.65 143.64,586.50 146.08,508.52 148.52,549.68 150.96,540.42 158.27,534.43 160.71,541.08 163.15,557.92 165.59,554.97 175.34,574.39 177.78,554.73 180.22,538.06 182.66,519.27 185.10,516.53 192.41,506.17 194.85,505.65 197.29,510.10 199.73,504.29 202.16,486.43 209.48,488.67 211.92,492.69 214.36,494.80 216.79,486.94 219.23,488.26 226.55,468.85 228.99,456.03 231.42,451.24 233.86,442.93 236.30,438.38 243.62,435.59 246.05,437.37 248.49,443.54 250.93,441.82 253.37,448.00 263.12,431.32 265.56,430.35 268.00,426.92 270.44,420.04 277.75,409.88 280.19,406.01 282.63,401.66 285.07,406.30 287.51,405.78 294.82,408.94 297.26,412.22 299.70,411.64 302.14,413.30 304.58,431.63 311.89,424.29 314.33,431.68 316.77,439.70 321.64,438.58 328.96,424.22 331.40,409.09 333.84,413.24 336.27,403.08 338.71,391.33 346.03,384.09 348.47,404.30 350.90,398.98 353.34,385.72 363.10,389.16 365.53,397.08 367.97,382.38 370.41,381.85 372.85,383.41 380.16,373.42 382.60,369.86 385.04,370.28 387.48,365.26 389.92,371.52 397.23,366.72 399.67,383.39 402.11,367.66 404.55,361.39 406.99,355.95 414.30,351.13 416.74,359.38 419.18,351.21 421.62,351.41 424.05,381.41 431.37,359.44 433.81,364.20 436.25,357.49 438.68,350.43 441.12,342.34 448.44,347.50 450.88,330.87 453.32,332.67 455.75,331.55 458.19,339.70 465.51,342.24 467.95,375.49 470.38,380.03 472.82,386.52 475.26,367.27 482.58,372.66 485.01,360.31 487.45,358.58 489.89,348.18 492.33,376.49 502.08,379.93 504.52,392.13 506.96,389.53 509.40,405.19 516.71,404.43 519.15,399.12 521.59,393.71 524.03,391.89 526.47,400.93 533.78,397.68 536.22,390.98 538.66,385.02 541.10,357.70 543.53,366.57 550.85,373.90 553.29,366.67 555.73,357.56 558.16,346.25 560.60,330.65 567.92,343.85 570.36,353.21 572.79,350.72 575.23,352.17 577.67,349.17 584.99,345.21 587.42,350.23 589.86,342.54 592.30,341.86 594.74,364.70 602.05,350.24 604.49,354.64 606.93,350.74 609.37,348.33 611.81,347.19 619.12,347.13 621.56,349.09 624.00,350.04 626.44,345.48 628.88,339.46 636.19,330.18 638.63,322.05 641.07,324.10 643.51,335.52 645.95,336.79 653.26,330.14 655.70,347.41 658.14,340.25 660.58,359.11 663.01,362.71 670.33,339.25 672.77,340.27 675.21,324.30 677.64,343.50 680.08,343.59 687.40,349.16 689.84,364.23 692.27,359.05 694.71,385.97 697.15,383.68 704.47,349.26 706.90,347.05 709.34,334.93 714.22,323.76 721.53,340.21 723.97,332.90 726.41,323.72 728.85,336.00 731.29,327.53 738.60,329.28 741.04,334.39 743.48,315.50 745.92,310.89 748.36,332.18 755.67,331.89 758.11,347.39 760.55,359.20 762.99,357.40 765.42,345.56 772.74,340.30 775.18,337.66 777.62,332.87 782.49,332.86 789.81,334.80 792.25,333.51 794.68,340.49 799.56,326.83 806.88,315.79 809.32,318.73 811.75,318.64 814.19,319.80 816.63,318.46 823.95,319.65 826.38,321.29 828.82,328.32 831.26,318.55 833.70,318.72 843.45,342.89 845.89,325.69 848.33,318.39 850.77,328.47 858.08,318.38 860.52,315.10 862.96,312.65 865.40,304.85 867.84,304.93 875.15,293.66 877.59,301.93 880.03,333.61 882.47,350.43 884.90,312.38 892.22,298.60 894.66,302.50 897.10,313.36 899.53,352.31 901.97,349.40 911.73,344.39 914.16,336.88 916.60,342.67 919.04,339.64 926.36,355.33 928.79,338.23 931.23,328.67 933.67,341.12 936.11,362.08 943.42,360.18 945.86,382.04 948.30,372.62 950.74,384.35 953.18,397.73 960.49,388.84 962.93,383.49 965.37,375.62 967.81,390.21 970.25,389.12 977.56,383.09 980.00,396.24" /><polyline fill="none" stroke="#0f766e" stroke-width="2.5" points="90.00,470.42 92.44,470.42 94.88,470.42 97.32,470.42 99.75,470.42 107.07,470.42 109.51,470.42 111.95,470.42 114.38,470.42 116.82,470.42 124.14,471.34 126.58,487.60 129.01,487.15 131.45,512.13 133.89,570.37 141.21,578.83 143.64,597.44 146.08,557.35 148.52,592.21 150.96,576.44 158.27,567.85 160.71,571.11 163.15,581.22 165.59,553.45 175.34,566.04 177.78,551.51 180.22,552.61 182.66,541.35 185.10,529.55 192.41,524.63 194.85,521.75 197.29,523.69 199.73,520.68 202.16,502.08 209.48,505.76 211.92,514.11 214.36,507.59 216.79,503.47 219.23,504.24 226.55,486.03 228.99,475.44 231.42,481.43 233.86,469.67 236.30,465.33 243.62,461.78 246.05,462.26 248.49,473.47 250.93,472.92 253.37,476.82 263.12,462.12 265.56,462.46 268.00,457.19 270.44,449.89 277.75,439.87 280.19,434.64 282.63,430.40 285.07,436.29 287.51,435.13 294.82,437.90 297.26,441.19 299.70,439.92 302.14,442.57 304.58,462.17 311.89,451.27 314.33,456.67 316.77,461.29 321.64,459.01 328.96,444.75 331.40,429.34 333.84,432.27 336.27,420.10 338.71,409.56 346.03,401.27 348.47,414.04 350.90,410.20 353.34,396.47 363.10,401.58 365.53,408.41 367.97,395.34 370.41,396.23 372.85,399.73 380.16,394.13 382.60,394.66 385.04,395.41 387.48,387.03 389.92,394.10 397.23,390.83 399.67,402.60 402.11,390.45 404.55,388.19 406.99,383.77 414.30,382.13 416.74,391.25 419.18,386.26 421.62,376.76 424.05,404.60 431.37,384.05 433.81,392.94 436.25,378.76 438.68,381.33 441.12,371.89 448.44,376.03 450.88,357.90 453.32,364.83 455.75,358.81 458.19,370.50 465.51,372.46 467.95,386.98 470.38,392.70 472.82,397.07 475.26,376.86 482.58,378.22 485.01,371.72 487.45,369.74 489.89,357.96 492.33,368.36 502.08,374.77 504.52,362.10 506.96,350.46 509.40,351.26 516.71,345.91 519.15,337.21 521.59,318.05 524.03,321.06 526.47,319.29 533.78,304.14 536.22,302.97 538.66,314.22 541.10,279.56 543.53,281.21 550.85,283.65 553.29,284.76 555.73,280.15 558.16,269.71 560.60,262.51 567.92,265.12 570.36,266.43 572.79,252.29 575.23,246.53 577.67,246.59 584.99,241.63 587.42,245.01 589.86,235.95 592.30,235.24 594.74,266.50 602.05,233.90 604.49,240.39 606.93,222.93 609.37,224.65 611.81,227.88 619.12,218.32 621.56,228.03 624.00,238.77 626.44,227.50 628.88,213.16 636.19,192.65 638.63,181.32 641.07,181.64 643.51,187.99 645.95,187.86 653.26,192.32 655.70,221.04 658.14,202.44 660.58,226.50 663.01,234.13 670.33,211.63 672.77,209.48 675.21,194.70 677.64,223.13 680.08,223.67 687.40,232.83 689.84,246.90 692.27,236.35 694.71,267.28 697.15,258.12 704.47,214.53 706.90,214.17 709.34,196.00 714.22,173.33 721.53,189.11 723.97,180.41 726.41,171.57 728.85,188.70 731.29,182.23 738.60,188.17 741.04,185.60 743.48,170.64 745.92,178.92 748.36,206.47 755.67,207.71 758.11,221.57 760.55,237.41 762.99,229.36 765.42,213.82 772.74,211.40 775.18,206.32 777.62,204.47 782.49,202.76 789.81,201.02 792.25,198.81 794.68,208.13 799.56,195.07 806.88,190.67 809.32,192.62 811.75,189.18 814.19,190.78 816.63,191.16 823.95,184.14 826.38,181.38 828.82,180.80 831.26,175.79 833.70,177.36 843.45,198.19 845.89,180.25 848.33,174.04 850.77,181.57 858.08,170.84 860.52,165.07 862.96,159.28 865.40,152.05 867.84,153.16 875.15,137.58 877.59,123.58 880.03,152.36 882.47,165.84 884.90,117.14 892.22,100.00 894.66,115.10 897.10,116.37 899.53,168.16 901.97,160.76 911.73,162.85 914.16,154.22 916.60,159.88 919.04,166.83 926.36,182.46 928.79,159.07 931.23,149.95 933.67,159.32 936.11,174.35 943.42,172.12 945.86,197.81 948.30,186.74 950.74,200.51 953.18,216.24 960.49,205.79 962.93,199.50 965.37,190.26 967.81,207.40 970.25,206.12 977.56,199.04 980.00,214.78" /><polyline fill="none" stroke="#7c3aed" stroke-width="3" points="90.00,470.42 92.44,480.85 94.88,470.45 97.32,473.24 99.75,472.92 107.07,455.68 109.51,453.32 111.95,465.05 114.38,467.63 116.82,487.13 124.14,480.76 126.58,478.06 129.01,472.00 131.45,519.49 133.89,573.13 141.21,574.67 143.64,588.16 146.08,499.15 148.52,540.19 150.96,524.21 158.27,515.36 160.71,517.94 163.15,538.34 165.59,537.06 175.34,558.45 177.78,535.63 180.22,521.68 182.66,502.44 185.10,495.70 192.41,495.34 194.85,489.41 197.29,489.04 199.73,482.33 202.16,468.18 209.48,473.73 211.92,481.77 214.36,477.75 216.79,471.08 219.23,472.31 226.55,440.47 228.99,433.90 231.42,432.62 233.86,427.72 236.30,421.33 243.62,420.22 246.05,423.64 248.49,440.69 250.93,440.30 253.37,447.09 263.12,426.54 265.56,432.38 268.00,428.42 270.44,429.54 277.75,423.88 280.19,418.11 282.63,418.38 285.07,423.30 287.51,412.90 294.82,411.98 297.26,406.17 299.70,409.11 302.14,405.03 304.58,416.55 311.89,406.86 314.33,415.65 316.77,415.80 321.64,418.20 328.96,408.15 331.40,396.79 333.84,396.21 336.27,388.08 338.71,382.87 346.03,377.84 348.47,378.18 350.90,373.39 353.34,365.02 363.10,372.99 365.53,373.58 367.97,367.21 370.41,364.19 372.85,367.96 380.16,365.92 382.60,370.49 385.04,366.93 387.48,360.39 389.92,361.18 397.23,359.14 399.67,358.99 402.11,349.83 404.55,349.47 406.99,344.88 414.30,345.15 416.74,348.03 419.18,349.40 421.62,353.47 424.05,371.21 431.37,355.03 433.81,360.51 436.25,352.28 438.68,353.18 441.12,344.74 448.44,346.90 450.88,335.31 453.32,331.54 455.75,331.44 458.19,334.02 465.51,334.26 467.95,340.24 470.38,343.15 472.82,347.53 475.26,330.82 482.58,335.68 485.01,331.08 487.45,328.56 489.89,324.64 492.33,331.27 502.08,339.45 504.52,333.51 506.96,324.30 509.40,327.52 516.71,324.80 519.15,322.23 521.59,319.01 524.03,309.73 526.47,310.10 533.78,304.11 536.22,305.67 538.66,307.07 541.10,301.80 543.53,296.18 550.85,290.79 553.29,297.02 555.73,300.65 558.16,305.88 560.60,299.41 567.92,296.22 570.36,291.93 572.79,288.03 575.23,286.71 577.67,286.72 584.99,282.60 587.42,286.88 589.86,280.03 592.30,283.38 594.74,314.52 602.05,297.32 604.49,298.71 606.93,293.66 609.37,301.44 611.81,295.00 619.12,283.13 621.56,283.15 624.00,289.14 626.44,282.34 628.88,272.92 636.19,259.20 638.63,256.08 641.07,255.51 643.51,268.49 645.95,264.66 653.26,262.46 655.70,276.37 658.14,272.35 660.58,284.83 663.01,283.70 670.33,265.72 672.77,263.05 675.21,262.39 677.64,281.86 680.08,282.05 687.40,292.80 689.84,302.40 692.27,298.02 694.71,315.36 697.15,304.20 704.47,287.55 706.90,276.75 709.34,268.75 714.22,262.38 721.53,267.73 723.97,265.57 726.41,261.52 728.85,260.66 731.29,258.43 738.60,261.96 741.04,262.98 743.48,255.20 745.92,252.45 748.36,265.18 755.67,266.94 758.11,270.14 760.55,282.96 762.99,274.26 765.42,263.73 772.74,256.43 775.18,251.04 777.62,246.87 782.49,246.99 789.81,251.23 792.25,252.68 794.68,261.44 799.56,259.29 806.88,251.45 809.32,244.41 811.75,248.25 814.19,248.37 816.63,240.52 823.95,238.64 826.38,241.03 828.82,246.91 831.26,243.67 833.70,244.67 843.45,268.91 845.89,255.45 848.33,249.28 850.77,248.85 858.08,242.83 860.52,238.07 862.96,238.19 865.40,240.57 867.84,244.13 875.15,238.21 877.59,248.34 880.03,254.09 882.47,268.85 884.90,246.46 892.22,240.72 894.66,243.88 897.10,244.15 899.53,262.56 901.97,261.73 911.73,259.84 914.16,253.92 916.60,257.03 919.04,248.51 926.36,260.63 928.79,252.09 931.23,242.10 933.67,248.73 936.11,254.43 943.42,253.76 945.86,264.18 948.30,255.91 950.74,262.49 953.18,277.87 960.49,267.73 962.93,269.60 965.37,271.07 967.81,288.75 970.25,295.24 977.56,283.64 980.00,280.61" />
<line x1="1000" y1="84" x2="1032" y2="84" stroke="#1d4ed8" stroke-width="2.5" /><text x="1042" y="89" font-size="16" fill="#0f172a">configured_baseline</text><line x1="1000" y1="112" x2="1032" y2="112" stroke="#0f766e" stroke-width="2.5" /><text x="1042" y="117" font-size="16" fill="#0f172a">ridge_walkforward</text><line x1="1000" y1="140" x2="1032" y2="140" stroke="#7c3aed" stroke-width="2.5" /><text x="1042" y="145" font-size="16" fill="#0f172a">tree_walkforward</text><line x1="1000" y1="168" x2="1032" y2="168" stroke="#db2777" stroke-width="2.5" /><text x="1042" y="173" font-size="16" fill="#0f172a">mlp_walkforward</text><line x1="1000" y1="196" x2="1032" y2="196" stroke="#b45309" stroke-width="2.5" /><text x="1042" y="201" font-size="16" fill="#0f172a">tcn_walkforward</text><line x1="1000" y1="224" x2="1032" y2="224" stroke="#475569" stroke-width="2.5" /><text x="1042" y="229" font-size="16" fill="#0f172a">hybrid_sequence_walkforward</text><line x1="1000" y1="252" x2="1032" y2="252" stroke="#1d4ed8" stroke-width="2.5" /><text x="1042" y="257" font-size="16" fill="#0f172a">lstm_walkforward</text><line x1="1000" y1="280" x2="1032" y2="280" stroke="#0f766e" stroke-width="2.5" /><text x="1042" y="285" font-size="16" fill="#0f172a">transformer_walkforward</text><line x1="1000" y1="308" x2="1032" y2="308" stroke="#7c3aed" stroke-width="3" /><text x="1042" y="313" font-size="16" fill="#0f172a">benchmark</text>
</svg>
