<svg xmlns="http://www.w3.org/2000/svg" width="1200" height="720" viewBox="0 0 1200 720">
<rect width="1200" height="720" fill="#f8fafc" />
<text x="90" y="32" font-size="28" font-family="Segoe UI, Arial, sans-serif" fill="#0f172a">US Stocks Strategy Value - Last 4 Trading Days</text>
<text x="90" y="54" font-size="15" font-family="Segoe UI, Arial, sans-serif" fill="#475569">Initial capital assumed: $96,158</text>
<rect x="90" y="60" width="890" height="580" fill="#ffffff" stroke="#cbd5e1" />
<line x1="90" y1="640.00" x2="980" y2="640.00" stroke="#e2e8f0" stroke-width="1" /><text x="78" y="645.00" font-size="14" text-anchor="end" fill="#475569">$77,122</text><line x1="90" y1="495.00" x2="980" y2="495.00" stroke="#e2e8f0" stroke-width="1" /><text x="78" y="500.00" font-size="14" text-anchor="end" fill="#475569">$102,558</text><line x1="90" y1="350.00" x2="980" y2="350.00" stroke="#e2e8f0" stroke-width="1" /><text x="78" y="355.00" font-size="14" text-anchor="end" fill="#475569">$127,993</text><line x1="90" y1="205.00" x2="980" y2="205.00" stroke="#e2e8f0" stroke-width="1" /><text x="78" y="210.00" font-size="14" text-anchor="end" fill="#475569">$153,429</text><line x1="90" y1="60.00" x2="980" y2="60.00" stroke="#e2e8f0" stroke-width="1" /><text x="78" y="65.00" font-size="14" text-anchor="end" fill="#475569">$178,865</text>
<line x1="90.00" y1="60" x2="90.00" y2="640" stroke="#f1f5f9" stroke-width="1" /><text x="90.00" y="668" font-size="14" text-anchor="middle" fill="#475569">2023-03-14</text><line x1="684.14" y1="60" x2="684.14" y2="640" stroke="#f1f5f9" stroke-width="1" /><text x="684.14" y="668" font-size="14" text-anchor="middle" fill="#475569">2025-03-18</text><line x1="980.00" y1="60" x2="980.00" y2="640" stroke="#f1f5f9" stroke-width="1" /><text x="980.00" y="668" font-size="14" text-anchor="middle" fill="#475569">2026-03-19</text>
<polyline fill="none" stroke="#1d4ed8" stroke-width="3" points="90.00,531.48 385.86,244.09 684.14,505.81 980.00,417.41" /><polyline fill="none" stroke="#0f766e" stroke-width="2.5" points="90.00,560.14 385.86,233.90 684.14,540.45 980.00,408.00" /><polyline fill="none" stroke="#7c3aed" stroke-width="2.5" points="90.00,530.62 385.86,154.05 684.14,497.01 980.00,430.44" /><polyline fill="none" stroke="#db2777" stroke-width="2.5" points="90.00,593.07 385.86,218.89 684.14,534.94 980.00,407.12" /><polyline fill="none" stroke="#b45309" stroke-width="2.5" points="90.00,576.27 385.86,216.48 684.14,537.07 980.00,454.32" /><polyline fill="none" stroke="#475569" stroke-width="2.5" points="90.00,588.81 385.86,221.50 684.14,520.23 980.00,420.09" /><polyline fill="none" stroke="#1d4ed8" stroke-width="2.5" points="90.00,562.14 385.86,267.63 684.14,546.51 980.00,456.47" /><polyline fill="none" stroke="#0f766e" stroke-width="2.5" points="90.00,600.00 385.86,100.00 684.14,527.03 980.00,354.96" />
<line x1="1000" y1="84" x2="1032" y2="84" stroke="#1d4ed8" stroke-width="3" /><text x="1042" y="89" font-size="16" fill="#0f172a">configured_baseline</text><line x1="1000" y1="112" x2="1032" y2="112" stroke="#0f766e" stroke-width="2.5" /><text x="1042" y="117" font-size="16" fill="#0f172a">ridge_walkforward</text><line x1="1000" y1="140" x2="1032" y2="140" stroke="#7c3aed" stroke-width="2.5" /><text x="1042" y="145" font-size="16" fill="#0f172a">tree_walkforward</text><line x1="1000" y1="168" x2="1032" y2="168" stroke="#db2777" stroke-width="2.5" /><text x="1042" y="173" font-size="16" fill="#0f172a">mlp_walkforward</text><line x1="1000" y1="196" x2="1032" y2="196" stroke="#b45309" stroke-width="2.5" /><text x="1042" y="201" font-size="16" fill="#0f172a">tcn_walkforward</text><line x1="1000" y1="224" x2="1032" y2="224" stroke="#475569" stroke-width="2.5" /><text x="1042" y="229" font-size="16" fill="#0f172a">hybrid_sequence_walkforward</text><line x1="1000" y1="252" x2="1032" y2="252" stroke="#1d4ed8" stroke-width="2.5" /><text x="1042" y="257" font-size="16" fill="#0f172a">lstm_walkforward</text><line x1="1000" y1="280" x2="1032" y2="280" stroke="#0f766e" stroke-width="2.5" /><text x="1042" y="285" font-size="16" fill="#0f172a">transformer_walkforward</text>
</svg>
