<svg xmlns="http://www.w3.org/2000/svg" width="1200" height="720" viewBox="0 0 1200 720">
<rect width="1200" height="720" fill="#f8fafc" />
<text x="90" y="32" font-size="28" font-family="Segoe UI, Arial, sans-serif" fill="#0f172a">US Stocks Strategy Value - Last 252 Trading Days</text>
<text x="90" y="54" font-size="15" font-family="Segoe UI, Arial, sans-serif" fill="#475569">Initial capital assumed: $100,000</text>
<rect x="90" y="60" width="890" height="580" fill="#ffffff" stroke="#cbd5e1" />
<line x1="90" y1="640.00" x2="980" y2="640.00" stroke="#e2e8f0" stroke-width="1" /><text x="78" y="645.00" font-size="14" text-anchor="end" fill="#475569">$83,389</text><line x1="90" y1="495.00" x2="980" y2="495.00" stroke="#e2e8f0" stroke-width="1" /><text x="78" y="500.00" font-size="14" text-anchor="end" fill="#475569">$94,941</text><line x1="90" y1="350.00" x2="980" y2="350.00" stroke="#e2e8f0" stroke-width="1" /><text x="78" y="355.00" font-size="14" text-anchor="end" fill="#475569">$106,494</text><line x1="90" y1="205.00" x2="980" y2="205.00" stroke="#e2e8f0" stroke-width="1" /><text x="78" y="210.00" font-size="14" text-anchor="end" fill="#475569">$118,046</text><line x1="90" y1="60.00" x2="980" y2="60.00" stroke="#e2e8f0" stroke-width="1" /><text x="78" y="65.00" font-size="14" text-anchor="end" fill="#475569">$129,598</text>
<line x1="90.00" y1="60" x2="90.00" y2="640" stroke="#f1f5f9" stroke-width="1" /><text x="90.00" y="668" font-size="14" text-anchor="middle" fill="#475569">2025-03-17</text><line x1="536.22" y1="60" x2="536.22" y2="640" stroke="#f1f5f9" stroke-width="1" /><text x="536.22" y="668" font-size="14" text-anchor="middle" fill="#475569">2025-09-16</text><line x1="980.00" y1="60" x2="980.00" y2="640" stroke="#f1f5f9" stroke-width="1" /><text x="980.00" y="668" font-size="14" text-anchor="middle" fill="#475569">2026-03-17</text>
<polyline fill="none" stroke="#1d4ed8" stroke-width="2.5" points="90.00,431.51 92.44,447.45 94.88,432.15 97.32,434.66 99.75,428.60 107.07,406.69 109.51,401.82 111.95,411.04 114.38,409.30 116.82,433.22 124.14,426.84 126.58,439.81 129.01,440.66 131.45,472.85 133.89,542.89 141.21,551.32 143.64,568.39 146.08,506.38 148.52,539.38 150.96,520.05 158.27,515.26 160.71,520.15 163.15,529.40 165.59,545.52 175.34,570.06 177.78,552.66 180.22,552.27 182.66,544.25 185.10,538.90 192.41,531.53 194.85,534.00 197.29,537.71 199.73,551.66 202.16,528.77 209.48,533.04 211.92,543.58 214.36,533.46 216.79,534.70 219.23,539.09 226.55,520.67 228.99,514.67 231.42,523.21 233.86,506.63 236.30,496.60 243.62,491.46 246.05,492.26 248.49,505.83 250.93,507.96 253.37,513.30 263.12,495.91 265.56,495.24 268.00,489.54 270.44,476.83 277.75,465.80 280.19,455.97 282.63,449.27 285.07,452.08 287.51,451.86 294.82,451.94 297.26,453.68 299.70,449.00 302.14,451.07 304.58,475.61 311.89,460.35 314.33,466.59 316.77,471.02 321.64,472.55 328.96,457.79 331.40,434.36 333.84,429.19 336.27,412.78 338.71,397.01 346.03,388.30 348.47,416.45 350.90,399.67 353.34,383.58 363.10,396.24 365.53,395.44 367.97,381.47 370.41,378.98 372.85,382.42 380.16,378.97 382.60,359.65 385.04,351.79 387.48,337.81 389.92,353.27 397.23,348.06 399.67,373.66 402.11,356.49 404.55,344.03 406.99,335.02 414.30,322.21 416.74,319.49 419.18,309.80 421.62,297.77 424.05,335.20 431.37,303.63 433.81,311.75 436.25,308.82 438.68,302.04 441.12,292.80 448.44,294.04 450.88,277.59 453.32,286.42 455.75,280.73 458.19,286.82 465.51,287.06 467.95,325.86 470.38,334.99 472.82,338.85 475.26,317.58 482.58,320.40 485.01,310.79 487.45,306.31 489.89,290.71 492.33,322.87 502.08,331.85 504.52,325.68 506.96,318.16 509.40,323.52 516.71,321.73 519.15,297.42 521.59,293.94 524.03,281.39 526.47,288.42 533.78,279.66 536.22,278.35 538.66,273.43 541.10,236.24 543.53,241.45 550.85,245.77 553.29,234.10 555.73,224.93 558.16,211.68 560.60,196.24 567.92,206.62 570.36,214.76 572.79,202.02 575.23,196.81 577.67,199.82 584.99,193.96 587.42,199.55 589.86,195.84 592.30,192.91 594.74,232.74 602.05,194.73 604.49,209.61 606.93,195.09 609.37,198.90 611.81,204.31 619.12,190.40 621.56,197.55 624.00,219.75 626.44,198.28 628.88,174.30 636.19,142.96 638.63,126.48 641.07,123.58 643.51,137.66 645.95,136.44 653.26,124.06 655.70,167.85 658.14,151.57 660.58,186.84 663.01,192.26 670.33,154.19 672.77,166.24 675.21,149.40 677.64,183.41 680.08,184.20 687.40,195.76 689.84,220.82 692.27,201.33 694.71,247.04 697.15,235.55 704.47,177.94 706.90,180.20 709.34,162.34 714.22,136.50 721.53,157.09 723.97,141.66 726.41,137.06 728.85,159.17 731.29,148.18 738.60,155.14 741.04,156.32 743.48,136.01 745.92,145.85 748.36,175.00 755.67,176.46 758.11,190.53 760.55,220.49 762.99,210.60 765.42,193.39 772.74,193.80 775.18,190.89 777.62,186.84 782.49,185.51 789.81,185.65 792.25,184.00 794.68,192.94 799.56,185.68 806.88,175.54 809.32,174.66 811.75,167.61 814.19,172.19 816.63,171.46 823.95,166.20 826.38,171.14 828.82,173.26 831.26,168.34 833.70,175.43 843.45,200.52 845.89,180.92 848.33,167.76 850.77,179.37 858.08,164.30 860.52,159.66 862.96,157.30 865.40,162.60 867.84,162.64 875.15,151.27 877.59,146.01 880.03,138.30 882.47,147.88 884.90,118.64 892.22,112.48 894.66,124.27 897.10,118.54 899.53,140.24 901.97,138.61 911.73,146.00 914.16,138.04 916.60,149.95 919.04,154.98 926.36,155.55 928.79,140.56 931.23,137.33 933.67,147.40 936.11,145.91 943.42,140.43 945.86,167.04 948.30,166.82 950.74,192.99 953.18,190.64 960.49,186.07 962.93,191.70 965.37,192.82 967.81,207.40 970.25,205.15 977.56,195.01 980.00,201.89" /><polyline fill="none" stroke="#0f766e" stroke-width="2.5" points="90.00,431.51 92.44,431.51 94.88,431.51 97.32,431.51 99.75,431.51 107.07,431.51 109.51,431.51 111.95,431.51 114.38,431.51 116.82,431.51 124.14,432.71 126.58,443.89 129.01,438.18 131.45,476.46 133.89,556.39 141.21,555.91 143.64,582.07 146.08,475.39 148.52,527.95 150.96,510.81 158.27,500.09 160.71,504.25 163.15,531.03 165.59,530.90 175.34,557.99 177.78,533.84 180.22,512.20 182.66,486.00 185.10,480.03 192.41,470.05 194.85,470.23 197.29,474.46 199.73,465.55 202.16,440.82 209.48,444.81 211.92,449.56 214.36,436.95 216.79,428.99 219.23,430.16 226.55,401.86 228.99,377.17 231.42,369.97 233.86,358.12 236.30,353.52 243.62,349.92 246.05,351.24 248.49,367.05 250.93,365.70 253.37,373.52 263.12,350.44 265.56,349.46 268.00,339.23 270.44,334.32 277.75,320.57 280.19,313.39 282.63,307.58 285.07,315.66 287.51,314.07 294.82,317.86 297.26,322.37 299.70,320.64 302.14,324.28 304.58,351.16 311.89,336.21 314.33,343.61 316.77,349.95 321.64,346.83 328.96,327.27 331.40,306.12 333.84,310.15 336.27,293.45 338.71,278.99 346.03,267.95 348.47,290.16 350.90,275.54 353.34,253.91 363.10,260.02 365.53,262.72 367.97,241.87 370.41,240.66 372.85,246.57 380.16,237.64 382.60,228.58 385.04,222.11 387.48,213.23 389.92,216.65 397.23,213.97 399.67,235.42 402.11,211.03 404.55,203.01 406.99,193.98 414.30,186.33 416.74,194.35 419.18,185.66 421.62,177.30 424.05,205.21 431.37,167.26 433.81,178.49 436.25,176.19 438.68,167.14 441.12,153.45 448.44,159.42 450.88,133.27 453.32,145.58 455.75,148.72 458.19,161.37 465.51,164.86 467.95,210.11 470.38,212.83 472.82,218.91 475.26,198.88 482.58,205.62 485.01,184.14 487.45,182.43 489.89,168.11 492.33,204.31 502.08,210.62 504.52,210.56 506.96,197.54 509.40,205.74 516.71,197.77 519.15,190.46 521.59,163.57 524.03,174.53 526.47,173.91 533.78,162.14 536.22,158.55 538.66,169.31 541.10,160.75 543.53,159.19 550.85,156.70 553.29,161.80 555.73,168.86 558.16,175.10 560.60,171.86 567.92,173.18 570.36,170.19 572.79,180.39 575.23,186.84 577.67,180.50 584.99,178.58 587.42,179.18 589.86,177.27 592.30,180.80 594.74,211.71 602.05,190.74 604.49,186.60 606.93,185.81 609.37,194.86 611.81,185.12 619.12,175.86 621.56,178.50 624.00,188.39 626.44,180.43 628.88,167.13 636.19,149.06 638.63,141.75 641.07,144.82 643.51,142.41 645.95,143.46 653.26,144.50 655.70,173.30 658.14,167.06 660.58,183.03 663.01,178.78 670.33,154.13 672.77,156.20 675.21,147.44 677.64,165.52 680.08,159.50 687.40,173.78 689.84,180.27 692.27,158.00 694.71,188.03 697.15,180.60 704.47,144.79 706.90,142.86 709.34,125.79 714.22,103.10 721.53,122.08 723.97,108.60 726.41,102.68 728.85,126.61 731.29,117.18 738.60,130.78 741.04,131.24 743.48,113.48 745.92,126.57 748.36,157.88 755.67,162.23 758.11,173.67 760.55,201.76 762.99,189.02 765.42,169.62 772.74,168.41 775.18,160.23 777.62,156.81 782.49,155.47 789.81,154.35 792.25,151.70 794.68,163.06 799.56,144.06 806.88,128.70 809.32,132.79 811.75,132.67 814.19,134.28 816.63,132.41 823.95,134.07 826.38,136.36 828.82,146.13 831.26,132.54 833.70,132.78 843.45,166.39 845.89,142.47 848.33,132.32 850.77,146.34 858.08,132.30 860.52,127.74 862.96,124.33 865.40,113.48 867.84,113.22 875.15,100.00 877.59,105.00 880.03,144.90 882.47,167.46 884.90,127.64 892.22,109.24 894.66,116.97 897.10,125.80 899.53,181.23 901.97,183.73 911.73,184.70 914.16,167.75 916.60,168.38 919.04,161.12 926.36,173.47 928.79,156.03 931.23,143.26 933.67,165.30 936.11,171.45 943.42,168.78 945.86,199.63 948.30,186.34 950.74,202.88 953.18,221.78 960.49,209.23 962.93,201.67 965.37,190.57 967.81,211.15 970.25,209.62 977.56,201.11 980.00,219.67" /><polyline fill="none" stroke="#7c3aed" stroke-width="2.5" points="90.00,431.51 92.44,431.51 94.88,431.51 97.32,431.51 99.75,431.51 107.07,431.51 109.51,431.51 111.95,431.51 114.38,431.51 116.82,431.51 124.14,432.71 126.58,446.44 129.01,443.13 131.45,499.91 133.89,574.90 141.21,580.38 143.64,600.00 146.08,499.26 148.52,547.84 150.96,523.93 158.27,516.30 160.71,520.74 163.15,540.69 165.59,527.87 175.34,549.34 177.78,531.05 180.22,511.07 182.66,489.54 185.10,473.77 192.41,462.30 194.85,462.14 197.29,459.60 199.73,454.00 202.16,430.43 209.48,436.83 211.92,441.12 214.36,432.85 216.79,423.88 219.23,422.53 226.55,398.88 228.99,382.05 231.42,382.14 233.86,369.16 236.30,365.44 243.62,364.22 246.05,365.53 248.49,380.10 250.93,380.30 253.37,384.77 263.12,365.42 265.56,365.73 268.00,358.57 270.44,350.48 277.75,336.89 280.19,329.80 282.63,324.06 285.07,332.04 287.51,330.47 294.82,334.22 297.26,338.68 299.70,336.96 302.14,340.55 304.58,367.11 311.89,352.35 314.33,359.66 316.77,365.92 321.64,362.84 328.96,343.51 331.40,322.62 333.84,326.59 336.27,310.10 338.71,295.81 346.03,284.24 348.47,306.88 350.90,305.25 353.34,286.89 363.10,291.39 365.53,304.63 367.97,286.40 370.41,288.20 372.85,293.09 380.16,279.32 382.60,283.02 385.04,283.75 387.48,276.43 389.92,284.71 397.23,276.66 399.67,294.80 402.11,276.62 404.55,272.09 406.99,263.70 414.30,262.46 416.74,272.00 419.18,264.09 421.62,263.18 424.05,282.50 431.37,251.51 433.81,258.36 436.25,262.76 438.68,257.79 441.12,249.81 448.44,250.86 450.88,227.77 453.32,232.65 455.75,230.69 458.19,238.15 465.51,240.69 467.95,274.78 470.38,275.45 472.82,280.16 475.26,258.99 482.58,268.75 485.01,249.52 487.45,245.44 489.89,233.64 492.33,258.69 502.08,264.93 504.52,278.83 506.96,272.15 509.40,288.76 516.71,284.33 519.15,274.96 521.59,280.07 524.03,279.87 526.47,289.42 533.78,286.50 536.22,275.96 538.66,269.31 541.10,271.29 543.53,278.50 550.85,287.78 553.29,289.04 555.73,287.46 558.16,291.86 560.60,280.62 567.92,290.62 570.36,301.58 572.79,313.54 575.23,320.97 577.67,313.04 584.99,308.11 587.42,312.28 589.86,320.09 592.30,326.69 594.74,347.75 602.05,323.18 604.49,317.37 606.93,312.82 609.37,325.48 611.81,319.66 619.12,307.17 621.56,315.22 624.00,324.12 626.44,316.54 628.88,301.25 636.19,283.20 638.63,288.28 641.07,288.56 643.51,280.34 645.95,280.35 653.26,272.33 655.70,282.81 658.14,277.13 660.58,283.72 663.01,282.51 670.33,262.49 672.77,254.13 675.21,244.43 677.64,260.79 680.08,266.99 687.40,271.31 689.84,278.03 692.27,264.00 694.71,285.83 697.15,273.20 704.47,252.35 706.90,239.55 709.34,233.33 714.22,220.86 721.53,233.96 723.97,238.78 726.41,226.86 728.85,235.12 731.29,235.23 738.60,248.44 741.04,257.60 743.48,233.29 745.92,229.67 748.36,230.68 755.67,219.66 758.11,241.88 760.55,248.67 762.99,243.72 765.42,233.11 772.74,222.78 775.18,217.62 777.62,211.62 782.49,212.19 789.81,212.51 792.25,212.80 794.68,220.00 799.56,203.15 806.88,195.67 809.32,200.27 811.75,193.74 814.19,198.33 816.63,197.39 823.95,191.78 826.38,183.10 828.82,186.68 831.26,173.42 833.70,176.29 843.45,203.69 845.89,180.11 848.33,170.76 850.77,179.52 858.08,166.69 860.52,159.35 862.96,153.62 865.40,146.78 867.84,146.60 875.15,123.18 877.59,124.35 880.03,173.60 882.47,194.45 884.90,157.14 892.22,143.42 894.66,154.61 897.10,177.48 899.53,226.81 901.97,220.17 911.73,209.76 914.16,200.36 916.60,202.29 919.04,186.95 926.36,217.03 928.79,192.38 931.23,181.82 933.67,193.22 936.11,214.33 943.42,211.73 945.86,241.71 948.30,228.79 950.74,244.87 953.18,263.23 960.49,251.03 962.93,243.69 965.37,232.91 967.81,252.90 970.25,251.42 977.56,243.15 980.00,261.53" /><polyline fill="none" stroke="#db2777" stroke-width="2.5" points="90.00,431.51 92.44,431.51 94.88,431.51 97.32,431.51 99.75,431.51 107.07,431.51 109.51,431.51 111.95,431.51 114.38,431.51 116.82,431.51 124.14,432.71 126.58,451.60 129.01,449.63 131.45,471.40 133.89,553.96 141.21,560.36 143.64,584.38 146.08,502.33 148.52,547.74 150.96,535.76 158.27,518.84 160.71,515.38 163.15,540.36 165.59,514.87 175.34,533.59 177.78,507.74 180.22,494.78 182.66,472.26 185.10,465.66 192.41,457.45 194.85,453.96 197.29,456.09 199.73,451.57 202.16,425.64 209.48,431.35 211.92,438.23 214.36,427.37 216.79,414.62 219.23,411.81 226.55,386.00 228.99,367.13 231.42,373.77 233.86,361.13 236.30,356.41 243.62,355.08 246.05,355.82 248.49,372.86 250.93,373.81 253.37,383.59 263.12,361.81 265.56,361.41 268.00,357.38 270.44,353.39 277.75,339.84 280.19,332.76 282.63,327.04 285.07,335.00 287.51,333.43 294.82,337.17 297.26,341.62 299.70,339.91 302.14,343.49 304.58,370.00 311.89,355.26 314.33,362.56 316.77,368.80 321.64,365.73 328.96,346.44 331.40,325.60 333.84,329.56 336.27,313.10 338.71,298.85 346.03,287.96 348.47,311.92 350.90,306.16 353.34,287.66 363.10,290.43 365.53,295.05 367.97,273.30 370.41,272.58 372.85,274.52 380.16,264.92 382.60,259.32 385.04,257.67 387.48,252.23 389.92,253.84 397.23,249.89 399.67,268.59 402.11,247.26 404.55,238.40 406.99,230.25 414.30,225.05 416.74,234.44 419.18,226.19 421.62,213.71 424.05,241.85 431.37,204.38 433.81,214.08 436.25,215.31 438.68,209.48 441.12,200.58 448.44,204.08 450.88,174.52 453.32,183.69 455.75,183.33 458.19,191.60 465.51,197.00 467.95,243.13 470.38,246.86 472.82,253.71 475.26,228.69 482.58,235.56 485.01,215.36 487.45,213.64 489.89,201.81 492.33,237.16 502.08,241.79 504.52,246.97 506.96,235.40 509.40,235.06 516.71,229.55 519.15,226.10 521.59,209.32 524.03,226.78 526.47,232.26 533.78,218.95 536.22,210.21 538.66,223.39 541.10,177.73 543.53,184.44 550.85,198.33 553.29,192.40 555.73,181.68 558.16,176.95 560.60,163.96 567.92,174.13 570.36,180.76 572.79,193.63 575.23,202.30 577.67,195.13 584.99,189.24 587.42,195.08 589.86,196.26 592.30,199.12 594.74,231.25 602.05,209.18 604.49,210.11 606.93,207.59 609.37,222.01 611.81,213.53 619.12,202.44 621.56,208.47 624.00,214.88 626.44,211.40 628.88,190.44 636.19,172.92 638.63,156.41 641.07,161.87 643.51,162.81 645.95,164.39 653.26,162.39 655.70,200.43 658.14,187.70 660.58,216.78 663.01,218.32 670.33,191.97 672.77,198.97 675.21,177.40 677.64,208.85 680.08,206.89 687.40,230.17 689.84,245.10 692.27,223.32 694.71,263.00 697.15,258.29 704.47,221.08 706.90,217.54 709.34,194.68 714.22,167.63 721.53,187.79 723.97,193.59 726.41,179.15 728.85,183.55 731.29,177.29 738.60,179.00 741.04,184.65 743.48,161.24 745.92,154.50 748.36,180.77 755.67,180.72 758.11,199.78 760.55,211.29 762.99,205.03 765.42,186.11 772.74,175.78 775.18,167.05 777.62,160.17 782.49,160.04 789.81,164.76 792.25,166.01 794.68,176.42 799.56,160.71 806.88,152.24 809.32,149.51 811.75,143.05 814.19,153.12 816.63,155.04 823.95,151.03 826.38,153.56 828.82,164.33 831.26,148.55 833.70,150.63 843.45,185.05 845.89,165.93 848.33,155.57 850.77,169.83 858.08,154.71 860.52,150.48 862.96,145.43 865.40,139.03 867.84,140.72 875.15,123.34 877.59,128.21 880.03,175.58 882.47,201.05 884.90,157.15 892.22,146.80 894.66,169.61 897.10,175.58 899.53,210.42 901.97,212.30 911.73,206.34 914.16,196.31 916.60,194.43 919.04,181.31 926.36,200.43 928.79,168.89 931.23,157.48 933.67,183.09 936.11,196.53 943.42,193.91 945.86,224.25 948.30,211.17 950.74,227.44 953.18,246.02 960.49,233.68 962.93,226.25 965.37,215.34 967.81,235.58 970.25,234.07 977.56,225.70 980.00,244.30" /><polyline fill="none" stroke="#b45309" stroke-width="3" points="90.00,431.51 92.44,445.07 94.88,431.55 97.32,435.18 99.75,434.77 107.07,412.35 109.51,409.28 111.95,424.53 114.38,427.88 116.82,453.23 124.14,444.95 126.58,441.45 129.01,433.57 131.45,495.32 133.89,565.07 141.21,567.07 143.64,584.60 146.08,468.86 148.52,522.23 150.96,501.45 158.27,489.95 160.71,493.30 163.15,519.83 165.59,518.16 175.34,545.98 177.78,516.30 180.22,498.16 182.66,473.15 185.10,464.38 192.41,463.91 194.85,456.21 197.29,455.72 199.73,447.00 202.16,428.60 209.48,435.81 211.92,446.26 214.36,441.05 216.79,432.37 219.23,433.97 226.55,392.57 228.99,384.02 231.42,382.36 233.86,375.99 236.30,367.68 243.62,366.24 246.05,370.68 248.49,392.86 250.93,392.35 253.37,401.18 263.12,374.45 265.56,382.05 268.00,376.90 270.44,378.36 277.75,370.99 280.19,363.49 282.63,363.84 285.07,370.24 287.51,356.72 294.82,355.52 297.26,347.97 299.70,351.79 302.14,346.49 304.58,361.47 311.89,348.86 314.33,360.29 316.77,360.49 321.64,363.61 328.96,350.54 331.40,335.78 333.84,335.02 336.27,324.45 338.71,317.68 346.03,311.13 348.47,311.58 350.90,305.34 353.34,294.46 363.10,304.83 365.53,305.59 367.97,297.31 370.41,293.39 372.85,298.29 380.16,295.64 382.60,301.58 385.04,296.95 387.48,288.45 389.92,289.47 397.23,286.82 399.67,286.62 402.11,274.71 404.55,274.24 406.99,268.27 414.30,268.63 416.74,272.37 419.18,274.15 421.62,279.45 424.05,302.52 431.37,281.48 433.81,288.60 436.25,277.89 438.68,279.07 441.12,268.10 448.44,270.90 450.88,255.83 453.32,250.93 455.75,250.80 458.19,254.16 465.51,254.47 467.95,262.24 470.38,266.03 472.82,271.73 475.26,250.00 482.58,256.32 485.01,250.33 487.45,247.06 489.89,241.96 492.33,250.58 502.08,261.22 504.52,253.49 506.96,241.51 509.40,245.70 516.71,242.16 519.15,238.82 521.59,234.63 524.03,222.57 526.47,223.06 533.78,215.27 536.22,217.29 538.66,219.12 541.10,212.26 543.53,204.96 550.85,197.95 553.29,206.05 555.73,210.76 558.16,217.57 560.60,209.15 567.92,205.00 570.36,199.42 572.79,194.35 575.23,192.63 577.67,192.66 584.99,187.30 587.42,192.86 589.86,183.95 592.30,188.30 594.74,228.80 602.05,206.43 604.49,208.24 606.93,201.68 609.37,211.79 611.81,203.42 619.12,187.99 621.56,188.01 624.00,195.80 626.44,186.96 628.88,174.71 636.19,156.87 638.63,152.81 641.07,152.07 643.51,168.95 645.95,163.97 653.26,161.11 655.70,179.19 658.14,173.97 660.58,190.20 663.01,188.73 670.33,165.35 672.77,161.87 675.21,161.02 677.64,186.34 680.08,186.58 687.40,200.56 689.84,213.04 692.27,207.35 694.71,229.89 697.15,215.38 704.47,193.73 706.90,179.69 709.34,169.28 714.22,161.00 721.53,167.96 723.97,165.15 726.41,159.88 728.85,158.77 731.29,155.86 738.60,160.46 741.04,161.78 743.48,151.67 745.92,148.10 748.36,164.64 755.67,166.94 758.11,171.09 760.55,187.77 762.99,176.45 765.42,162.76 772.74,153.27 775.18,146.26 777.62,140.84 782.49,141.00 789.81,146.50 792.25,148.39 794.68,159.78 799.56,156.98 806.88,146.80 809.32,137.64 811.75,142.63 814.19,142.79 816.63,132.58 823.95,130.14 826.38,133.25 828.82,140.88 831.26,136.67 833.70,137.97 843.45,169.50 845.89,151.99 848.33,143.97 850.77,143.41 858.08,135.58 860.52,129.40 862.96,129.55 865.40,132.64 867.84,137.28 875.15,129.58 877.59,142.74 880.03,150.22 882.47,169.41 884.90,140.30 892.22,132.85 894.66,136.94 897.10,137.30 899.53,161.24 901.97,160.16 911.73,157.70 914.16,150.00 916.60,154.05 919.04,142.97 926.36,158.73 928.79,147.62 931.23,134.64 933.67,143.26 936.11,150.67 943.42,149.80 945.86,163.34 948.30,152.60 950.74,161.15 953.18,181.14 960.49,167.96 962.93,170.40 965.37,172.30 967.81,195.29 970.25,203.74 977.56,188.64 980.00,184.70" />
<line x1="1000" y1="84" x2="1032" y2="84" stroke="#1d4ed8" stroke-width="2.5" /><text x="1042" y="89" font-size="16" fill="#0f172a">configured_baseline</text><line x1="1000" y1="112" x2="1032" y2="112" stroke="#0f766e" stroke-width="2.5" /><text x="1042" y="117" font-size="16" fill="#0f172a">ridge_walkforward</text><line x1="1000" y1="140" x2="1032" y2="140" stroke="#7c3aed" stroke-width="2.5" /><text x="1042" y="145" font-size="16" fill="#0f172a">tree_walkforward</text><line x1="1000" y1="168" x2="1032" y2="168" stroke="#db2777" stroke-width="2.5" /><text x="1042" y="173" font-size="16" fill="#0f172a">mlp_walkforward</text><line x1="1000" y1="196" x2="1032" y2="196" stroke="#b45309" stroke-width="3" /><text x="1042" y="201" font-size="16" fill="#0f172a">benchmark</text>
</svg>
