<svg xmlns="http://www.w3.org/2000/svg" width="1200" height="720" viewBox="0 0 1200 720">
<rect width="1200" height="720" fill="#f8fafc" />
<text x="90" y="32" font-size="28" font-family="Segoe UI, Arial, sans-serif" fill="#0f172a">US Stocks Strategy Value - Last 251 Trading Days</text>
<text x="90" y="54" font-size="15" font-family="Segoe UI, Arial, sans-serif" fill="#475569">Initial capital assumed: $100,000</text>
<rect x="90" y="60" width="890" height="580" fill="#ffffff" stroke="#cbd5e1" />
<line x1="90" y1="640.00" x2="980" y2="640.00" stroke="#e2e8f0" stroke-width="1" /><text x="78" y="645.00" font-size="14" text-anchor="end" fill="#475569">$84,706</text><line x1="90" y1="495.00" x2="980" y2="495.00" stroke="#e2e8f0" stroke-width="1" /><text x="78" y="500.00" font-size="14" text-anchor="end" fill="#475569">$95,933</text><line x1="90" y1="350.00" x2="980" y2="350.00" stroke="#e2e8f0" stroke-width="1" /><text x="78" y="355.00" font-size="14" text-anchor="end" fill="#475569">$107,160</text><line x1="90" y1="205.00" x2="980" y2="205.00" stroke="#e2e8f0" stroke-width="1" /><text x="78" y="210.00" font-size="14" text-anchor="end" fill="#475569">$118,388</text><line x1="90" y1="60.00" x2="980" y2="60.00" stroke="#e2e8f0" stroke-width="1" /><text x="78" y="65.00" font-size="14" text-anchor="end" fill="#475569">$129,615</text>
<line x1="90.00" y1="60" x2="90.00" y2="640" stroke="#f1f5f9" stroke-width="1" /><text x="90.00" y="668" font-size="14" text-anchor="middle" fill="#475569">2025-03-17</text><line x1="535.00" y1="60" x2="535.00" y2="640" stroke="#f1f5f9" stroke-width="1" /><text x="535.00" y="668" font-size="14" text-anchor="middle" fill="#475569">2025-09-15</text><line x1="980.00" y1="60" x2="980.00" y2="640" stroke="#f1f5f9" stroke-width="1" /><text x="980.00" y="668" font-size="14" text-anchor="middle" fill="#475569">2026-03-16</text>
<polyline fill="none" stroke="#1d4ed8" stroke-width="2.5" points="90.00,442.48 92.45,452.98 94.89,447.29 97.34,446.54 99.78,447.45 107.12,427.95 109.56,435.21 112.01,439.48 114.45,432.06 116.90,446.27 124.23,430.78 126.68,445.14 129.12,448.28 131.57,455.60 134.01,527.48 141.35,542.19 143.79,553.08 146.24,508.00 148.68,530.72 151.13,512.26 158.46,504.52 160.91,509.41 163.35,514.72 165.80,530.75 175.58,557.10 178.02,536.02 180.47,538.81 182.91,539.91 185.36,538.13 192.69,529.11 195.14,529.39 197.58,533.14 200.03,550.67 202.47,530.13 209.81,534.10 212.25,544.80 214.70,534.14 217.14,543.43 219.59,549.63 226.92,539.75 229.37,540.69 231.81,546.27 234.26,526.51 236.70,513.66 244.04,509.66 246.48,510.44 248.93,522.92 251.37,529.06 253.82,531.76 263.60,514.79 266.04,517.05 268.49,515.68 270.93,500.35 278.27,494.16 280.71,482.93 283.16,481.80 285.60,504.83 288.05,500.50 295.38,497.99 297.83,487.09 300.27,479.37 302.72,478.27 305.16,500.76 312.50,485.38 314.95,493.59 317.39,500.33 322.28,503.92 329.62,477.29 332.06,457.34 334.51,459.20 336.95,448.97 339.40,444.71 346.73,434.68 349.18,462.30 351.62,446.71 354.07,429.41 363.85,441.47 366.29,442.57 368.74,428.23 371.18,425.78 373.63,429.02 380.96,426.42 383.41,405.89 385.85,399.87 388.30,382.94 390.74,398.21 398.08,392.65 400.52,416.77 402.97,400.52 405.41,388.51 407.86,380.55 415.19,366.72 417.64,366.57 420.08,355.17 422.53,343.05 424.97,384.54 432.31,351.45 434.75,359.85 437.20,355.18 439.64,350.41 442.09,341.37 449.42,343.47 451.87,324.48 454.31,328.93 456.76,323.30 459.20,327.58 466.54,332.04 468.98,372.81 471.43,383.06 473.87,390.17 476.32,364.24 483.65,367.43 486.10,362.15 488.54,358.80 490.99,344.03 493.43,378.33 503.21,378.99 505.66,367.42 508.10,360.27 510.55,367.13 517.88,368.50 520.33,348.60 522.77,349.56 525.22,331.77 527.66,332.64 535.00,325.01 537.45,324.03 539.89,315.39 542.34,320.79 544.78,314.33 552.12,310.40 554.56,302.83 557.01,304.39 559.45,301.69 561.90,296.29 569.23,302.44 571.68,300.07 574.12,275.23 576.57,284.20 579.01,288.43 586.35,279.57 588.79,292.45 591.24,279.24 593.68,276.26 596.13,316.46 603.46,269.78 605.91,291.46 608.35,278.62 610.80,272.12 613.24,273.18 620.58,267.52 623.02,281.45 625.47,289.59 627.91,276.12 630.36,266.27 637.69,240.70 640.14,228.14 642.58,216.57 645.03,234.74 647.47,238.12 654.81,227.12 657.25,249.55 659.70,229.10 662.14,245.59 664.59,263.71 671.92,226.90 674.37,224.54 676.81,206.88 679.26,245.95 681.70,246.79 689.04,254.93 691.48,262.62 693.93,249.36 696.37,279.48 698.82,267.79 706.15,209.97 708.60,197.55 711.04,183.27 715.93,179.75 723.27,197.68 725.71,200.76 728.16,197.04 730.60,209.65 733.05,208.11 740.38,215.74 742.83,219.20 745.27,203.41 747.72,197.26 750.16,212.78 757.50,215.03 759.95,227.95 762.39,245.28 764.84,237.23 767.28,225.24 774.62,216.64 777.06,211.85 779.51,204.51 784.40,202.82 791.73,201.48 794.18,204.40 796.62,213.46 801.51,208.10 808.85,201.02 811.29,194.69 813.74,191.62 816.18,184.54 818.63,187.73 825.96,186.33 828.41,202.13 830.85,198.53 833.30,211.28 835.74,216.86 845.52,233.61 847.97,215.97 850.41,208.36 852.86,218.31 860.19,211.83 862.64,209.71 865.08,211.17 867.53,207.10 869.97,203.41 877.31,188.47 879.75,154.83 882.20,139.44 884.64,136.69 887.09,119.59 894.42,132.29 896.87,142.35 899.31,122.59 901.76,124.21 904.20,125.98 913.98,142.36 916.43,131.27 918.87,132.26 921.32,133.17 928.65,114.56 931.10,111.61 933.54,117.54 935.99,131.86 938.43,100.00 945.77,110.21 948.21,126.21 950.66,138.02 953.10,162.30 955.55,161.04 962.88,151.50 965.33,155.26 967.77,154.32 970.22,150.23 972.66,144.21 980.00,141.88" /><polyline fill="none" stroke="#0f766e" stroke-width="2.5" points="90.00,442.48 92.45,442.48 94.89,442.48 97.34,442.48 99.78,442.48 107.12,442.48 109.56,442.48 112.01,442.48 114.45,442.48 116.90,442.48 124.23,443.72 126.68,454.35 129.12,453.39 131.57,485.81 134.01,559.47 141.35,559.27 143.79,574.86 146.24,491.95 148.68,529.95 151.13,504.76 158.46,497.47 160.91,498.60 163.35,519.68 165.80,514.06 175.58,540.04 178.02,517.45 180.47,507.36 182.91,494.25 185.36,480.67 192.69,474.75 195.14,471.41 197.58,471.45 200.03,469.40 202.47,447.73 209.81,449.95 212.25,454.79 214.70,444.34 217.14,444.94 219.59,446.56 226.92,433.29 229.37,425.26 231.81,422.09 234.26,404.12 236.70,397.04 244.04,394.15 246.48,395.48 248.93,409.89 251.37,413.94 253.82,418.70 263.60,398.51 266.04,399.55 268.49,398.91 270.93,383.61 278.27,374.24 280.71,369.35 283.16,364.58 285.60,375.20 288.05,378.48 295.38,385.48 297.83,382.38 300.27,378.35 302.72,378.44 305.16,405.45 312.50,397.53 314.95,402.29 317.39,414.63 322.28,414.07 329.62,392.87 332.06,372.43 334.51,381.10 336.95,374.86 339.40,367.15 346.73,351.91 349.18,369.64 351.62,354.16 354.07,334.59 363.85,345.32 366.29,356.01 368.74,343.31 371.18,347.37 373.63,358.59 380.96,353.13 383.41,347.88 385.85,345.36 388.30,326.54 390.74,337.59 398.08,330.32 400.52,350.06 402.97,334.50 405.41,326.98 407.86,322.45 415.19,316.46 417.64,323.01 420.08,313.60 422.53,310.57 424.97,332.28 432.31,294.51 434.75,302.37 437.20,304.48 439.64,298.98 442.09,286.34 449.42,287.06 451.87,269.73 454.31,270.29 456.76,265.51 459.20,268.11 466.54,271.44 468.98,308.75 471.43,310.44 473.87,316.22 476.32,292.23 483.65,298.06 486.10,292.13 488.54,291.07 490.99,278.61 493.43,306.64 503.21,310.15 505.66,296.31 508.10,288.35 510.55,294.12 517.88,289.29 520.33,277.57 522.77,261.39 525.22,261.43 527.66,263.05 535.00,247.21 537.45,242.62 539.89,242.66 542.34,248.40 544.78,249.04 552.12,253.42 554.56,261.51 557.01,261.68 559.45,266.82 561.90,269.07 569.23,273.68 571.68,280.25 574.12,258.83 576.57,279.37 579.01,272.57 586.35,268.01 588.79,276.09 591.24,280.84 593.68,285.72 596.13,305.59 603.46,289.46 605.91,279.12 608.35,263.78 610.80,276.90 613.24,262.37 620.58,252.13 623.02,256.96 625.47,259.15 627.91,254.12 630.36,256.13 637.69,251.03 640.14,255.09 642.58,262.35 645.03,262.39 647.47,261.82 654.81,261.60 657.25,289.54 659.70,271.69 662.14,296.23 664.59,309.97 671.92,272.01 674.37,271.10 676.81,259.19 679.26,297.22 681.70,294.81 689.04,301.73 691.48,309.33 693.93,298.58 696.37,328.86 698.82,318.76 706.15,257.78 708.60,249.52 711.04,235.85 715.93,233.25 723.27,256.09 725.71,264.27 728.16,255.57 730.60,266.07 733.05,265.68 740.38,271.55 742.83,277.77 745.27,256.90 747.72,257.29 750.16,272.58 757.50,269.89 759.95,282.17 762.39,299.00 764.84,291.44 767.28,273.58 774.62,260.18 777.06,255.53 779.51,250.39 784.40,248.70 791.73,250.20 794.18,252.24 796.62,262.10 801.51,255.74 808.85,257.35 811.29,253.87 813.74,240.54 816.18,245.45 818.63,245.67 825.96,238.68 828.41,241.78 830.85,245.02 833.30,254.45 835.74,257.60 845.52,282.78 847.97,258.00 850.41,249.36 852.86,256.25 860.19,258.45 862.64,259.53 865.08,264.51 867.53,260.07 869.97,247.24 877.31,233.76 879.75,226.92 882.20,259.82 884.64,280.84 887.09,252.64 894.42,247.19 896.87,259.11 899.31,250.14 901.76,266.40 904.20,268.60 913.98,280.59 916.43,270.71 918.87,269.08 921.32,265.70 928.65,261.84 931.10,242.52 933.54,244.42 935.99,272.90 938.43,261.58 945.77,268.03 948.21,278.54 950.66,283.92 953.10,305.22 955.55,304.11 962.88,297.76 965.33,303.76 967.77,299.15 970.22,297.87 972.66,296.13 980.00,294.33" /><polyline fill="none" stroke="#7c3aed" stroke-width="2.5" points="90.00,442.48 92.45,442.48 94.89,442.48 97.34,442.48 99.78,442.48 107.12,442.48 109.56,442.48 112.01,442.48 114.45,442.48 116.90,442.48 124.23,443.72 126.68,449.81 129.12,443.89 131.57,468.76 134.01,551.64 141.35,562.69 143.79,586.84 146.24,499.25 148.68,537.52 151.13,520.57 158.46,510.48 160.91,511.07 163.35,535.63 165.80,527.21 175.58,557.18 178.02,531.29 180.47,519.80 182.91,510.98 185.36,486.44 192.69,480.18 195.14,472.61 197.58,479.09 200.03,477.06 202.47,455.52 209.81,457.72 212.25,462.54 214.70,452.16 217.14,452.75 219.59,454.36 226.92,441.17 229.37,433.19 231.81,430.03 234.26,412.17 236.70,405.14 244.04,402.27 246.48,403.58 248.93,417.91 251.37,421.93 253.82,426.67 263.60,406.60 266.04,407.63 268.49,407.00 270.93,392.11 278.27,384.17 280.71,380.19 283.16,379.62 285.60,391.09 288.05,391.73 295.38,396.24 297.83,389.17 300.27,388.57 302.72,386.56 305.16,412.58 312.50,408.32 314.95,415.34 317.39,429.48 322.28,431.07 329.62,411.36 332.06,393.53 334.51,401.48 336.95,399.56 339.40,393.59 346.73,380.55 349.18,394.84 351.62,384.10 354.07,364.55 363.85,374.29 366.29,386.93 368.74,375.18 371.18,381.03 373.63,392.19 380.96,386.13 383.41,386.64 385.85,384.88 388.30,366.19 390.74,376.91 398.08,368.86 400.52,385.44 402.97,373.72 405.41,367.63 407.86,362.09 415.19,359.74 417.64,364.92 420.08,359.08 422.53,348.35 424.97,392.42 432.31,362.40 434.75,369.35 437.20,364.34 439.64,360.14 442.09,347.54 449.42,349.00 451.87,327.64 454.31,330.24 456.76,323.55 459.20,329.82 466.54,329.75 468.98,367.64 471.43,375.71 473.87,382.95 476.32,353.74 483.65,355.98 486.10,347.36 488.54,345.10 490.99,330.78 493.43,361.57 503.21,371.11 505.66,354.12 508.10,338.64 510.55,343.62 517.88,336.21 520.33,320.90 522.77,306.18 525.22,309.92 527.66,308.55 535.00,291.78 537.45,291.64 539.89,302.21 542.34,297.06 544.78,293.67 552.12,293.91 554.56,309.14 557.01,312.65 559.45,319.71 561.90,318.90 569.23,314.61 571.68,316.86 574.12,303.99 576.57,315.32 579.01,317.92 586.35,314.91 588.79,324.48 591.24,318.06 593.68,320.59 596.13,356.18 603.46,318.61 605.91,326.66 608.35,310.17 610.80,314.21 613.24,301.94 620.58,293.62 623.02,307.22 625.47,313.09 627.91,304.74 630.36,295.80 637.69,272.65 640.14,260.41 642.58,250.58 645.03,255.32 647.47,260.86 654.81,252.31 657.25,283.71 659.70,270.71 662.14,301.65 664.59,310.98 671.92,277.11 674.37,288.02 676.81,278.94 679.26,320.10 681.70,319.04 689.04,333.77 691.48,357.28 693.93,348.67 696.37,383.89 698.82,386.73 706.15,339.03 708.60,341.94 711.04,321.13 715.93,310.93 723.27,322.19 725.71,323.01 728.16,315.17 730.60,324.63 733.05,323.49 740.38,330.26 742.83,328.44 745.27,314.10 747.72,318.23 750.16,336.59 757.50,346.53 759.95,355.33 762.39,368.65 764.84,359.81 767.28,349.08 774.62,344.70 777.06,340.02 779.51,334.47 784.40,333.19 791.73,332.47 794.18,334.86 796.62,344.47 801.51,336.19 808.85,328.21 811.29,326.71 813.74,325.94 816.18,322.20 818.63,320.35 825.96,315.68 828.41,321.17 830.85,331.52 833.30,336.15 835.74,337.39 845.52,363.72 847.97,342.04 850.41,334.19 852.86,343.91 860.19,346.16 862.64,349.08 865.08,350.99 867.53,344.09 869.97,333.56 877.31,320.87 879.75,314.42 882.20,345.41 884.64,365.21 887.09,338.65 894.42,333.51 896.87,344.75 899.31,336.29 901.76,351.61 904.20,353.69 913.98,364.98 916.43,355.67 918.87,354.14 921.32,350.95 928.65,347.31 931.10,329.12 933.54,330.91 935.99,357.74 938.43,347.07 945.77,353.47 948.21,362.84 950.66,369.49 953.10,388.56 955.55,387.65 962.88,382.20 965.33,386.93 967.77,382.48 970.22,380.00 972.66,378.86 980.00,373.96" /><polyline fill="none" stroke="#db2777" stroke-width="2.5" points="90.00,442.48 92.45,442.48 94.89,442.48 97.34,442.48 99.78,442.48 107.12,442.48 109.56,442.48 112.01,442.48 114.45,442.48 116.90,442.48 124.23,443.72 126.68,462.72 129.12,464.01 131.57,471.88 134.01,542.74 141.35,558.60 143.79,582.82 146.24,535.63 148.68,563.53 151.13,547.48 158.46,531.44 160.91,541.48 163.35,552.64 165.80,540.40 175.58,558.36 178.02,535.83 180.47,539.88 182.91,550.07 185.36,549.18 192.69,541.35 195.14,534.91 197.58,534.23 200.03,532.29 202.47,511.69 209.81,513.80 212.25,518.40 214.70,508.48 217.14,509.04 219.59,510.58 226.92,497.97 229.37,490.34 231.81,487.33 234.26,470.25 236.70,463.52 244.04,460.78 246.48,462.04 248.93,475.74 251.37,479.58 253.82,484.11 263.60,464.92 266.04,465.91 268.49,465.30 270.93,450.76 278.27,441.86 280.71,437.21 283.16,432.68 285.60,442.77 288.05,445.89 295.38,452.54 297.83,449.59 300.27,445.76 302.72,445.85 305.16,471.52 312.50,463.99 314.95,468.51 317.39,480.24 322.28,479.70 329.62,459.56 332.06,440.14 334.51,448.38 336.95,442.45 339.40,435.12 346.73,420.95 349.18,433.66 351.62,420.01 354.07,402.12 363.85,407.98 366.29,415.39 368.74,403.31 371.18,409.23 373.63,418.70 380.96,414.41 383.41,407.77 385.85,404.15 388.30,389.64 390.74,393.33 398.08,388.32 400.52,403.06 402.97,389.32 405.41,379.39 407.86,373.76 415.19,367.13 417.64,370.72 420.08,366.23 422.53,350.56 424.97,380.02 432.31,341.60 434.75,352.82 437.20,353.86 439.64,352.01 442.09,338.78 449.42,340.05 451.87,320.97 454.31,326.69 456.76,324.17 459.20,329.08 466.54,333.16 468.98,370.98 471.43,376.24 473.87,382.24 476.32,359.25 483.65,363.39 486.10,359.10 488.54,356.30 490.99,343.34 493.43,373.75 503.21,379.29 505.66,371.67 508.10,358.06 510.55,375.21 517.88,372.80 520.33,359.42 522.77,366.92 525.22,359.37 527.66,365.33 535.00,352.56 537.45,340.40 539.89,333.50 542.34,339.45 544.78,340.74 552.12,348.66 554.56,359.65 557.01,359.45 559.45,363.15 561.90,359.10 569.23,364.54 571.68,376.19 574.12,358.01 576.57,366.87 579.01,360.07 586.35,363.36 588.79,364.68 591.24,365.42 593.68,367.41 596.13,386.98 603.46,378.80 605.91,370.82 608.35,360.87 610.80,365.62 613.24,353.58 620.58,349.19 623.02,350.09 625.47,348.99 627.91,346.56 630.36,341.40 637.69,338.64 640.14,334.48 642.58,336.91 645.03,339.58 647.47,349.07 654.81,348.31 657.25,364.23 659.70,354.93 662.14,377.02 664.59,376.15 671.92,353.18 674.37,344.56 676.81,339.52 679.26,360.93 681.70,356.60 689.04,369.67 691.48,380.10 693.93,393.12 696.37,418.17 698.82,412.60 706.15,386.21 708.60,380.49 711.04,370.16 715.93,360.08 723.27,366.30 725.71,372.17 728.16,359.08 730.60,363.98 733.05,368.57 740.38,376.45 742.83,384.98 745.27,366.83 747.72,355.68 750.16,349.92 757.50,339.43 759.95,356.32 762.39,357.13 764.84,361.00 767.28,350.69 774.62,343.62 777.06,345.31 779.51,340.57 784.40,340.71 791.73,339.54 794.18,341.38 796.62,348.76 801.51,330.75 808.85,322.19 811.29,323.67 813.74,320.05 816.18,324.15 818.63,320.05 825.96,316.03 828.41,316.23 830.85,307.97 833.30,316.87 835.74,315.28 845.52,329.38 847.97,305.95 850.41,302.05 852.86,307.50 860.19,305.07 862.64,302.54 865.08,309.26 867.53,302.05 869.97,295.34 877.31,284.01 879.75,271.78 882.20,299.20 884.64,316.15 887.09,283.21 894.42,280.98 896.87,292.15 899.31,275.20 901.76,289.20 904.20,290.23 913.98,298.00 916.43,289.14 918.87,288.52 921.32,290.09 928.65,282.81 931.10,263.09 933.54,266.65 935.99,291.53 938.43,280.19 945.77,289.52 948.21,300.52 950.66,307.50 953.10,326.83 955.55,326.26 962.88,319.88 965.33,326.40 967.77,321.91 970.22,320.02 972.66,317.38 980.00,315.73" /><polyline fill="none" stroke="#b45309" stroke-width="3" points="90.00,442.48 92.45,456.43 94.89,442.52 97.34,446.26 99.78,445.83 107.12,422.76 109.56,419.61 112.01,435.30 114.45,438.75 116.90,464.83 124.23,456.31 126.68,452.71 129.12,444.60 131.57,508.14 134.01,579.90 141.35,581.96 143.79,600.00 146.24,480.91 148.68,535.82 151.13,514.44 158.46,502.61 160.91,506.06 163.35,533.35 165.80,531.64 175.58,560.26 178.02,529.72 180.47,511.06 182.91,485.32 185.36,476.30 192.69,475.82 195.14,467.89 197.58,467.39 200.03,458.42 202.47,439.48 209.81,446.90 212.25,457.66 214.70,452.29 217.14,443.36 219.59,445.01 226.92,402.41 229.37,393.62 231.81,391.91 234.26,385.35 236.70,376.81 244.04,375.32 246.48,379.89 248.93,402.71 251.37,402.18 253.82,411.27 263.60,383.77 266.04,391.59 268.49,386.29 270.93,387.79 278.27,380.21 280.71,372.49 283.16,372.86 285.60,379.44 288.05,365.53 295.38,364.29 297.83,356.53 300.27,360.46 302.72,355.00 305.16,370.41 312.50,357.44 314.95,369.20 317.39,369.41 322.28,372.61 329.62,359.17 332.06,343.98 334.51,343.20 336.95,332.32 339.40,325.36 346.73,318.62 349.18,319.08 351.62,312.66 354.07,301.46 363.85,312.14 366.29,312.92 368.74,304.40 371.18,300.36 373.63,305.40 380.96,302.68 383.41,308.79 385.85,304.03 388.30,295.28 390.74,296.33 398.08,293.61 400.52,293.40 402.97,281.14 405.41,280.66 407.86,274.52 415.19,274.89 417.64,278.74 420.08,280.57 422.53,286.02 424.97,309.76 432.31,288.11 434.75,295.44 437.20,284.42 439.64,285.63 442.09,274.34 449.42,277.23 451.87,261.72 454.31,256.68 456.76,256.54 459.20,260.00 466.54,260.32 468.98,268.32 471.43,272.21 473.87,278.07 476.32,255.72 483.65,262.22 486.10,256.06 488.54,252.69 490.99,247.45 493.43,256.31 503.21,267.26 505.66,259.31 508.10,246.99 510.55,251.30 517.88,247.65 520.33,244.22 522.77,239.91 525.22,227.49 527.66,228.00 535.00,219.98 537.45,222.07 539.89,223.94 542.34,216.89 544.78,209.37 552.12,202.16 554.56,210.50 557.01,215.35 559.45,222.35 561.90,213.69 569.23,209.42 571.68,203.68 574.12,198.46 576.57,196.70 579.01,196.72 586.35,191.20 588.79,196.92 591.24,187.76 593.68,192.24 596.13,233.91 603.46,210.89 605.91,212.75 608.35,206.00 610.80,216.40 613.24,207.79 620.58,191.92 623.02,191.94 625.47,199.96 627.91,190.86 630.36,178.25 637.69,159.90 640.14,155.71 642.58,154.96 645.03,172.32 647.47,167.20 654.81,164.26 657.25,182.87 659.70,177.49 662.14,194.19 664.59,192.68 671.92,168.62 674.37,165.04 676.81,164.17 679.26,190.22 681.70,190.47 689.04,204.85 691.48,217.69 693.93,211.83 696.37,235.03 698.82,220.10 706.15,197.82 708.60,183.37 711.04,172.67 715.93,164.15 723.27,171.31 725.71,168.42 728.16,163.00 730.60,161.85 733.05,158.86 740.38,163.59 742.83,164.95 745.27,154.54 747.72,150.87 750.16,167.89 757.50,170.26 759.95,174.53 762.39,191.69 764.84,180.04 767.28,165.96 774.62,156.19 777.06,148.98 779.51,143.40 784.40,143.56 791.73,149.23 794.18,151.17 796.62,162.89 801.51,160.01 808.85,149.53 811.29,140.11 813.74,145.25 816.18,145.41 818.63,134.90 825.96,132.39 828.41,135.59 830.85,143.45 833.30,139.12 835.74,140.45 845.52,172.89 847.97,154.88 850.41,146.63 852.86,146.05 860.19,137.99 862.64,131.63 865.08,131.79 867.53,134.97 869.97,139.74 877.31,131.81 879.75,145.36 882.20,153.06 884.64,172.80 887.09,142.85 894.42,135.18 896.87,139.39 899.31,139.76 901.76,164.39 904.20,163.28 913.98,160.75 916.43,152.83 918.87,157.00 921.32,145.59 928.65,161.81 931.10,150.38 933.54,137.02 935.99,145.89 938.43,153.52 945.77,152.62 948.21,166.56 950.66,155.50 953.10,164.30 955.55,184.87 962.88,171.30 965.33,173.81 967.77,175.77 970.22,199.43 972.66,208.12 980.00,192.59" />
<line x1="1000" y1="84" x2="1032" y2="84" stroke="#1d4ed8" stroke-width="2.5" /><text x="1042" y="89" font-size="16" fill="#0f172a">configured_baseline</text><line x1="1000" y1="112" x2="1032" y2="112" stroke="#0f766e" stroke-width="2.5" /><text x="1042" y="117" font-size="16" fill="#0f172a">ridge_walkforward</text><line x1="1000" y1="140" x2="1032" y2="140" stroke="#7c3aed" stroke-width="2.5" /><text x="1042" y="145" font-size="16" fill="#0f172a">tree_walkforward</text><line x1="1000" y1="168" x2="1032" y2="168" stroke="#db2777" stroke-width="2.5" /><text x="1042" y="173" font-size="16" fill="#0f172a">mlp_walkforward</text><line x1="1000" y1="196" x2="1032" y2="196" stroke="#b45309" stroke-width="3" /><text x="1042" y="201" font-size="16" fill="#0f172a">benchmark</text>
</svg>
