<svg xmlns="http://www.w3.org/2000/svg" width="1200" height="720" viewBox="0 0 1200 720">
<rect width="1200" height="720" fill="#f8fafc" />
<text x="90" y="32" font-size="28" font-family="Segoe UI, Arial, sans-serif" fill="#0f172a">US Stocks Strategy Value - Last 252 Trading Days</text>
<text x="90" y="54" font-size="15" font-family="Segoe UI, Arial, sans-serif" fill="#475569">Initial capital assumed: $100,000</text>
<rect x="90" y="60" width="890" height="580" fill="#ffffff" stroke="#cbd5e1" />
<line x1="90" y1="640.00" x2="980" y2="640.00" stroke="#e2e8f0" stroke-width="1" /><text x="78" y="645.00" font-size="14" text-anchor="end" fill="#475569">$82,398</text><line x1="90" y1="495.00" x2="980" y2="495.00" stroke="#e2e8f0" stroke-width="1" /><text x="78" y="500.00" font-size="14" text-anchor="end" fill="#475569">$97,543</text><line x1="90" y1="350.00" x2="980" y2="350.00" stroke="#e2e8f0" stroke-width="1" /><text x="78" y="355.00" font-size="14" text-anchor="end" fill="#475569">$112,688</text><line x1="90" y1="205.00" x2="980" y2="205.00" stroke="#e2e8f0" stroke-width="1" /><text x="78" y="210.00" font-size="14" text-anchor="end" fill="#475569">$127,832</text><line x1="90" y1="60.00" x2="980" y2="60.00" stroke="#e2e8f0" stroke-width="1" /><text x="78" y="65.00" font-size="14" text-anchor="end" fill="#475569">$142,977</text>
<line x1="90.00" y1="60" x2="90.00" y2="640" stroke="#f1f5f9" stroke-width="1" /><text x="90.00" y="668" font-size="14" text-anchor="middle" fill="#475569">2025-03-17</text><line x1="536.22" y1="60" x2="536.22" y2="640" stroke="#f1f5f9" stroke-width="1" /><text x="536.22" y="668" font-size="14" text-anchor="middle" fill="#475569">2025-09-16</text><line x1="980.00" y1="60" x2="980.00" y2="640" stroke="#f1f5f9" stroke-width="1" /><text x="980.00" y="668" font-size="14" text-anchor="middle" fill="#475569">2026-03-17</text>
<polyline fill="none" stroke="#1d4ed8" stroke-width="2.5" points="90.00,471.47 92.44,483.64 94.88,471.96 97.32,473.88 99.75,469.26 107.07,452.55 109.51,448.83 111.95,455.86 114.38,454.54 116.82,472.78 124.14,467.92 126.58,477.81 129.01,478.46 131.45,503.01 133.89,556.44 141.21,562.87 143.64,575.89 146.08,528.59 148.52,553.76 150.96,539.01 158.27,535.36 160.71,539.10 163.15,546.15 165.59,558.44 175.34,577.16 177.78,563.89 180.22,563.59 182.66,557.48 185.10,553.39 192.41,547.77 194.85,549.66 197.29,552.48 199.73,563.13 202.16,545.67 209.48,548.93 211.92,556.96 214.36,549.24 216.79,550.19 219.23,553.54 226.55,539.49 228.99,534.91 231.42,541.43 233.86,528.78 236.30,521.13 243.62,517.21 246.05,517.82 248.49,528.17 250.93,529.79 253.37,533.87 263.12,520.60 265.56,520.09 268.00,515.74 270.44,506.05 277.75,497.64 280.19,490.14 282.63,485.03 285.07,487.17 287.51,487.00 294.82,487.06 297.26,488.39 299.70,484.82 302.14,486.40 304.58,505.12 311.89,493.48 314.33,498.24 316.77,501.61 321.64,502.78 328.96,491.53 331.40,473.65 333.84,469.71 336.27,457.19 338.71,445.17 346.03,438.52 348.47,459.99 350.90,447.20 353.34,434.92 363.10,444.58 365.53,443.96 367.97,433.31 370.41,431.41 372.85,434.03 380.16,431.40 382.60,416.66 385.04,410.67 387.48,400.00 389.92,411.80 397.23,407.83 399.67,427.35 402.11,414.26 404.55,404.75 406.99,397.88 414.30,388.11 416.74,386.03 419.18,378.64 421.62,369.46 424.05,398.01 431.37,373.94 433.81,380.13 436.25,377.89 438.68,372.72 441.12,365.67 448.44,366.62 450.88,354.07 453.32,360.81 455.75,356.47 458.19,361.12 465.51,361.30 467.95,390.89 470.38,397.86 472.82,400.80 475.26,384.58 482.58,386.72 485.01,379.40 487.45,375.98 489.89,364.08 492.33,388.61 502.08,395.46 504.52,390.76 506.96,385.02 509.40,389.11 516.71,387.74 519.15,369.19 521.59,366.55 524.03,356.97 526.47,362.34 533.78,355.65 536.22,354.65 538.66,350.90 541.10,322.53 543.53,326.50 550.85,329.80 553.29,320.90 555.73,313.90 558.16,303.80 560.60,292.02 567.92,299.94 570.36,306.14 572.79,296.42 575.23,292.45 577.67,294.75 584.99,290.28 587.42,294.54 589.86,291.71 592.30,289.48 594.74,319.86 602.05,290.87 604.49,302.22 606.93,291.14 609.37,294.05 611.81,298.18 619.12,287.57 621.56,293.02 624.00,309.95 626.44,293.57 628.88,275.28 636.19,251.38 638.63,238.80 641.07,236.59 643.51,247.33 645.95,246.41 653.26,236.96 655.70,270.36 658.14,257.94 660.58,284.85 663.01,288.99 670.33,259.94 672.77,269.13 675.21,256.29 677.64,282.23 680.08,282.83 687.40,291.65 689.84,310.77 692.27,295.90 694.71,330.77 697.15,322.01 704.47,278.06 706.90,279.78 709.34,266.16 714.22,246.45 721.53,262.16 723.97,250.39 726.41,246.87 728.85,263.75 731.29,255.36 738.60,260.67 741.04,261.57 743.48,246.08 745.92,253.59 748.36,275.82 755.67,276.93 758.11,287.67 760.55,310.52 762.99,302.97 765.42,289.84 772.74,290.15 775.18,287.94 777.62,284.85 782.49,283.83 789.81,283.94 792.25,282.68 794.68,289.51 799.56,283.96 806.88,276.23 809.32,275.56 811.75,270.18 814.19,273.67 816.63,273.12 823.95,269.11 826.38,272.87 828.82,274.49 831.26,270.74 833.70,276.14 843.45,295.28 845.89,280.33 848.33,270.30 850.77,279.15 858.08,267.66 860.52,264.12 862.96,262.31 865.40,266.36 867.84,266.39 875.15,257.72 877.59,253.70 880.03,247.83 882.47,255.13 884.90,232.83 892.22,228.13 894.66,237.12 897.10,232.75 899.53,249.30 901.97,248.06 911.73,253.69 914.16,247.62 916.60,256.71 919.04,260.54 926.36,260.98 928.79,249.54 931.23,247.09 933.67,254.77 936.11,253.63 943.42,249.45 945.86,269.75 948.30,269.58 950.74,289.54 953.18,287.75 960.49,284.26 962.93,288.56 965.37,289.41 967.81,300.53 970.25,298.82 977.56,291.08 980.00,296.33" /><polyline fill="none" stroke="#0f766e" stroke-width="2.5" points="90.00,471.47 92.44,471.47 94.88,471.47 97.32,471.47 99.75,471.47 107.07,471.47 109.51,471.47 111.95,471.47 114.38,471.47 116.82,471.47 124.14,472.39 126.58,480.92 129.01,476.57 131.45,505.77 133.89,566.74 141.21,566.37 143.64,586.33 146.08,504.95 148.52,545.04 150.96,531.97 158.27,523.79 160.71,526.97 163.15,547.39 165.59,547.29 175.34,567.96 177.78,549.53 180.22,533.03 182.66,513.05 185.10,508.49 192.41,500.88 194.85,501.02 197.29,504.24 199.73,497.45 202.16,478.58 209.48,481.62 211.92,485.24 214.36,475.62 216.79,469.56 219.23,470.45 226.55,448.86 228.99,430.03 231.42,424.54 233.86,415.50 236.30,411.99 243.62,409.24 246.05,410.25 248.49,422.31 250.93,421.28 253.37,427.24 263.12,409.64 265.56,408.89 268.00,401.09 270.44,397.34 277.75,386.86 280.19,381.38 282.63,376.95 285.07,383.11 287.51,381.89 294.82,384.79 297.26,388.23 299.70,386.91 302.14,389.68 304.58,410.19 311.89,398.79 314.33,404.43 316.77,409.27 321.64,406.89 328.96,391.97 331.40,375.84 333.84,378.91 336.27,366.17 338.71,355.14 346.03,346.72 348.47,363.66 350.90,352.51 353.34,336.01 363.10,340.67 365.53,342.72 367.97,326.83 370.41,325.90 372.85,330.41 380.16,323.59 382.60,316.69 385.04,311.75 387.48,304.97 389.92,307.59 397.23,305.54 399.67,321.91 402.11,303.30 404.55,297.19 406.99,290.29 414.30,284.46 416.74,290.57 419.18,283.95 421.62,277.57 424.05,298.86 431.37,269.91 433.81,278.48 436.25,276.73 438.68,269.82 441.12,259.38 448.44,263.93 450.88,243.98 453.32,253.38 455.75,255.77 458.19,265.42 465.51,268.09 467.95,302.60 470.38,304.67 472.82,309.31 475.26,294.04 482.58,299.18 485.01,282.79 487.45,281.48 489.89,270.56 492.33,298.17 502.08,302.99 504.52,302.94 506.96,293.01 509.40,299.27 516.71,293.18 519.15,287.61 521.59,267.10 524.03,275.46 526.47,274.98 533.78,266.01 536.22,263.27 538.66,271.48 541.10,264.95 543.53,263.76 550.85,261.86 553.29,265.75 555.73,271.13 558.16,275.89 560.60,273.42 567.92,274.43 570.36,272.15 572.79,279.93 575.23,284.85 577.67,280.01 584.99,278.55 587.42,279.00 589.86,277.55 592.30,280.24 594.74,303.82 602.05,287.82 604.49,284.66 606.93,284.06 609.37,290.96 611.81,283.54 619.12,276.47 621.56,278.49 624.00,286.03 626.44,279.96 628.88,269.82 636.19,256.03 638.63,250.46 641.07,252.80 643.51,250.96 645.95,251.76 653.26,252.55 655.70,274.52 658.14,269.76 660.58,281.94 663.01,278.70 670.33,259.90 672.77,261.48 675.21,254.79 677.64,268.59 680.08,264.00 687.40,274.89 689.84,279.84 692.27,262.85 694.71,285.76 697.15,280.09 704.47,252.77 706.90,251.30 709.34,238.28 714.22,220.97 721.53,235.45 723.97,225.17 726.41,220.65 728.85,238.91 731.29,231.72 738.60,242.09 741.04,242.44 743.48,228.89 745.92,238.87 748.36,262.76 755.67,266.08 758.11,274.80 760.55,296.23 762.99,286.51 765.42,271.71 772.74,270.79 775.18,264.55 777.62,261.94 782.49,260.92 789.81,260.06 792.25,258.04 794.68,266.71 799.56,252.22 806.88,240.50 809.32,243.62 811.75,243.53 814.19,244.76 816.63,243.33 823.95,244.60 826.38,246.34 828.82,253.80 831.26,243.43 833.70,243.61 843.45,269.25 845.89,251.00 848.33,243.26 850.77,253.96 858.08,243.24 860.52,239.76 862.96,237.16 865.40,228.89 867.84,228.69 875.15,218.61 877.59,222.42 880.03,252.86 882.47,270.07 884.90,239.69 892.22,225.66 894.66,231.55 897.10,238.29 899.53,280.57 901.97,282.48 911.73,283.22 914.16,270.29 916.60,270.77 919.04,265.23 926.36,274.65 928.79,261.35 931.23,251.61 933.67,268.42 936.11,273.11 943.42,271.07 945.86,294.61 948.30,284.47 950.74,297.09 953.18,311.50 960.49,301.92 962.93,296.16 965.37,287.70 967.81,303.39 970.25,302.23 977.56,295.74 980.00,309.89" /><polyline fill="none" stroke="#7c3aed" stroke-width="2.5" points="90.00,471.47 92.44,471.47 94.88,471.47 97.32,471.47 99.75,471.47 107.07,471.47 109.51,471.47 111.95,471.47 114.38,471.47 116.82,471.47 124.14,472.39 126.58,482.87 129.01,480.35 131.45,523.65 133.89,580.86 141.21,585.03 143.64,600.00 146.08,523.16 148.52,560.21 150.96,541.98 158.27,536.15 160.71,539.54 163.15,554.76 165.59,544.98 175.34,561.35 177.78,547.40 180.22,532.17 182.66,515.74 185.10,503.71 192.41,494.96 194.85,494.84 197.29,492.91 199.73,488.64 202.16,470.66 209.48,475.54 211.92,478.81 214.36,472.50 216.79,465.66 219.23,464.63 226.55,446.59 228.99,433.75 231.42,433.82 233.86,423.92 236.30,421.08 243.62,420.15 246.05,421.15 248.49,432.27 250.93,432.42 253.37,435.82 263.12,421.07 265.56,421.30 268.00,415.84 270.44,409.67 277.75,399.31 280.19,393.90 282.63,389.52 285.07,395.61 287.51,394.40 294.82,397.27 297.26,400.67 299.70,399.36 302.14,402.10 304.58,422.36 311.89,411.09 314.33,416.67 316.77,421.45 321.64,419.10 328.96,404.35 331.40,388.42 333.84,391.45 336.27,378.87 338.71,367.97 346.03,359.14 348.47,376.41 350.90,375.17 353.34,361.17 363.10,364.60 365.53,374.70 367.97,360.79 370.41,362.16 372.85,365.89 380.16,355.39 382.60,358.21 385.04,358.77 387.48,353.18 389.92,359.50 397.23,353.37 399.67,367.20 402.11,353.33 404.55,349.88 406.99,343.47 414.30,342.53 416.74,349.80 419.18,343.78 421.62,343.08 424.05,357.82 431.37,334.18 433.81,339.41 436.25,342.76 438.68,338.97 441.12,332.88 448.44,333.68 450.88,316.07 453.32,319.79 455.75,318.29 458.19,323.98 465.51,325.92 467.95,351.93 470.38,352.44 472.82,356.03 475.26,339.88 482.58,347.33 485.01,332.66 487.45,329.55 489.89,320.55 492.33,339.66 502.08,344.42 504.52,355.02 506.96,349.92 509.40,362.59 516.71,359.21 519.15,352.07 521.59,355.96 524.03,355.81 526.47,363.10 533.78,360.87 536.22,352.83 538.66,347.76 541.10,349.27 543.53,354.76 550.85,361.84 553.29,362.81 555.73,361.60 558.16,364.95 560.60,356.38 567.92,364.01 570.36,372.37 572.79,381.49 575.23,387.16 577.67,381.11 584.99,377.35 587.42,380.53 589.86,386.49 592.30,391.53 594.74,407.59 602.05,388.85 604.49,384.41 606.93,380.95 609.37,390.60 611.81,386.16 619.12,376.64 621.56,382.78 624.00,389.57 626.44,383.78 628.88,372.12 636.19,358.35 638.63,362.22 641.07,362.44 643.51,356.17 645.95,356.17 653.26,350.06 655.70,358.05 658.14,353.72 660.58,358.75 663.01,357.82 670.33,342.55 672.77,336.18 675.21,328.78 677.64,341.26 680.08,345.98 687.40,349.28 689.84,354.41 692.27,343.70 694.71,360.36 697.15,350.72 704.47,334.82 706.90,325.06 709.34,320.31 714.22,310.80 721.53,320.79 723.97,324.46 726.41,315.37 728.85,321.67 731.29,321.76 738.60,331.83 741.04,338.83 743.48,320.28 745.92,317.52 748.36,318.29 755.67,309.88 758.11,326.83 760.55,332.02 762.99,328.24 765.42,320.14 772.74,312.26 775.18,308.33 777.62,303.75 782.49,304.19 789.81,304.43 792.25,304.65 794.68,310.14 799.56,297.29 806.88,291.58 809.32,295.10 811.75,290.12 814.19,293.62 816.63,292.90 823.95,288.61 826.38,281.99 828.82,284.73 831.26,274.62 833.70,276.80 843.45,297.70 845.89,279.71 848.33,272.58 850.77,279.27 858.08,269.48 860.52,263.88 862.96,259.51 865.40,254.29 867.84,254.16 875.15,236.29 877.59,237.18 880.03,274.75 882.47,290.65 884.90,262.20 892.22,251.73 894.66,260.26 897.10,277.71 899.53,315.34 901.97,310.27 911.73,302.34 914.16,295.16 916.60,296.63 919.04,284.93 926.36,307.88 928.79,289.07 931.23,281.02 933.67,289.72 936.11,305.82 943.42,303.84 945.86,326.70 948.30,316.85 950.74,329.11 953.18,343.12 960.49,333.81 962.93,328.21 965.37,319.99 967.81,335.24 970.25,334.11 977.56,327.80 980.00,341.82" /><polyline fill="none" stroke="#db2777" stroke-width="2.5" points="90.00,471.47 92.44,471.47 94.88,471.47 97.32,471.47 99.75,471.47 107.07,471.47 109.51,471.47 111.95,471.47 114.38,471.47 116.82,471.47 124.14,472.39 126.58,486.80 129.01,485.30 131.45,501.90 133.89,564.88 141.21,569.76 143.64,588.09 146.08,525.50 148.52,560.13 150.96,551.00 158.27,538.10 160.71,535.45 163.15,554.51 165.59,535.07 175.34,549.35 177.78,529.63 180.22,519.74 182.66,502.56 185.10,497.53 192.41,491.27 194.85,488.61 197.29,490.22 199.73,486.78 202.16,467.00 209.48,471.36 211.92,476.61 214.36,468.32 216.79,458.60 219.23,456.46 226.55,436.76 228.99,422.37 231.42,427.43 233.86,417.80 236.30,414.19 243.62,413.18 246.05,413.74 248.49,426.74 250.93,427.47 253.37,434.92 263.12,418.31 265.56,418.01 268.00,414.93 270.44,411.89 277.75,401.56 280.19,396.16 282.63,391.79 285.07,397.86 287.51,396.66 294.82,399.52 297.26,402.91 299.70,401.61 302.14,404.34 304.58,424.56 311.89,413.32 314.33,418.88 316.77,423.65 321.64,421.30 328.96,406.59 331.40,390.69 333.84,393.72 336.27,381.16 338.71,370.28 346.03,361.98 348.47,380.26 350.90,375.86 353.34,361.75 363.10,363.86 365.53,367.39 367.97,350.80 370.41,350.25 372.85,351.73 380.16,344.41 382.60,340.13 385.04,338.88 387.48,334.73 389.92,335.96 397.23,332.94 399.67,347.21 402.11,330.94 404.55,324.17 406.99,317.96 414.30,313.99 416.74,321.16 419.18,314.87 421.62,305.34 424.05,326.81 431.37,298.23 433.81,305.62 436.25,306.57 438.68,302.12 441.12,295.33 448.44,298.00 450.88,275.45 453.32,282.45 455.75,282.17 458.19,288.48 465.51,292.60 467.95,327.78 470.38,330.63 472.82,335.85 475.26,316.77 482.58,322.01 485.01,306.60 487.45,305.29 489.89,296.27 492.33,323.23 502.08,326.76 504.52,330.72 506.96,321.89 509.40,321.63 516.71,317.43 519.15,314.79 521.59,302.00 524.03,315.32 526.47,319.49 533.78,309.34 536.22,302.68 538.66,312.73 541.10,277.90 543.53,283.01 550.85,293.61 553.29,289.09 555.73,280.91 558.16,277.31 560.60,267.40 567.92,275.15 570.36,280.21 572.79,290.03 575.23,296.64 577.67,291.17 584.99,286.68 587.42,291.13 589.86,292.04 592.30,294.21 594.74,318.73 602.05,301.89 604.49,302.60 606.93,300.67 609.37,311.67 611.81,305.21 619.12,296.75 621.56,301.35 624.00,306.24 626.44,303.58 628.88,287.59 636.19,274.23 638.63,261.63 641.07,265.80 643.51,266.52 645.95,267.72 653.26,266.20 655.70,295.21 658.14,285.50 660.58,307.69 663.01,308.86 670.33,288.76 672.77,294.10 675.21,277.65 677.64,301.64 680.08,300.14 687.40,317.90 689.84,329.29 692.27,312.67 694.71,342.94 697.15,339.35 704.47,310.97 706.90,308.27 709.34,290.83 714.22,270.20 721.53,285.57 723.97,290.00 726.41,278.98 728.85,282.34 731.29,277.56 738.60,278.87 741.04,283.18 743.48,265.32 745.92,260.18 748.36,280.22 755.67,280.18 758.11,294.72 760.55,303.50 762.99,298.73 765.42,284.29 772.74,276.41 775.18,269.75 777.62,264.50 782.49,264.40 789.81,268.01 792.25,268.96 794.68,276.90 799.56,264.92 806.88,258.46 809.32,256.37 811.75,251.45 814.19,259.13 816.63,260.59 823.95,257.53 826.38,259.46 828.82,267.68 831.26,255.64 833.70,257.23 843.45,283.48 845.89,268.90 848.33,261.00 850.77,271.88 858.08,260.34 860.52,257.11 862.96,253.26 865.40,248.38 867.84,249.67 875.15,236.41 877.59,240.13 880.03,276.26 882.47,295.69 884.90,262.20 892.22,254.31 894.66,271.70 897.10,276.26 899.53,302.83 901.97,304.27 911.73,299.72 914.16,292.07 916.60,290.64 919.04,280.63 926.36,295.22 928.79,271.16 931.23,262.45 933.67,281.99 936.11,292.24 943.42,290.24 945.86,313.38 948.30,303.41 950.74,315.82 953.18,329.99 960.49,320.58 962.93,314.91 965.37,306.58 967.81,322.02 970.25,320.88 977.56,314.49 980.00,328.68" /><polyline fill="none" stroke="#b45309" stroke-width="2.5" points="90.00,471.47 92.44,471.47 94.88,471.47 97.32,471.47 99.75,471.47 107.07,471.47 109.51,471.47 111.95,471.47 114.38,471.47 116.82,471.47 124.14,472.39 126.58,477.83 129.01,479.18 131.45,501.41 133.89,550.50 141.21,558.02 143.64,574.12 146.08,524.04 148.52,549.31 150.96,535.44 158.27,528.06 160.71,531.84 163.15,544.95 165.59,538.80 175.34,555.84 177.78,538.97 180.22,533.79 182.66,525.43 185.10,518.00 192.41,512.77 194.85,509.52 197.29,510.14 199.73,507.10 202.16,488.36 209.48,492.07 211.92,500.49 214.36,493.92 216.79,489.76 219.23,490.54 226.55,472.19 228.99,461.53 231.42,467.57 233.86,455.72 236.30,451.34 243.62,447.77 246.05,448.25 248.49,459.55 250.93,458.99 253.37,462.92 263.12,448.11 265.56,448.45 268.00,443.15 270.44,436.03 277.75,426.09 280.19,422.31 282.63,418.06 285.07,422.59 287.51,422.09 294.82,425.17 297.26,428.38 299.70,427.82 302.14,429.44 304.58,447.35 311.89,440.18 314.33,447.40 316.77,455.25 321.64,454.15 328.96,440.11 331.40,425.32 333.84,429.38 336.27,419.45 338.71,407.96 346.03,400.88 348.47,414.62 350.90,400.45 353.34,383.43 363.10,390.78 365.53,397.31 367.97,384.02 370.41,384.34 372.85,387.54 380.16,382.40 382.60,374.36 385.04,370.80 387.48,357.29 389.92,367.67 397.23,365.25 399.67,382.54 402.11,368.35 404.55,362.92 406.99,356.94 414.30,351.53 416.74,355.20 419.18,347.23 421.62,354.10 424.05,383.88 431.37,363.29 433.81,367.82 436.25,365.66 438.68,360.58 441.12,352.83 448.44,357.52 450.88,343.09 453.32,345.43 455.75,344.76 458.19,351.28 465.51,354.30 467.95,384.23 470.38,388.11 472.82,394.00 475.26,376.16 482.58,382.30 485.01,372.32 487.45,370.38 489.89,362.99 492.33,386.56 502.08,390.92 504.52,395.43 506.96,392.56 509.40,399.50 516.71,396.42 519.15,394.74 521.59,369.28 524.03,374.89 526.47,378.55 533.78,371.50 536.22,368.08 538.66,375.71 541.10,343.20 543.53,350.11 550.85,348.66 553.29,347.10 555.73,339.08 558.16,330.01 560.60,326.00 567.92,332.17 570.36,329.66 572.79,321.30 575.23,318.97 577.67,318.63 584.99,312.88 587.42,313.58 589.86,310.58 592.30,319.24 594.74,345.12 602.05,331.06 604.49,329.62 606.93,319.12 609.37,323.90 611.81,313.63 619.12,300.21 621.56,300.24 624.00,307.55 626.44,298.47 628.88,292.42 636.19,272.21 638.63,263.18 641.07,261.40 643.51,265.10 645.95,270.97 653.26,264.36 655.70,296.91 658.14,281.95 660.58,311.45 663.01,310.79 670.33,287.65 672.77,296.69 675.21,282.33 677.64,313.74 680.08,313.24 687.40,333.37 689.84,350.40 692.27,341.21 694.71,375.51 697.15,370.77 704.47,337.64 706.90,343.01 709.34,325.10 714.22,304.04 721.53,321.62 723.97,312.99 726.41,304.11 728.85,316.70 731.29,308.38 738.60,312.61 741.04,318.75 743.48,301.98 745.92,301.22 748.36,325.55 755.67,325.39 758.11,336.60 760.55,352.60 762.99,346.26 765.42,330.66 772.74,326.36 775.18,321.48 777.62,316.94 782.49,316.57 789.81,319.84 792.25,319.01 794.68,327.31 799.56,313.58 806.88,302.47 809.32,305.42 811.75,305.34 814.19,306.51 816.63,305.15 823.95,306.35 826.38,308.00 828.82,315.07 831.26,305.25 833.70,305.42 843.45,329.72 845.89,312.43 848.33,305.09 850.77,315.23 858.08,305.07 860.52,301.77 862.96,299.31 865.40,291.47 867.84,291.55 875.15,279.51 877.59,288.36 880.03,319.17 882.47,333.48 884.90,304.06 892.22,291.82 894.66,298.91 897.10,312.36 899.53,346.26 901.97,344.83 911.73,342.96 914.16,337.44 916.60,341.01 919.04,333.55 926.36,346.42 928.79,331.00 931.23,323.37 933.67,339.24 936.11,348.47 943.42,346.56 945.86,368.56 948.30,359.08 950.74,370.88 953.18,384.35 960.49,375.40 962.93,370.01 965.37,362.10 967.81,376.77 970.25,375.68 977.56,369.62 980.00,382.85" /><polyline fill="none" stroke="#475569" stroke-width="2.5" points="90.00,471.47 92.44,471.47 94.88,471.47 97.32,471.47 99.75,471.47 107.07,471.47 109.51,471.47 111.95,471.47 114.38,471.47 116.82,471.47 124.14,472.39 126.58,480.89 129.01,480.15 131.45,508.72 133.89,563.24 141.21,570.46 143.64,585.63 146.08,534.52 148.52,566.61 150.96,551.05 158.27,543.10 160.71,542.21 163.15,556.72 165.59,533.45 175.34,553.65 177.78,536.60 180.22,531.50 182.66,520.63 185.10,508.67 192.41,504.67 194.85,502.49 197.29,502.10 199.73,500.94 202.16,485.24 209.48,486.20 211.92,492.41 214.36,487.33 216.79,483.23 219.23,484.85 226.55,470.32 228.99,478.84 231.42,479.60 233.86,483.07 236.30,473.02 243.62,461.15 246.05,459.00 248.49,474.98 250.93,477.28 253.37,482.01 263.12,469.24 265.56,466.73 268.00,463.10 270.44,454.97 277.75,445.22 280.19,441.52 282.63,437.35 285.07,441.79 287.51,441.30 294.82,444.33 297.26,447.47 299.70,446.92 302.14,448.51 304.58,466.08 311.89,459.05 314.33,466.13 316.77,473.83 321.64,472.75 328.96,458.98 331.40,444.48 333.84,448.45 336.27,438.71 338.71,427.44 346.03,420.74 348.47,437.33 350.90,426.31 353.34,411.14 363.10,414.98 365.53,416.56 367.97,401.27 370.41,399.99 372.85,402.29 380.16,395.76 382.60,387.44 385.04,383.22 387.48,377.10 389.92,379.49 397.23,378.11 399.67,394.27 402.11,377.57 404.55,370.00 406.99,363.60 414.30,357.01 416.74,362.79 419.18,357.02 421.62,346.37 424.05,360.90 431.37,335.26 433.81,342.32 436.25,343.49 438.68,334.08 441.12,321.60 448.44,327.21 450.88,309.79 453.32,306.16 455.75,308.89 458.19,317.75 465.51,321.27 467.95,342.36 470.38,344.02 472.82,348.36 475.26,327.25 482.58,331.51 485.01,319.73 487.45,319.52 489.89,314.58 492.33,326.76 502.08,329.82 504.52,333.79 506.96,328.72 509.40,338.66 516.71,333.15 519.15,330.50 521.59,304.12 524.03,314.79 526.47,319.26 533.78,311.55 536.22,310.85 538.66,317.61 541.10,312.12 543.53,314.15 550.85,312.24 553.29,312.86 555.73,316.14 558.16,316.91 560.60,317.03 567.92,319.99 570.36,313.35 572.79,308.09 575.23,306.63 577.67,305.72 584.99,300.07 587.42,300.55 589.86,298.31 592.30,300.17 594.74,330.29 602.05,308.76 604.49,313.61 606.93,304.70 609.37,312.73 611.81,306.17 619.12,292.86 621.56,297.42 624.00,308.53 626.44,295.63 628.88,280.64 636.19,256.92 638.63,242.89 641.07,239.03 643.51,240.09 645.95,241.53 653.26,233.12 655.70,249.90 658.14,250.66 660.58,267.22 663.01,265.81 670.33,243.20 672.77,246.36 675.21,236.21 677.64,254.89 680.08,251.26 687.40,263.70 689.84,277.29 692.27,265.77 694.71,289.78 697.15,290.46 704.47,265.22 706.90,260.74 709.34,247.97 714.22,239.32 721.53,254.41 723.97,248.23 726.41,239.58 728.85,253.90 731.29,248.65 738.60,255.79 741.04,261.10 743.48,243.95 745.92,246.63 748.36,269.41 755.67,270.73 758.11,284.50 760.55,296.94 762.99,291.89 765.42,278.01 772.74,272.62 775.18,266.44 777.62,263.31 782.49,262.48 789.81,261.94 792.25,259.31 794.68,267.96 799.56,253.48 806.88,241.78 809.32,244.89 811.75,244.80 814.19,246.03 816.63,244.60 823.95,245.87 826.38,247.61 828.82,255.06 831.26,244.71 833.70,244.89 843.45,270.50 845.89,252.27 848.33,244.53 850.77,255.22 858.08,244.52 860.52,241.04 862.96,238.44 865.40,230.18 867.84,230.27 875.15,218.32 877.59,227.09 880.03,260.67 882.47,278.49 884.90,238.16 892.22,223.55 894.66,227.69 897.10,239.20 899.53,280.48 901.97,277.40 911.73,272.09 914.16,264.13 916.60,270.27 919.04,267.05 926.36,283.68 928.79,265.57 931.23,255.43 933.67,268.63 936.11,290.84 943.42,288.83 945.86,312.00 948.30,302.02 950.74,314.45 953.18,328.64 960.49,319.21 962.93,313.53 965.37,305.20 967.81,320.66 970.25,319.51 977.56,313.12 980.00,327.32" /><polyline fill="none" stroke="#1d4ed8" stroke-width="2.5" points="90.00,471.47 92.44,471.47 94.88,471.47 97.32,471.47 99.75,471.47 107.07,471.47 109.51,471.47 111.95,471.47 114.38,471.47 116.82,471.47 124.14,472.39 126.58,480.88 129.01,477.20 131.45,507.70 133.89,566.00 141.21,566.92 143.64,586.61 146.08,509.27 148.52,550.09 150.96,540.91 158.27,534.97 160.71,541.56 163.15,558.26 165.59,555.34 175.34,574.60 177.78,555.10 180.22,538.57 182.66,519.93 185.10,517.22 192.41,506.94 194.85,506.42 197.29,510.84 199.73,505.07 202.16,487.36 209.48,489.58 211.92,493.56 214.36,495.66 216.79,487.87 219.23,489.17 226.55,469.93 228.99,457.21 231.42,452.45 233.86,444.22 236.30,439.70 243.62,436.93 246.05,438.70 248.49,444.82 250.93,443.12 253.37,449.24 263.12,432.70 265.56,431.73 268.00,428.34 270.44,421.52 277.75,411.43 280.19,407.60 282.63,403.28 285.07,407.88 287.51,407.37 294.82,410.50 297.26,413.75 299.70,413.18 302.14,414.83 304.58,433.00 311.89,425.73 314.33,433.05 316.77,441.01 321.64,439.90 328.96,425.66 331.40,410.66 333.84,414.77 336.27,404.69 338.71,393.04 346.03,385.85 348.47,405.90 350.90,400.63 353.34,387.47 363.10,390.89 365.53,398.74 367.97,384.16 370.41,383.63 372.85,385.18 380.16,375.28 382.60,371.74 385.04,372.16 387.48,367.18 389.92,373.39 397.23,368.63 399.67,385.16 402.11,369.56 404.55,363.34 406.99,357.94 414.30,353.16 416.74,361.35 419.18,353.25 421.62,353.45 424.05,383.20 431.37,361.41 433.81,366.13 436.25,359.47 438.68,352.47 441.12,344.44 448.44,349.57 450.88,333.07 453.32,334.86 455.75,333.75 458.19,341.82 465.51,344.34 467.95,377.32 470.38,381.83 472.82,388.26 475.26,369.18 482.58,374.51 485.01,362.27 487.45,360.55 489.89,350.23 492.33,378.32 502.08,381.73 504.52,393.83 506.96,391.25 509.40,406.78 516.71,406.03 519.15,400.76 521.59,395.40 524.03,393.59 526.47,402.55 533.78,399.34 536.22,392.69 538.66,386.78 541.10,359.69 543.53,368.48 550.85,375.75 553.29,368.58 555.73,359.55 558.16,348.32 560.60,332.86 567.92,345.95 570.36,355.22 572.79,352.76 575.23,354.20 577.67,351.22 584.99,347.30 587.42,352.27 589.86,344.64 592.30,343.98 594.74,366.62 602.05,352.28 604.49,356.65 606.93,352.78 609.37,350.39 611.81,349.26 619.12,349.20 621.56,351.14 624.00,352.09 626.44,347.56 628.88,341.59 636.19,332.38 638.63,324.32 641.07,326.35 643.51,337.68 645.95,338.94 653.26,332.35 655.70,349.48 658.14,342.37 660.58,361.08 663.01,364.66 670.33,341.38 672.77,342.39 675.21,326.55 677.64,345.60 680.08,345.68 687.40,351.21 689.84,366.16 692.27,361.02 694.71,387.72 697.15,385.45 704.47,351.31 706.90,349.12 709.34,337.09 714.22,326.02 721.53,342.33 723.97,335.09 726.41,325.98 728.85,338.16 731.29,329.76 738.60,331.50 741.04,336.56 743.48,317.82 745.92,313.26 748.36,334.37 755.67,334.08 758.11,349.45 760.55,361.17 762.99,359.38 765.42,347.64 772.74,342.42 775.18,339.81 777.62,335.05 782.49,335.04 789.81,336.97 792.25,335.69 794.68,342.61 799.56,329.07 806.88,318.11 809.32,321.03 811.75,320.94 814.19,322.10 816.63,320.76 823.95,321.95 826.38,323.57 828.82,330.54 831.26,320.85 833.70,321.02 843.45,344.99 845.89,327.93 848.33,320.69 850.77,330.69 858.08,320.68 860.52,317.43 862.96,315.00 865.40,307.27 867.84,307.34 875.15,296.17 877.59,304.37 880.03,335.79 882.47,352.47 884.90,314.73 892.22,301.06 894.66,304.93 897.10,315.71 899.53,354.33 901.97,351.45 911.73,346.48 914.16,339.03 916.60,344.78 919.04,341.77 926.36,357.33 928.79,340.37 931.23,330.89 933.67,343.24 936.11,364.02 943.42,362.15 945.86,383.83 948.30,374.48 950.74,386.11 953.18,399.39 960.49,390.57 962.93,385.26 965.37,377.46 967.81,391.92 970.25,390.85 977.56,384.87 980.00,397.91" /><polyline fill="none" stroke="#0f766e" stroke-width="2.5" points="90.00,471.47 92.44,471.47 94.88,471.47 97.32,471.47 99.75,471.47 107.07,471.47 109.51,471.47 111.95,471.47 114.38,471.47 116.82,471.47 124.14,472.39 126.58,485.49 129.01,482.48 131.45,507.46 133.89,563.58 141.21,573.83 143.64,583.17 146.08,537.74 148.52,562.54 150.96,554.11 158.27,542.66 160.71,547.13 163.15,555.98 165.59,525.24 175.34,543.38 177.78,528.55 180.22,522.95 182.66,514.25 185.10,503.79 192.41,495.59 194.85,491.82 197.29,490.09 199.73,486.07 202.16,468.02 209.48,470.36 211.92,473.16 214.36,466.38 216.79,460.85 219.23,461.25 226.55,441.94 228.99,429.21 231.42,428.09 233.86,417.06 236.30,410.34 243.62,406.70 246.05,407.53 248.49,418.32 250.93,418.14 253.37,424.66 263.12,409.28 265.56,408.16 268.00,404.00 270.44,396.16 277.75,385.66 280.19,380.18 282.63,375.74 285.07,381.91 287.51,380.69 294.82,383.59 297.26,387.04 299.70,385.71 302.14,388.49 304.58,409.02 311.89,397.60 314.33,403.26 316.77,408.10 321.64,405.71 328.96,390.78 331.40,374.63 333.84,377.70 336.27,364.95 338.71,353.91 346.03,345.22 348.47,363.98 350.90,358.18 353.34,343.72 363.10,347.75 365.53,351.94 367.97,335.51 370.41,339.96 372.85,343.51 380.16,337.89 382.60,334.93 385.04,335.45 387.48,325.88 389.92,335.38 397.23,329.55 399.67,346.55 402.11,333.82 404.55,329.04 406.99,324.65 414.30,320.88 416.74,328.52 419.18,322.11 421.62,314.76 424.05,338.58 431.37,309.31 433.81,317.47 436.25,319.83 438.68,317.67 441.12,310.32 448.44,310.58 450.88,293.61 453.32,298.22 455.75,295.77 458.19,304.47 465.51,304.71 467.95,334.75 470.38,339.33 472.82,343.68 475.26,322.69 482.58,325.64 485.01,318.50 487.45,314.39 489.89,303.46 492.33,326.87 502.08,331.32 504.52,327.82 506.96,326.81 509.40,332.41 516.71,327.85 519.15,321.44 521.59,294.61 524.03,301.68 526.47,303.48 533.78,292.66 536.22,290.15 538.66,299.73 541.10,265.83 543.53,274.55 550.85,275.19 553.29,270.30 555.73,260.76 558.16,248.71 560.60,240.38 567.92,252.40 570.36,254.86 572.79,237.92 575.23,228.86 577.67,227.97 584.99,225.92 587.42,229.43 589.86,218.62 592.30,214.73 594.74,249.04 602.05,212.50 604.49,233.71 606.93,218.99 609.37,214.35 611.81,217.77 619.12,212.47 621.56,221.93 624.00,227.81 626.44,213.18 628.88,200.12 636.19,179.54 638.63,165.04 641.07,152.87 643.51,169.81 645.95,172.34 653.26,173.85 655.70,206.36 658.14,186.04 660.58,209.52 663.01,217.06 670.33,194.98 672.77,194.37 675.21,175.56 677.64,195.01 680.08,196.40 687.40,205.35 689.84,216.47 692.27,201.83 694.71,236.65 697.15,224.17 704.47,179.89 706.90,180.31 709.34,164.90 714.22,141.18 721.53,156.66 723.97,143.53 726.41,140.98 728.85,159.39 731.29,149.56 738.60,156.88 741.04,155.91 743.48,141.45 745.92,153.22 748.36,181.22 755.67,186.67 758.11,194.85 760.55,221.14 762.99,208.01 765.42,192.02 772.74,192.34 775.18,186.42 777.62,184.35 782.49,183.05 789.81,183.40 792.25,181.27 794.68,190.13 799.56,176.95 806.88,172.51 809.32,174.47 811.75,171.00 814.19,172.62 816.63,173.00 823.95,165.92 826.38,163.13 828.82,162.55 831.26,157.50 833.70,159.08 843.45,180.09 845.89,161.99 848.33,155.73 850.77,163.33 858.08,152.50 860.52,146.67 862.96,140.83 865.40,133.54 867.84,134.34 875.15,113.70 877.59,112.26 880.03,140.50 882.47,152.61 884.90,113.91 892.22,100.00 894.66,112.16 897.10,113.45 899.53,156.26 901.97,150.57 911.73,158.53 914.16,155.40 916.60,163.93 919.04,165.81 926.36,174.67 928.79,149.84 931.23,145.76 933.67,160.22 936.11,164.49 943.42,162.26 945.86,188.00 948.30,176.91 950.74,190.71 953.18,206.48 960.49,196.00 962.93,189.70 965.37,180.44 967.81,197.61 970.25,196.34 977.56,189.24 980.00,205.02" /><polyline fill="none" stroke="#7c3aed" stroke-width="3" points="90.00,471.47 92.44,481.82 94.88,471.51 97.32,474.28 99.75,473.96 107.07,456.86 109.51,454.52 111.95,466.16 114.38,468.71 116.82,488.05 124.14,481.73 126.58,479.06 129.01,473.05 131.45,520.15 133.89,573.35 141.21,574.88 143.64,588.25 146.08,499.97 148.52,540.67 150.96,524.83 158.27,516.06 160.71,518.61 163.15,538.85 165.59,537.58 175.34,558.79 177.78,536.15 180.22,522.32 182.66,503.24 185.10,496.55 192.41,496.19 194.85,490.32 197.29,489.95 199.73,483.29 202.16,469.26 209.48,474.76 211.92,482.73 214.36,478.75 216.79,472.13 219.23,473.35 226.55,441.77 228.99,435.26 231.42,433.99 233.86,429.13 236.30,422.79 243.62,421.69 246.05,425.08 248.49,441.99 250.93,441.61 253.37,448.34 263.12,427.96 265.56,433.75 268.00,429.82 270.44,430.94 277.75,425.32 280.19,419.59 282.63,419.86 285.07,424.74 287.51,414.43 294.82,413.51 297.26,407.76 299.70,410.67 302.14,406.62 304.58,418.05 311.89,408.44 314.33,417.16 316.77,417.31 321.64,419.68 328.96,409.71 331.40,398.46 333.84,397.88 336.27,389.81 338.71,384.65 346.03,379.66 348.47,380.00 350.90,375.24 353.34,366.94 363.10,374.85 365.53,375.43 367.97,369.11 370.41,366.12 372.85,369.86 380.16,367.84 382.60,372.37 385.04,368.84 387.48,362.35 389.92,363.13 397.23,361.11 399.67,360.96 402.11,351.87 404.55,351.52 406.99,346.97 414.30,347.24 416.74,350.09 419.18,351.45 421.62,355.49 424.05,373.08 431.37,357.04 433.81,362.47 436.25,354.30 438.68,355.20 441.12,346.83 448.44,348.97 450.88,337.47 453.32,333.74 455.75,333.63 458.19,336.20 465.51,336.44 467.95,342.36 470.38,345.25 472.82,349.60 475.26,333.02 482.58,337.85 485.01,333.28 487.45,330.78 489.89,326.89 492.33,333.46 502.08,341.58 504.52,335.69 506.96,326.55 509.40,329.75 516.71,327.05 519.15,324.50 521.59,321.31 524.03,312.10 526.47,312.48 533.78,306.53 536.22,308.08 538.66,309.47 541.10,304.24 543.53,298.67 550.85,293.32 553.29,299.50 555.73,303.10 558.16,308.29 560.60,301.87 567.92,298.70 570.36,294.45 572.79,290.58 575.23,289.27 577.67,289.29 584.99,285.20 587.42,289.44 589.86,282.64 592.30,285.96 594.74,316.86 602.05,299.79 604.49,301.17 606.93,296.17 609.37,303.88 611.81,297.49 619.12,285.73 621.56,285.74 624.00,291.69 626.44,284.94 628.88,275.59 636.19,261.99 638.63,258.89 641.07,258.33 643.51,271.20 645.95,267.40 653.26,265.22 655.70,279.02 658.14,275.03 660.58,287.41 663.01,286.29 670.33,268.46 672.77,265.80 675.21,265.15 677.64,284.47 680.08,284.65 687.40,295.31 689.84,304.83 692.27,300.49 694.71,317.69 697.15,306.62 704.47,290.10 706.90,279.39 709.34,271.46 714.22,265.14 721.53,270.45 723.97,268.31 726.41,264.29 728.85,263.43 731.29,261.22 738.60,264.73 741.04,265.73 743.48,258.02 745.92,255.29 748.36,267.91 755.67,269.67 758.11,272.83 760.55,285.56 762.99,276.92 765.42,266.48 772.74,259.24 775.18,253.89 777.62,249.76 782.49,249.88 789.81,254.08 792.25,255.52 794.68,264.21 799.56,262.07 806.88,254.30 809.32,247.32 811.75,251.13 814.19,251.25 816.63,243.46 823.95,241.60 826.38,243.97 828.82,249.79 831.26,246.58 833.70,247.57 843.45,271.62 845.89,258.27 848.33,252.15 850.77,251.72 858.08,245.75 860.52,241.03 862.96,241.15 865.40,243.51 867.84,247.04 875.15,241.17 877.59,251.21 880.03,256.92 882.47,271.55 884.90,249.35 892.22,243.66 894.66,246.79 897.10,247.06 899.53,265.32 901.97,264.50 911.73,262.62 914.16,256.75 916.60,259.84 919.04,251.38 926.36,263.41 928.79,254.94 931.23,245.03 933.67,251.60 936.11,257.26 943.42,256.59 945.86,266.93 948.30,258.73 950.74,265.25 953.18,280.50 960.49,270.44 962.93,272.31 965.37,273.76 967.81,291.30 970.25,297.74 977.56,286.23 980.00,283.22" />
<line x1="1000" y1="84" x2="1032" y2="84" stroke="#1d4ed8" stroke-width="2.5" /><text x="1042" y="89" font-size="16" fill="#0f172a">configured_baseline</text><line x1="1000" y1="112" x2="1032" y2="112" stroke="#0f766e" stroke-width="2.5" /><text x="1042" y="117" font-size="16" fill="#0f172a">ridge_walkforward</text><line x1="1000" y1="140" x2="1032" y2="140" stroke="#7c3aed" stroke-width="2.5" /><text x="1042" y="145" font-size="16" fill="#0f172a">tree_walkforward</text><line x1="1000" y1="168" x2="1032" y2="168" stroke="#db2777" stroke-width="2.5" /><text x="1042" y="173" font-size="16" fill="#0f172a">mlp_walkforward</text><line x1="1000" y1="196" x2="1032" y2="196" stroke="#b45309" stroke-width="2.5" /><text x="1042" y="201" font-size="16" fill="#0f172a">tcn_walkforward</text><line x1="1000" y1="224" x2="1032" y2="224" stroke="#475569" stroke-width="2.5" /><text x="1042" y="229" font-size="16" fill="#0f172a">hybrid_sequence_walkforward</text><line x1="1000" y1="252" x2="1032" y2="252" stroke="#1d4ed8" stroke-width="2.5" /><text x="1042" y="257" font-size="16" fill="#0f172a">lstm_walkforward</text><line x1="1000" y1="280" x2="1032" y2="280" stroke="#0f766e" stroke-width="2.5" /><text x="1042" y="285" font-size="16" fill="#0f172a">transformer_walkforward</text><line x1="1000" y1="308" x2="1032" y2="308" stroke="#7c3aed" stroke-width="3" /><text x="1042" y="313" font-size="16" fill="#0f172a">benchmark</text>
</svg>
