<svg xmlns="http://www.w3.org/2000/svg" width="1200" height="720" viewBox="0 0 1200 720">
<rect width="1200" height="720" fill="#f8fafc" />
<text x="90" y="32" font-size="28" font-family="Segoe UI, Arial, sans-serif" fill="#0f172a">US Stocks Strategy Value - Last 252 Trading Days</text>
<text x="90" y="54" font-size="15" font-family="Segoe UI, Arial, sans-serif" fill="#475569">Initial capital assumed: $100,000</text>
<rect x="90" y="60" width="890" height="580" fill="#ffffff" stroke="#cbd5e1" />
<line x1="90" y1="640.00" x2="980" y2="640.00" stroke="#e2e8f0" stroke-width="1" /><text x="78" y="645.00" font-size="14" text-anchor="end" fill="#475569">$81,502</text><line x1="90" y1="495.00" x2="980" y2="495.00" stroke="#e2e8f0" stroke-width="1" /><text x="78" y="500.00" font-size="14" text-anchor="end" fill="#475569">$106,793</text><line x1="90" y1="350.00" x2="980" y2="350.00" stroke="#e2e8f0" stroke-width="1" /><text x="78" y="355.00" font-size="14" text-anchor="end" fill="#475569">$132,085</text><line x1="90" y1="205.00" x2="980" y2="205.00" stroke="#e2e8f0" stroke-width="1" /><text x="78" y="210.00" font-size="14" text-anchor="end" fill="#475569">$157,376</text><line x1="90" y1="60.00" x2="980" y2="60.00" stroke="#e2e8f0" stroke-width="1" /><text x="78" y="65.00" font-size="14" text-anchor="end" fill="#475569">$182,668</text>
<line x1="90.00" y1="60" x2="90.00" y2="640" stroke="#f1f5f9" stroke-width="1" /><text x="90.00" y="668" font-size="14" text-anchor="middle" fill="#475569">2025-03-13</text><line x1="536.22" y1="60" x2="536.22" y2="640" stroke="#f1f5f9" stroke-width="1" /><text x="536.22" y="668" font-size="14" text-anchor="middle" fill="#475569">2025-09-12</text><line x1="980.00" y1="60" x2="980.00" y2="640" stroke="#f1f5f9" stroke-width="1" /><text x="980.00" y="668" font-size="14" text-anchor="middle" fill="#475569">2026-03-13</text>
<polyline fill="none" stroke="#1d4ed8" stroke-width="2.5" points="90.00,533.95 92.44,521.02 99.75,518.46 102.19,526.74 104.63,521.33 107.07,523.00 109.51,514.20 116.82,500.92 119.26,494.78 121.70,499.92 124.14,500.67 126.58,515.13 133.89,509.20 136.33,506.15 138.77,503.75 141.21,524.36 143.64,556.85 150.96,557.93 153.40,560.32 155.84,522.14 158.27,537.51 160.71,525.36 168.03,523.83 170.47,526.24 172.90,533.22 175.34,525.89 185.10,538.03 187.53,524.42 189.97,520.12 192.41,511.55 194.85,510.36 202.16,510.52 204.60,507.11 207.04,510.14 209.48,493.78 211.92,480.88 219.23,481.71 221.67,485.74 224.11,482.65 226.55,476.34 228.99,476.02 236.30,457.46 238.74,450.79 241.18,449.28 243.62,444.51 246.05,444.41 253.37,441.69 255.81,440.36 258.25,448.15 260.68,448.13 263.12,452.43 272.88,439.92 275.32,440.32 277.75,438.34 280.19,433.28 287.51,425.27 289.95,414.10 292.38,411.52 294.82,414.56 297.26,417.43 304.58,416.69 307.01,414.42 309.45,409.81 311.89,402.98 314.33,414.70 321.64,404.50 324.08,407.86 326.52,401.54 331.40,404.22 338.71,396.34 341.15,382.07 343.59,371.56 346.03,362.39 348.47,361.35 355.78,355.04 358.22,373.90 360.66,367.73 363.10,357.85 372.85,360.29 375.29,359.67 377.73,347.05 380.16,349.41 382.60,350.93 389.92,350.31 392.36,341.18 394.79,342.54 397.23,335.37 399.67,337.83 406.99,333.52 409.42,348.15 411.86,338.34 414.30,329.82 416.74,328.66 424.05,321.72 426.49,325.61 428.93,319.42 431.37,298.33 433.81,325.39 441.12,311.43 443.56,317.21 446.00,303.87 448.44,301.90 450.88,299.03 458.19,301.68 460.63,292.01 463.07,296.45 465.51,288.46 467.95,294.01 475.26,293.46 477.70,312.73 480.14,320.35 482.58,323.60 485.01,310.69 492.33,310.46 494.77,306.16 497.21,302.79 499.64,295.78 502.08,314.04 511.84,317.80 514.27,298.19 516.71,292.17 519.15,301.46 526.47,303.39 528.90,297.05 531.34,298.67 533.78,292.37 536.22,287.74 543.53,275.22 545.97,270.08 548.41,267.97 550.85,268.30 553.29,260.75 560.60,256.73 563.04,255.05 565.48,258.85 567.92,254.48 570.36,250.43 577.67,258.75 580.11,262.94 582.55,257.99 584.99,251.34 587.42,252.17 594.74,252.99 597.18,256.93 599.62,246.72 602.05,249.03 604.49,282.26 611.81,249.20 614.25,264.17 616.68,254.39 619.12,251.72 621.56,247.45 628.88,237.47 631.32,247.52 633.75,252.28 636.19,245.77 638.63,227.23 645.95,204.41 648.38,188.54 650.82,168.04 653.26,170.99 655.70,176.99 663.01,171.46 665.45,186.09 667.89,175.52 670.33,183.90 672.77,192.08 680.08,173.19 682.52,170.82 684.96,178.09 687.40,200.22 689.84,203.37 697.15,202.13 699.59,213.58 702.03,197.51 704.47,211.87 706.90,200.76 714.22,154.31 716.66,142.37 719.10,137.41 723.97,129.42 731.29,138.02 733.73,139.99 736.16,134.61 738.60,139.91 741.04,134.46 748.36,135.16 750.79,125.77 753.23,115.75 755.67,125.87 758.11,156.04 765.42,174.85 767.86,180.46 770.30,194.36 772.74,188.93 775.18,177.15 782.49,173.55 784.93,161.64 787.37,160.43 792.25,160.16 799.56,158.90 802.00,158.09 804.44,164.24 809.32,153.32 816.63,142.23 819.07,151.35 821.51,153.53 823.95,145.58 826.38,140.87 833.70,142.81 836.14,143.86 838.58,142.84 841.01,140.89 843.45,140.08 853.21,161.86 855.64,145.89 858.08,141.24 860.52,141.72 867.84,137.12 870.27,130.86 872.71,124.53 875.15,112.41 877.59,114.14 884.90,104.51 887.34,100.00 889.78,103.81 892.22,115.40 894.66,126.84 901.97,125.01 904.41,136.69 906.85,137.73 909.29,146.21 911.73,147.33 921.48,152.29 923.92,143.82 926.36,145.56 928.79,136.73 936.11,138.97 938.55,135.12 940.99,132.49 943.42,142.23 945.86,125.90 953.18,126.77 955.62,127.95 958.05,133.03 960.49,143.61 962.93,144.97 970.25,141.99 972.68,147.43 975.12,144.26 977.56,146.88 980.00,147.36" /><polyline fill="none" stroke="#0f766e" stroke-width="2.5" points="90.00,533.95 92.44,533.95 99.75,533.95 102.19,533.95 104.63,533.95 107.07,533.95 109.51,533.95 116.82,533.95 119.26,533.95 121.70,533.95 124.14,533.95 126.58,533.95 133.89,534.49 136.33,527.74 138.77,522.23 141.21,572.59 143.64,600.00 150.96,583.53 153.40,588.37 155.84,509.36 158.27,544.52 160.71,530.84 168.03,538.89 170.47,541.03 172.90,562.43 175.34,570.31 185.10,587.82 187.53,574.50 189.97,553.67 192.41,532.97 194.85,518.68 202.16,521.76 204.60,521.37 207.04,524.68 209.48,515.85 211.92,503.04 219.23,504.98 221.67,508.28 224.11,500.90 226.55,496.00 228.99,496.76 236.30,474.40 238.74,459.40 241.18,452.81 243.62,448.99 246.05,448.62 253.37,447.31 255.81,447.13 258.25,455.94 260.68,455.49 263.12,459.94 272.88,446.24 275.32,446.30 277.75,439.69 280.19,439.85 287.51,426.83 289.95,421.73 292.38,415.75 294.82,425.06 297.26,427.07 304.58,430.43 307.01,426.97 309.45,425.36 311.89,422.50 314.33,433.66 321.64,424.52 324.08,429.00 326.52,425.93 331.40,427.98 338.71,415.81 341.15,404.78 343.59,405.95 346.03,396.25 348.47,395.58 355.78,388.47 358.22,404.36 360.66,397.20 363.10,387.24 372.85,391.53 375.29,395.92 377.73,386.02 380.16,384.53 382.60,387.40 389.92,385.61 392.36,379.14 394.79,380.80 397.23,373.60 399.67,374.55 406.99,370.63 409.42,382.64 411.86,370.33 414.30,364.03 416.74,362.67 424.05,355.81 426.49,360.30 428.93,353.07 431.37,341.62 433.81,358.72 441.12,337.44 443.56,346.99 446.00,338.42 448.44,340.95 450.88,335.34 458.19,336.94 460.63,322.61 463.07,330.26 465.51,325.75 467.95,331.85 475.26,334.13 477.70,351.43 480.14,353.87 482.58,357.80 485.01,345.34 492.33,344.52 494.77,337.77 497.21,337.77 499.64,332.09 502.08,348.12 511.84,354.88 514.27,351.58 516.71,337.76 519.15,327.18 526.47,317.03 528.90,313.93 531.34,297.90 533.78,303.82 536.22,303.30 543.53,296.08 545.97,295.58 548.41,310.85 550.85,303.91 553.29,303.92 560.60,305.79 563.04,319.29 565.48,319.74 567.92,325.39 570.36,325.63 577.67,323.56 580.11,322.76 582.55,318.15 584.99,311.97 587.42,312.75 594.74,313.51 597.18,317.17 599.62,307.69 602.05,309.83 604.49,340.71 611.81,309.99 614.25,323.90 616.68,314.81 619.12,312.33 621.56,308.36 628.88,299.09 631.32,308.43 633.75,312.85 636.19,306.80 638.63,289.58 645.95,268.37 648.38,253.62 650.82,234.58 653.26,237.32 655.70,242.89 663.01,232.31 665.45,254.97 667.89,248.81 670.33,263.70 672.77,270.14 680.08,242.24 682.52,250.57 684.96,255.22 687.40,282.38 689.84,281.39 697.15,280.37 699.59,296.33 702.03,277.08 704.47,294.70 706.90,290.30 714.22,247.62 716.66,242.91 719.10,236.08 723.97,233.62 731.29,247.91 733.73,249.91 736.16,246.92 738.60,248.26 741.04,241.29 748.36,242.53 750.79,246.31 753.23,230.94 755.67,235.79 758.11,264.46 765.42,278.63 767.86,281.55 770.30,298.12 772.74,288.57 775.18,276.25 782.49,268.96 784.93,256.45 787.37,253.87 792.25,253.80 799.56,258.31 802.00,257.66 804.44,263.41 809.32,253.63 816.63,243.71 819.07,251.87 821.51,253.83 823.95,246.71 826.38,242.49 833.70,244.23 836.14,245.17 838.58,244.26 841.01,242.51 843.45,241.79 853.21,261.28 855.64,246.99 858.08,242.83 860.52,243.26 867.84,239.14 870.27,233.54 872.71,227.87 875.15,217.03 877.59,218.15 884.90,221.94 887.34,226.01 889.78,236.57 892.22,251.68 894.66,247.99 901.97,240.57 904.41,247.05 906.85,247.80 909.29,262.98 911.73,272.33 921.48,273.05 923.92,259.30 926.36,259.25 928.79,248.88 936.11,249.16 938.55,246.93 940.99,240.98 943.42,259.21 945.86,258.15 953.18,249.90 955.62,259.69 958.05,257.59 960.49,248.02 962.93,257.18 970.25,241.50 972.68,243.40 975.12,237.83 977.56,245.77 980.00,258.88" /><polyline fill="none" stroke="#7c3aed" stroke-width="2.5" points="90.00,533.95 92.44,533.95 99.75,533.95 102.19,533.95 104.63,533.95 107.07,533.95 109.51,533.95 116.82,533.95 119.26,533.95 121.70,533.95 124.14,533.95 126.58,533.95 133.89,534.49 136.33,532.63 138.77,526.57 141.21,563.14 143.64,595.47 150.96,592.11 153.40,595.24 155.84,536.55 158.27,556.01 160.71,538.25 168.03,536.55 170.47,537.60 172.90,549.46 175.34,545.34 185.10,558.30 187.53,544.54 189.97,532.97 192.41,519.71 194.85,516.40 202.16,515.70 204.60,513.23 207.04,511.30 209.48,505.56 211.92,495.65 219.23,500.77 221.67,501.73 224.11,498.87 226.55,492.32 228.99,490.48 236.30,473.33 238.74,466.38 241.18,467.55 243.62,461.71 246.05,462.55 253.37,463.90 255.81,464.55 258.25,472.08 260.68,473.82 263.12,476.32 272.88,467.05 275.32,468.41 277.75,466.09 280.19,462.38 287.51,454.69 289.95,447.65 292.38,447.21 294.82,457.03 297.26,459.36 304.58,463.62 307.01,461.24 309.45,460.85 311.89,457.64 314.33,468.03 321.64,462.23 324.08,467.54 326.52,463.60 331.40,459.15 338.71,450.81 341.15,444.32 343.59,443.65 346.03,438.78 348.47,439.74 355.78,431.12 358.22,443.70 360.66,436.01 363.10,425.29 372.85,429.57 375.29,434.60 377.73,425.70 380.16,423.73 382.60,423.67 389.92,422.84 392.36,413.43 394.79,413.34 397.23,404.13 399.67,406.26 406.99,404.56 409.42,415.67 411.86,405.78 414.30,398.41 416.74,395.68 424.05,390.70 426.49,390.78 428.93,382.45 431.37,384.37 433.81,400.51 441.12,380.43 443.56,389.44 446.00,381.35 448.44,383.74 450.88,378.44 458.19,379.95 460.63,366.43 463.07,373.64 465.51,369.39 467.95,375.14 475.26,377.30 477.70,393.63 480.14,395.94 482.58,399.64 485.01,387.88 492.33,387.11 494.77,380.74 497.21,380.73 499.64,375.37 502.08,390.16 511.84,394.80 514.27,392.26 516.71,384.03 519.15,376.98 526.47,370.97 528.90,366.90 531.34,344.52 533.78,346.78 536.22,344.07 543.53,338.65 545.97,340.06 548.41,351.11 550.85,343.35 553.29,342.66 560.60,342.78 563.04,349.96 565.48,349.59 567.92,353.33 570.36,353.40 577.67,353.57 580.11,350.85 582.55,349.70 584.99,349.74 587.42,347.87 594.74,341.38 597.18,346.73 599.62,344.54 602.05,347.03 604.49,368.10 611.81,339.95 614.25,349.05 616.68,339.09 619.12,342.23 621.56,343.27 628.88,336.92 631.32,347.59 633.75,348.76 636.19,345.38 638.63,330.63 645.95,314.81 648.38,305.90 650.82,294.30 653.26,297.35 655.70,303.29 663.01,302.17 665.45,319.57 667.89,313.07 670.33,320.39 672.77,326.98 680.08,302.42 682.52,311.47 684.96,309.21 687.40,335.98 689.84,336.29 697.15,335.88 699.59,343.23 702.03,322.87 704.47,337.88 706.90,336.92 714.22,301.32 716.66,296.57 719.10,286.78 723.97,284.86 731.29,292.74 733.73,291.87 736.16,293.09 738.60,299.16 741.04,293.27 748.36,295.15 750.79,290.21 753.23,280.70 755.67,290.40 758.11,317.79 765.42,334.76 767.86,334.59 770.30,351.61 772.74,341.33 775.18,331.26 782.49,329.69 784.93,318.76 787.37,317.24 792.25,316.74 799.56,318.28 802.00,317.96 804.44,323.81 809.32,314.74 816.63,305.53 819.07,313.10 821.51,314.92 823.95,308.31 826.38,304.39 833.70,306.01 836.14,306.88 838.58,306.04 841.01,304.42 843.45,303.74 853.21,321.84 855.64,308.57 858.08,304.71 860.52,305.11 867.84,301.29 870.27,296.08 872.71,290.82 875.15,280.76 877.59,281.80 884.90,285.32 887.34,289.09 889.78,298.90 892.22,312.93 894.66,309.50 901.97,302.61 904.41,308.63 906.85,309.32 909.29,323.42 911.73,332.10 921.48,332.77 923.92,320.00 926.36,319.95 928.79,310.33 936.11,310.59 938.55,308.51 940.99,302.99 943.42,319.91 945.86,318.56 953.18,314.43 955.62,324.60 958.05,322.06 960.49,313.02 962.93,320.92 970.25,303.13 972.68,305.17 975.12,298.95 977.56,305.82 980.00,314.99" /><polyline fill="none" stroke="#db2777" stroke-width="2.5" points="90.00,533.95 92.44,533.95 99.75,533.95 102.19,533.95 104.63,533.95 107.07,533.95 109.51,533.95 116.82,533.95 119.26,533.95 121.70,533.95 124.14,533.95 126.58,533.95 133.89,534.49 136.33,527.55 138.77,521.57 141.21,562.82 143.64,588.78 150.96,575.44 153.40,580.10 155.84,505.61 158.27,534.71 160.71,517.58 168.03,522.93 170.47,523.28 172.90,545.31 175.34,554.60 185.10,571.31 187.53,558.94 189.97,540.01 192.41,517.50 194.85,504.89 202.16,508.93 204.60,508.70 207.04,510.53 209.48,502.76 211.92,490.95 219.23,491.91 221.67,495.78 224.11,503.30 226.55,496.05 228.99,497.36 236.30,477.49 238.74,469.98 241.18,464.26 243.62,461.24 246.05,459.44 253.37,458.02 255.81,458.85 258.25,460.25 260.68,458.90 263.12,463.70 272.88,450.96 275.32,450.71 277.75,449.67 280.19,445.38 287.51,435.54 289.95,425.07 292.38,423.45 294.82,434.08 297.26,437.14 304.58,438.60 307.01,435.61 309.45,433.38 311.89,427.94 314.33,439.95 321.64,432.44 324.08,436.39 326.52,431.51 331.40,432.25 338.71,423.61 341.15,411.68 343.59,404.86 346.03,398.47 348.47,396.59 355.78,390.59 358.22,408.57 360.66,402.69 363.10,393.27 372.85,395.59 375.29,395.01 377.73,382.98 380.16,385.23 382.60,386.67 389.92,386.08 392.36,377.39 394.79,378.69 397.23,371.85 399.67,374.19 406.99,370.09 409.42,384.03 411.86,374.68 414.30,366.57 416.74,365.46 424.05,358.85 426.49,362.56 428.93,356.66 431.37,336.56 433.81,364.67 441.12,349.09 443.56,354.94 446.00,339.29 448.44,338.38 450.88,334.28 458.19,337.53 460.63,325.15 463.07,328.70 465.51,321.21 467.95,324.98 475.26,327.58 477.70,347.25 480.14,354.01 482.58,358.95 485.01,343.91 492.33,342.98 494.77,337.87 497.21,337.96 499.64,331.40 502.08,350.10 511.84,357.17 514.27,344.87 516.71,333.92 519.15,344.54 526.47,339.96 528.90,329.77 531.34,326.06 533.78,326.19 536.22,326.59 543.53,315.36 545.97,312.71 548.41,319.84 550.85,313.95 553.29,313.11 560.60,311.80 563.04,320.27 565.48,324.58 567.92,324.91 570.36,319.81 577.67,320.61 580.11,321.81 582.55,319.12 584.99,315.77 587.42,311.94 594.74,309.05 597.18,312.12 599.62,307.12 602.05,314.60 604.49,339.72 611.81,311.61 614.25,317.10 616.68,308.85 619.12,310.09 621.56,304.84 628.88,294.15 631.32,301.96 633.75,302.09 636.19,295.84 638.63,283.70 645.95,266.90 648.38,263.64 650.82,248.34 653.26,250.03 655.70,255.70 663.01,254.36 665.45,271.97 667.89,266.56 670.33,275.71 672.77,284.11 680.08,258.98 682.52,263.37 684.96,265.31 687.40,287.10 689.84,284.13 697.15,285.15 699.59,292.38 702.03,272.35 704.47,286.83 706.90,281.74 714.22,240.38 716.66,237.94 719.10,230.18 723.97,230.41 731.29,238.81 733.73,237.89 736.16,239.18 738.60,245.65 741.04,239.38 748.36,241.39 750.79,236.11 753.23,225.97 755.67,236.32 758.11,265.53 765.42,283.61 767.86,283.43 770.30,301.58 772.74,290.62 775.18,279.89 782.49,278.21 784.93,266.56 787.37,264.94 792.25,264.40 799.56,266.05 802.00,265.70 804.44,271.95 809.32,262.27 816.63,252.45 819.07,260.52 821.51,262.46 823.95,255.42 826.38,251.24 833.70,252.97 836.14,253.89 838.58,252.99 841.01,251.26 843.45,250.54 853.21,269.84 855.64,255.69 858.08,251.57 860.52,252.00 867.84,247.93 870.27,242.37 872.71,236.77 875.15,226.04 877.59,227.15 884.90,230.90 887.34,234.92 889.78,245.38 892.22,260.34 894.66,256.68 901.97,249.33 904.41,255.76 906.85,256.49 909.29,271.52 911.73,280.78 921.48,281.49 923.92,267.88 926.36,267.83 928.79,257.57 936.11,257.84 938.55,255.63 940.99,249.74 943.42,267.79 945.86,267.14 953.18,261.98 955.62,266.25 958.05,266.85 960.49,255.02 962.93,258.85 970.25,248.45 972.68,254.53 975.12,250.86 977.56,257.04 980.00,270.36" /><polyline fill="none" stroke="#b45309" stroke-width="3" points="90.00,533.95 92.44,522.10 99.75,517.59 102.19,523.97 104.63,517.61 107.07,519.32 109.51,519.12 116.82,508.59 119.26,507.15 121.70,514.32 124.14,515.89 126.58,527.80 133.89,523.91 136.33,522.26 138.77,518.56 141.21,547.57 143.64,580.34 150.96,581.28 153.40,589.52 155.84,535.14 158.27,560.21 160.71,550.45 168.03,545.05 170.47,546.62 172.90,559.09 175.34,558.30 185.10,571.37 187.53,557.43 189.97,548.91 192.41,537.16 194.85,533.04 202.16,532.82 204.60,529.20 207.04,528.97 209.48,524.87 211.92,516.23 219.23,519.61 221.67,524.53 224.11,522.08 226.55,518.00 228.99,518.75 236.30,499.30 238.74,495.29 241.18,494.50 243.62,491.51 246.05,487.61 253.37,486.93 255.81,489.02 258.25,499.44 260.68,499.20 263.12,503.35 272.88,490.79 275.32,494.36 277.75,491.94 280.19,492.63 287.51,489.16 289.95,485.64 292.38,485.81 294.82,488.81 297.26,482.46 304.58,481.90 307.01,478.35 309.45,480.14 311.89,477.65 314.33,484.69 321.64,478.77 324.08,484.14 326.52,484.23 331.40,485.69 338.71,479.55 341.15,472.62 343.59,472.26 346.03,467.30 348.47,464.12 355.78,461.04 358.22,461.25 360.66,458.32 363.10,453.21 372.85,458.08 375.29,458.44 377.73,454.55 380.16,452.71 382.60,455.01 389.92,453.76 392.36,456.56 394.79,454.38 397.23,450.38 399.67,450.87 406.99,449.62 409.42,449.53 411.86,443.93 414.30,443.71 416.74,440.91 424.05,441.08 426.49,442.83 428.93,443.67 431.37,446.16 433.81,456.99 441.12,447.11 443.56,450.46 446.00,445.43 448.44,445.98 450.88,440.82 458.19,442.14 460.63,435.06 463.07,432.76 465.51,432.70 467.95,434.28 475.26,434.42 477.70,438.07 480.14,439.85 482.58,442.53 485.01,432.32 492.33,435.29 494.77,432.48 497.21,430.94 499.64,428.55 502.08,432.59 511.84,437.59 514.27,433.96 516.71,428.34 519.15,430.30 526.47,428.64 528.90,427.07 531.34,425.10 533.78,419.44 536.22,419.67 543.53,416.00 545.97,416.96 548.41,417.81 550.85,414.59 553.29,411.16 560.60,407.87 563.04,411.68 565.48,413.89 567.92,417.09 570.36,413.13 577.67,411.18 580.11,408.56 582.55,406.18 584.99,405.37 587.42,405.38 594.74,402.87 597.18,405.48 599.62,401.29 602.05,403.34 604.49,422.36 611.81,411.85 614.25,412.70 616.68,409.62 619.12,414.37 621.56,410.44 628.88,403.19 631.32,403.20 633.75,406.86 636.19,402.71 638.63,396.95 645.95,388.57 648.38,386.66 650.82,386.32 653.26,394.24 655.70,391.91 663.01,390.56 665.45,399.06 667.89,396.60 670.33,404.23 672.77,403.54 680.08,392.56 682.52,390.92 684.96,390.52 687.40,402.42 689.84,402.53 697.15,409.10 699.59,414.96 702.03,412.28 704.47,422.88 706.90,416.06 714.22,405.89 716.66,399.29 719.10,394.40 723.97,390.51 731.29,393.78 733.73,392.46 736.16,389.99 738.60,389.46 741.04,388.10 748.36,390.26 750.79,390.88 753.23,386.13 755.67,384.45 758.11,392.22 765.42,393.30 767.86,395.25 770.30,403.09 772.74,397.77 775.18,391.34 782.49,386.88 784.93,383.59 787.37,381.04 792.25,381.11 799.56,383.70 802.00,384.59 804.44,389.94 809.32,388.62 816.63,383.84 819.07,379.54 821.51,381.88 823.95,381.96 826.38,377.16 833.70,376.01 836.14,377.47 838.58,381.06 841.01,379.08 843.45,379.69 853.21,394.50 855.64,386.28 858.08,382.51 860.52,382.25 867.84,378.57 870.27,375.66 872.71,375.74 875.15,377.19 877.59,379.37 884.90,375.75 887.34,381.93 889.78,385.45 892.22,394.46 894.66,380.79 901.97,377.28 904.41,379.21 906.85,379.38 909.29,390.62 911.73,390.12 921.48,388.96 923.92,385.34 926.36,387.25 928.79,382.04 936.11,389.44 938.55,384.23 940.99,378.13 943.42,382.18 945.86,385.66 953.18,385.25 955.62,391.61 958.05,386.56 960.49,390.58 962.93,399.97 970.25,393.78 972.68,394.93 975.12,395.82 977.56,406.62 980.00,410.59" />
<line x1="1000" y1="84" x2="1032" y2="84" stroke="#1d4ed8" stroke-width="2.5" /><text x="1042" y="89" font-size="16" fill="#0f172a">configured_baseline</text><line x1="1000" y1="112" x2="1032" y2="112" stroke="#0f766e" stroke-width="2.5" /><text x="1042" y="117" font-size="16" fill="#0f172a">ridge_walkforward</text><line x1="1000" y1="140" x2="1032" y2="140" stroke="#7c3aed" stroke-width="2.5" /><text x="1042" y="145" font-size="16" fill="#0f172a">tree_walkforward</text><line x1="1000" y1="168" x2="1032" y2="168" stroke="#db2777" stroke-width="2.5" /><text x="1042" y="173" font-size="16" fill="#0f172a">mlp_walkforward</text><line x1="1000" y1="196" x2="1032" y2="196" stroke="#b45309" stroke-width="3" /><text x="1042" y="201" font-size="16" fill="#0f172a">benchmark</text>
</svg>
