<svg xmlns="http://www.w3.org/2000/svg" width="1200" height="720" viewBox="0 0 1200 720">
<rect width="1200" height="720" fill="#f8fafc" />
<text x="90" y="32" font-size="28" font-family="Segoe UI, Arial, sans-serif" fill="#0f172a">US Stocks Strategy Value - Last 252 Trading Days</text>
<text x="90" y="54" font-size="15" font-family="Segoe UI, Arial, sans-serif" fill="#475569">Initial capital assumed: $100,000</text>
<rect x="90" y="60" width="890" height="580" fill="#ffffff" stroke="#cbd5e1" />
<line x1="90" y1="640.00" x2="980" y2="640.00" stroke="#e2e8f0" stroke-width="1" /><text x="78" y="645.00" font-size="14" text-anchor="end" fill="#475569">$82,398</text><line x1="90" y1="495.00" x2="980" y2="495.00" stroke="#e2e8f0" stroke-width="1" /><text x="78" y="500.00" font-size="14" text-anchor="end" fill="#475569">$97,543</text><line x1="90" y1="350.00" x2="980" y2="350.00" stroke="#e2e8f0" stroke-width="1" /><text x="78" y="355.00" font-size="14" text-anchor="end" fill="#475569">$112,688</text><line x1="90" y1="205.00" x2="980" y2="205.00" stroke="#e2e8f0" stroke-width="1" /><text x="78" y="210.00" font-size="14" text-anchor="end" fill="#475569">$127,832</text><line x1="90" y1="60.00" x2="980" y2="60.00" stroke="#e2e8f0" stroke-width="1" /><text x="78" y="65.00" font-size="14" text-anchor="end" fill="#475569">$142,977</text>
<line x1="90.00" y1="60" x2="90.00" y2="640" stroke="#f1f5f9" stroke-width="1" /><text x="90.00" y="668" font-size="14" text-anchor="middle" fill="#475569">2025-03-19</text><line x1="536.22" y1="60" x2="536.22" y2="640" stroke="#f1f5f9" stroke-width="1" /><text x="536.22" y="668" font-size="14" text-anchor="middle" fill="#475569">2025-09-18</text><line x1="980.00" y1="60" x2="980.00" y2="640" stroke="#f1f5f9" stroke-width="1" /><text x="980.00" y="668" font-size="14" text-anchor="middle" fill="#475569">2026-03-19</text>
<polyline fill="none" stroke="#1d4ed8" stroke-width="2.5" points="90.00,471.47 92.44,473.39 94.88,468.77 102.19,452.05 104.63,448.33 107.07,455.37 109.51,454.04 111.95,472.29 119.26,467.43 121.70,477.33 124.14,477.98 126.58,502.54 129.01,556.00 136.33,562.42 138.77,575.45 141.21,528.13 143.64,553.32 146.08,538.56 153.40,534.91 155.84,538.64 158.27,545.70 160.71,558.00 170.47,576.73 172.90,563.45 175.34,563.15 177.78,557.03 180.22,552.95 187.53,547.32 189.97,549.21 192.41,552.04 194.85,562.69 197.29,545.22 204.60,548.48 207.04,556.52 209.48,548.80 211.92,549.74 214.36,553.09 221.67,539.03 224.11,534.46 226.55,540.98 228.99,528.32 231.42,520.66 238.74,516.75 241.18,517.35 243.62,527.71 246.05,529.33 248.49,533.41 258.25,520.14 260.68,519.63 263.12,515.28 265.56,505.58 272.88,497.16 275.32,489.66 277.75,484.54 280.19,486.69 282.63,486.52 289.95,486.58 292.38,487.91 294.82,484.34 297.26,485.92 299.70,504.64 307.01,493.00 309.45,497.76 311.89,501.14 316.77,502.31 324.08,491.05 326.52,473.16 328.96,469.22 331.40,456.70 333.84,444.66 341.15,438.01 343.59,459.50 346.03,446.69 348.47,434.41 358.22,444.08 360.66,443.46 363.10,432.80 365.53,430.90 367.97,433.52 375.29,430.89 377.73,416.15 380.16,410.15 382.60,399.48 385.04,411.28 392.36,407.30 394.79,426.84 397.23,413.74 399.67,404.23 402.11,397.35 409.42,387.57 411.86,385.50 414.30,378.10 416.74,368.92 419.18,397.49 426.49,373.40 428.93,379.59 431.37,377.36 433.81,372.18 436.25,365.13 443.56,366.07 446.00,353.52 448.44,360.26 450.88,355.92 453.32,360.57 460.63,360.75 463.07,390.36 465.51,397.33 467.95,400.28 470.38,384.04 477.70,386.19 480.14,378.86 482.58,375.44 485.01,363.54 487.45,388.08 497.21,394.93 499.64,390.23 502.08,384.48 504.52,388.58 511.84,387.21 514.27,368.65 516.71,366.00 519.15,356.42 521.59,361.79 528.90,355.10 531.34,354.11 533.78,350.35 536.22,321.97 538.66,325.94 545.97,329.24 548.41,320.33 550.85,313.33 553.29,303.22 555.73,291.44 563.04,299.36 565.48,305.57 567.92,295.85 570.36,291.87 572.79,294.17 580.11,289.70 582.55,293.96 584.99,291.13 587.42,288.89 589.86,319.30 597.18,290.29 599.62,301.64 602.05,290.56 604.49,293.47 606.93,297.60 614.25,286.98 616.68,292.44 619.12,309.38 621.56,292.99 624.00,274.69 631.32,250.78 633.75,238.20 636.19,235.98 638.63,246.73 641.07,245.80 648.38,236.36 650.82,269.77 653.26,257.35 655.70,284.27 658.14,288.40 665.45,259.35 667.89,268.54 670.33,255.69 672.77,281.65 675.21,282.25 682.52,291.07 684.96,310.20 687.40,295.33 689.84,330.21 692.27,321.44 699.59,277.47 702.03,279.20 704.47,265.57 709.34,245.85 716.66,261.56 719.10,249.78 721.53,246.27 723.97,263.15 726.41,254.76 733.73,260.07 736.16,260.97 738.60,245.47 741.04,252.99 743.48,275.23 750.79,276.35 753.23,287.08 755.67,309.95 758.11,302.40 760.55,289.26 767.86,289.57 770.30,287.36 772.74,284.26 777.62,283.25 784.93,283.36 787.37,282.09 789.81,288.92 794.68,283.38 802.00,275.64 804.44,274.97 806.88,269.59 809.32,273.08 811.75,272.53 819.07,268.52 821.51,272.28 823.95,273.90 826.38,270.15 828.82,275.56 838.58,294.71 841.01,279.75 843.45,269.71 845.89,278.56 853.21,267.06 855.64,263.52 858.08,261.72 860.52,265.77 862.96,265.80 870.27,257.12 872.71,253.10 875.15,247.22 877.59,254.53 880.03,232.22 887.34,227.51 889.78,236.51 892.22,232.14 894.66,248.70 897.10,247.46 906.85,253.09 909.29,247.02 911.73,256.11 914.16,259.95 921.48,260.38 923.92,248.94 926.36,246.48 928.79,254.17 931.23,253.03 938.55,248.85 940.99,269.16 943.42,268.99 945.86,288.96 948.30,287.16 955.62,283.68 958.05,287.97 960.49,288.83 962.93,299.96 965.37,298.24 972.68,290.50 975.12,294.65 977.56,307.49 980.00,316.68" /><polyline fill="none" stroke="#0f766e" stroke-width="2.5" points="90.00,471.47 92.44,471.47 94.88,471.47 102.19,471.47 104.63,471.47 107.07,471.47 109.51,471.47 111.95,471.47 119.26,472.39 121.70,480.92 124.14,476.57 126.58,505.77 129.01,566.74 136.33,566.37 138.77,586.33 141.21,504.95 143.64,545.04 146.08,531.97 153.40,523.79 155.84,526.97 158.27,547.39 160.71,547.29 170.47,567.96 172.90,549.53 175.34,533.03 177.78,513.05 180.22,508.49 187.53,500.88 189.97,501.02 192.41,504.24 194.85,497.45 197.29,478.58 204.60,481.62 207.04,485.24 209.48,475.62 211.92,469.56 214.36,470.45 221.67,448.86 224.11,430.03 226.55,424.54 228.99,415.50 231.42,411.99 238.74,409.24 241.18,410.25 243.62,422.31 246.05,421.28 248.49,427.24 258.25,409.64 260.68,408.89 263.12,401.09 265.56,397.34 272.88,386.86 275.32,381.38 277.75,376.95 280.19,383.11 282.63,381.89 289.95,384.79 292.38,388.23 294.82,386.91 297.26,389.68 299.70,410.19 307.01,398.79 309.45,404.43 311.89,409.27 316.77,406.89 324.08,391.97 326.52,375.84 328.96,378.91 331.40,366.17 333.84,355.14 341.15,346.72 343.59,363.66 346.03,352.51 348.47,336.01 358.22,340.67 360.66,342.72 363.10,326.83 365.53,325.90 367.97,330.41 375.29,323.59 377.73,316.69 380.16,311.75 382.60,304.97 385.04,307.59 392.36,305.54 394.79,321.91 397.23,303.30 399.67,297.19 402.11,290.29 409.42,284.46 411.86,290.57 414.30,283.95 416.74,277.57 419.18,298.86 426.49,269.91 428.93,278.48 431.37,276.73 433.81,269.82 436.25,259.38 443.56,263.93 446.00,243.98 448.44,253.38 450.88,255.77 453.32,265.42 460.63,268.09 463.07,302.60 465.51,304.67 467.95,309.31 470.38,294.04 477.70,299.18 480.14,282.79 482.58,281.48 485.01,270.56 487.45,298.17 497.21,302.99 499.64,302.94 502.08,293.01 504.52,299.27 511.84,293.18 514.27,287.61 516.71,267.10 519.15,275.46 521.59,274.98 528.90,266.01 531.34,263.27 533.78,271.48 536.22,264.95 538.66,263.76 545.97,261.86 548.41,265.75 550.85,271.13 553.29,275.89 555.73,273.42 563.04,274.43 565.48,272.15 567.92,279.93 570.36,284.85 572.79,280.01 580.11,278.55 582.55,279.00 584.99,277.55 587.42,280.24 589.86,303.82 597.18,287.82 599.62,284.66 602.05,284.06 604.49,290.96 606.93,283.54 614.25,276.47 616.68,278.49 619.12,286.03 621.56,279.96 624.00,269.82 631.32,256.03 633.75,250.46 636.19,252.80 638.63,250.96 641.07,251.76 648.38,252.55 650.82,274.52 653.26,269.76 655.70,281.94 658.14,278.70 665.45,259.90 667.89,261.48 670.33,254.79 672.77,268.59 675.21,264.00 682.52,274.89 684.96,279.84 687.40,262.85 689.84,285.76 692.27,280.09 699.59,252.77 702.03,251.30 704.47,238.28 709.34,220.97 716.66,235.45 719.10,225.17 721.53,220.65 723.97,238.91 726.41,231.72 733.73,242.09 736.16,242.44 738.60,228.89 741.04,238.87 743.48,262.76 750.79,266.08 753.23,274.80 755.67,296.23 758.11,286.51 760.55,271.71 767.86,270.79 770.30,264.55 772.74,261.94 777.62,260.92 784.93,260.06 787.37,258.04 789.81,266.71 794.68,252.22 802.00,240.50 804.44,243.62 806.88,243.53 809.32,244.76 811.75,243.33 819.07,244.60 821.51,246.34 823.95,253.80 826.38,243.43 828.82,243.61 838.58,269.25 841.01,251.00 843.45,243.26 845.89,253.96 853.21,243.24 855.64,239.76 858.08,237.16 860.52,228.89 862.96,228.69 870.27,218.61 872.71,222.42 875.15,252.86 877.59,270.07 880.03,239.69 887.34,225.66 889.78,231.55 892.22,238.29 894.66,280.57 897.10,282.48 906.85,283.22 909.29,270.29 911.73,270.77 914.16,265.23 921.48,274.65 923.92,261.35 926.36,251.61 928.79,268.42 931.23,273.11 938.55,271.07 940.99,294.61 943.42,284.47 945.86,297.09 948.30,311.50 955.62,301.92 958.05,296.16 960.49,287.70 962.93,303.39 965.37,302.23 972.68,295.74 975.12,309.35 977.56,314.17 980.00,312.61" /><polyline fill="none" stroke="#7c3aed" stroke-width="2.5" points="90.00,471.47 92.44,471.47 94.88,471.47 102.19,471.47 104.63,471.47 107.07,471.47 109.51,471.47 111.95,471.47 119.26,472.39 121.70,482.87 124.14,480.35 126.58,523.65 129.01,580.86 136.33,585.03 138.77,600.00 141.21,523.16 143.64,560.21 146.08,541.97 153.40,536.15 155.84,539.54 158.27,554.76 160.71,544.98 170.47,561.35 172.90,547.40 175.34,532.17 177.78,515.74 180.22,503.71 187.53,494.96 189.97,494.84 192.41,492.91 194.85,488.64 197.29,470.66 204.60,475.54 207.04,478.81 209.48,472.50 211.92,465.66 214.36,464.63 221.67,446.59 224.11,433.75 226.55,433.82 228.99,423.92 231.42,421.08 238.74,420.15 241.18,421.15 243.62,432.27 246.05,432.42 248.49,435.82 258.25,421.07 260.68,421.30 263.12,415.84 265.56,409.67 272.88,399.31 275.32,393.90 277.75,389.52 280.19,395.61 282.63,394.40 289.95,397.27 292.38,400.67 294.82,399.36 297.26,402.10 299.70,422.36 307.01,411.09 309.45,416.67 311.89,421.45 316.77,419.10 324.08,404.35 326.52,388.42 328.96,391.45 331.40,378.87 333.84,367.97 341.15,359.14 343.59,376.41 346.03,375.17 348.47,361.17 358.22,364.60 360.66,374.70 363.10,360.79 365.53,362.16 367.97,365.89 375.29,355.39 377.73,358.21 380.16,358.77 382.60,353.18 385.04,359.50 392.36,353.37 394.79,367.20 397.23,353.33 399.67,349.88 402.11,343.47 409.42,342.53 411.86,349.80 414.30,343.78 416.74,343.08 419.18,357.82 426.49,334.18 428.93,339.41 431.37,342.76 433.81,338.97 436.25,332.88 443.56,333.68 446.00,316.07 448.44,319.79 450.88,318.29 453.32,323.98 460.63,325.92 463.07,351.93 465.51,352.44 467.95,356.03 470.38,339.88 477.70,347.33 480.14,332.66 482.58,329.55 485.01,320.55 487.45,339.66 497.21,344.42 499.64,355.02 502.08,349.92 504.52,362.59 511.84,359.21 514.27,352.07 516.71,355.96 519.15,355.81 521.59,363.10 528.90,360.87 531.34,352.83 533.78,347.76 536.22,349.27 538.66,354.76 545.97,361.84 548.41,362.81 550.85,361.60 553.29,364.95 555.73,356.38 563.04,364.01 565.48,372.37 567.92,381.49 570.36,387.16 572.79,381.11 580.11,377.35 582.55,380.53 584.99,386.49 587.42,391.53 589.86,407.59 597.18,388.85 599.62,384.41 602.05,380.95 604.49,390.60 606.93,386.16 614.25,376.64 616.68,382.78 619.12,389.57 621.56,383.78 624.00,372.12 631.32,358.35 633.75,362.22 636.19,362.44 638.63,356.17 641.07,356.17 648.38,350.06 650.82,358.05 653.26,353.72 655.70,358.75 658.14,357.82 665.45,342.55 667.89,336.18 670.33,328.78 672.77,341.26 675.21,345.98 682.52,349.28 684.96,354.41 687.40,343.70 689.84,360.36 692.27,350.72 699.59,334.82 702.03,325.06 704.47,320.31 709.34,310.80 716.66,320.79 719.10,324.46 721.53,315.37 723.97,321.67 726.41,321.76 733.73,331.83 736.16,338.83 738.60,320.28 741.04,317.52 743.48,318.29 750.79,309.88 753.23,326.83 755.67,332.02 758.11,328.24 760.55,320.14 767.86,312.26 770.30,308.33 772.74,303.75 777.62,304.19 784.93,304.43 787.37,304.65 789.81,310.14 794.68,297.29 802.00,291.58 804.44,295.10 806.88,290.12 809.32,293.62 811.75,292.90 819.07,288.61 821.51,281.99 823.95,284.73 826.38,274.62 828.82,276.80 838.58,297.70 841.01,279.71 843.45,272.58 845.89,279.27 853.21,269.48 855.64,263.88 858.08,259.51 860.52,254.29 862.96,254.16 870.27,236.29 872.71,237.18 875.15,274.75 877.59,290.65 880.03,262.20 887.34,251.73 889.78,260.26 892.22,277.71 894.66,315.34 897.10,310.27 906.85,302.34 909.29,295.16 911.73,296.63 914.16,284.93 921.48,307.88 923.92,289.07 926.36,281.02 928.79,289.72 931.23,305.82 938.55,303.84 940.99,326.70 943.42,316.85 945.86,329.11 948.30,343.12 955.62,333.81 958.05,328.21 960.49,319.99 962.93,335.24 965.37,334.11 972.68,327.80 975.12,341.03 977.56,345.71 980.00,344.46" /><polyline fill="none" stroke="#db2777" stroke-width="2.5" points="90.00,471.47 92.44,471.47 94.88,471.47 102.19,471.47 104.63,471.47 107.07,471.47 109.51,471.47 111.95,471.47 119.26,472.39 121.70,486.80 124.14,485.30 126.58,501.90 129.01,564.88 136.33,569.76 138.77,588.09 141.21,525.50 143.64,560.13 146.08,551.00 153.40,538.10 155.84,535.45 158.27,554.51 160.71,535.07 170.47,549.35 172.90,529.63 175.34,519.74 177.78,502.56 180.22,497.53 187.53,491.27 189.97,488.61 192.41,490.22 194.85,486.78 197.29,467.00 204.60,471.36 207.04,476.61 209.48,468.32 211.92,458.60 214.36,456.46 221.67,436.76 224.11,422.37 226.55,427.43 228.99,417.80 231.42,414.19 238.74,413.18 241.18,413.74 243.62,426.74 246.05,427.47 248.49,434.92 258.25,418.31 260.68,418.01 263.12,414.93 265.56,411.89 272.88,401.56 275.32,396.16 277.75,391.79 280.19,397.86 282.63,396.66 289.95,399.52 292.38,402.91 294.82,401.61 297.26,404.34 299.70,424.56 307.01,413.32 309.45,418.88 311.89,423.65 316.77,421.30 324.08,406.59 326.52,390.69 328.96,393.72 331.40,381.16 333.84,370.28 341.15,361.98 343.59,380.26 346.03,375.86 348.47,361.75 358.22,363.86 360.66,367.39 363.10,350.80 365.53,350.25 367.97,351.73 375.29,344.41 377.73,340.13 380.16,338.88 382.60,334.73 385.04,335.96 392.36,332.94 394.79,347.21 397.23,330.94 399.67,324.17 402.11,317.96 409.42,313.99 411.86,321.16 414.30,314.87 416.74,305.34 419.18,326.81 426.49,298.23 428.93,305.62 431.37,306.57 433.81,302.12 436.25,295.33 443.56,298.00 446.00,275.45 448.44,282.45 450.88,282.17 453.32,288.48 460.63,292.60 463.07,327.78 465.51,330.63 467.95,335.85 470.38,316.77 477.70,322.01 480.14,306.60 482.58,305.29 485.01,296.27 487.45,323.23 497.21,326.76 499.64,330.72 502.08,321.89 504.52,321.63 511.84,317.43 514.27,314.79 516.71,302.00 519.15,315.32 521.59,319.49 528.90,309.34 531.34,302.68 533.78,312.73 536.22,277.90 538.66,283.01 545.97,293.61 548.41,289.09 550.85,280.91 553.29,277.31 555.73,267.40 563.04,275.15 565.48,279.94 567.92,285.71 570.36,289.31 572.79,287.11 580.11,283.95 582.55,287.04 584.99,285.94 587.42,289.01 589.86,312.58 597.18,294.24 599.62,290.43 602.05,285.90 604.49,291.37 606.93,284.92 614.25,276.66 616.68,281.97 619.12,291.26 621.56,285.97 624.00,271.48 631.32,253.38 633.75,247.62 636.19,247.96 638.63,240.40 641.07,241.23 648.38,239.67 650.82,269.35 653.26,259.42 655.70,282.11 658.14,283.31 665.45,262.75 667.89,268.21 670.33,251.39 672.77,275.92 675.21,274.39 682.52,292.55 684.96,304.20 687.40,287.21 689.84,318.17 692.27,314.50 699.59,285.47 702.03,282.70 704.47,264.86 709.34,243.76 716.66,259.49 719.10,264.02 721.53,252.75 723.97,256.18 726.41,251.30 733.73,252.63 736.16,257.04 738.60,238.77 741.04,233.52 743.48,254.01 750.79,253.97 753.23,268.85 755.67,277.83 758.11,272.94 760.55,258.18 767.86,250.12 770.30,243.31 772.74,237.94 777.62,237.84 784.93,241.53 787.37,242.50 789.81,250.62 794.68,238.36 802.00,231.76 804.44,229.62 806.88,224.59 809.32,232.44 811.75,233.94 819.07,230.81 821.51,232.78 823.95,241.18 826.38,228.87 828.82,230.50 838.58,257.35 841.01,242.44 843.45,234.36 845.89,245.48 853.21,233.68 855.64,230.38 858.08,226.44 860.52,221.45 862.96,222.76 870.27,209.21 872.71,213.01 875.15,249.96 877.59,269.84 880.03,235.59 887.34,227.51 889.78,245.30 892.22,249.97 894.66,277.14 897.10,278.61 906.85,273.96 909.29,266.14 911.73,264.67 914.16,254.43 921.48,269.36 923.92,244.74 926.36,235.84 928.79,255.83 931.23,266.31 938.55,264.26 940.99,287.93 943.42,277.73 945.86,290.43 948.30,304.92 955.62,295.29 958.05,289.50 960.49,280.98 962.93,296.77 965.37,295.60 972.68,289.07 975.12,302.76 977.56,307.61 980.00,305.77" /><polyline fill="none" stroke="#b45309" stroke-width="2.5" points="90.00,471.47 92.44,471.47 94.88,471.47 102.19,471.47 104.63,471.47 107.07,471.47 109.51,471.47 111.95,471.47 119.26,472.39 121.70,477.83 124.14,479.18 126.58,501.41 129.01,550.50 136.33,558.02 138.77,574.12 141.21,524.04 143.64,549.31 146.08,535.44 153.40,528.06 155.84,531.84 158.27,544.95 160.71,538.80 170.47,555.84 172.90,538.97 175.34,533.79 177.78,525.43 180.22,518.00 187.53,512.77 189.97,509.52 192.41,510.14 194.85,507.10 197.29,488.36 204.60,492.07 207.04,500.49 209.48,493.92 211.92,489.76 214.36,490.54 221.67,472.19 224.11,461.53 226.55,467.57 228.99,455.72 231.42,451.34 238.74,447.77 241.18,448.25 243.62,459.55 246.05,458.99 248.49,462.92 258.25,448.11 260.68,448.45 263.12,443.15 265.56,436.03 272.88,426.09 275.32,422.31 277.75,418.06 280.19,422.59 282.63,422.09 289.95,425.17 292.38,428.38 294.82,427.82 297.26,429.44 299.70,447.35 307.01,440.18 309.45,447.40 311.89,455.25 316.77,454.15 324.08,440.11 326.52,425.32 328.96,429.38 331.40,419.45 333.84,407.96 341.15,400.88 343.59,414.62 346.03,400.45 348.47,383.43 358.22,390.78 360.66,397.31 363.10,384.02 365.53,384.34 367.97,387.54 375.29,382.40 377.73,374.36 380.16,370.80 382.60,357.29 385.04,367.67 392.36,365.25 394.79,382.54 397.23,368.35 399.67,362.92 402.11,356.94 409.42,351.53 411.86,355.20 414.30,347.23 416.74,354.10 419.18,383.88 426.49,363.29 428.93,367.82 431.37,365.66 433.81,360.58 436.25,352.83 443.56,357.52 446.00,343.09 448.44,345.43 450.88,344.76 453.32,351.28 460.63,354.30 463.07,384.23 465.51,388.11 467.95,394.00 470.38,376.16 477.70,382.30 480.14,372.32 482.58,370.38 485.01,362.99 487.45,386.56 497.21,390.92 499.64,395.43 502.08,392.56 504.52,399.50 511.84,396.42 514.27,394.74 516.71,369.28 519.15,374.89 521.59,378.55 528.90,371.50 531.34,368.08 533.78,375.71 536.22,343.20 538.66,350.11 545.97,348.66 548.41,347.10 550.85,339.08 553.29,330.01 555.73,326.00 563.04,332.17 565.48,329.66 567.92,321.30 570.36,318.97 572.79,318.63 580.11,312.88 582.55,313.58 584.99,310.58 587.42,319.24 589.86,345.12 597.18,331.06 599.62,329.62 602.05,319.12 604.49,323.90 606.93,313.63 614.25,300.21 616.68,300.24 619.12,307.55 621.56,298.47 624.00,292.42 631.32,272.21 633.75,263.18 636.19,261.40 638.63,265.10 641.07,270.97 648.38,264.36 650.82,296.91 653.26,281.95 655.70,311.45 658.14,310.79 665.45,287.65 667.89,296.69 670.33,282.33 672.77,313.74 675.21,313.24 682.52,333.37 684.96,350.40 687.40,341.21 689.84,375.51 692.27,370.77 699.59,337.64 702.03,343.01 704.47,325.10 709.34,304.04 716.66,321.62 719.10,312.99 721.53,304.11 723.97,316.70 726.41,308.38 733.73,312.61 736.16,318.75 738.60,301.98 741.04,301.22 743.48,325.55 750.79,325.39 753.23,336.60 755.67,352.60 758.11,346.26 760.55,330.66 767.86,326.36 770.30,321.48 772.74,316.94 777.62,316.57 784.93,319.84 787.37,319.01 789.81,327.31 794.68,313.58 802.00,302.47 804.44,305.42 806.88,305.34 809.32,306.51 811.75,305.15 819.07,306.35 821.51,308.00 823.95,315.07 826.38,305.25 828.82,305.42 838.58,329.72 841.01,312.43 843.45,305.09 845.89,315.23 853.21,305.07 855.64,301.77 858.08,299.31 860.52,291.47 862.96,291.55 870.27,279.51 872.71,288.36 875.15,319.17 877.59,333.48 880.03,304.06 887.34,291.82 889.78,298.91 892.22,312.36 894.66,346.26 897.10,344.83 906.85,342.96 909.29,337.44 911.73,341.01 914.16,333.55 921.48,346.42 923.92,331.00 926.36,323.37 928.79,339.24 931.23,348.47 938.55,346.56 940.99,368.56 943.42,359.08 945.86,370.88 948.30,384.35 955.62,375.40 958.05,370.01 960.49,362.10 962.93,376.77 965.37,375.68 972.68,369.62 975.12,382.34 977.56,386.85 980.00,385.39" /><polyline fill="none" stroke="#475569" stroke-width="2.5" points="90.00,471.47 92.44,471.47 94.88,471.47 102.19,471.47 104.63,471.47 107.07,471.47 109.51,471.47 111.95,471.47 119.26,472.39 121.70,480.89 124.14,480.15 126.58,508.72 129.01,563.24 136.33,570.46 138.77,585.63 141.21,534.52 143.64,566.61 146.08,551.05 153.40,543.10 155.84,542.21 158.27,556.72 160.71,533.45 170.47,553.65 172.90,536.60 175.34,531.50 177.78,520.63 180.22,508.67 187.53,504.67 189.97,502.49 192.41,502.10 194.85,500.94 197.29,485.24 204.60,486.20 207.04,492.41 209.48,487.33 211.92,483.23 214.36,484.85 221.67,470.32 224.11,478.84 226.55,479.60 228.99,483.07 231.42,473.02 238.74,461.15 241.18,459.00 243.62,474.98 246.05,477.28 248.49,482.01 258.25,469.24 260.68,466.73 263.12,463.10 265.56,454.97 272.88,445.22 275.32,441.52 277.75,437.35 280.19,441.79 282.63,441.30 289.95,444.33 292.38,447.47 294.82,446.92 297.26,448.51 299.70,466.08 307.01,459.05 309.45,466.13 311.89,473.83 316.77,472.75 324.08,458.98 326.52,444.48 328.96,448.45 331.40,438.71 333.84,427.44 341.15,420.74 343.59,437.33 346.03,426.31 348.47,411.14 358.22,414.98 360.66,416.56 363.10,401.27 365.53,399.99 367.97,402.29 375.29,395.76 377.73,387.44 380.16,383.22 382.60,377.10 385.04,379.49 392.36,378.11 394.79,394.27 397.23,377.57 399.67,370.00 402.11,363.60 409.42,357.01 411.86,362.79 414.30,357.02 416.74,346.37 419.18,360.90 426.49,335.26 428.93,342.32 431.37,343.49 433.81,334.08 436.25,321.60 443.56,327.21 446.00,309.79 448.44,306.16 450.88,308.89 453.32,317.75 460.63,321.27 463.07,342.36 465.51,344.02 467.95,348.36 470.38,327.25 477.70,331.51 480.14,319.73 482.58,319.52 485.01,314.58 487.45,326.76 497.21,329.82 499.64,333.79 502.08,328.72 504.52,338.66 511.84,333.15 514.27,330.50 516.71,304.12 519.15,314.79 521.59,319.26 528.90,311.55 531.34,310.85 533.78,317.61 536.22,312.12 538.66,314.15 545.97,312.24 548.41,312.86 550.85,316.14 553.29,316.91 555.73,317.03 563.04,319.99 565.48,313.35 567.92,308.09 570.36,306.63 572.79,305.72 580.11,300.07 582.55,300.55 584.99,298.31 587.42,300.17 589.86,330.29 597.18,308.76 599.62,313.61 602.05,304.70 604.49,312.73 606.93,306.17 614.25,292.86 616.68,297.42 619.12,308.53 621.56,295.63 624.00,280.64 631.32,256.92 633.75,242.89 636.19,239.03 638.63,240.09 641.07,241.53 648.38,233.12 650.82,249.90 653.26,250.66 655.70,267.22 658.14,265.81 665.45,243.20 667.89,246.36 670.33,236.21 672.77,254.89 675.21,251.26 682.52,263.70 684.96,277.29 687.40,265.77 689.84,289.78 692.27,290.46 699.59,265.22 702.03,260.74 704.47,247.97 709.34,239.32 716.66,254.41 719.10,248.23 721.53,239.58 723.97,253.90 726.41,248.65 733.73,255.79 736.16,261.10 738.60,243.95 741.04,246.63 743.48,269.41 750.79,270.73 753.23,284.50 755.67,296.94 758.11,291.89 760.55,278.01 767.86,272.62 770.30,266.44 772.74,263.31 777.62,262.48 784.93,261.94 787.37,259.31 789.81,267.96 794.68,253.48 802.00,241.78 804.44,244.89 806.88,244.80 809.32,246.03 811.75,244.60 819.07,245.87 821.51,247.61 823.95,255.06 826.38,244.71 828.82,244.89 838.58,270.50 841.01,252.27 843.45,244.53 845.89,255.22 853.21,244.52 855.64,241.04 858.08,238.44 860.52,230.18 862.96,230.27 870.27,218.32 872.71,227.09 875.15,260.67 877.59,278.49 880.03,238.16 887.34,223.55 889.78,227.69 892.22,239.20 894.66,280.48 897.10,277.40 906.85,272.09 909.29,264.13 911.73,270.27 914.16,267.05 921.48,283.68 923.92,265.57 926.36,255.43 928.79,268.63 931.23,290.84 938.55,288.83 940.99,312.00 943.42,302.02 945.86,314.45 948.30,328.64 955.62,319.21 958.05,313.53 960.49,305.20 962.93,320.66 965.37,319.51 972.68,313.12 975.12,326.52 977.56,331.27 980.00,329.47" /><polyline fill="none" stroke="#1d4ed8" stroke-width="2.5" points="90.00,471.47 92.44,471.47 94.88,471.47 102.19,471.47 104.63,471.47 107.07,471.47 109.51,471.47 111.95,471.47 119.26,472.39 121.70,480.88 124.14,477.20 126.58,507.70 129.01,566.00 136.33,566.92 138.77,586.61 141.21,509.27 143.64,550.09 146.08,540.91 153.40,534.97 155.84,541.56 158.27,558.26 160.71,555.34 170.47,574.60 172.90,555.10 175.34,538.57 177.78,519.93 180.22,517.22 187.53,506.94 189.97,506.42 192.41,510.84 194.85,505.07 197.29,487.36 204.60,489.58 207.04,493.56 209.48,495.66 211.92,487.87 214.36,489.17 221.67,469.93 224.11,457.21 226.55,452.45 228.99,444.22 231.42,439.70 238.74,436.93 241.18,438.70 243.62,444.82 246.05,443.12 248.49,449.24 258.25,432.70 260.68,431.73 263.12,428.34 265.56,421.27 272.88,412.44 275.32,408.84 277.75,405.53 280.19,411.62 282.63,412.06 289.95,414.42 292.38,415.42 294.82,413.27 297.26,416.60 299.70,434.35 307.01,427.29 309.45,434.65 311.89,441.56 316.77,440.86 324.08,427.12 326.52,411.76 328.96,415.19 331.40,404.47 333.84,392.97 341.15,385.65 343.59,405.70 346.03,400.42 348.47,387.27 358.22,390.68 360.66,398.54 363.10,383.95 365.53,383.43 367.97,384.98 375.29,375.07 377.73,371.54 380.16,371.95 382.60,366.97 385.04,373.18 392.36,368.42 394.79,384.95 397.23,369.35 399.67,363.13 402.11,357.73 409.42,352.95 411.86,361.14 414.30,353.03 416.74,353.24 419.18,385.55 426.49,359.82 428.93,365.33 431.37,360.36 433.81,356.55 436.25,349.56 443.56,351.49 446.00,334.28 448.44,335.35 450.88,331.01 453.32,336.67 460.63,339.31 463.07,370.86 465.51,377.95 467.95,384.14 470.38,360.18 477.70,362.45 480.14,356.01 482.58,354.47 485.01,343.40 487.45,369.78 497.21,373.21 499.64,385.41 502.08,382.81 504.52,398.47 511.84,397.71 514.27,392.40 516.71,386.99 519.15,385.17 521.59,394.21 528.90,390.96 531.34,384.26 533.78,378.30 536.22,350.99 538.66,359.85 545.97,367.18 548.41,359.95 550.85,350.85 553.29,339.53 555.73,323.94 563.04,337.14 565.48,346.23 567.92,334.93 570.36,331.38 572.79,331.87 580.11,328.41 582.55,331.88 584.99,323.75 587.42,322.73 589.86,350.60 597.18,333.14 599.62,343.16 602.05,333.91 604.49,333.22 606.93,332.22 614.25,328.63 616.68,329.28 619.12,335.13 621.56,325.80 624.00,317.87 631.32,304.01 633.75,286.55 636.19,289.04 638.63,306.45 641.07,308.18 648.38,302.58 650.82,314.53 653.26,310.88 655.70,324.59 658.14,323.06 665.45,310.81 667.89,301.67 670.33,291.21 672.77,299.36 675.21,299.19 682.52,311.76 684.96,321.26 687.40,316.88 689.84,337.64 692.27,330.94 699.59,321.11 702.03,316.06 704.47,308.00 709.34,297.18 716.66,310.01 719.10,312.69 721.53,305.25 723.97,309.25 726.41,304.57 733.73,303.16 736.16,309.37 738.60,290.32 741.04,281.75 743.48,297.41 750.79,298.07 753.23,312.98 755.67,321.91 758.11,320.74 760.55,309.83 767.86,304.11 770.30,300.64 772.74,294.29 777.62,294.63 784.93,298.25 787.37,299.56 789.81,305.86 794.68,291.86 802.00,280.54 804.44,283.55 806.88,283.46 809.32,284.65 811.75,283.27 819.07,284.50 821.51,286.18 823.95,293.38 826.38,283.37 828.82,283.54 838.58,308.32 841.01,290.69 843.45,283.20 845.89,293.54 853.21,283.19 855.64,279.82 858.08,277.31 860.52,269.32 862.96,269.40 870.27,253.77 872.71,262.26 875.15,301.66 877.59,321.12 880.03,286.81 887.34,275.43 889.78,292.49 892.22,302.70 894.66,329.78 897.10,331.13 906.85,328.37 909.29,324.57 911.73,331.23 914.16,324.45 921.48,342.77 923.92,319.45 926.36,308.16 928.79,325.52 931.23,349.32 938.55,347.41 940.99,369.39 943.42,359.92 945.86,371.71 948.30,385.17 955.62,376.23 958.05,370.84 960.49,362.94 962.93,377.60 965.37,376.51 972.68,370.45 975.12,383.16 977.56,387.66 980.00,385.71" /><polyline fill="none" stroke="#0f766e" stroke-width="2.5" points="90.00,471.47 92.44,471.47 94.88,471.47 102.19,471.47 104.63,471.47 107.07,471.47 109.51,471.47 111.95,471.47 119.26,472.39 121.70,485.49 124.14,482.48 126.58,507.46 129.01,563.58 136.33,573.83 138.77,583.17 141.21,537.74 143.64,562.54 146.08,554.11 153.40,542.66 155.84,547.13 158.27,555.98 160.71,525.24 170.47,543.38 172.90,528.55 175.34,522.95 177.78,514.25 180.22,503.79 187.53,495.59 189.97,491.82 192.41,490.09 194.85,486.07 197.29,468.02 204.60,470.36 207.04,473.16 209.48,466.38 211.92,460.85 214.36,461.25 221.67,441.94 224.11,429.21 226.55,428.09 228.99,417.06 231.42,410.34 238.74,406.70 241.18,407.53 243.62,418.32 246.05,418.14 248.49,424.66 258.25,409.28 260.68,408.16 263.12,404.00 265.56,396.16 272.88,385.66 275.32,380.18 277.75,375.74 280.19,381.91 282.63,380.69 289.95,383.59 292.38,387.04 294.82,385.71 297.26,388.49 299.70,409.02 307.01,397.60 309.45,403.26 311.89,408.10 316.77,405.71 324.08,390.78 326.52,374.63 328.96,377.70 331.40,364.95 333.84,353.91 341.15,345.22 343.59,363.98 346.03,358.18 348.47,343.72 358.22,347.75 360.66,351.94 363.10,335.51 365.53,339.96 367.97,343.51 375.29,337.89 377.73,334.93 380.16,335.45 382.60,325.88 385.04,335.38 392.36,329.55 394.79,346.55 397.23,333.82 399.67,329.04 402.11,324.65 409.42,320.88 411.86,328.52 414.30,322.11 416.74,314.76 419.18,338.58 426.49,309.31 428.93,317.47 431.37,319.83 433.81,317.67 436.25,310.32 443.56,310.58 446.00,293.61 448.44,298.22 450.88,295.77 453.32,304.47 460.63,304.71 463.07,334.75 465.51,339.33 467.95,343.68 470.38,322.69 477.70,325.64 480.14,318.50 482.58,314.39 485.01,303.46 487.45,326.87 497.21,331.32 499.64,327.82 502.08,326.81 504.52,332.41 511.84,327.85 514.27,321.44 516.71,294.61 519.15,301.68 521.59,303.48 528.90,292.66 531.34,290.15 533.78,299.73 536.22,265.83 538.66,274.55 545.97,275.19 548.41,270.30 550.85,260.76 553.29,248.71 555.73,240.38 563.04,252.40 565.48,254.86 567.92,237.92 570.36,228.86 572.79,227.97 580.11,225.92 582.55,229.43 584.99,218.62 587.42,214.73 589.86,249.04 597.18,212.50 599.62,233.71 602.05,218.99 604.49,214.35 606.93,217.77 614.25,212.47 616.68,221.93 619.12,227.81 621.56,213.18 624.00,200.12 631.32,179.54 633.75,165.04 636.19,152.87 638.63,169.81 641.07,172.34 648.38,173.85 650.82,206.36 653.26,186.04 655.70,209.52 658.14,217.06 665.45,194.98 667.89,194.37 670.33,175.56 672.77,195.01 675.21,196.40 682.52,205.35 684.96,216.47 687.40,201.83 689.84,236.65 692.27,224.17 699.59,179.89 702.03,180.31 704.47,164.90 709.34,141.18 716.66,156.66 719.10,143.53 721.53,140.98 723.97,159.39 726.41,149.56 733.73,156.88 736.16,155.91 738.60,141.45 741.04,153.22 743.48,181.22 750.79,186.67 753.23,194.85 755.67,221.14 758.11,208.01 760.55,192.02 767.86,192.34 770.30,186.42 772.74,184.35 777.62,183.05 784.93,183.40 787.37,181.27 789.81,190.13 794.68,176.95 802.00,172.51 804.44,174.47 806.88,171.00 809.32,172.62 811.75,173.00 819.07,165.92 821.51,163.13 823.95,162.55 826.38,157.50 828.82,159.08 838.58,180.09 841.01,161.99 843.45,155.73 845.89,163.33 853.21,152.50 855.64,146.67 858.08,140.83 860.52,133.54 862.96,134.34 870.27,113.70 872.71,112.26 875.15,140.50 877.59,152.61 880.03,113.91 887.34,100.00 889.78,112.16 892.22,113.45 894.66,156.26 897.10,150.57 906.85,158.53 909.29,155.40 911.73,163.93 914.16,165.81 921.48,174.67 923.92,149.84 926.36,145.76 928.79,160.22 931.23,164.49 938.55,162.26 940.99,188.00 943.42,176.91 945.86,190.71 948.30,206.48 955.62,196.00 958.05,189.70 960.49,180.44 962.93,197.61 965.37,196.34 972.68,189.24 975.12,204.12 977.56,209.40 980.00,207.99" /><polyline fill="none" stroke="#7c3aed" stroke-width="3" points="90.00,471.47 92.44,474.24 94.88,473.93 102.19,456.83 104.63,454.49 107.07,466.12 109.51,468.68 111.95,488.02 119.26,481.70 121.70,479.03 124.14,473.01 126.58,520.12 129.01,573.32 136.33,574.85 138.77,588.22 141.21,499.94 143.64,540.64 146.08,524.79 153.40,516.02 155.84,518.58 158.27,538.81 160.71,537.54 170.47,558.76 172.90,536.12 175.34,522.29 177.78,503.21 180.22,496.52 187.53,496.16 189.97,490.29 192.41,489.91 194.85,483.26 197.29,469.22 204.60,474.72 207.04,482.70 209.48,478.72 211.92,472.10 214.36,473.32 221.67,441.74 224.11,435.22 226.55,433.95 228.99,429.09 231.42,422.76 238.74,421.66 241.18,425.04 243.62,441.96 246.05,441.57 248.49,448.31 258.25,427.92 260.68,433.71 263.12,429.79 265.56,430.90 272.88,425.28 275.32,419.56 277.75,419.83 280.19,424.71 282.63,414.39 289.95,413.48 292.38,407.72 294.82,410.63 297.26,406.59 299.70,418.02 307.01,408.40 309.45,417.12 311.89,417.27 316.77,419.65 324.08,409.68 326.52,398.42 328.96,397.84 331.40,389.77 333.84,384.61 341.15,379.62 343.59,379.96 346.03,375.20 348.47,366.90 358.22,374.81 360.66,375.39 363.10,369.07 365.53,366.08 367.97,369.82 375.29,367.80 377.73,372.33 380.16,368.80 382.60,362.31 385.04,363.09 392.36,361.07 394.79,360.92 397.23,351.84 399.67,351.48 402.11,346.93 409.42,347.20 411.86,350.05 414.30,351.41 416.74,355.45 419.18,373.05 426.49,357.00 428.93,362.43 431.37,354.26 433.81,355.16 436.25,346.79 443.56,348.93 446.00,337.43 448.44,333.70 450.88,333.60 453.32,336.16 460.63,336.40 463.07,342.33 465.51,345.21 467.95,349.56 470.38,332.98 477.70,337.81 480.14,333.24 482.58,330.74 485.01,326.85 487.45,333.43 497.21,341.54 499.64,335.65 502.08,326.51 504.52,329.71 511.84,327.01 514.27,324.46 516.71,321.27 519.15,312.06 521.59,312.44 528.90,306.49 531.34,308.04 533.78,309.43 536.22,304.20 538.66,298.63 545.97,293.28 548.41,299.46 550.85,303.06 553.29,308.25 555.73,301.83 563.04,298.66 565.48,294.40 567.92,290.54 570.36,289.23 572.79,289.24 580.11,285.16 582.55,289.40 584.99,282.60 587.42,285.92 589.86,316.82 597.18,299.75 599.62,301.13 602.05,296.12 604.49,303.84 606.93,297.45 614.25,285.69 616.68,285.70 619.12,291.65 621.56,284.90 624.00,275.55 631.32,261.95 633.75,258.85 636.19,258.28 638.63,271.16 641.07,267.36 648.38,265.18 650.82,278.98 653.26,274.99 655.70,287.37 658.14,286.25 665.45,268.42 667.89,265.76 670.33,265.11 672.77,284.43 675.21,284.61 682.52,295.27 684.96,304.79 687.40,300.45 689.84,317.65 692.27,306.58 699.59,290.06 702.03,279.35 704.47,271.41 709.34,265.10 716.66,270.41 719.10,268.26 721.53,264.24 723.97,263.39 726.41,261.18 733.73,264.69 736.16,265.69 738.60,257.98 741.04,255.25 743.48,267.87 750.79,269.63 753.23,272.79 755.67,285.52 758.11,276.88 760.55,266.44 767.86,259.20 770.30,253.85 772.74,249.72 777.62,249.84 784.93,254.04 787.37,255.47 789.81,264.17 794.68,262.03 802.00,254.26 804.44,247.28 806.88,251.08 809.32,251.20 811.75,243.42 819.07,241.55 821.51,243.93 823.95,249.75 826.38,246.54 828.82,247.53 838.58,271.58 841.01,258.22 843.45,252.11 845.89,251.68 853.21,245.70 855.64,240.99 858.08,241.11 860.52,243.47 862.96,247.00 870.27,241.13 872.71,251.17 875.15,256.88 877.59,271.51 880.03,249.31 887.34,243.62 889.78,246.75 892.22,247.02 894.66,265.28 897.10,264.46 906.85,262.58 909.29,256.70 911.73,259.80 914.16,251.34 921.48,263.37 923.92,254.89 926.36,244.99 928.79,251.56 931.23,257.22 938.55,256.55 940.99,266.88 943.42,258.69 945.86,265.21 948.30,280.46 955.62,270.40 958.05,272.26 960.49,273.72 962.93,291.26 965.37,297.70 972.68,286.18 975.12,283.18 977.56,299.17 980.00,301.95" />
<line x1="1000" y1="84" x2="1032" y2="84" stroke="#1d4ed8" stroke-width="2.5" /><text x="1042" y="89" font-size="16" fill="#0f172a">configured_baseline</text><line x1="1000" y1="112" x2="1032" y2="112" stroke="#0f766e" stroke-width="2.5" /><text x="1042" y="117" font-size="16" fill="#0f172a">ridge_walkforward</text><line x1="1000" y1="140" x2="1032" y2="140" stroke="#7c3aed" stroke-width="2.5" /><text x="1042" y="145" font-size="16" fill="#0f172a">tree_walkforward</text><line x1="1000" y1="168" x2="1032" y2="168" stroke="#db2777" stroke-width="2.5" /><text x="1042" y="173" font-size="16" fill="#0f172a">mlp_walkforward</text><line x1="1000" y1="196" x2="1032" y2="196" stroke="#b45309" stroke-width="2.5" /><text x="1042" y="201" font-size="16" fill="#0f172a">tcn_walkforward</text><line x1="1000" y1="224" x2="1032" y2="224" stroke="#475569" stroke-width="2.5" /><text x="1042" y="229" font-size="16" fill="#0f172a">hybrid_sequence_walkforward</text><line x1="1000" y1="252" x2="1032" y2="252" stroke="#1d4ed8" stroke-width="2.5" /><text x="1042" y="257" font-size="16" fill="#0f172a">lstm_walkforward</text><line x1="1000" y1="280" x2="1032" y2="280" stroke="#0f766e" stroke-width="2.5" /><text x="1042" y="285" font-size="16" fill="#0f172a">transformer_walkforward</text><line x1="1000" y1="308" x2="1032" y2="308" stroke="#7c3aed" stroke-width="3" /><text x="1042" y="313" font-size="16" fill="#0f172a">benchmark</text>
</svg>
