<svg xmlns="http://www.w3.org/2000/svg" width="1200" height="720" viewBox="0 0 1200 720">
<rect width="1200" height="720" fill="#f8fafc" />
<text x="90" y="32" font-size="28" font-family="Segoe UI, Arial, sans-serif" fill="#0f172a">US Stocks Strategy Value - Last 252 Trading Days</text>
<text x="90" y="54" font-size="15" font-family="Segoe UI, Arial, sans-serif" fill="#475569">Initial capital assumed: $100,000</text>
<rect x="90" y="60" width="890" height="580" fill="#ffffff" stroke="#cbd5e1" />
<line x1="90" y1="640.00" x2="980" y2="640.00" stroke="#e2e8f0" stroke-width="1" /><text x="78" y="645.00" font-size="14" text-anchor="end" fill="#475569">$82,406</text><line x1="90" y1="495.00" x2="980" y2="495.00" stroke="#e2e8f0" stroke-width="1" /><text x="78" y="500.00" font-size="14" text-anchor="end" fill="#475569">$97,369</text><line x1="90" y1="350.00" x2="980" y2="350.00" stroke="#e2e8f0" stroke-width="1" /><text x="78" y="355.00" font-size="14" text-anchor="end" fill="#475569">$112,332</text><line x1="90" y1="205.00" x2="980" y2="205.00" stroke="#e2e8f0" stroke-width="1" /><text x="78" y="210.00" font-size="14" text-anchor="end" fill="#475569">$127,295</text><line x1="90" y1="60.00" x2="980" y2="60.00" stroke="#e2e8f0" stroke-width="1" /><text x="78" y="65.00" font-size="14" text-anchor="end" fill="#475569">$142,258</text>
<line x1="90.00" y1="60" x2="90.00" y2="640" stroke="#f1f5f9" stroke-width="1" /><text x="90.00" y="668" font-size="14" text-anchor="middle" fill="#475569">2025-03-19</text><line x1="536.22" y1="60" x2="536.22" y2="640" stroke="#f1f5f9" stroke-width="1" /><text x="536.22" y="668" font-size="14" text-anchor="middle" fill="#475569">2025-09-18</text><line x1="980.00" y1="60" x2="980.00" y2="640" stroke="#f1f5f9" stroke-width="1" /><text x="980.00" y="668" font-size="14" text-anchor="middle" fill="#475569">2026-03-19</text>
<polyline fill="none" stroke="#1d4ed8" stroke-width="2.5" points="90.00,469.51 92.44,471.45 94.88,466.77 102.19,449.85 104.63,446.08 107.07,453.20 109.51,451.86 111.95,470.33 119.26,466.12 121.70,476.13 124.14,476.78 126.58,501.63 129.01,555.69 136.33,562.20 138.77,575.38 141.21,527.51 143.64,552.98 146.08,538.06 153.40,534.37 155.84,538.14 158.27,545.28 160.71,557.72 170.47,576.66 172.90,563.23 175.34,562.93 177.78,556.74 180.22,552.61 187.53,546.92 189.97,548.83 192.41,552.44 194.85,563.21 197.29,545.55 204.60,548.85 207.04,556.97 209.48,549.17 211.92,550.12 214.36,553.51 221.67,539.30 224.11,534.68 226.55,541.27 228.99,528.47 231.42,520.74 238.74,516.78 241.18,517.40 243.62,527.86 246.05,529.50 248.49,533.62 258.25,520.21 260.68,519.70 263.12,515.30 265.56,505.83 272.88,497.33 275.32,489.75 277.75,484.58 280.19,486.75 282.63,486.58 289.95,486.64 292.38,487.98 294.82,484.38 297.26,485.97 299.70,504.89 307.01,493.13 309.45,497.94 311.89,501.35 316.77,502.53 324.08,491.15 326.52,473.09 328.96,469.10 331.40,456.45 333.84,444.29 341.15,438.06 343.59,459.75 346.03,446.82 348.47,434.42 358.22,444.18 360.66,443.56 363.10,432.80 365.53,430.88 367.97,433.53 375.29,430.87 377.73,415.98 380.16,409.93 382.60,399.15 385.04,411.06 392.36,407.05 394.79,426.78 397.23,413.55 399.67,403.95 402.11,397.00 409.42,387.13 411.86,385.03 414.30,377.57 416.74,368.68 419.18,397.51 426.49,373.20 428.93,379.45 431.37,377.20 433.81,371.97 436.25,364.85 443.56,365.81 446.00,353.14 448.44,359.94 450.88,355.56 453.32,360.25 460.63,360.44 463.07,390.32 465.51,397.35 467.95,400.33 470.38,383.95 477.70,386.11 480.14,378.71 482.58,375.26 485.01,363.24 487.45,388.93 497.21,395.84 499.64,391.10 502.08,385.30 504.52,389.43 511.84,388.05 514.27,369.34 516.71,366.67 519.15,357.01 521.59,362.42 528.90,355.67 531.34,354.67 533.78,350.88 536.22,322.26 538.66,326.27 545.97,329.59 548.41,320.61 550.85,313.55 553.29,303.35 555.73,291.47 563.04,299.46 565.48,306.27 567.92,296.47 570.36,292.47 572.79,294.79 580.11,290.27 582.55,294.57 584.99,291.72 587.42,289.47 589.86,320.11 597.18,290.87 599.62,302.31 602.05,291.14 604.49,294.08 606.93,298.24 614.25,287.54 616.68,293.04 619.12,310.12 621.56,293.60 624.00,275.15 631.32,251.05 633.75,238.36 636.19,236.13 638.63,246.96 641.07,246.61 648.38,237.09 650.82,270.76 653.26,258.24 655.70,285.36 658.14,289.53 665.45,260.25 667.89,269.52 670.33,256.57 672.77,282.72 675.21,283.33 682.52,292.22 684.96,311.49 687.40,296.50 689.84,331.65 692.27,322.81 699.59,278.52 702.03,280.25 704.47,266.52 709.34,247.08 716.66,262.90 719.10,251.04 721.53,247.51 723.97,264.51 726.41,256.05 733.73,261.41 736.16,262.31 738.60,246.70 741.04,254.27 743.48,276.67 750.79,277.79 753.23,288.61 755.67,311.64 758.11,304.03 760.55,290.80 767.86,291.12 770.30,288.88 772.74,285.77 777.62,284.75 784.93,284.86 787.37,283.58 789.81,291.02 794.68,285.44 802.00,277.65 804.44,276.98 806.88,271.56 809.32,275.07 811.75,274.52 819.07,270.48 821.51,274.27 823.95,275.90 826.38,272.12 828.82,277.57 838.58,296.84 841.01,281.78 843.45,271.68 845.89,280.59 853.21,269.02 855.64,265.45 858.08,263.64 860.52,267.71 862.96,268.31 870.27,259.58 872.71,255.54 875.15,249.62 877.59,256.98 880.03,234.53 887.34,229.79 889.78,238.85 892.22,234.45 894.66,251.11 897.10,249.86 906.85,255.53 909.29,249.42 911.73,258.57 914.16,262.42 921.48,262.86 923.92,251.35 926.36,248.88 928.79,256.61 931.23,256.04 938.55,251.83 940.99,272.26 943.42,272.09 945.86,292.17 948.30,290.37 955.62,286.86 958.05,291.18 960.49,292.04 962.93,303.23 965.37,301.50 972.68,293.72 975.12,297.90 977.56,310.81 980.00,320.60" /><polyline fill="none" stroke="#0f766e" stroke-width="2.5" points="90.00,469.51 92.44,469.51 94.88,469.51 102.19,469.51 104.63,469.51 107.07,469.51 109.51,469.51 111.95,469.51 119.26,470.90 121.70,479.53 124.14,475.13 126.58,504.67 129.01,566.35 136.33,565.97 138.77,586.17 141.21,503.84 143.64,544.40 146.08,531.17 153.40,522.90 155.84,526.11 158.27,546.78 160.71,546.68 170.47,567.58 172.90,548.94 175.34,532.25 177.78,512.03 180.22,507.42 187.53,499.72 189.97,499.86 192.41,503.80 194.85,496.94 197.29,477.86 204.60,480.94 207.04,484.60 209.48,474.87 211.92,468.74 214.36,469.64 221.67,447.82 224.11,428.78 226.55,423.23 228.99,414.09 231.42,410.54 238.74,407.77 241.18,408.79 243.62,420.98 246.05,419.94 248.49,425.96 258.25,408.17 260.68,407.41 263.12,399.52 265.56,395.86 272.88,385.26 275.32,379.73 277.75,375.25 280.19,381.48 282.63,380.25 289.95,383.17 292.38,386.65 294.82,385.32 297.26,388.12 299.70,408.84 307.01,397.32 309.45,403.03 311.89,407.91 316.77,405.51 324.08,390.43 326.52,374.12 328.96,377.22 331.40,364.35 333.84,353.20 341.15,345.35 343.59,362.46 346.03,351.20 348.47,334.52 358.22,339.23 360.66,341.31 363.10,325.25 365.53,324.32 367.97,328.87 375.29,321.99 377.73,315.01 380.16,310.02 382.60,303.18 385.04,305.82 392.36,303.75 394.79,320.28 397.23,301.49 399.67,295.31 402.11,288.34 409.42,282.45 411.86,288.63 414.30,281.94 416.74,275.63 419.18,297.14 426.49,267.89 428.93,276.55 431.37,274.78 433.81,267.81 436.25,257.26 443.56,261.85 446.00,241.71 448.44,251.19 450.88,253.61 453.32,263.36 460.63,266.05 463.07,300.91 465.51,303.01 467.95,307.69 470.38,292.26 477.70,297.46 480.14,280.90 482.58,279.58 485.01,268.55 487.45,296.72 497.21,301.59 499.64,301.54 502.08,291.51 504.52,297.83 511.84,291.68 514.27,286.05 516.71,265.35 519.15,273.78 521.59,273.31 528.90,264.24 531.34,261.48 533.78,269.77 536.22,263.17 538.66,261.97 545.97,260.05 548.41,263.98 550.85,269.42 553.29,274.22 555.73,271.73 563.04,272.75 565.48,271.15 567.92,279.00 570.36,283.97 572.79,279.09 580.11,277.61 582.55,278.07 584.99,276.60 587.42,279.31 589.86,303.11 597.18,286.97 599.62,283.78 602.05,283.17 604.49,290.14 606.93,282.64 614.25,275.51 616.68,277.54 619.12,285.16 621.56,279.03 624.00,268.80 631.32,254.88 633.75,249.26 636.19,251.62 638.63,249.76 641.07,251.00 648.38,251.80 650.82,273.97 653.26,269.16 655.70,281.45 658.14,278.18 665.45,259.21 667.89,260.81 670.33,254.06 672.77,267.98 675.21,263.35 682.52,274.34 684.96,279.33 687.40,262.19 689.84,285.30 692.27,279.58 699.59,252.02 702.03,250.54 704.47,237.40 709.34,220.67 716.66,235.26 719.10,224.90 721.53,220.34 723.97,238.75 726.41,231.50 733.73,241.96 736.16,242.31 738.60,228.66 741.04,238.72 743.48,262.80 750.79,266.15 753.23,274.94 755.67,296.55 758.11,286.75 760.55,271.83 767.86,270.90 770.30,264.61 772.74,261.98 777.62,260.94 784.93,260.08 787.37,258.04 789.81,267.64 794.68,253.04 802.00,241.23 804.44,244.37 806.88,244.28 809.32,245.52 811.75,244.09 819.07,245.36 821.51,247.12 823.95,254.63 826.38,244.19 828.82,244.37 838.58,270.20 841.01,251.82 843.45,244.01 845.89,254.79 853.21,244.00 855.64,240.49 858.08,237.87 860.52,229.54 862.96,229.77 870.27,219.62 872.71,223.46 875.15,254.12 877.59,271.45 880.03,240.85 887.34,226.72 889.78,232.65 892.22,239.44 894.66,282.02 897.10,283.95 906.85,284.69 909.29,271.67 911.73,272.15 914.16,266.58 921.48,276.06 923.92,262.66 926.36,252.85 928.79,269.79 931.23,275.36 938.55,273.31 940.99,296.99 943.42,286.79 945.86,299.49 948.30,313.99 955.62,304.36 958.05,298.56 960.49,290.04 962.93,305.84 965.37,304.66 972.68,298.13 975.12,311.83 977.56,316.68 980.00,315.52" /><polyline fill="none" stroke="#7c3aed" stroke-width="2.5" points="90.00,469.51 92.44,469.51 94.88,469.51 102.19,469.51 104.63,469.51 107.07,469.51 109.51,469.51 111.95,469.51 119.26,470.90 121.70,481.50 124.14,478.95 126.58,522.76 129.01,580.63 136.33,584.86 138.77,600.00 141.21,522.26 143.64,559.75 146.08,541.30 153.40,535.41 155.84,538.83 158.27,554.23 160.71,544.34 170.47,560.90 172.90,546.79 175.34,531.37 177.78,514.76 180.22,502.59 187.53,493.74 189.97,493.61 192.41,492.23 194.85,487.91 197.29,469.73 204.60,474.66 207.04,477.98 209.48,471.60 211.92,464.68 214.36,463.63 221.67,445.40 224.11,432.42 226.55,432.49 228.99,422.47 231.42,419.61 238.74,418.66 241.18,419.68 243.62,430.92 246.05,431.07 248.49,434.51 258.25,419.60 260.68,419.83 263.12,414.31 265.56,408.19 272.88,397.72 275.32,392.25 277.75,387.82 280.19,393.98 282.63,392.76 289.95,395.65 292.38,399.09 294.82,397.77 297.26,400.54 299.70,421.02 307.01,409.63 309.45,415.27 311.89,420.10 316.77,417.72 324.08,402.82 326.52,386.71 328.96,389.78 331.40,377.06 333.84,366.04 341.15,357.50 343.59,374.96 346.03,373.70 348.47,359.55 358.22,363.01 360.66,373.22 363.10,359.17 365.53,360.56 367.97,364.33 375.29,353.71 377.73,356.56 380.16,357.13 382.60,351.48 385.04,357.86 392.36,351.66 394.79,365.64 397.23,351.63 399.67,348.14 402.11,341.67 409.42,340.71 411.86,348.06 414.30,341.97 416.74,341.67 419.18,356.55 426.49,332.67 428.93,337.96 431.37,341.34 433.81,337.52 436.25,331.37 443.56,332.17 446.00,314.38 448.44,318.14 450.88,316.63 453.32,322.38 460.63,324.33 463.07,350.61 465.51,351.12 467.95,354.75 470.38,338.44 477.70,345.96 480.14,331.14 482.58,328.00 485.01,318.91 487.45,339.02 497.21,343.83 499.64,354.53 502.08,349.38 504.52,362.17 511.84,358.76 514.27,351.55 516.71,355.48 519.15,355.33 521.59,362.68 528.90,360.44 531.34,352.32 533.78,347.20 536.22,348.72 538.66,354.27 545.97,361.42 548.41,362.39 550.85,361.18 553.29,364.56 555.73,355.91 563.04,363.61 565.48,372.82 567.92,382.03 570.36,387.74 572.79,381.65 580.11,377.85 582.55,381.06 584.99,387.07 587.42,392.15 589.86,408.35 597.18,389.45 599.62,384.97 602.05,381.48 604.49,391.21 606.93,386.74 614.25,377.13 616.68,383.32 619.12,390.17 621.56,384.34 624.00,372.57 631.32,358.68 633.75,362.59 636.19,362.80 638.63,356.48 641.07,356.75 648.38,350.58 650.82,358.64 653.26,354.28 655.70,359.35 658.14,358.41 665.45,343.01 667.89,336.58 670.33,329.12 672.77,341.71 675.21,346.47 682.52,349.80 684.96,354.97 687.40,344.17 689.84,360.97 692.27,351.25 699.59,335.22 702.03,325.37 704.47,320.58 709.34,311.39 716.66,321.47 719.10,325.17 721.53,316.01 723.97,322.36 726.41,322.44 733.73,332.60 736.16,339.65 738.60,320.95 741.04,318.17 743.48,318.95 750.79,310.47 753.23,327.56 755.67,332.78 758.11,328.97 760.55,320.81 767.86,312.87 770.30,308.90 772.74,304.29 777.62,304.73 784.93,304.97 787.37,305.20 789.81,311.28 794.68,298.33 802.00,292.58 804.44,296.12 806.88,291.10 809.32,294.63 811.75,293.91 819.07,289.59 821.51,282.92 823.95,285.67 826.38,275.48 828.82,277.69 838.58,298.75 841.01,280.62 843.45,273.43 845.89,280.17 853.21,270.30 855.64,264.67 858.08,260.26 860.52,255.00 862.96,255.44 870.27,237.45 872.71,238.34 875.15,276.18 877.59,292.19 880.03,263.54 887.34,253.00 889.78,261.59 892.22,279.16 894.66,317.06 897.10,311.96 906.85,303.96 909.29,296.74 911.73,298.22 914.16,286.43 921.48,309.55 923.92,290.60 926.36,282.49 928.79,291.25 931.23,308.30 938.55,306.31 940.99,329.32 943.42,319.40 945.86,331.74 948.30,345.84 955.62,336.48 958.05,330.84 960.49,322.56 962.93,337.91 965.37,336.77 972.68,330.42 975.12,343.73 977.56,348.45 980.00,347.71" /><polyline fill="none" stroke="#db2777" stroke-width="2.5" points="90.00,469.51 92.44,469.51 94.88,469.51 102.19,469.51 104.63,469.51 107.07,469.51 109.51,469.51 111.95,469.51 119.26,470.90 121.70,485.48 124.14,483.96 126.58,500.76 129.01,564.47 136.33,569.41 138.77,587.95 141.21,524.63 143.64,559.67 146.08,550.43 153.40,537.37 155.84,534.70 158.27,553.98 160.71,534.31 170.47,548.75 172.90,528.81 175.34,518.80 177.78,501.43 180.22,496.33 187.53,490.00 189.97,487.31 192.41,489.63 194.85,486.15 197.29,466.16 204.60,470.56 207.04,475.87 209.48,467.49 211.92,457.66 214.36,455.49 221.67,435.59 224.11,421.03 226.55,426.15 228.99,416.41 231.42,412.77 238.74,411.74 241.18,412.31 243.62,425.45 246.05,426.19 248.49,433.73 258.25,416.93 260.68,416.63 263.12,413.51 265.56,410.57 272.88,400.12 275.32,394.66 277.75,390.25 280.19,396.39 282.63,395.17 289.95,398.06 292.38,401.49 294.82,400.17 297.26,402.93 299.70,423.37 307.01,412.01 309.45,417.63 311.89,422.45 316.77,420.08 324.08,405.21 326.52,389.14 328.96,392.19 331.40,379.50 333.84,368.51 341.15,360.76 343.59,379.23 346.03,374.78 348.47,360.53 358.22,362.66 360.66,366.23 363.10,349.47 365.53,348.91 367.97,350.41 375.29,343.01 377.73,338.69 380.16,337.42 382.60,333.23 385.04,334.47 392.36,331.42 394.79,345.84 397.23,329.40 399.67,322.57 402.11,316.29 409.42,312.29 411.86,319.52 414.30,313.17 416.74,303.82 419.18,325.50 426.49,296.63 428.93,304.10 431.37,305.05 433.81,300.56 436.25,293.70 443.56,296.40 446.00,273.63 448.44,280.70 450.88,280.41 453.32,286.79 460.63,290.95 463.07,326.48 465.51,329.36 467.95,334.63 470.38,315.36 477.70,320.65 480.14,305.09 482.58,303.77 485.01,294.65 487.45,322.30 497.21,325.87 499.64,329.86 502.08,320.94 504.52,320.68 511.84,316.44 514.27,313.78 516.71,300.86 519.15,314.31 521.59,318.53 528.90,308.28 531.34,301.55 533.78,311.69 536.22,276.53 538.66,281.70 545.97,292.40 548.41,287.83 550.85,279.58 553.29,275.93 555.73,265.93 563.04,273.76 565.48,279.57 567.92,285.40 570.36,289.03 572.79,286.81 580.11,283.62 582.55,286.74 584.99,285.63 587.42,288.72 589.86,312.50 597.18,294.00 599.62,290.16 602.05,285.59 604.49,291.10 606.93,284.60 614.25,276.27 616.68,281.62 619.12,290.99 621.56,285.66 624.00,271.04 631.32,252.78 633.75,246.98 636.19,247.32 638.63,239.69 641.07,241.11 648.38,239.54 650.82,269.46 653.26,259.45 655.70,282.33 658.14,283.53 665.45,262.81 667.89,268.32 670.33,251.35 672.77,276.09 675.21,274.54 682.52,292.86 684.96,304.60 687.40,287.47 689.84,318.68 692.27,314.98 699.59,285.71 702.03,282.92 704.47,264.94 709.34,244.51 716.66,260.36 719.10,264.92 721.53,253.56 723.97,257.03 726.41,252.11 733.73,253.45 736.16,257.89 738.60,239.49 741.04,234.19 743.48,254.84 750.79,254.80 753.23,269.78 755.67,278.83 758.11,273.91 760.55,259.04 767.86,250.91 770.30,244.06 772.74,238.64 777.62,238.54 784.93,242.26 787.37,243.24 789.81,252.14 794.68,239.80 802.00,233.15 804.44,231.00 806.88,225.93 809.32,233.84 811.75,235.34 819.07,232.19 821.51,234.18 823.95,242.64 826.38,230.25 828.82,231.89 838.58,258.92 841.01,243.91 843.45,235.77 845.89,246.97 853.21,235.09 855.64,231.76 858.08,227.80 860.52,222.77 862.96,224.83 870.27,211.19 872.71,215.01 875.15,252.20 877.59,272.20 880.03,237.73 887.34,229.61 889.78,247.51 892.22,252.20 894.66,279.55 897.10,281.03 906.85,276.35 909.29,268.47 911.73,267.00 914.16,256.70 921.48,271.71 923.92,246.95 926.36,237.99 928.79,258.10 931.23,269.36 938.55,267.30 940.99,291.11 943.42,280.85 945.86,293.62 948.30,308.19 955.62,298.51 958.05,292.68 960.49,284.12 962.93,300.00 965.37,298.82 972.68,292.25 975.12,306.02 977.56,310.90 980.00,309.32" /><polyline fill="none" stroke="#b45309" stroke-width="2.5" points="90.00,469.51 92.44,469.51 94.88,469.51 102.19,469.51 104.63,469.51 107.07,469.51 109.51,469.51 111.95,469.51 119.26,470.90 121.70,476.40 124.14,477.77 126.58,500.26 129.01,549.92 136.33,557.53 138.77,573.81 141.21,523.15 143.64,548.72 146.08,534.68 153.40,527.22 155.84,531.04 158.27,544.30 160.71,538.09 170.47,555.32 172.90,538.26 175.34,533.02 177.78,524.56 180.22,517.04 187.53,511.75 189.97,508.46 192.41,509.76 194.85,506.69 197.29,487.75 204.60,491.50 207.04,500.01 209.48,493.36 211.92,489.16 214.36,489.95 221.67,471.40 224.11,460.62 226.55,466.73 228.99,454.75 231.42,450.32 238.74,446.71 241.18,447.20 243.62,458.62 246.05,458.06 248.49,462.03 258.25,447.05 260.68,447.40 263.12,442.04 265.56,435.08 272.88,425.04 275.32,421.22 277.75,416.92 280.19,421.50 282.63,420.99 289.95,424.11 292.38,427.35 294.82,426.78 297.26,428.42 299.70,446.53 307.01,439.28 309.45,446.58 311.89,454.51 316.77,453.40 324.08,439.21 326.52,424.27 328.96,428.36 331.40,418.33 333.84,406.72 341.15,400.18 343.59,414.06 346.03,399.75 348.47,382.56 358.22,389.98 360.66,396.58 363.10,383.15 365.53,383.48 367.97,386.71 375.29,381.52 377.73,373.40 380.16,369.80 382.60,356.15 385.04,366.64 392.36,364.19 394.79,381.66 397.23,367.32 399.67,361.84 402.11,355.80 409.42,350.33 411.86,354.04 414.30,345.99 416.74,353.46 419.18,383.52 426.49,362.74 428.93,367.32 431.37,365.13 433.81,360.00 436.25,352.17 443.56,356.92 446.00,342.34 448.44,344.71 450.88,344.03 453.32,350.62 460.63,353.66 463.07,383.88 465.51,387.80 467.95,393.74 470.38,375.73 477.70,381.93 480.14,371.85 482.58,369.90 485.01,362.43 487.45,387.01 497.21,391.41 499.64,395.96 502.08,393.07 504.52,400.06 511.84,396.96 514.27,395.26 516.71,369.58 519.15,375.24 521.59,378.93 528.90,371.81 531.34,368.36 533.78,376.06 536.22,343.27 538.66,350.24 545.97,348.78 548.41,347.20 550.85,339.11 553.29,329.96 555.73,325.91 563.04,332.14 565.48,330.41 567.92,321.98 570.36,319.63 572.79,319.29 580.11,313.49 582.55,314.20 584.99,311.18 587.42,319.90 589.86,345.99 597.18,331.82 599.62,330.37 602.05,319.79 604.49,324.61 606.93,314.25 614.25,300.72 616.68,300.75 619.12,308.12 621.56,298.97 624.00,292.87 631.32,272.49 633.75,263.39 636.19,261.59 638.63,265.33 641.07,272.09 648.38,265.43 650.82,298.22 653.26,283.16 655.70,312.87 658.14,312.21 665.45,288.90 667.89,298.00 670.33,283.53 672.77,315.18 675.21,314.68 682.52,334.96 684.96,352.11 687.40,342.85 689.84,377.41 692.27,372.63 699.59,339.26 702.03,344.67 704.47,326.62 709.34,306.07 716.66,323.78 719.10,315.09 721.53,306.15 723.97,318.82 726.41,310.45 733.73,314.70 736.16,320.89 738.60,304.00 741.04,303.23 743.48,327.74 750.79,327.57 753.23,338.86 755.67,354.97 758.11,348.58 760.55,332.88 767.86,328.55 770.30,323.64 772.74,319.06 777.62,318.70 784.93,321.99 787.37,321.15 789.81,330.18 794.68,316.36 802.00,305.19 804.44,308.16 806.88,308.07 809.32,309.25 811.75,307.89 819.07,309.10 821.51,310.76 823.95,317.87 826.38,307.98 828.82,308.16 838.58,332.61 841.01,315.20 843.45,307.82 845.89,318.02 853.21,307.80 855.64,304.48 858.08,302.00 860.52,294.12 862.96,294.75 870.27,282.64 872.71,291.55 875.15,322.53 877.59,336.92 880.03,307.34 887.34,295.02 889.78,302.15 892.22,315.68 894.66,349.78 897.10,348.33 906.85,346.46 909.29,340.91 911.73,344.49 914.16,337.00 921.48,349.94 923.92,334.42 926.36,326.75 928.79,342.72 931.23,352.92 938.55,351.01 940.99,373.11 943.42,363.58 945.86,375.44 948.30,388.98 955.62,379.98 958.05,374.57 960.49,366.62 962.93,381.36 965.37,380.27 972.68,374.17 975.12,386.96 977.56,391.48 980.00,390.40" /><polyline fill="none" stroke="#475569" stroke-width="2.5" points="90.00,469.51 92.44,469.51 94.88,469.51 102.19,469.51 104.63,469.51 107.07,469.51 109.51,469.51 111.95,469.51 119.26,470.90 121.70,479.50 124.14,478.75 126.58,507.65 129.01,562.81 136.33,570.12 138.77,585.46 141.21,533.76 143.64,566.22 146.08,550.48 153.40,542.44 155.84,541.53 158.27,556.22 160.71,532.67 170.47,553.11 172.90,535.86 175.34,530.70 177.78,519.70 180.22,507.61 187.53,503.56 189.97,501.35 192.41,501.74 194.85,500.58 197.29,484.71 204.60,485.68 207.04,491.95 209.48,486.82 211.92,482.67 214.36,484.32 221.67,469.62 224.11,478.24 226.55,479.01 228.99,482.52 231.42,472.35 238.74,460.36 241.18,458.19 243.62,474.34 246.05,476.66 248.49,481.44 258.25,468.53 260.68,466.00 263.12,462.32 265.56,454.35 272.88,444.50 275.32,440.75 277.75,436.54 280.19,441.03 282.63,440.53 289.95,443.59 292.38,446.76 294.82,446.21 297.26,447.82 299.70,465.57 307.01,458.46 309.45,465.62 311.89,473.40 316.77,472.31 324.08,458.40 326.52,443.74 328.96,447.76 331.40,437.91 333.84,426.53 341.15,420.48 343.59,437.24 346.03,426.11 348.47,410.79 358.22,414.67 360.66,416.27 363.10,400.82 365.53,399.54 367.97,401.85 375.29,395.26 377.73,386.86 380.16,382.60 382.60,376.42 385.04,378.83 392.36,377.44 394.79,393.76 397.23,376.90 399.67,369.25 402.11,362.78 409.42,356.13 411.86,361.97 414.30,356.14 416.74,345.91 419.18,360.57 426.49,334.69 428.93,341.82 431.37,343.00 433.81,333.51 436.25,320.90 443.56,326.56 446.00,308.98 448.44,305.32 450.88,308.08 453.32,317.01 460.63,320.57 463.07,341.86 465.51,343.54 467.95,347.92 470.38,326.61 477.70,330.90 480.14,319.02 482.58,318.81 485.01,313.82 487.45,326.66 497.21,329.74 499.64,333.75 502.08,328.63 504.52,338.66 511.84,333.11 514.27,330.43 516.71,303.82 519.15,314.58 521.59,319.09 528.90,311.32 531.34,310.61 533.78,317.42 536.22,311.89 538.66,313.93 545.97,312.01 548.41,312.63 550.85,315.94 553.29,316.72 555.73,316.84 563.04,319.83 565.48,313.81 567.92,308.50 570.36,307.03 572.79,306.11 580.11,300.42 582.55,300.90 584.99,298.64 587.42,300.51 589.86,330.89 597.18,309.18 599.62,314.07 602.05,305.08 604.49,313.18 606.93,306.56 614.25,293.14 616.68,297.74 619.12,308.94 621.56,295.93 624.00,280.83 631.32,256.90 633.75,242.76 636.19,238.87 638.63,239.94 641.07,241.83 648.38,233.35 650.82,250.26 653.26,251.03 655.70,267.72 658.14,266.30 665.45,243.51 667.89,246.70 670.33,236.46 672.77,255.29 675.21,251.63 682.52,264.17 684.96,277.87 687.40,266.26 689.84,290.45 692.27,291.15 699.59,265.71 702.03,261.19 704.47,248.32 709.34,240.31 716.66,255.52 719.10,249.29 721.53,240.58 723.97,255.00 726.41,249.72 733.73,256.91 736.16,262.25 738.60,244.98 741.04,247.68 743.48,270.63 750.79,271.96 753.23,285.83 755.67,298.35 758.11,293.27 760.55,279.29 767.86,273.86 770.30,267.63 772.74,264.48 777.62,263.64 784.93,263.10 787.37,260.45 789.81,269.88 794.68,255.30 802.00,243.52 804.44,246.65 806.88,246.56 809.32,247.80 811.75,246.37 819.07,247.64 821.51,249.39 823.95,256.89 826.38,246.47 828.82,246.65 838.58,272.43 841.01,254.08 843.45,246.29 845.89,257.05 853.21,246.28 855.64,242.78 858.08,240.16 860.52,231.85 862.96,232.52 870.27,220.49 872.71,229.32 875.15,263.10 877.59,281.04 880.03,240.46 887.34,225.76 889.78,229.92 892.22,241.51 894.66,283.04 897.10,279.94 906.85,274.60 909.29,266.59 911.73,272.77 914.16,269.53 921.48,286.26 923.92,268.03 926.36,257.83 928.79,271.11 931.23,294.45 938.55,292.43 940.99,315.73 943.42,305.69 945.86,318.18 948.30,332.45 955.62,322.97 958.05,317.27 960.49,308.89 962.93,324.43 965.37,323.27 972.68,316.85 975.12,330.32 977.56,335.09 980.00,333.55" /><polyline fill="none" stroke="#1d4ed8" stroke-width="2.5" points="90.00,469.51 92.44,469.51 94.88,469.51 102.19,469.51 104.63,469.51 107.07,469.51 109.51,469.51 111.95,469.51 119.26,470.90 121.70,479.49 124.14,475.77 126.58,506.62 129.01,565.60 136.33,566.53 138.77,586.45 141.21,508.21 143.64,549.50 146.08,540.22 153.40,534.21 155.84,540.88 158.27,557.77 160.71,554.81 170.47,574.30 172.90,554.58 175.34,537.85 177.78,519.00 180.22,516.25 187.53,505.85 189.97,505.33 192.41,510.58 194.85,504.76 197.29,486.85 204.60,489.10 207.04,493.12 209.48,495.24 211.92,487.37 214.36,488.68 221.67,469.23 224.11,456.37 226.55,451.57 228.99,443.25 231.42,438.68 238.74,435.88 241.18,437.67 243.62,443.85 246.05,442.13 248.49,448.32 258.25,431.61 260.68,430.63 263.12,427.20 265.56,420.18 272.88,411.25 275.32,407.61 277.75,404.27 280.19,410.41 282.63,410.87 289.95,413.25 292.38,414.26 294.82,412.08 297.26,415.45 299.70,433.39 307.01,426.26 309.45,433.69 311.89,440.68 316.77,439.97 324.08,426.09 326.52,410.56 328.96,414.03 331.40,403.19 333.84,391.57 341.15,384.67 343.59,404.93 346.03,399.60 348.47,386.31 358.22,389.76 360.66,397.70 363.10,382.96 365.53,382.43 367.97,384.00 375.29,373.99 377.73,370.42 380.16,370.84 382.60,365.81 385.04,372.08 392.36,367.27 394.79,383.97 397.23,368.21 399.67,361.93 402.11,356.48 409.42,351.64 411.86,359.92 414.30,351.73 416.74,352.46 419.18,385.09 426.49,359.10 428.93,364.67 431.37,359.65 433.81,355.80 436.25,348.75 443.56,350.69 446.00,333.32 448.44,334.40 450.88,330.01 453.32,335.73 460.63,338.40 463.07,370.25 465.51,377.41 467.95,383.66 470.38,359.47 477.70,361.76 480.14,355.26 482.58,353.70 485.01,342.53 487.45,370.08 497.21,373.55 499.64,385.86 502.08,383.24 504.52,399.03 511.84,398.27 514.27,392.91 516.71,387.45 519.15,385.62 521.59,394.73 528.90,391.46 531.34,384.70 533.78,378.69 536.22,351.13 538.66,360.08 545.97,367.47 548.41,360.17 550.85,350.99 553.29,339.58 555.73,323.84 563.04,337.16 565.48,347.13 567.92,335.74 570.36,332.16 572.79,332.66 580.11,329.16 582.55,332.67 584.99,324.47 587.42,323.44 589.86,351.53 597.18,333.93 599.62,344.04 602.05,334.71 604.49,334.02 606.93,333.00 614.25,329.38 616.68,330.04 619.12,335.93 621.56,326.54 624.00,318.54 631.32,304.56 633.75,286.97 636.19,289.47 638.63,307.02 641.07,309.46 648.38,303.81 650.82,315.85 653.26,312.17 655.70,325.99 658.14,324.44 665.45,312.10 667.89,302.90 670.33,292.36 672.77,300.57 675.21,300.40 682.52,313.06 684.96,322.63 687.40,318.22 689.84,339.13 692.27,332.38 699.59,322.48 702.03,317.40 704.47,309.27 709.34,299.06 716.66,311.97 719.10,314.67 721.53,307.17 723.97,311.20 726.41,306.49 733.73,305.07 736.16,311.32 738.60,292.14 741.04,283.52 743.48,299.28 750.79,299.95 753.23,314.96 755.67,323.96 758.11,322.77 760.55,311.79 767.86,306.03 770.30,302.54 772.74,296.14 777.62,296.48 784.93,300.13 787.37,301.45 789.81,308.34 794.68,294.25 802.00,282.85 804.44,285.89 806.88,285.80 809.32,287.00 811.75,285.61 819.07,286.84 821.51,288.53 823.95,295.78 826.38,285.71 828.82,285.88 838.58,310.82 841.01,293.07 843.45,285.54 845.89,295.94 853.21,285.52 855.64,282.14 858.08,279.61 860.52,271.57 862.96,272.21 870.27,256.49 872.71,265.03 875.15,304.66 877.59,324.24 880.03,289.72 887.34,278.28 889.78,295.44 892.22,305.71 894.66,332.95 897.10,334.31 906.85,331.54 909.29,327.71 911.73,334.41 914.16,327.59 921.48,346.01 923.92,322.56 926.36,311.20 928.79,328.67 931.23,353.54 938.55,351.63 940.99,373.72 943.42,364.20 945.86,376.04 948.30,389.57 955.62,380.59 958.05,375.18 960.49,367.23 962.93,381.97 965.37,380.87 972.68,374.78 975.12,387.56 977.56,392.08 980.00,390.24" /><polyline fill="none" stroke="#0f766e" stroke-width="2.5" points="90.00,469.51 92.44,469.51 94.88,469.51 102.19,469.51 104.63,469.51 107.07,469.51 109.51,469.51 111.95,469.51 119.26,470.90 121.70,484.15 124.14,481.10 126.58,506.38 129.01,563.15 136.33,573.52 138.77,582.97 141.21,537.01 143.64,562.10 146.08,553.58 153.40,541.99 155.84,546.51 158.27,555.47 160.71,524.37 170.47,542.72 172.90,527.71 175.34,522.05 177.78,513.24 180.22,502.67 187.53,494.38 189.97,490.55 192.41,489.38 194.85,485.32 197.29,467.07 204.60,469.43 207.04,472.26 209.48,465.40 211.92,459.82 214.36,460.22 221.67,440.70 224.11,427.83 226.55,426.69 228.99,415.54 231.42,408.74 238.74,405.06 241.18,405.90 243.62,416.81 246.05,416.64 248.49,423.23 258.25,407.67 260.68,406.55 263.12,402.33 265.56,394.54 272.88,383.92 275.32,378.38 277.75,373.90 280.19,380.13 282.63,378.90 289.95,381.83 292.38,385.32 294.82,383.98 297.26,386.78 299.70,407.54 307.01,396.00 309.45,401.71 311.89,406.60 316.77,404.20 324.08,389.09 326.52,372.77 328.96,375.88 331.40,362.99 333.84,351.82 341.15,343.56 343.59,362.52 346.03,356.66 348.47,342.05 358.22,346.12 360.66,350.35 363.10,333.75 365.53,338.25 367.97,341.83 375.29,336.16 377.73,333.17 380.16,333.70 382.60,324.02 385.04,333.62 392.36,327.73 394.79,344.91 397.23,332.04 399.67,327.21 402.11,322.77 409.42,318.97 411.86,326.69 414.30,320.21 416.74,313.32 419.18,337.38 426.49,307.82 428.93,316.07 431.37,318.45 433.81,316.26 436.25,308.84 443.56,309.10 446.00,291.96 448.44,296.62 450.88,294.14 453.32,302.94 460.63,303.17 463.07,333.51 465.51,338.14 467.95,342.53 470.38,321.33 477.70,324.31 480.14,317.10 482.58,312.95 485.01,301.91 487.45,326.10 497.21,330.60 499.64,327.06 502.08,326.04 504.52,331.70 511.84,327.09 514.27,320.62 516.71,293.55 519.15,300.67 521.59,302.49 528.90,291.57 531.34,289.04 533.78,298.71 536.22,264.48 538.66,273.29 545.97,273.94 548.41,269.00 550.85,259.37 553.29,247.20 555.73,238.80 563.04,250.93 565.48,253.84 567.92,236.75 570.36,227.60 572.79,226.71 580.11,224.64 582.55,228.19 584.99,217.28 587.42,213.35 589.86,247.97 597.18,211.10 599.62,232.50 602.05,217.65 604.49,212.96 606.93,216.41 614.25,211.06 616.68,220.62 619.12,226.54 621.56,211.79 624.00,198.61 631.32,177.84 633.75,163.21 636.19,150.93 638.63,168.02 641.07,171.03 648.38,172.55 650.82,205.35 653.26,184.85 655.70,208.53 658.14,216.15 665.45,193.87 667.89,193.26 670.33,174.29 672.77,193.90 675.21,195.31 682.52,204.33 684.96,215.55 687.40,200.78 689.84,235.91 692.27,223.32 699.59,178.65 702.03,179.08 704.47,163.53 709.34,140.06 716.66,155.67 719.10,142.44 721.53,139.86 723.97,158.43 726.41,148.51 733.73,155.90 736.16,154.92 738.60,140.34 741.04,152.21 743.48,180.44 750.79,185.94 753.23,194.18 755.67,220.70 758.11,207.45 760.55,191.33 767.86,191.65 770.30,185.68 772.74,183.59 777.62,182.28 784.93,182.64 787.37,180.49 789.81,190.18 794.68,176.90 802.00,172.43 804.44,174.40 806.88,170.91 809.32,172.54 811.75,172.92 819.07,165.78 821.51,162.97 823.95,162.38 826.38,157.30 828.82,158.89 838.58,180.07 841.01,161.82 843.45,155.51 845.89,163.17 853.21,152.26 855.64,146.39 858.08,140.50 860.52,133.15 862.96,134.59 870.27,113.80 872.71,112.35 875.15,140.80 877.59,152.99 880.03,114.01 887.34,100.00 889.78,112.25 892.22,113.55 894.66,156.67 897.10,150.93 906.85,158.96 909.29,155.80 911.73,164.39 914.16,166.29 921.48,175.21 923.92,150.20 926.36,146.10 928.79,160.65 931.23,165.73 938.55,163.48 940.99,189.40 943.42,178.23 945.86,192.13 948.30,208.00 955.62,197.46 958.05,191.11 960.49,181.79 962.93,199.08 965.37,197.79 972.68,190.64 975.12,205.63 977.56,210.94 980.00,210.11" /><polyline fill="none" stroke="#7c3aed" stroke-width="3" points="90.00,469.51 92.44,472.31 94.88,471.99 102.19,454.68 104.63,452.31 107.07,464.09 109.51,466.68 111.95,486.25 119.26,479.86 121.70,477.15 124.14,471.06 126.58,518.74 129.01,572.59 136.33,574.14 138.77,587.68 141.21,498.31 143.64,539.52 146.08,523.47 153.40,514.60 155.84,517.18 158.27,537.66 160.71,536.38 170.47,557.85 172.90,534.94 175.34,520.94 177.78,501.62 180.22,494.85 187.53,494.49 189.97,488.54 192.41,488.17 194.85,481.43 197.29,467.22 204.60,472.79 207.04,480.87 209.48,476.84 211.92,470.14 214.36,471.37 221.67,439.41 224.11,432.81 226.55,431.52 228.99,426.61 231.42,420.20 238.74,419.08 241.18,422.51 243.62,439.63 246.05,439.24 248.49,446.06 258.25,425.42 260.68,431.28 263.12,427.31 265.56,428.44 272.88,422.75 275.32,416.96 277.75,417.23 280.19,422.17 282.63,411.73 289.95,410.80 292.38,404.98 294.82,407.92 297.26,403.83 299.70,415.40 307.01,405.66 309.45,414.49 311.89,414.64 316.77,417.05 324.08,406.96 326.52,395.56 328.96,394.98 331.40,386.81 333.84,381.59 341.15,376.53 343.59,376.88 346.03,372.06 348.47,363.66 358.22,371.67 360.66,372.25 363.10,365.86 365.53,362.83 367.97,366.61 375.29,364.57 377.73,369.16 380.16,365.58 382.60,359.02 385.04,359.81 392.36,357.76 394.79,357.61 397.23,348.41 399.67,348.05 402.11,343.44 409.42,343.72 411.86,346.61 414.30,347.98 416.74,352.07 419.18,369.88 426.49,353.64 428.93,359.14 431.37,350.87 433.81,351.78 436.25,343.31 443.56,345.47 446.00,333.83 448.44,330.05 450.88,329.95 453.32,332.54 460.63,332.79 463.07,338.78 465.51,341.71 467.95,346.11 470.38,329.33 477.70,334.21 480.14,329.59 482.58,327.06 485.01,323.13 487.45,329.78 497.21,337.99 499.64,332.03 502.08,322.78 504.52,326.01 511.84,323.28 514.27,320.70 516.71,317.47 519.15,308.15 521.59,308.53 528.90,302.52 531.34,304.08 533.78,305.49 536.22,300.19 538.66,294.56 545.97,289.14 548.41,295.40 550.85,299.04 553.29,304.30 555.73,297.80 563.04,294.59 565.48,290.28 567.92,286.37 570.36,285.04 572.79,285.06 580.11,280.92 582.55,285.21 584.99,278.34 587.42,281.70 589.86,312.97 597.18,295.69 599.62,297.09 602.05,292.02 604.49,299.83 606.93,293.37 614.25,281.46 616.68,281.47 619.12,287.49 621.56,280.66 624.00,271.20 631.32,257.43 633.75,254.29 636.19,253.72 638.63,266.75 641.07,262.91 648.38,260.70 650.82,274.66 653.26,270.63 655.70,283.16 658.14,282.02 665.45,263.98 667.89,261.29 670.33,260.63 672.77,280.18 675.21,280.37 682.52,291.16 684.96,300.80 687.40,296.40 689.84,313.81 692.27,302.61 699.59,285.89 702.03,275.04 704.47,267.01 709.34,260.62 716.66,265.99 719.10,263.82 721.53,259.75 723.97,258.89 726.41,256.65 733.73,260.20 736.16,261.22 738.60,253.41 741.04,250.65 743.48,263.43 750.79,265.20 753.23,268.41 755.67,281.28 758.11,272.54 760.55,261.98 767.86,254.65 770.30,249.24 772.74,245.05 777.62,245.17 784.93,249.43 787.37,250.88 789.81,259.68 794.68,257.52 802.00,249.65 804.44,242.58 806.88,246.43 809.32,246.56 811.75,238.67 819.07,236.79 821.51,239.19 823.95,245.09 826.38,241.84 828.82,242.84 838.58,267.18 841.01,253.66 843.45,247.47 845.89,247.04 853.21,240.99 855.64,236.22 858.08,236.34 860.52,238.72 862.96,242.30 870.27,236.36 872.71,246.52 875.15,252.30 877.59,267.11 880.03,244.64 887.34,238.88 889.78,242.04 892.22,242.32 894.66,260.80 897.10,259.97 906.85,258.07 909.29,252.12 911.73,255.25 914.16,246.69 921.48,258.86 923.92,250.29 926.36,240.26 928.79,246.92 931.23,252.64 938.55,251.97 940.99,262.43 943.42,254.13 945.86,260.73 948.30,276.17 955.62,265.99 958.05,267.87 960.49,269.34 962.93,287.10 965.37,293.61 972.68,281.96 975.12,278.92 977.56,295.10 980.00,297.92" />
<line x1="1000" y1="84" x2="1032" y2="84" stroke="#1d4ed8" stroke-width="2.5" /><text x="1042" y="89" font-size="16" fill="#0f172a">configured_baseline</text><line x1="1000" y1="112" x2="1032" y2="112" stroke="#0f766e" stroke-width="2.5" /><text x="1042" y="117" font-size="16" fill="#0f172a">ridge_walkforward</text><line x1="1000" y1="140" x2="1032" y2="140" stroke="#7c3aed" stroke-width="2.5" /><text x="1042" y="145" font-size="16" fill="#0f172a">tree_walkforward</text><line x1="1000" y1="168" x2="1032" y2="168" stroke="#db2777" stroke-width="2.5" /><text x="1042" y="173" font-size="16" fill="#0f172a">mlp_walkforward</text><line x1="1000" y1="196" x2="1032" y2="196" stroke="#b45309" stroke-width="2.5" /><text x="1042" y="201" font-size="16" fill="#0f172a">tcn_walkforward</text><line x1="1000" y1="224" x2="1032" y2="224" stroke="#475569" stroke-width="2.5" /><text x="1042" y="229" font-size="16" fill="#0f172a">hybrid_sequence_walkforward</text><line x1="1000" y1="252" x2="1032" y2="252" stroke="#1d4ed8" stroke-width="2.5" /><text x="1042" y="257" font-size="16" fill="#0f172a">lstm_walkforward</text><line x1="1000" y1="280" x2="1032" y2="280" stroke="#0f766e" stroke-width="2.5" /><text x="1042" y="285" font-size="16" fill="#0f172a">transformer_walkforward</text><line x1="1000" y1="308" x2="1032" y2="308" stroke="#7c3aed" stroke-width="3" /><text x="1042" y="313" font-size="16" fill="#0f172a">benchmark</text>
</svg>
