<svg xmlns="http://www.w3.org/2000/svg" width="1200" height="720" viewBox="0 0 1200 720">
<rect width="1200" height="720" fill="#f8fafc" />
<text x="90" y="32" font-size="28" font-family="Segoe UI, Arial, sans-serif" fill="#0f172a">US Stocks Strategy Value - Last 251 Trading Days</text>
<text x="90" y="54" font-size="15" font-family="Segoe UI, Arial, sans-serif" fill="#475569">Initial capital assumed: $100,000</text>
<rect x="90" y="60" width="890" height="580" fill="#ffffff" stroke="#cbd5e1" />
<line x1="90" y1="640.00" x2="980" y2="640.00" stroke="#e2e8f0" stroke-width="1" /><text x="78" y="645.00" font-size="14" text-anchor="end" fill="#475569">$81,141</text><line x1="90" y1="495.00" x2="980" y2="495.00" stroke="#e2e8f0" stroke-width="1" /><text x="78" y="500.00" font-size="14" text-anchor="end" fill="#475569">$105,289</text><line x1="90" y1="350.00" x2="980" y2="350.00" stroke="#e2e8f0" stroke-width="1" /><text x="78" y="355.00" font-size="14" text-anchor="end" fill="#475569">$129,436</text><line x1="90" y1="205.00" x2="980" y2="205.00" stroke="#e2e8f0" stroke-width="1" /><text x="78" y="210.00" font-size="14" text-anchor="end" fill="#475569">$153,584</text><line x1="90" y1="60.00" x2="980" y2="60.00" stroke="#e2e8f0" stroke-width="1" /><text x="78" y="65.00" font-size="14" text-anchor="end" fill="#475569">$177,731</text>
<line x1="90.00" y1="60" x2="90.00" y2="640" stroke="#f1f5f9" stroke-width="1" /><text x="90.00" y="668" font-size="14" text-anchor="middle" fill="#475569">2025-03-17</text><line x1="535.00" y1="60" x2="535.00" y2="640" stroke="#f1f5f9" stroke-width="1" /><text x="535.00" y="668" font-size="14" text-anchor="middle" fill="#475569">2025-09-15</text><line x1="980.00" y1="60" x2="980.00" y2="640" stroke="#f1f5f9" stroke-width="1" /><text x="980.00" y="668" font-size="14" text-anchor="middle" fill="#475569">2026-03-16</text>
<polyline fill="none" stroke="#1d4ed8" stroke-width="2.5" points="90.00,526.76 92.45,535.20 94.89,529.69 97.34,531.38 99.78,522.41 107.12,508.87 109.56,502.61 112.01,507.85 114.45,508.61 116.90,523.36 124.23,517.31 126.68,514.20 129.12,511.75 131.57,532.78 134.01,565.91 141.35,567.01 143.79,569.44 146.24,530.51 148.68,546.19 151.13,533.79 158.46,532.24 160.91,534.70 163.35,541.81 165.80,534.33 175.58,546.72 178.02,532.84 180.47,528.46 182.91,519.72 185.36,518.49 192.69,518.66 195.14,515.18 197.58,518.27 200.03,501.59 202.47,488.43 209.81,489.28 212.25,493.39 214.70,490.24 217.14,483.81 219.59,483.47 226.92,464.54 229.37,457.75 231.81,456.21 234.26,451.34 236.70,451.23 244.04,448.47 246.48,447.10 248.93,455.05 251.37,455.03 253.82,459.42 263.60,446.66 266.04,447.07 268.49,445.05 270.93,439.89 278.27,431.72 280.71,420.33 283.16,417.70 285.60,420.80 288.05,423.73 295.38,422.97 297.83,420.65 300.27,415.95 302.72,408.98 305.16,420.94 312.50,410.54 314.95,413.97 317.39,407.52 322.28,410.26 329.62,402.21 332.06,387.66 334.51,376.94 336.95,367.59 339.40,366.53 346.73,360.10 349.18,379.34 351.62,373.04 354.07,362.96 363.85,365.45 366.29,364.82 368.74,351.94 371.18,354.36 373.63,355.90 380.96,355.27 383.41,345.97 385.85,347.35 388.30,340.04 390.74,342.54 398.08,338.15 400.52,353.07 402.97,343.07 405.41,334.38 407.86,333.20 415.19,326.12 417.64,330.09 420.08,323.77 422.53,302.26 424.97,329.86 432.31,315.62 434.75,321.51 437.20,307.91 439.64,305.90 442.09,302.98 449.42,305.68 451.87,295.82 454.31,300.35 456.76,292.19 459.20,297.85 466.54,297.29 468.98,316.94 471.43,324.72 473.87,328.04 476.32,314.87 483.65,314.63 486.10,310.25 488.54,306.81 490.99,299.67 493.43,318.29 503.21,322.12 505.66,302.12 508.10,295.98 510.55,305.46 517.88,307.42 520.33,300.96 522.77,302.61 525.22,296.19 527.66,291.46 535.00,278.70 537.45,273.45 539.89,271.30 542.34,271.64 544.78,263.93 552.12,259.84 554.56,258.13 557.01,262.00 559.45,257.54 561.90,253.41 569.23,261.90 571.68,266.18 574.12,261.12 576.57,254.34 579.01,255.18 586.35,256.02 588.79,260.04 591.24,249.63 593.68,251.99 596.13,285.87 603.46,252.16 605.91,267.43 608.35,257.45 610.80,254.73 613.24,250.37 620.58,240.20 623.02,250.45 625.47,255.30 627.91,248.66 630.36,229.76 637.69,206.48 640.14,190.29 642.58,169.39 645.03,172.40 647.47,178.51 654.81,172.88 657.25,187.79 659.70,177.02 662.14,185.57 664.59,193.91 671.92,174.64 674.37,172.23 676.81,179.64 679.26,202.21 681.70,205.42 689.04,204.15 691.48,215.83 693.93,199.44 696.37,214.08 698.82,202.76 706.15,155.38 708.60,143.21 711.04,138.15 715.93,130.00 723.27,138.78 725.71,140.79 728.16,135.30 730.60,140.70 733.05,135.15 740.38,135.86 742.83,126.29 745.27,116.06 747.72,126.38 750.16,157.16 757.50,176.34 759.95,182.05 762.39,196.24 764.84,190.69 767.28,178.68 774.62,175.00 777.06,162.86 779.51,161.63 784.40,161.36 791.73,160.07 794.18,159.25 796.62,165.51 801.51,154.37 808.85,143.06 811.29,152.36 813.74,154.59 816.18,146.49 818.63,141.68 825.96,143.66 828.41,144.73 830.85,143.69 833.30,141.70 835.74,140.87 845.52,163.09 847.97,146.80 850.41,142.06 852.86,142.55 860.19,137.86 862.64,131.47 865.08,125.01 867.53,112.66 869.97,114.42 877.31,104.60 879.75,100.00 882.20,103.89 884.64,115.71 887.09,127.37 894.42,125.51 896.87,137.41 899.31,138.48 901.76,147.13 904.20,148.27 913.98,153.33 916.43,144.69 918.87,146.46 921.32,137.46 928.65,139.75 931.10,135.81 933.54,133.13 935.99,143.07 938.43,126.41 945.77,127.30 948.21,128.51 950.66,133.68 953.10,144.48 955.55,145.86 962.88,142.83 965.33,148.37 967.77,145.14 970.22,147.81 972.66,147.37 980.00,143.45" /><polyline fill="none" stroke="#0f766e" stroke-width="2.5" points="90.00,526.76 92.45,526.76 94.89,526.76 97.34,526.76 99.78,526.76 107.12,526.76 109.56,526.76 112.01,526.76 114.45,526.76 116.90,526.76 124.23,527.33 126.68,522.79 129.12,518.15 131.57,560.54 134.01,591.84 141.35,577.00 143.79,577.54 146.24,505.57 148.68,534.59 151.13,512.70 158.46,514.98 160.91,516.05 163.35,534.51 165.80,542.02 175.58,557.17 178.02,544.27 180.47,526.28 182.91,506.20 185.36,494.77 192.69,499.19 195.14,499.36 197.58,500.04 200.03,491.87 202.47,479.46 209.81,480.46 212.25,484.54 214.70,492.44 217.14,484.82 219.59,486.20 226.92,465.31 229.37,457.42 231.81,451.40 234.26,448.23 236.70,446.34 244.04,444.85 246.48,445.72 248.93,447.19 251.37,445.77 253.82,450.82 263.60,437.43 266.04,437.17 268.49,436.07 270.93,431.56 278.27,421.22 280.71,410.22 283.16,408.51 285.60,419.69 288.05,422.90 295.38,424.43 297.83,421.29 300.27,418.95 302.72,413.23 305.16,425.85 312.50,417.97 314.95,422.11 317.39,416.99 322.28,417.76 329.62,408.68 332.06,396.14 334.51,388.97 336.95,382.26 339.40,380.28 346.73,373.98 349.18,392.87 351.62,386.69 354.07,376.79 363.85,379.24 366.29,378.62 368.74,365.98 371.18,368.34 373.63,369.86 380.96,369.24 383.41,360.11 385.85,361.46 388.30,354.28 390.74,356.74 398.08,352.43 400.52,367.08 402.97,357.26 405.41,348.73 407.86,347.57 415.19,340.62 417.64,344.51 420.08,338.31 422.53,317.56 424.97,344.04 432.31,328.34 434.75,331.70 437.20,315.89 439.64,311.97 442.09,304.69 449.42,307.69 451.87,298.37 454.31,301.00 456.76,292.62 459.20,296.46 466.54,295.12 468.98,313.90 471.43,322.33 473.87,324.99 476.32,306.86 483.65,303.21 486.10,299.17 488.54,297.20 490.99,287.15 493.43,302.90 503.21,304.04 505.66,287.68 508.10,279.81 510.55,263.19 517.88,256.13 520.33,251.37 522.77,231.70 525.22,237.33 527.66,235.46 535.00,220.55 537.45,214.87 539.89,224.36 542.34,223.99 544.78,224.56 552.12,234.89 554.56,234.57 557.01,235.54 559.45,240.07 561.90,238.89 569.23,250.70 571.68,256.69 574.12,256.88 576.57,258.54 579.01,255.80 586.35,247.66 588.79,254.55 591.24,256.35 593.68,262.13 596.13,281.06 603.46,266.72 605.91,269.64 608.35,261.34 610.80,268.09 613.24,262.49 620.58,247.16 623.02,254.99 625.47,258.30 627.91,255.95 630.36,242.42 637.69,224.30 640.14,220.47 642.58,214.29 645.03,211.00 647.47,215.03 654.81,219.43 657.25,228.92 659.70,220.23 662.14,220.67 664.59,224.80 671.92,207.84 674.37,203.25 676.81,209.14 679.26,223.86 681.70,221.60 689.04,221.59 691.48,221.05 693.93,207.93 696.37,217.61 698.82,209.75 706.15,170.31 708.60,164.59 711.04,158.61 715.93,151.95 723.27,160.53 725.71,162.49 728.16,157.13 730.60,162.41 733.05,156.98 740.38,157.68 742.83,148.31 745.27,138.32 747.72,148.41 750.16,178.50 757.50,197.27 759.95,202.85 762.39,216.72 764.84,211.30 767.28,199.55 774.62,195.96 777.06,184.09 779.51,182.88 784.40,182.61 791.73,181.35 794.18,180.55 796.62,186.68 801.51,175.78 808.85,164.72 811.29,173.82 813.74,176.00 816.18,168.07 818.63,163.36 825.96,165.31 828.41,166.35 830.85,165.34 833.30,163.39 835.74,162.58 845.52,184.30 847.97,168.37 850.41,163.74 852.86,164.22 860.19,159.63 862.64,153.38 865.08,147.07 867.53,134.98 869.97,136.23 877.31,140.46 879.75,144.99 882.20,156.77 884.64,173.61 887.09,169.49 894.42,161.22 896.87,168.45 899.31,169.28 901.76,186.20 904.20,196.62 913.98,197.43 916.43,182.10 918.87,182.04 921.32,170.49 928.65,170.80 931.10,168.31 933.54,161.68 935.99,182.00 938.43,181.26 945.77,174.05 948.21,177.52 950.66,172.79 953.10,159.85 955.55,167.17 962.88,156.65 965.33,161.98 967.77,157.54 970.22,165.93 972.66,183.81 980.00,173.48" /><polyline fill="none" stroke="#7c3aed" stroke-width="2.5" points="90.00,526.76 92.45,526.76 94.89,526.76 97.34,526.76 99.78,526.76 107.12,526.76 109.56,526.76 112.01,526.76 114.45,526.76 116.90,526.76 124.23,527.33 126.68,521.56 129.12,519.11 131.57,566.10 134.01,598.91 141.35,586.57 143.79,590.91 146.24,518.13 148.68,554.50 151.13,538.95 158.46,544.74 160.91,545.41 163.35,561.88 165.80,565.22 175.58,581.42 178.02,568.33 180.47,553.30 182.91,534.73 185.36,521.91 192.69,524.02 195.14,523.74 197.58,528.77 200.03,520.98 202.47,509.13 209.81,510.09 212.25,513.98 214.70,521.52 217.14,514.25 219.59,515.56 226.92,495.63 229.37,488.10 231.81,482.36 234.26,479.33 236.70,477.52 244.04,476.10 246.48,476.94 248.93,478.34 251.37,476.98 253.82,481.80 263.60,469.02 266.04,468.78 268.49,467.73 270.93,463.42 278.27,453.55 280.71,443.06 283.16,441.43 285.60,452.10 288.05,455.16 295.38,456.62 297.83,453.63 300.27,451.39 302.72,445.94 305.16,457.98 312.50,450.45 314.95,454.41 317.39,449.52 322.28,450.26 329.62,441.59 332.06,429.63 334.51,422.79 336.95,416.38 339.40,414.50 346.73,408.14 349.18,421.52 351.62,413.34 354.07,401.94 363.85,406.49 366.29,411.84 368.74,402.38 371.18,400.28 373.63,400.22 380.96,399.34 383.41,389.32 385.85,389.23 388.30,379.44 390.74,381.70 398.08,379.90 400.52,391.71 402.97,381.19 405.41,373.36 407.86,370.45 415.19,365.16 417.64,365.24 420.08,356.38 422.53,358.78 424.97,374.32 432.31,353.80 434.75,361.97 437.20,353.20 439.64,356.73 442.09,348.48 449.42,349.83 451.87,334.34 454.31,341.72 456.76,336.70 459.20,340.36 466.54,344.67 468.98,357.43 471.43,361.71 473.87,364.87 476.32,349.57 483.65,348.47 486.10,344.79 488.54,344.31 490.99,333.34 493.43,342.73 503.21,349.72 505.66,346.30 508.10,332.03 510.55,321.09 517.88,310.61 520.33,307.40 522.77,290.83 525.22,296.95 527.66,296.41 535.00,288.96 537.45,288.43 539.89,304.22 542.34,297.04 544.78,297.06 552.12,298.99 554.56,312.94 557.01,313.41 559.45,319.24 561.90,319.49 569.23,317.35 571.68,316.91 574.12,319.75 576.57,322.68 579.01,318.44 586.35,314.41 588.79,317.43 591.24,315.57 593.68,313.87 596.13,334.20 603.46,320.76 605.91,332.95 608.35,332.10 610.80,336.75 613.24,332.47 620.58,328.07 623.02,332.58 625.47,330.99 627.91,326.64 630.36,318.40 637.69,306.82 640.14,294.00 642.58,285.73 645.03,296.02 647.47,299.68 654.81,298.44 657.25,315.62 659.70,311.22 662.14,318.43 664.59,321.12 671.92,295.75 674.37,301.70 676.81,305.05 679.26,324.86 681.70,319.09 689.04,319.20 691.48,324.09 693.93,307.83 696.37,320.92 698.82,319.59 706.15,284.07 708.60,284.98 711.04,277.43 715.93,276.58 723.27,286.57 725.71,290.00 728.16,285.65 730.60,290.62 733.05,284.19 740.38,286.46 742.83,276.92 745.27,265.98 747.72,275.55 750.16,305.51 757.50,321.98 759.95,327.15 762.39,338.34 764.84,329.24 767.28,319.53 774.62,313.60 777.06,301.08 779.51,300.87 784.40,300.22 791.73,299.76 794.18,298.18 796.62,304.11 801.51,294.58 808.85,284.90 811.29,292.86 813.74,294.77 816.18,287.83 818.63,283.71 825.96,285.41 828.41,286.32 830.85,285.44 833.30,283.73 835.74,283.03 845.52,302.04 847.97,288.09 850.41,284.04 852.86,284.46 860.19,280.45 862.64,274.98 865.08,269.45 867.53,258.87 869.97,259.97 877.31,263.67 879.75,267.63 882.20,277.94 884.64,292.68 887.09,289.08 894.42,281.83 896.87,288.16 899.31,288.89 901.76,303.70 904.20,312.82 913.98,313.52 916.43,300.11 918.87,300.06 921.32,289.95 928.65,290.22 931.10,288.04 933.54,282.24 935.99,300.02 938.43,299.38 945.77,293.07 948.21,296.10 950.66,291.96 953.10,280.63 955.55,287.04 962.88,277.84 965.33,282.50 967.77,278.61 970.22,285.96 972.66,301.60 980.00,292.57" /><polyline fill="none" stroke="#db2777" stroke-width="2.5" points="90.00,526.76 92.45,526.76 94.89,526.76 97.34,526.76 99.78,526.76 107.12,526.76 109.56,526.76 112.01,526.76 114.45,526.76 116.90,526.76 124.23,527.33 126.68,519.25 129.12,515.89 131.57,551.75 134.01,578.16 141.35,566.25 143.79,569.53 146.24,493.77 148.68,522.21 151.13,502.94 158.46,504.58 160.91,505.46 163.35,527.41 165.80,537.94 175.58,554.69 178.02,542.74 180.47,524.96 182.91,502.14 185.36,488.23 192.69,492.75 195.14,492.68 197.58,493.51 200.03,481.26 202.47,464.59 209.81,465.19 212.25,471.56 214.70,465.80 217.14,460.56 219.59,461.87 226.92,433.58 229.37,422.15 231.81,421.09 234.26,420.29 236.70,421.52 244.04,420.30 246.48,419.50 248.93,426.14 251.37,426.68 253.82,432.02 263.60,418.58 266.04,417.46 268.49,415.46 270.93,410.06 278.27,400.98 280.71,393.23 283.16,394.87 285.60,404.69 288.05,405.98 295.38,407.50 297.83,402.21 300.27,395.11 302.72,391.18 305.16,396.72 312.50,391.28 314.95,392.53 317.39,390.08 322.28,386.58 329.62,382.03 332.06,378.99 334.51,379.31 336.95,370.67 339.40,372.82 346.73,369.67 349.18,381.24 351.62,377.45 354.07,367.60 363.85,371.87 366.29,375.34 368.74,366.41 371.18,363.94 373.63,365.63 380.96,364.65 383.41,360.32 385.85,362.06 388.30,355.94 390.74,355.54 398.08,354.56 400.52,362.75 402.97,352.88 405.41,347.68 407.86,346.17 415.19,342.06 417.64,348.70 420.08,344.15 422.53,319.80 424.97,335.40 432.31,315.37 434.75,325.08 437.20,319.18 439.64,320.81 442.09,316.34 449.42,317.26 451.87,305.51 454.31,314.25 456.76,309.34 459.20,317.35 466.54,316.50 468.98,333.37 471.43,336.50 473.87,338.69 476.32,328.45 483.65,328.33 486.10,322.30 488.54,318.80 490.99,312.69 493.43,328.24 503.21,330.99 505.66,331.89 508.10,317.68 510.55,306.77 517.88,296.50 520.33,294.67 522.77,282.15 525.22,288.81 527.66,288.95 535.00,281.02 537.45,273.07 539.89,282.75 542.34,284.76 544.78,287.21 552.12,298.42 554.56,303.43 557.01,301.25 559.45,306.21 561.90,304.26 569.23,311.10 571.68,317.80 574.12,314.97 576.57,311.08 579.01,309.11 586.35,307.28 588.79,310.80 591.24,302.61 593.68,303.67 596.13,332.58 603.46,300.00 605.91,314.44 608.35,307.40 610.80,305.05 613.24,301.94 620.58,299.29 623.02,309.24 625.47,307.12 627.91,299.57 630.36,285.22 637.69,266.98 640.14,253.61 642.58,232.10 645.03,239.47 647.47,245.38 654.81,242.42 657.25,252.84 659.70,251.68 662.14,262.22 664.59,259.86 671.92,245.65 674.37,244.94 676.81,249.01 679.26,265.64 681.70,261.17 689.04,266.51 691.48,280.03 693.93,277.24 696.37,290.39 698.82,293.46 706.15,267.55 708.60,261.96 711.04,251.59 715.93,240.62 723.27,250.36 725.71,255.24 728.16,250.36 730.60,251.58 733.05,247.94 740.38,245.42 742.83,247.43 745.27,231.50 747.72,231.29 750.16,259.90 757.50,275.61 759.95,282.82 762.39,288.55 764.84,283.97 767.28,274.14 774.62,265.85 777.06,253.81 779.51,251.35 784.40,251.08 791.73,253.26 794.18,251.99 796.62,258.47 801.51,248.40 808.85,238.19 811.29,246.59 813.74,248.60 816.18,241.28 818.63,236.93 825.96,238.73 828.41,239.69 830.85,238.76 833.30,236.96 835.74,236.21 845.52,256.27 847.97,241.56 850.41,237.28 852.86,237.72 860.19,233.49 862.64,227.71 865.08,221.88 867.53,210.72 869.97,211.87 877.31,215.78 879.75,219.96 882.20,230.84 884.64,246.40 887.09,242.60 894.42,234.95 896.87,241.63 899.31,242.39 901.76,258.03 904.20,267.65 913.98,268.40 916.43,254.24 918.87,254.18 921.32,243.51 928.65,243.80 931.10,241.50 933.54,235.38 935.99,254.14 938.43,253.05 945.77,245.73 948.21,251.49 950.66,251.97 953.10,257.08 955.55,261.67 962.88,253.72 965.33,255.38 967.77,250.21 970.22,252.47 972.66,255.77 980.00,250.85" /><polyline fill="none" stroke="#b45309" stroke-width="3" points="90.00,526.76 92.45,533.25 94.89,526.78 97.34,528.52 99.78,528.32 107.12,517.59 109.56,516.13 112.01,523.42 114.45,525.03 116.90,537.15 124.23,533.19 126.68,531.51 129.12,527.74 131.57,557.29 134.01,590.65 141.35,591.61 143.79,600.00 146.24,544.63 148.68,570.16 151.13,560.22 158.46,554.72 160.91,556.32 163.35,569.01 165.80,568.22 175.58,581.52 178.02,567.32 180.47,558.65 182.91,546.68 185.36,542.48 192.69,542.26 195.14,538.58 197.58,538.34 200.03,534.17 202.47,525.37 209.81,528.82 212.25,533.82 214.70,531.32 217.14,527.17 219.59,527.94 226.92,508.13 229.37,504.04 231.81,503.25 234.26,500.20 236.70,496.23 244.04,495.54 246.48,497.66 248.93,508.27 251.37,508.02 253.82,512.25 263.60,499.47 266.04,503.10 268.49,500.63 270.93,501.33 278.27,497.81 280.71,494.22 283.16,494.39 285.60,497.45 288.05,490.98 295.38,490.41 297.83,486.80 300.27,488.62 302.72,486.08 305.16,493.25 312.50,487.22 314.95,492.69 317.39,492.79 322.28,494.28 329.62,488.02 332.06,480.96 334.51,480.60 336.95,475.54 339.40,472.30 346.73,469.17 349.18,469.38 351.62,466.40 354.07,461.19 363.85,466.16 366.29,466.52 368.74,462.56 371.18,460.68 373.63,463.03 380.96,461.76 383.41,464.60 385.85,462.39 388.30,458.32 390.74,458.81 398.08,457.54 400.52,457.44 402.97,451.75 405.41,451.52 407.86,448.67 415.19,448.84 417.64,450.63 420.08,451.48 422.53,454.02 424.97,465.05 432.31,454.98 434.75,458.39 437.20,453.27 439.64,453.83 442.09,448.58 449.42,449.93 451.87,442.71 454.31,440.37 456.76,440.31 459.20,441.92 466.54,442.06 468.98,445.78 471.43,447.59 473.87,450.32 476.32,439.92 483.65,442.95 486.10,440.08 488.54,438.52 490.99,436.08 493.43,440.20 503.21,445.29 505.66,441.60 508.10,435.87 510.55,437.87 517.88,436.17 520.33,434.58 522.77,432.57 525.22,426.80 527.66,427.04 535.00,423.31 537.45,424.28 539.89,425.15 542.34,421.87 544.78,418.38 552.12,415.02 554.56,418.90 557.01,421.15 559.45,424.41 561.90,420.39 569.23,418.40 571.68,415.73 574.12,413.30 576.57,412.48 579.01,412.49 586.35,409.93 588.79,412.59 591.24,408.33 593.68,410.41 596.13,429.78 603.46,419.08 605.91,419.95 608.35,416.81 610.80,421.65 613.24,417.64 620.58,410.26 623.02,410.27 625.47,414.00 627.91,409.77 630.36,403.91 637.69,395.37 640.14,393.43 642.58,393.08 645.03,401.15 647.47,398.77 654.81,397.40 657.25,406.05 659.70,403.55 662.14,411.32 664.59,410.61 671.92,399.43 674.37,397.76 676.81,397.36 679.26,409.47 681.70,409.59 689.04,416.27 691.48,422.24 693.93,419.52 696.37,430.31 698.82,423.36 706.15,413.00 708.60,406.29 711.04,401.31 715.93,397.35 723.27,400.68 725.71,399.33 728.16,396.81 730.60,396.28 733.05,394.89 740.38,397.09 742.83,397.72 745.27,392.88 747.72,391.17 750.16,399.09 757.50,400.19 759.95,402.17 762.39,410.15 764.84,404.74 767.28,398.19 774.62,393.65 777.06,390.30 779.51,387.70 784.40,387.78 791.73,390.41 794.18,391.31 796.62,396.77 801.51,395.43 808.85,390.55 811.29,386.17 813.74,388.56 816.18,388.63 818.63,383.75 825.96,382.58 828.41,384.07 830.85,387.72 833.30,385.71 835.74,386.33 845.52,401.41 847.97,393.04 850.41,389.20 852.86,388.93 860.19,385.19 862.64,382.23 865.08,382.30 867.53,383.78 869.97,386.00 877.31,382.31 879.75,388.61 882.20,392.19 884.64,401.37 887.09,387.45 894.42,383.88 896.87,385.84 899.31,386.01 901.76,397.46 904.20,396.95 913.98,395.77 916.43,392.08 918.87,394.02 921.32,388.72 928.65,396.26 931.10,390.95 933.54,384.74 935.99,388.86 938.43,392.41 945.77,391.99 948.21,398.47 950.66,393.33 953.10,397.42 955.55,406.98 962.88,400.68 965.33,401.84 967.77,402.75 970.22,413.75 972.66,417.79 980.00,410.57" />
<line x1="1000" y1="84" x2="1032" y2="84" stroke="#1d4ed8" stroke-width="2.5" /><text x="1042" y="89" font-size="16" fill="#0f172a">configured_baseline</text><line x1="1000" y1="112" x2="1032" y2="112" stroke="#0f766e" stroke-width="2.5" /><text x="1042" y="117" font-size="16" fill="#0f172a">ridge_walkforward</text><line x1="1000" y1="140" x2="1032" y2="140" stroke="#7c3aed" stroke-width="2.5" /><text x="1042" y="145" font-size="16" fill="#0f172a">tree_walkforward</text><line x1="1000" y1="168" x2="1032" y2="168" stroke="#db2777" stroke-width="2.5" /><text x="1042" y="173" font-size="16" fill="#0f172a">mlp_walkforward</text><line x1="1000" y1="196" x2="1032" y2="196" stroke="#b45309" stroke-width="3" /><text x="1042" y="201" font-size="16" fill="#0f172a">benchmark</text>
</svg>
